<svg version="1.1" viewBox="0.0 0.0 707.0 448.0" fill="none" stroke="none" stroke-linecap="square" stroke-miterlimit="10" width="707" height="448" xmlns:xlink="http://www.w3.org/1999/xlink" xmlns="http://www.w3.org/2000/svg"><path fill="#ffffff" d="M0 0L707.0 0L707.0 448.0L0 448.0L0 0Z" fill-rule="nonzero"/><path stroke="#333333" stroke-width="1.0" stroke-linecap="butt" d="M94.5 405.5L684.5 405.5" fill-rule="nonzero"/><path stroke="#cccccc" stroke-width="1.0" stroke-linecap="butt" d="M94.5 293.5L684.5 293.5" fill-rule="nonzero"/><path stroke="#cccccc" stroke-width="1.0" stroke-linecap="butt" d="M94.5 180.5L684.5 180.5" fill-rule="nonzero"/><path stroke="#cccccc" stroke-width="1.0" stroke-linecap="butt" d="M94.5 68.5L684.5 68.5" fill-rule="nonzero"/><path stroke="#eeeeee" stroke-width="1.0" stroke-linecap="butt" d="M264.5 68.333336L264.5 405.6" fill-rule="nonzero"/><path stroke="#eeeeee" stroke-width="1.0" stroke-linecap="butt" d="M515.5 68.333336L515.5 405.6" fill-rule="nonzero"/><clipPath id="id_0"><path d="M94.4 68.333336L684.6 68.333336L684.6 405.6L94.4 405.6L94.4 68.333336Z" clip-rule="nonzero"/></clipPath><path stroke="#000000" stroke-width="2.0" stroke-linecap="butt" stroke-opacity="0.0" clip-path="url(#id_0)" d="M346.0 406.0L183.0 406.0L183.0 83.0C183.0 81.89543 183.89543 81.0 185.0 81.0L344.0 81.0C345.10458 81.0 346.0 81.89543 346.0 83.0Z" fill-rule="nonzero"/><path fill="#4285f4" clip-path="url(#id_0)" d="M346.0 406.0L183.0 406.0L183.0 83.0C183.0 81.89543 183.89543 81.0 185.0 81.0L344.0 81.0C345.10458 81.0 346.0 81.89543 346.0 83.0Z" fill-rule="nonzero"/><path stroke="#000000" stroke-width="2.0" stroke-linecap="butt" stroke-opacity="0.0" clip-path="url(#id_0)" d="M597.0 406.0L434.0 406.0L434.0 260.0C434.0 258.89542 434.89542 258.0 436.0 258.0L595.0 258.0C596.10455 258.0 597.0 258.89542 597.0 260.0Z" fill-rule="nonzero"/><path fill="#4285f4" clip-path="url(#id_0)" d="M597.0 406.0L434.0 406.0L434.0 260.0C434.0 258.89542 434.89542 258.0 436.0 258.0L595.0 258.0C596.10455 258.0 597.0 258.89542 597.0 260.0Z" fill-rule="nonzero"/><path stroke="#ffffff" stroke-width="3.0" stroke-linejoin="round" stroke-linecap="round" d="M274.98438 234.40416L275.28125 233.27916Q276.67188 233.63853 277.40625 234.56041Q278.14062 235.48228 278.14062 236.82603Q278.14062 238.21666 277.57812 239.09166Q277.01562 239.96666 275.95312 240.41978Q274.875 240.87291 273.64062 240.87291Q272.29688 240.87291 271.29688 240.35728Q270.29688 239.84166 269.78125 238.90416Q269.26562 237.95103 269.26562 236.81041Q269.26562 235.52916 269.92188 234.65416Q270.57812 233.76353 271.76562 233.41978L272.03125 234.54478Q271.09375 234.84166 270.67188 235.41978Q270.23438 235.98228 270.23438 236.84166Q270.23438 237.82603 270.71875 238.49791Q271.1875 239.15416 271.98438 239.43541Q272.78125 239.70103 273.64062 239.70103Q274.73438 239.70103 275.54688 239.38853Q276.35938 239.06041 276.76562 238.38853Q277.17188 237.71666 277.17188 236.91978Q277.17188 235.96666 276.625 235.31041Q276.07812 234.63853 274.98438 234.40416Z" fill-rule="nonzero"/><path fill="#808080" d="M274.98438 234.40416L275.28125 233.27916Q276.67188 233.63853 277.40625 234.56041Q278.14062 235.48228 278.14062 236.82603Q278.14062 238.21666 277.57812 239.09166Q277.01562 239.96666 275.95312 240.41978Q274.875 240.87291 273.64062 240.87291Q272.29688 240.87291 271.29688 240.35728Q270.29688 239.84166 269.78125 238.90416Q269.26562 237.95103 269.26562 236.81041Q269.26562 235.52916 269.92188 234.65416Q270.57812 233.76353 271.76562 233.41978L272.03125 234.54478Q271.09375 234.84166 270.67188 235.41978Q270.23438 235.98228 270.23438 236.84166Q270.23438 237.82603 270.71875 238.49791Q271.1875 239.15416 271.98438 239.43541Q272.78125 239.70103 273.64062 239.70103Q274.73438 239.70103 275.54688 239.38853Q276.35938 239.06041 276.76562 238.38853Q277.17188 237.71666 277.17188 236.91978Q277.17188 235.96666 276.625 235.31041Q276.07812 234.63853 274.98438 234.40416Z" fill-rule="nonzero"/><path stroke="#ffffff" stroke-width="3.0" stroke-linejoin="round" stroke-linecap="round" d="M529.0 256.87292L525.7656 254.60728L522.78125 256.70105L522.78125 255.38853L524.2344 254.43541Q524.65625 254.16978 524.9375 253.99791Q524.5469 253.74791 524.25 253.52916L522.78125 252.48228L522.78125 251.21666L525.7031 253.37291L529.0 251.06041L529.0 252.34166L527.0625 253.62291L526.5469 253.96666L529.0 255.60728L529.0 256.87292ZM524.34375 249.84166Q524.09375 250.49791 523.65625 250.82603Q523.2031 251.13853 522.59375 251.13853Q521.65625 251.13853 521.0156 250.46666Q520.375 249.77916 520.375 248.66978Q520.375 247.54478 521.03125 246.85728Q521.6875 246.16978 522.625 246.16978Q523.21875 246.16978 523.65625 246.48228Q524.09375 246.79478 524.34375 247.43541Q524.59375 246.63853 525.1719 246.23228Q525.75 245.82603 526.5469 245.82603Q527.6406 245.82603 528.3906 246.60728Q529.1406 247.37291 529.1406 248.65416Q529.1406 249.91978 528.3906 250.70103Q527.6406 251.48228 526.5156 251.48228Q525.6719 251.48228 525.1094 251.06041Q524.5469 250.62291 524.34375 249.84166ZM522.5469 250.06041Q523.15625 250.06041 523.5469 249.66978Q523.9375 249.26353 523.9375 248.63853Q523.9375 248.02916 523.5625 247.63853Q523.1719 247.24791 522.6094 247.24791Q522.03125 247.24791 521.6406 247.65416Q521.2344 248.06041 521.2344 248.65416Q521.2344 249.26353 521.625 249.66978Q522.0156 250.06041 522.5469 250.06041ZM526.5156 250.38853Q526.96875 250.38853 527.3906 250.18541Q527.8125 249.96666 528.0469 249.54478Q528.28125 249.12291 528.28125 248.63853Q528.28125 247.88853 527.7969 247.40416Q527.3125 246.90416 526.5625 246.90416Q525.7969 246.90416 525.2969 247.40416Q524.7969 247.90416 524.7969 248.66978Q524.7969 249.41978 525.2969 249.90416Q525.78125 250.38853 526.5156 250.38853ZM522.5156 238.99791L522.59375 240.04478Q521.96875 240.18541 521.6875 240.43541Q521.2344 240.87291 521.2344 241.49791Q521.2344 241.99791 521.5156 242.38853Q521.8906 242.87291 522.59375 243.16978Q523.28125 243.45103 524.5625 243.46666Q523.9844 243.09166 523.7031 242.54478Q523.4219 241.98228 523.4219 241.37291Q523.4219 240.32603 524.2031 239.59166Q524.9844 238.84166 526.2031 238.84166Q527.0156 238.84166 527.71875 239.20103Q528.40625 239.54478 528.78125 240.15416Q529.1406 240.76353 529.1406 241.52916Q529.1406 242.85728 528.1719 243.68541Q527.2031 244.51353 524.9844 244.51353Q522.4844 244.51353 521.3594 243.59166Q520.375 242.79478 520.375 241.43541Q520.375 240.41978 520.9531 239.77916Q521.5156 239.12291 522.5156 238.99791ZM526.21875 243.29478Q526.7656 243.29478 527.2656 243.07603Q527.75 242.84166 528.0156 242.43541Q528.28125 242.01353 528.28125 241.54478Q528.28125 240.88853 527.75 240.40416Q527.2031 239.91978 526.28125 239.91978Q525.3906 239.91978 524.875 240.40416Q524.3594 240.87291 524.3594 241.59166Q524.3594 242.31041 524.875 242.81041Q525.3906 243.29478 526.21875 243.29478ZM531.3906 238.15416L530.625 238.15416L530.625 231.15416L531.3906 231.15416L531.3906 238.15416ZM522.5156 224.99791L522.59375 226.04478Q521.96875 226.18541 521.6875 226.43541Q521.2344 226.87291 521.2344 227.49791Q521.2344 227.99791 521.5156 228.38853Q521.8906 228.87291 522.59375 229.16978Q523.28125 229.45103 524.5625 229.46666Q523.9844 229.09166 523.7031 228.54478Q523.4219 227.98228 523.4219 227.37291Q523.4219 226.32603 524.2031 225.59166Q524.9844 224.84166 526.2031 224.84166Q527.0156 224.84166 527.71875 225.20103Q528.40625 225.54478 528.78125 226.15416Q529.1406 226.76353 529.1406 227.52916Q529.1406 228.85728 528.1719 229.68541Q527.2031 230.51353 524.9844 230.51353Q522.4844 230.51353 521.3594 229.59166Q520.375 228.79478 520.375 227.43541Q520.375 226.41978 520.9531 225.77916Q521.5156 225.12291 522.5156 224.99791ZM526.21875 229.29478Q526.7656 229.29478 527.2656 229.07603Q527.75 228.84166 528.0156 228.43541Q528.28125 228.01353 528.28125 227.54478Q528.28125 226.88853 527.75 226.40416Q527.2031 225.91978 526.28125 225.91978Q525.3906 225.91978 524.875 226.40416Q524.3594 226.87291 524.3594 227.59166Q524.3594 228.31041 524.875 228.81041Q525.3906 229.29478 526.21875 229.29478ZM529.0 220.09166L526.9375 220.09166L526.9375 223.81041L525.96875 223.81041L520.40625 219.88853L520.40625 219.02916L525.96875 219.02916L525.96875 217.87291L526.9375 217.87291L526.9375 219.02916L529.0 219.02916L529.0 220.09166ZM525.96875 220.09166L522.1094 220.09166L525.96875 222.77916L525.96875 220.09166Z" fill-rule="nonzero"/><path fill="#808080" d="M529.0 256.87292L525.7656 254.60728L522.78125 256.70105L522.78125 255.38853L524.2344 254.43541Q524.65625 254.16978 524.9375 253.99791Q524.5469 253.74791 524.25 253.52916L522.78125 252.48228L522.78125 251.21666L525.7031 253.37291L529.0 251.06041L529.0 252.34166L527.0625 253.62291L526.5469 253.96666L529.0 255.60728L529.0 256.87292ZM524.34375 249.84166Q524.09375 250.49791 523.65625 250.82603Q523.2031 251.13853 522.59375 251.13853Q521.65625 251.13853 521.0156 250.46666Q520.375 249.77916 520.375 248.66978Q520.375 247.54478 521.03125 246.85728Q521.6875 246.16978 522.625 246.16978Q523.21875 246.16978 523.65625 246.48228Q524.09375 246.79478 524.34375 247.43541Q524.59375 246.63853 525.1719 246.23228Q525.75 245.82603 526.5469 245.82603Q527.6406 245.82603 528.3906 246.60728Q529.1406 247.37291 529.1406 248.65416Q529.1406 249.91978 528.3906 250.70103Q527.6406 251.48228 526.5156 251.48228Q525.6719 251.48228 525.1094 251.06041Q524.5469 250.62291 524.34375 249.84166ZM522.5469 250.06041Q523.15625 250.06041 523.5469 249.66978Q523.9375 249.26353 523.9375 248.63853Q523.9375 248.02916 523.5625 247.63853Q523.1719 247.24791 522.6094 247.24791Q522.03125 247.24791 521.6406 247.65416Q521.2344 248.06041 521.2344 248.65416Q521.2344 249.26353 521.625 249.66978Q522.0156 250.06041 522.5469 250.06041ZM526.5156 250.38853Q526.96875 250.38853 527.3906 250.18541Q527.8125 249.96666 528.0469 249.54478Q528.28125 249.12291 528.28125 248.63853Q528.28125 247.88853 527.7969 247.40416Q527.3125 246.90416 526.5625 246.90416Q525.7969 246.90416 525.2969 247.40416Q524.7969 247.90416 524.7969 248.66978Q524.7969 249.41978 525.2969 249.90416Q525.78125 250.38853 526.5156 250.38853ZM522.5156 238.99791L522.59375 240.04478Q521.96875 240.18541 521.6875 240.43541Q521.2344 240.87291 521.2344 241.49791Q521.2344 241.99791 521.5156 242.38853Q521.8906 242.87291 522.59375 243.16978Q523.28125 243.45103 524.5625 243.46666Q523.9844 243.09166 523.7031 242.54478Q523.4219 241.98228 523.4219 241.37291Q523.4219 240.32603 524.2031 239.59166Q524.9844 238.84166 526.2031 238.84166Q527.0156 238.84166 527.71875 239.20103Q528.40625 239.54478 528.78125 240.15416Q529.1406 240.76353 529.1406 241.52916Q529.1406 242.85728 528.1719 243.68541Q527.2031 244.51353 524.9844 244.51353Q522.4844 244.51353 521.3594 243.59166Q520.375 242.79478 520.375 241.43541Q520.375 240.41978 520.9531 239.77916Q521.5156 239.12291 522.5156 238.99791ZM526.21875 243.29478Q526.7656 243.29478 527.2656 243.07603Q527.75 242.84166 528.0156 242.43541Q528.28125 242.01353 528.28125 241.54478Q528.28125 240.88853 527.75 240.40416Q527.2031 239.91978 526.28125 239.91978Q525.3906 239.91978 524.875 240.40416Q524.3594 240.87291 524.3594 241.59166Q524.3594 242.31041 524.875 242.81041Q525.3906 243.29478 526.21875 243.29478ZM531.3906 238.15416L530.625 238.15416L530.625 231.15416L531.3906 231.15416L531.3906 238.15416ZM522.5156 224.99791L522.59375 226.04478Q521.96875 226.18541 521.6875 226.43541Q521.2344 226.87291 521.2344 227.49791Q521.2344 227.99791 521.5156 228.38853Q521.8906 228.87291 522.59375 229.16978Q523.28125 229.45103 524.5625 229.46666Q523.9844 229.09166 523.7031 228.54478Q523.4219 227.98228 523.4219 227.37291Q523.4219 226.32603 524.2031 225.59166Q524.9844 224.84166 526.2031 224.84166Q527.0156 224.84166 527.71875 225.20103Q528.40625 225.54478 528.78125 226.15416Q529.1406 226.76353 529.1406 227.52916Q529.1406 228.85728 528.1719 229.68541Q527.2031 230.51353 524.9844 230.51353Q522.4844 230.51353 521.3594 229.59166Q520.375 228.79478 520.375 227.43541Q520.375 226.41978 520.9531 225.77916Q521.5156 225.12291 522.5156 224.99791ZM526.21875 229.29478Q526.7656 229.29478 527.2656 229.07603Q527.75 228.84166 528.0156 228.43541Q528.28125 228.01353 528.28125 227.54478Q528.28125 226.88853 527.75 226.40416Q527.2031 225.91978 526.28125 225.91978Q525.3906 225.91978 524.875 226.40416Q524.3594 226.87291 524.3594 227.59166Q524.3594 228.31041 524.875 228.81041Q525.3906 229.29478 526.21875 229.29478ZM529.0 220.09166L526.9375 220.09166L526.9375 223.81041L525.96875 223.81041L520.40625 219.88853L520.40625 219.02916L525.96875 219.02916L525.96875 217.87291L526.9375 217.87291L526.9375 219.02916L529.0 219.02916L529.0 220.09166ZM525.96875 220.09166L522.1094 220.09166L525.96875 222.77916L525.96875 220.09166Z" fill-rule="nonzero"/><path fill="#000000" d="M22.9 405.36563Q22.9 403.83438 23.2125 402.9125Q23.525 401.975 24.134375 401.475Q24.759375 400.975 25.696875 400.975Q26.384375 400.975 26.9 401.25626Q27.43125 401.5375 27.775 402.06876Q28.11875 402.58438 28.30625 403.33438Q28.49375 404.08438 28.49375 405.36563Q28.49375 406.88126 28.18125 407.80313Q27.884375 408.725 27.259375 409.24063Q26.65 409.74063 25.696875 409.74063Q24.4625 409.74063 23.74375 408.85Q22.9 407.7875 22.9 405.36563ZM23.978125 405.36563Q23.978125 407.475 24.478125 408.17813Q24.978125 408.88126 25.696875 408.88126Q26.43125 408.88126 26.915625 408.17813Q27.415625 407.475 27.415625 405.36563Q27.415625 403.24063 26.915625 402.55313Q26.43125 401.85 25.68125 401.85Q24.9625 401.85 24.525 402.45938Q23.978125 403.24063 23.978125 405.36563ZM30.49375 409.6L30.49375 408.39688L31.696875 408.39688L31.696875 409.6L30.49375 409.6ZM32.9 405.36563Q32.9 403.83438 33.2125 402.9125Q33.525 401.975 34.134377 401.475Q34.759377 400.975 35.696877 400.975Q36.384377 400.975 36.9 401.25626Q37.43125 401.5375 37.775 402.06876Q38.11875 402.58438 38.30625 403.33438Q38.49375 404.08438 38.49375 405.36563Q38.49375 406.88126 38.18125 407.80313Q37.884377 408.725 37.259377 409.24063Q36.65 409.74063 35.696877 409.74063Q34.4625 409.74063 33.74375 408.85Q32.9 407.7875 32.9 405.36563ZM33.978127 405.36563Q33.978127 407.475 34.478127 408.17813Q34.978127 408.88126 35.696877 408.88126Q36.43125 408.88126 36.915627 408.17813Q37.415627 407.475 37.415627 405.36563Q37.415627 403.24063 36.915627 402.55313Q36.43125 401.85 35.68125 401.85Q34.9625 401.85 34.525 402.45938Q33.978127 403.24063 33.978127 405.36563ZM39.9 405.36563Q39.9 403.83438 40.2125 402.9125Q40.525 401.975 41.134377 401.475Q41.759377 400.975 42.696877 400.975Q43.384377 400.975 43.9 401.25626Q44.43125 401.5375 44.775 402.06876Q45.11875 402.58438 45.30625 403.33438Q45.49375 404.08438 45.49375 405.36563Q45.49375 406.88126 45.18125 407.80313Q44.884377 408.725 44.259377 409.24063Q43.65 409.74063 42.696877 409.74063Q41.4625 409.74063 40.74375 408.85Q39.9 407.7875 39.9 405.36563ZM40.978127 405.36563Q40.978127 407.475 41.478127 408.17813Q41.978127 408.88126 42.696877 408.88126Q43.43125 408.88126 43.915627 408.17813Q44.415627 407.475 44.415627 405.36563Q44.415627 403.24063 43.915627 402.55313Q43.43125 401.85 42.68125 401.85Q41.9625 401.85 41.525 402.45938Q40.978127 403.24063 40.978127 405.36563ZM46.9 405.36563Q46.9 403.83438 47.2125 402.9125Q47.525 401.975 48.134377 401.475Q48.759377 400.975 49.696877 400.975Q50.384377 400.975 50.9 401.25626Q51.43125 401.5375 51.775 402.06876Q52.11875 402.58438 52.30625 403.33438Q52.49375 404.08438 52.49375 405.36563Q52.49375 406.88126 52.18125 407.80313Q51.884377 408.725 51.259377 409.24063Q50.65 409.74063 49.696877 409.74063Q48.4625 409.74063 47.74375 408.85Q46.9 407.7875 46.9 405.36563ZM47.978127 405.36563Q47.978127 407.475 48.478127 408.17813Q48.978127 408.88126 49.696877 408.88126Q50.43125 408.88126 50.915627 408.17813Q51.415627 407.475 51.415627 405.36563Q51.415627 403.24063 50.915627 402.55313Q50.43125 401.85 49.68125 401.85Q48.9625 401.85 48.525 402.45938Q47.978127 403.24063 47.978127 405.36563ZM53.9 405.36563Q53.9 403.83438 54.2125 402.9125Q54.525 401.975 55.134377 401.475Q55.759377 400.975 56.696877 400.975Q57.384377 400.975 57.9 401.25626Q58.43125 401.5375 58.775 402.06876Q59.11875 402.58438 59.30625 403.33438Q59.49375 404.08438 59.49375 405.36563Q59.49375 406.88126 59.18125 407.80313Q58.884377 408.725 58.259377 409.24063Q57.65 409.74063 56.696877 409.74063Q55.4625 409.74063 54.74375 408.85Q53.9 407.7875 53.9 405.36563ZM54.978127 405.36563Q54.978127 407.475 55.478127 408.17813Q55.978127 408.88126 56.696877 408.88126Q57.43125 408.88126 57.915627 408.17813Q58.415627 407.475 58.415627 405.36563Q58.415627 403.24063 57.915627 402.55313Q57.43125 401.85 56.68125 401.85Q55.9625 401.85 55.525 402.45938Q54.978127 403.24063 54.978127 405.36563ZM60.9 405.36563Q60.9 403.83438 61.2125 402.9125Q61.525 401.975 62.134377 401.475Q62.759377 400.975 63.696877 400.975Q64.38438 400.975 64.9 401.25626Q65.43125 401.5375 65.775 402.06876Q66.11875 402.58438 66.30625 403.33438Q66.49375 404.08438 66.49375 405.36563Q66.49375 406.88126 66.18125 407.80313Q65.88438 408.725 65.25938 409.24063Q64.65 409.74063 63.696877 409.74063Q62.4625 409.74063 61.74375 408.85Q60.9 407.7875 60.9 405.36563ZM61.978127 405.36563Q61.978127 407.475 62.478127 408.17813Q62.978127 408.88126 63.696877 408.88126Q64.43125 408.88126 64.91563 408.17813Q65.41563 407.475 65.41563 405.36563Q65.41563 403.24063 64.91563 402.55313Q64.43125 401.85 63.68125 401.85Q62.9625 401.85 62.525 402.45938Q61.978127 403.24063 61.978127 405.36563ZM71.19688 409.6L71.19688 403.38126L72.13438 403.38126L72.13438 404.25626Q72.43125 403.7875 72.91563 403.52188Q73.4 403.24063 74.025 403.24063Q74.7125 403.24063 75.15 403.52188Q75.60313 403.80313 75.775 404.31876Q76.525 403.24063 77.69688 403.24063Q78.63438 403.24063 79.11875 403.75626Q79.61875 404.25626 79.61875 405.33438L79.61875 409.6L78.57188 409.6L78.57188 405.67813Q78.57188 405.05313 78.4625 404.77188Q78.36875 404.49063 78.10313 404.31876Q77.8375 404.14688 77.4625 404.14688Q76.80625 404.14688 76.36875 404.58438Q75.94688 405.02188 75.94688 405.99063L75.94688 409.6L74.88438 409.6L74.88438 405.55313Q74.88438 404.85 74.61875 404.50626Q74.36875 404.14688 73.79063 404.14688Q73.3375 404.14688 72.9625 404.38126Q72.5875 404.61563 72.41563 405.06876Q72.24375 405.52188 72.24375 406.36563L72.24375 409.6L71.19688 409.6ZM81.775 407.74063L82.80625 407.58438Q82.9 408.20938 83.29063 408.5375Q83.69688 408.86563 84.43125 408.86563Q85.15 408.86563 85.49375 408.58438Q85.85313 408.2875 85.85313 407.88126Q85.85313 407.52188 85.54063 407.31876Q85.32188 407.17813 84.4625 406.95938Q83.30625 406.6625 82.85313 406.45938Q82.41563 406.24063 82.18125 405.86563Q81.94688 405.49063 81.94688 405.02188Q81.94688 404.61563 82.13438 404.25626Q82.32188 403.89688 82.65 403.6625Q82.9 403.49063 83.32188 403.36563Q83.74375 403.24063 84.24375 403.24063Q84.9625 403.24063 85.50938 403.45938Q86.07188 403.6625 86.3375 404.02188Q86.60313 404.38126 86.69688 404.975L85.66563 405.11563Q85.60313 404.64688 85.25938 404.38126Q84.93125 404.1 84.30625 404.1Q83.5875 404.1 83.275 404.35Q82.9625 404.58438 82.9625 404.9125Q82.9625 405.11563 83.0875 405.27188Q83.22813 405.44376 83.49375 405.55313Q83.65 405.61563 84.43125 405.81876Q85.55625 406.13126 85.99375 406.31876Q86.43125 406.50626 86.68125 406.86563Q86.93125 407.225 86.93125 407.77188Q86.93125 408.30313 86.61875 408.77188Q86.32188 409.225 85.74375 409.49063Q85.16563 409.74063 84.43125 409.74063Q83.2125 409.74063 82.57188 409.24063Q81.94688 408.725 81.775 407.74063Z" fill-rule="nonzero"/><path fill="#000000" d="M26.86875 297.17776L25.821875 297.17776L25.821875 290.459Q25.43125 290.8184 24.80625 291.1934Q24.196875 291.55276 23.7125 291.72464L23.7125 290.709Q24.5875 290.28714 25.24375 289.709Q25.915625 289.11526 26.196875 288.55276L26.86875 288.55276L26.86875 297.17776ZM30.49375 297.17776L30.49375 295.97464L31.696875 295.97464L31.696875 297.17776L30.49375 297.17776ZM32.9 292.9434Q32.9 291.41214 33.2125 290.49026Q33.525 289.55276 34.134377 289.05276Q34.759377 288.55276 35.696877 288.55276Q36.384377 288.55276 36.9 288.834Q37.43125 289.11526 37.775 289.6465Q38.11875 290.16214 38.30625 290.91214Q38.49375 291.66214 38.49375 292.9434Q38.49375 294.459 38.18125 295.3809Q37.884377 296.30276 37.259377 296.8184Q36.65 297.3184 35.696877 297.3184Q34.4625 297.3184 33.74375 296.42776Q32.9 295.36526 32.9 292.9434ZM33.978127 292.9434Q33.978127 295.05276 34.478127 295.7559Q34.978127 296.459 35.696877 296.459Q36.43125 296.459 36.915627 295.7559Q37.415627 295.05276 37.415627 292.9434Q37.415627 290.8184 36.915627 290.1309Q36.43125 289.42776 35.68125 289.42776Q34.9625 289.42776 34.525 290.03714Q33.978127 290.8184 33.978127 292.9434ZM39.9 292.9434Q39.9 291.41214 40.2125 290.49026Q40.525 289.55276 41.134377 289.05276Q41.759377 288.55276 42.696877 288.55276Q43.384377 288.55276 43.9 288.834Q44.43125 289.11526 44.775 289.6465Q45.11875 290.16214 45.30625 290.91214Q45.49375 291.66214 45.49375 292.9434Q45.49375 294.459 45.18125 295.3809Q44.884377 296.30276 44.259377 296.8184Q43.65 297.3184 42.696877 297.3184Q41.4625 297.3184 40.74375 296.42776Q39.9 295.36526 39.9 292.9434ZM40.978127 292.9434Q40.978127 295.05276 41.478127 295.7559Q41.978127 296.459 42.696877 296.459Q43.43125 296.459 43.915627 295.7559Q44.415627 295.05276 44.415627 292.9434Q44.415627 290.8184 43.915627 290.1309Q43.43125 289.42776 42.68125 289.42776Q41.9625 289.42776 41.525 290.03714Q40.978127 290.8184 40.978127 292.9434ZM46.9 292.9434Q46.9 291.41214 47.2125 290.49026Q47.525 289.55276 48.134377 289.05276Q48.759377 288.55276 49.696877 288.55276Q50.384377 288.55276 50.9 288.834Q51.43125 289.11526 51.775 289.6465Q52.11875 290.16214 52.30625 290.91214Q52.49375 291.66214 52.49375 292.9434Q52.49375 294.459 52.18125 295.3809Q51.884377 296.30276 51.259377 296.8184Q50.65 297.3184 49.696877 297.3184Q48.4625 297.3184 47.74375 296.42776Q46.9 295.36526 46.9 292.9434ZM47.978127 292.9434Q47.978127 295.05276 48.478127 295.7559Q48.978127 296.459 49.696877 296.459Q50.43125 296.459 50.915627 295.7559Q51.415627 295.05276 51.415627 292.9434Q51.415627 290.8184 50.915627 290.1309Q50.43125 289.42776 49.68125 289.42776Q48.9625 289.42776 48.525 290.03714Q47.978127 290.8184 47.978127 292.9434ZM53.9 292.9434Q53.9 291.41214 54.2125 290.49026Q54.525 289.55276 55.134377 289.05276Q55.759377 288.55276 56.696877 288.55276Q57.384377 288.55276 57.9 288.834Q58.43125 289.11526 58.775 289.6465Q59.11875 290.16214 59.30625 290.91214Q59.49375 291.66214 59.49375 292.9434Q59.49375 294.459 59.18125 295.3809Q58.884377 296.30276 58.259377 296.8184Q57.65 297.3184 56.696877 297.3184Q55.4625 297.3184 54.74375 296.42776Q53.9 295.36526 53.9 292.9434ZM54.978127 292.9434Q54.978127 295.05276 55.478127 295.7559Q55.978127 296.459 56.696877 296.459Q57.43125 296.459 57.915627 295.7559Q58.415627 295.05276 58.415627 292.9434Q58.415627 290.8184 57.915627 290.1309Q57.43125 289.42776 56.68125 289.42776Q55.9625 289.42776 55.525 290.03714Q54.978127 290.8184 54.978127 292.9434ZM60.9 292.9434Q60.9 291.41214 61.2125 290.49026Q61.525 289.55276 62.134377 289.05276Q62.759377 288.55276 63.696877 288.55276Q64.38438 288.55276 64.9 288.834Q65.43125 289.11526 65.775 289.6465Q66.11875 290.16214 66.30625 290.91214Q66.49375 291.66214 66.49375 292.9434Q66.49375 294.459 66.18125 295.3809Q65.88438 296.30276 65.25938 296.8184Q64.65 297.3184 63.696877 297.3184Q62.4625 297.3184 61.74375 296.42776Q60.9 295.36526 60.9 292.9434ZM61.978127 292.9434Q61.978127 295.05276 62.478127 295.7559Q62.978127 296.459 63.696877 296.459Q64.43125 296.459 64.91563 295.7559Q65.41563 295.05276 65.41563 292.9434Q65.41563 290.8184 64.91563 290.1309Q64.43125 289.42776 63.68125 289.42776Q62.9625 289.42776 62.525 290.03714Q61.978127 290.8184 61.978127 292.9434ZM71.19688 297.17776L71.19688 290.959L72.13438 290.959L72.13438 291.834Q72.43125 291.36526 72.91563 291.09964Q73.4 290.8184 74.025 290.8184Q74.7125 290.8184 75.15 291.09964Q75.60313 291.3809 75.775 291.8965Q76.525 290.8184 77.69688 290.8184Q78.63438 290.8184 79.11875 291.334Q79.61875 291.834 79.61875 292.91214L79.61875 297.17776L78.57188 297.17776L78.57188 293.2559Q78.57188 292.6309 78.4625 292.34964Q78.36875 292.0684 78.10313 291.8965Q77.8375 291.72464 77.4625 291.72464Q76.80625 291.72464 76.36875 292.16214Q75.94688 292.59964 75.94688 293.5684L75.94688 297.17776L74.88438 297.17776L74.88438 293.1309Q74.88438 292.42776 74.61875 292.084Q74.36875 291.72464 73.79063 291.72464Q73.3375 291.72464 72.9625 291.959Q72.5875 292.1934 72.41563 292.6465Q72.24375 293.09964 72.24375 293.9434L72.24375 297.17776L71.19688 297.17776ZM81.775 295.3184L82.80625 295.16214Q82.9 295.78714 83.29063 296.11526Q83.69688 296.4434 84.43125 296.4434Q85.15 296.4434 85.49375 296.16214Q85.85313 295.86526 85.85313 295.459Q85.85313 295.09964 85.54063 294.8965Q85.32188 294.7559 84.4625 294.53714Q83.30625 294.24026 82.85313 294.03714Q82.41563 293.8184 82.18125 293.4434Q81.94688 293.0684 81.94688 292.59964Q81.94688 292.1934 82.13438 291.834Q82.32188 291.47464 82.65 291.24026Q82.9 291.0684 83.32188 290.9434Q83.74375 290.8184 84.24375 290.8184Q84.9625 290.8184 85.50938 291.03714Q86.07188 291.24026 86.3375 291.59964Q86.60313 291.959 86.69688 292.55276L85.66563 292.6934Q85.60313 292.22464 85.25938 291.959Q84.93125 291.67776 84.30625 291.67776Q83.5875 291.67776 83.275 291.92776Q82.9625 292.16214 82.9625 292.49026Q82.9625 292.6934 83.0875 292.84964Q83.22813 293.0215 83.49375 293.1309Q83.65 293.1934 84.43125 293.3965Q85.55625 293.709 85.99375 293.8965Q86.43125 294.084 86.68125 294.4434Q86.93125 294.80276 86.93125 295.34964Q86.93125 295.8809 86.61875 296.34964Q86.32188 296.80276 85.74375 297.0684Q85.16563 297.3184 84.43125 297.3184Q83.2125 297.3184 82.57188 296.8184Q81.94688 296.30276 81.775 295.3184Z" fill-rule="nonzero"/><path fill="#000000" d="M28.446875 183.73993L28.446875 184.75555L22.759375 184.75555Q22.759375 184.38055 22.884375 184.02118Q23.103125 183.44305 23.571875 182.88055Q24.05625 182.31805 24.9625 181.58368Q26.36875 180.42743 26.853125 179.75555Q27.353125 179.08368 27.353125 178.48993Q27.353125 177.86493 26.9 177.44305Q26.446875 177.00555 25.728125 177.00555Q24.9625 177.00555 24.509375 177.45868Q24.05625 177.9118 24.040625 178.7243L22.9625 178.61493Q23.071875 177.39618 23.790625 176.77118Q24.525 176.13055 25.759375 176.13055Q26.99375 176.13055 27.7125 176.81805Q28.43125 177.50555 28.43125 178.52118Q28.43125 179.0368 28.2125 179.5368Q28.009375 180.02118 27.509375 180.58368Q27.025 181.13055 25.9 182.08368Q24.946875 182.88055 24.665625 183.17743Q24.4 183.45868 24.228125 183.73993L28.446875 183.73993ZM30.49375 184.75555L30.49375 183.55243L31.696875 183.55243L31.696875 184.75555L30.49375 184.75555ZM32.9 180.52118Q32.9 178.98993 33.2125 178.06805Q33.525 177.13055 34.134377 176.63055Q34.759377 176.13055 35.696877 176.13055Q36.384377 176.13055 36.9 176.4118Q37.43125 176.69305 37.775 177.2243Q38.11875 177.73993 38.30625 178.48993Q38.49375 179.23993 38.49375 180.52118Q38.49375 182.0368 38.18125 182.95868Q37.884377 183.88055 37.259377 184.39618Q36.65 184.89618 35.696877 184.89618Q34.4625 184.89618 33.74375 184.00555Q32.9 182.94305 32.9 180.52118ZM33.978127 180.52118Q33.978127 182.63055 34.478127 183.33368Q34.978127 184.0368 35.696877 184.0368Q36.43125 184.0368 36.915627 183.33368Q37.415627 182.63055 37.415627 180.52118Q37.415627 178.39618 36.915627 177.70868Q36.43125 177.00555 35.68125 177.00555Q34.9625 177.00555 34.525 177.61493Q33.978127 178.39618 33.978127 180.52118ZM39.9 180.52118Q39.9 178.98993 40.2125 178.06805Q40.525 177.13055 41.134377 176.63055Q41.759377 176.13055 42.696877 176.13055Q43.384377 176.13055 43.9 176.4118Q44.43125 176.69305 44.775 177.2243Q45.11875 177.73993 45.30625 178.48993Q45.49375 179.23993 45.49375 180.52118Q45.49375 182.0368 45.18125 182.95868Q44.884377 183.88055 44.259377 184.39618Q43.65 184.89618 42.696877 184.89618Q41.4625 184.89618 40.74375 184.00555Q39.9 182.94305 39.9 180.52118ZM40.978127 180.52118Q40.978127 182.63055 41.478127 183.33368Q41.978127 184.0368 42.696877 184.0368Q43.43125 184.0368 43.915627 183.33368Q44.415627 182.63055 44.415627 180.52118Q44.415627 178.39618 43.915627 177.70868Q43.43125 177.00555 42.68125 177.00555Q41.9625 177.00555 41.525 177.61493Q40.978127 178.39618 40.978127 180.52118ZM46.9 180.52118Q46.9 178.98993 47.2125 178.06805Q47.525 177.13055 48.134377 176.63055Q48.759377 176.13055 49.696877 176.13055Q50.384377 176.13055 50.9 176.4118Q51.43125 176.69305 51.775 177.2243Q52.11875 177.73993 52.30625 178.48993Q52.49375 179.23993 52.49375 180.52118Q52.49375 182.0368 52.18125 182.95868Q51.884377 183.88055 51.259377 184.39618Q50.65 184.89618 49.696877 184.89618Q48.4625 184.89618 47.74375 184.00555Q46.9 182.94305 46.9 180.52118ZM47.978127 180.52118Q47.978127 182.63055 48.478127 183.33368Q48.978127 184.0368 49.696877 184.0368Q50.43125 184.0368 50.915627 183.33368Q51.415627 182.63055 51.415627 180.52118Q51.415627 178.39618 50.915627 177.70868Q50.43125 177.00555 49.68125 177.00555Q48.9625 177.00555 48.525 177.61493Q47.978127 178.39618 47.978127 180.52118ZM53.9 180.52118Q53.9 178.98993 54.2125 178.06805Q54.525 177.13055 55.134377 176.63055Q55.759377 176.13055 56.696877 176.13055Q57.384377 176.13055 57.9 176.4118Q58.43125 176.69305 58.775 177.2243Q59.11875 177.73993 59.30625 178.48993Q59.49375 179.23993 59.49375 180.52118Q59.49375 182.0368 59.18125 182.95868Q58.884377 183.88055 58.259377 184.39618Q57.65 184.89618 56.696877 184.89618Q55.4625 184.89618 54.74375 184.00555Q53.9 182.94305 53.9 180.52118ZM54.978127 180.52118Q54.978127 182.63055 55.478127 183.33368Q55.978127 184.0368 56.696877 184.0368Q57.43125 184.0368 57.915627 183.33368Q58.415627 182.63055 58.415627 180.52118Q58.415627 178.39618 57.915627 177.70868Q57.43125 177.00555 56.68125 177.00555Q55.9625 177.00555 55.525 177.61493Q54.978127 178.39618 54.978127 180.52118ZM60.9 180.52118Q60.9 178.98993 61.2125 178.06805Q61.525 177.13055 62.134377 176.63055Q62.759377 176.13055 63.696877 176.13055Q64.38438 176.13055 64.9 176.4118Q65.43125 176.69305 65.775 177.2243Q66.11875 177.73993 66.30625 178.48993Q66.49375 179.23993 66.49375 180.52118Q66.49375 182.0368 66.18125 182.95868Q65.88438 183.88055 65.25938 184.39618Q64.65 184.89618 63.696877 184.89618Q62.4625 184.89618 61.74375 184.00555Q60.9 182.94305 60.9 180.52118ZM61.978127 180.52118Q61.978127 182.63055 62.478127 183.33368Q62.978127 184.0368 63.696877 184.0368Q64.43125 184.0368 64.91563 183.33368Q65.41563 182.63055 65.41563 180.52118Q65.41563 178.39618 64.91563 177.70868Q64.43125 177.00555 63.68125 177.00555Q62.9625 177.00555 62.525 177.61493Q61.978127 178.39618 61.978127 180.52118ZM71.19688 184.75555L71.19688 178.5368L72.13438 178.5368L72.13438 179.4118Q72.43125 178.94305 72.91563 178.67743Q73.4 178.39618 74.025 178.39618Q74.7125 178.39618 75.15 178.67743Q75.60313 178.95868 75.775 179.4743Q76.525 178.39618 77.69688 178.39618Q78.63438 178.39618 79.11875 178.9118Q79.61875 179.4118 79.61875 180.48993L79.61875 184.75555L78.57188 184.75555L78.57188 180.83368Q78.57188 180.20868 78.4625 179.92743Q78.36875 179.64618 78.10313 179.4743Q77.8375 179.30243 77.4625 179.30243Q76.80625 179.30243 76.36875 179.73993Q75.94688 180.17743 75.94688 181.14618L75.94688 184.75555L74.88438 184.75555L74.88438 180.70868Q74.88438 180.00555 74.61875 179.6618Q74.36875 179.30243 73.79063 179.30243Q73.3375 179.30243 72.9625 179.5368Q72.5875 179.77118 72.41563 180.2243Q72.24375 180.67743 72.24375 181.52118L72.24375 184.75555L71.19688 184.75555ZM81.775 182.89618L82.80625 182.73993Q82.9 183.36493 83.29063 183.69305Q83.69688 184.02118 84.43125 184.02118Q85.15 184.02118 85.49375 183.73993Q85.85313 183.44305 85.85313 183.0368Q85.85313 182.67743 85.54063 182.4743Q85.32188 182.33368 84.4625 182.11493Q83.30625 181.81805 82.85313 181.61493Q82.41563 181.39618 82.18125 181.02118Q81.94688 180.64618 81.94688 180.17743Q81.94688 179.77118 82.13438 179.4118Q82.32188 179.05243 82.65 178.81805Q82.9 178.64618 83.32188 178.52118Q83.74375 178.39618 84.24375 178.39618Q84.9625 178.39618 85.50938 178.61493Q86.07188 178.81805 86.3375 179.17743Q86.60313 179.5368 86.69688 180.13055L85.66563 180.27118Q85.60313 179.80243 85.25938 179.5368Q84.93125 179.25555 84.30625 179.25555Q83.5875 179.25555 83.275 179.50555Q82.9625 179.73993 82.9625 180.06805Q82.9625 180.27118 83.0875 180.42743Q83.22813 180.5993 83.49375 180.70868Q83.65 180.77118 84.43125 180.9743Q85.55625 181.2868 85.99375 181.4743Q86.43125 181.6618 86.68125 182.02118Q86.93125 182.38055 86.93125 182.92743Q86.93125 183.45868 86.61875 183.92743Q86.32188 184.38055 85.74375 184.64618Q85.16563 184.89618 84.43125 184.89618Q83.2125 184.89618 82.57188 184.39618Q81.94688 183.88055 81.775 182.89618Z" fill-rule="nonzero"/><path fill="#000000" d="M22.9 70.06771L23.9625 69.927086Q24.134375 70.81771 24.571875 71.22396Q25.009375 71.614586 25.634375 71.614586Q26.384375 71.614586 26.9 71.09896Q27.415625 70.583336 27.415625 69.81771Q27.415625 69.09896 26.93125 68.63021Q26.4625 68.145836 25.728125 68.145836Q25.43125 68.145836 24.978125 68.270836L25.103125 67.333336Q25.2125 67.34896 25.275 67.34896Q25.946875 67.34896 26.478125 67.00521Q27.025 66.645836 27.025 65.91146Q27.025 65.333336 26.634375 64.958336Q26.24375 64.56771 25.61875 64.56771Q25.009375 64.56771 24.5875 64.958336Q24.18125 65.34896 24.071875 66.114586L23.009375 65.927086Q23.196875 64.88021 23.884375 64.302086Q24.571875 63.708336 25.5875 63.708336Q26.290625 63.708336 26.884375 64.020836Q27.478125 64.31771 27.790625 64.833336Q28.103125 65.34896 28.103125 65.94271Q28.103125 66.489586 27.80625 66.958336Q27.509375 67.41146 26.93125 67.677086Q27.68125 67.84896 28.103125 68.41146Q28.525 68.958336 28.525 69.802086Q28.525 70.927086 27.696875 71.708336Q26.884375 72.489586 25.634375 72.489586Q24.509375 72.489586 23.759375 71.81771Q23.009375 71.13021 22.9 70.06771ZM30.49375 72.333336L30.49375 71.13021L31.696875 71.13021L31.696875 72.333336L30.49375 72.333336ZM32.9 68.09896Q32.9 66.56771 33.2125 65.645836Q33.525 64.708336 34.134377 64.208336Q34.759377 63.708336 35.696877 63.708336Q36.384377 63.708336 36.9 63.989586Q37.43125 64.270836 37.775 64.802086Q38.11875 65.31771 38.30625 66.06771Q38.49375 66.81771 38.49375 68.09896Q38.49375 69.614586 38.18125 70.53646Q37.884377 71.458336 37.259377 71.97396Q36.65 72.47396 35.696877 72.47396Q34.4625 72.47396 33.74375 71.583336Q32.9 70.520836 32.9 68.09896ZM33.978127 68.09896Q33.978127 70.208336 34.478127 70.91146Q34.978127 71.614586 35.696877 71.614586Q36.43125 71.614586 36.915627 70.91146Q37.415627 70.208336 37.415627 68.09896Q37.415627 65.97396 36.915627 65.28646Q36.43125 64.583336 35.68125 64.583336Q34.9625 64.583336 34.525 65.19271Q33.978127 65.97396 33.978127 68.09896ZM39.9 68.09896Q39.9 66.56771 40.2125 65.645836Q40.525 64.708336 41.134377 64.208336Q41.759377 63.708336 42.696877 63.708336Q43.384377 63.708336 43.9 63.989586Q44.43125 64.270836 44.775 64.802086Q45.11875 65.31771 45.30625 66.06771Q45.49375 66.81771 45.49375 68.09896Q45.49375 69.614586 45.18125 70.53646Q44.884377 71.458336 44.259377 71.97396Q43.65 72.47396 42.696877 72.47396Q41.4625 72.47396 40.74375 71.583336Q39.9 70.520836 39.9 68.09896ZM40.978127 68.09896Q40.978127 70.208336 41.478127 70.91146Q41.978127 71.614586 42.696877 71.614586Q43.43125 71.614586 43.915627 70.91146Q44.415627 70.208336 44.415627 68.09896Q44.415627 65.97396 43.915627 65.28646Q43.43125 64.583336 42.68125 64.583336Q41.9625 64.583336 41.525 65.19271Q40.978127 65.97396 40.978127 68.09896ZM46.9 68.09896Q46.9 66.56771 47.2125 65.645836Q47.525 64.708336 48.134377 64.208336Q48.759377 63.708336 49.696877 63.708336Q50.384377 63.708336 50.9 63.989586Q51.43125 64.270836 51.775 64.802086Q52.11875 65.31771 52.30625 66.06771Q52.49375 66.81771 52.49375 68.09896Q52.49375 69.614586 52.18125 70.53646Q51.884377 71.458336 51.259377 71.97396Q50.65 72.47396 49.696877 72.47396Q48.4625 72.47396 47.74375 71.583336Q46.9 70.520836 46.9 68.09896ZM47.978127 68.09896Q47.978127 70.208336 48.478127 70.91146Q48.978127 71.614586 49.696877 71.614586Q50.43125 71.614586 50.915627 70.91146Q51.415627 70.208336 51.415627 68.09896Q51.415627 65.97396 50.915627 65.28646Q50.43125 64.583336 49.68125 64.583336Q48.9625 64.583336 48.525 65.19271Q47.978127 65.97396 47.978127 68.09896ZM53.9 68.09896Q53.9 66.56771 54.2125 65.645836Q54.525 64.708336 55.134377 64.208336Q55.759377 63.708336 56.696877 63.708336Q57.384377 63.708336 57.9 63.989586Q58.43125 64.270836 58.775 64.802086Q59.11875 65.31771 59.30625 66.06771Q59.49375 66.81771 59.49375 68.09896Q59.49375 69.614586 59.18125 70.53646Q58.884377 71.458336 58.259377 71.97396Q57.65 72.47396 56.696877 72.47396Q55.4625 72.47396 54.74375 71.583336Q53.9 70.520836 53.9 68.09896ZM54.978127 68.09896Q54.978127 70.208336 55.478127 70.91146Q55.978127 71.614586 56.696877 71.614586Q57.43125 71.614586 57.915627 70.91146Q58.415627 70.208336 58.415627 68.09896Q58.415627 65.97396 57.915627 65.28646Q57.43125 64.583336 56.68125 64.583336Q55.9625 64.583336 55.525 65.19271Q54.978127 65.97396 54.978127 68.09896ZM60.9 68.09896Q60.9 66.56771 61.2125 65.645836Q61.525 64.708336 62.134377 64.208336Q62.759377 63.708336 63.696877 63.708336Q64.38438 63.708336 64.9 63.989586Q65.43125 64.270836 65.775 64.802086Q66.11875 65.31771 66.30625 66.06771Q66.49375 66.81771 66.49375 68.09896Q66.49375 69.614586 66.18125 70.53646Q65.88438 71.458336 65.25938 71.97396Q64.65 72.47396 63.696877 72.47396Q62.4625 72.47396 61.74375 71.583336Q60.9 70.520836 60.9 68.09896ZM61.978127 68.09896Q61.978127 70.208336 62.478127 70.91146Q62.978127 71.614586 63.696877 71.614586Q64.43125 71.614586 64.91563 70.91146Q65.41563 70.208336 65.41563 68.09896Q65.41563 65.97396 64.91563 65.28646Q64.43125 64.583336 63.68125 64.583336Q62.9625 64.583336 62.525 65.19271Q61.978127 65.97396 61.978127 68.09896ZM71.19688 72.333336L71.19688 66.114586L72.13438 66.114586L72.13438 66.989586Q72.43125 66.520836 72.91563 66.25521Q73.4 65.97396 74.025 65.97396Q74.7125 65.97396 75.15 66.25521Q75.60313 66.53646 75.775 67.052086Q76.525 65.97396 77.69688 65.97396Q78.63438 65.97396 79.11875 66.489586Q79.61875 66.989586 79.61875 68.06771L79.61875 72.333336L78.57188 72.333336L78.57188 68.41146Q78.57188 67.78646 78.4625 67.50521Q78.36875 67.22396 78.10313 67.052086Q77.8375 66.88021 77.4625 66.88021Q76.80625 66.88021 76.36875 67.31771Q75.94688 67.75521 75.94688 68.72396L75.94688 72.333336L74.88438 72.333336L74.88438 68.28646Q74.88438 67.583336 74.61875 67.239586Q74.36875 66.88021 73.79063 66.88021Q73.3375 66.88021 72.9625 67.114586Q72.5875 67.34896 72.41563 67.802086Q72.24375 68.25521 72.24375 69.09896L72.24375 72.333336L71.19688 72.333336ZM81.775 70.47396L82.80625 70.31771Q82.9 70.94271 83.29063 71.270836Q83.69688 71.59896 84.43125 71.59896Q85.15 71.59896 85.49375 71.31771Q85.85313 71.020836 85.85313 70.614586Q85.85313 70.25521 85.54063 70.052086Q85.32188 69.91146 84.4625 69.69271Q83.30625 69.395836 82.85313 69.19271Q82.41563 68.97396 82.18125 68.59896Q81.94688 68.22396 81.94688 67.75521Q81.94688 67.34896 82.13438 66.989586Q82.32188 66.63021 82.65 66.395836Q82.9 66.22396 83.32188 66.09896Q83.74375 65.97396 84.24375 65.97396Q84.9625 65.97396 85.50938 66.19271Q86.07188 66.395836 86.3375 66.75521Q86.60313 67.114586 86.69688 67.708336L85.66563 67.84896Q85.60313 67.38021 85.25938 67.114586Q84.93125 66.833336 84.30625 66.833336Q83.5875 66.833336 83.275 67.083336Q82.9625 67.31771 82.9625 67.645836Q82.9625 67.84896 83.0875 68.00521Q83.22813 68.177086 83.49375 68.28646Q83.65 68.34896 84.43125 68.552086Q85.55625 68.864586 85.99375 69.052086Q86.43125 69.239586 86.68125 69.59896Q86.93125 69.958336 86.93125 70.50521Q86.93125 71.03646 86.61875 71.50521Q86.32188 71.958336 85.74375 72.22396Q85.16563 72.47396 84.43125 72.47396Q83.2125 72.47396 82.57188 71.97396Q81.94688 71.458336 81.775 70.47396Z" fill-rule="nonzero"/><path fill="#000000" d="M266.48804 419.58438L267.61304 419.88126Q267.25366 421.27188 266.3318 422.00626Q265.4099 422.74063 264.06616 422.74063Q262.67554 422.74063 261.80054 422.17813Q260.92554 421.61563 260.4724 420.55313Q260.0193 419.475 260.0193 418.24063Q260.0193 416.89688 260.5349 415.89688Q261.05054 414.89688 261.98804 414.38126Q262.94116 413.86563 264.0818 413.86563Q265.36304 413.86563 266.23804 414.52188Q267.12866 415.17813 267.4724 416.36563L266.3474 416.63126Q266.05054 415.69376 265.4724 415.27188Q264.9099 414.83438 264.05054 414.83438Q263.06616 414.83438 262.3943 415.31876Q261.73804 415.7875 261.4568 416.58438Q261.19116 417.38126 261.19116 418.24063Q261.19116 419.33438 261.50366 420.14688Q261.8318 420.95938 262.50366 421.36563Q263.17554 421.77188 263.9724 421.77188Q264.92554 421.77188 265.5818 421.225Q266.25366 420.67813 266.48804 419.58438Z" fill-rule="nonzero"/><path fill="#000000" d="M495.1682 422.6L497.43384 419.36563L495.3401 416.38126L496.6526 416.38126L497.6057 417.83438Q497.87134 418.25626 498.0432 418.5375Q498.2932 418.14688 498.51196 417.85L499.55884 416.38126L500.82446 416.38126L498.6682 419.30313L500.9807 422.6L499.69946 422.6L498.4182 420.6625L498.07446 420.14688L496.43384 422.6L495.1682 422.6ZM502.19946 417.94376Q501.5432 417.69376 501.2151 417.25626Q500.9026 416.80313 500.9026 416.19376Q500.9026 415.25626 501.57446 414.61563Q502.26196 413.975 503.37134 413.975Q504.49634 413.975 505.18384 414.63126Q505.87134 415.2875 505.87134 416.225Q505.87134 416.81876 505.55884 417.25626Q505.24634 417.69376 504.6057 417.94376Q505.4026 418.19376 505.80884 418.77188Q506.2151 419.35 506.2151 420.14688Q506.2151 421.24063 505.43384 421.99063Q504.6682 422.74063 503.38696 422.74063Q502.12134 422.74063 501.3401 421.99063Q500.55884 421.24063 500.55884 420.11563Q500.55884 419.27188 500.9807 418.70938Q501.4182 418.14688 502.19946 417.94376ZM501.9807 416.14688Q501.9807 416.75626 502.37134 417.14688Q502.7776 417.5375 503.4026 417.5375Q504.01196 417.5375 504.4026 417.1625Q504.7932 416.77188 504.7932 416.20938Q504.7932 415.63126 504.38696 415.24063Q503.9807 414.83438 503.38696 414.83438Q502.7776 414.83438 502.37134 415.225Q501.9807 415.61563 501.9807 416.14688ZM501.6526 420.11563Q501.6526 420.56876 501.8557 420.99063Q502.07446 421.4125 502.49634 421.64688Q502.9182 421.88126 503.4026 421.88126Q504.1526 421.88126 504.63696 421.39688Q505.13696 420.9125 505.13696 420.1625Q505.13696 419.39688 504.63696 418.89688Q504.13696 418.39688 503.37134 418.39688Q502.62134 418.39688 502.13696 418.89688Q501.6526 419.38126 501.6526 420.11563ZM513.0432 416.11563L511.99634 416.19376Q511.8557 415.56876 511.6057 415.2875Q511.1682 414.83438 510.5432 414.83438Q510.0432 414.83438 509.6526 415.11563Q509.1682 415.49063 508.87134 416.19376Q508.5901 416.88126 508.57446 418.1625Q508.94946 417.58438 509.49634 417.30313Q510.05884 417.02188 510.6682 417.02188Q511.7151 417.02188 512.44946 417.80313Q513.19946 418.58438 513.19946 419.80313Q513.19946 420.61563 512.8401 421.31876Q512.49634 422.00626 511.88696 422.38126Q511.2776 422.74063 510.51196 422.74063Q509.18384 422.74063 508.3557 421.77188Q507.5276 420.80313 507.5276 418.58438Q507.5276 416.08438 508.44946 414.95938Q509.24634 413.975 510.6057 413.975Q511.62134 413.975 512.26196 414.55313Q512.9182 415.11563 513.0432 416.11563ZM508.74634 419.81876Q508.74634 420.36563 508.9651 420.86563Q509.19946 421.35 509.6057 421.61563Q510.0276 421.88126 510.49634 421.88126Q511.1526 421.88126 511.63696 421.35Q512.12134 420.80313 512.12134 419.88126Q512.12134 418.99063 511.63696 418.475Q511.1682 417.95938 510.44946 417.95938Q509.7307 417.95938 509.2307 418.475Q508.74634 418.99063 508.74634 419.81876ZM513.88696 424.99063L513.88696 424.225L520.88696 424.225L520.88696 424.99063L513.88696 424.99063ZM527.0432 416.11563L525.99634 416.19376Q525.8557 415.56876 525.6057 415.2875Q525.1682 414.83438 524.5432 414.83438Q524.0432 414.83438 523.6526 415.11563Q523.1682 415.49063 522.87134 416.19376Q522.5901 416.88126 522.57446 418.1625Q522.94946 417.58438 523.49634 417.30313Q524.05884 417.02188 524.6682 417.02188Q525.7151 417.02188 526.44946 417.80313Q527.19946 418.58438 527.19946 419.80313Q527.19946 420.61563 526.8401 421.31876Q526.49634 422.00626 525.88696 422.38126Q525.2776 422.74063 524.51196 422.74063Q523.18384 422.74063 522.3557 421.77188Q521.5276 420.80313 521.5276 418.58438Q521.5276 416.08438 522.44946 414.95938Q523.24634 413.975 524.6057 413.975Q525.62134 413.975 526.26196 414.55313Q526.9182 415.11563 527.0432 416.11563ZM522.74634 419.81876Q522.74634 420.36563 522.9651 420.86563Q523.19946 421.35 523.6057 421.61563Q524.0276 421.88126 524.49634 421.88126Q525.1526 421.88126 525.63696 421.35Q526.12134 420.80313 526.12134 419.88126Q526.12134 418.99063 525.63696 418.475Q525.1682 417.95938 524.44946 417.95938Q523.7307 417.95938 523.2307 418.475Q522.74634 418.99063 522.74634 419.81876ZM531.94946 422.6L531.94946 420.5375L528.2307 420.5375L528.2307 419.56876L532.1526 414.00626L533.01196 414.00626L533.01196 419.56876L534.1682 419.56876L534.1682 420.5375L533.01196 420.5375L533.01196 422.6L531.94946 422.6ZM531.94946 419.56876L531.94946 415.70938L529.26196 419.56876L531.94946 419.56876Z" fill-rule="nonzero"/><path fill="#757575" d="M22.36875 41.4L27.86875 27.087502L29.915625 27.087502L35.775 41.4L33.61875 41.4L31.946875 37.05625L25.9625 37.05625L24.384375 41.4L22.36875 41.4ZM26.509375 35.525L31.353125 35.525L29.86875 31.556252Q29.18125 29.743752 28.853125 28.587502Q28.571875 29.962502 28.071875 31.321877L26.509375 35.525ZM39.603127 41.4L35.65 31.025002L37.509377 31.025002L39.74375 37.24375Q40.103127 38.24375 40.4 39.321877Q40.634377 38.509377 41.05625 37.353127L43.353127 31.025002L45.165627 31.025002L41.24375 41.4L39.603127 41.4ZM52.821877 38.05625L54.634377 38.290627Q54.2125 39.86875 53.040627 40.759377Q51.884377 41.634377 50.071877 41.634377Q47.80625 41.634377 46.4625 40.24375Q45.134377 38.8375 45.134377 36.30625Q45.134377 33.68125 46.478127 32.24375Q47.821877 30.790627 49.978127 30.790627Q52.05625 30.790627 53.36875 32.2125Q54.696877 33.61875 54.696877 36.196877Q54.696877 36.353127 54.68125 36.665627L46.946877 36.665627Q47.040627 38.36875 47.915627 39.275Q48.790627 40.18125 50.0875 40.18125Q51.05625 40.18125 51.728127 39.68125Q52.415627 39.165627 52.821877 38.05625ZM47.040627 35.2125L52.8375 35.2125Q52.728127 33.915627 52.18125 33.259377Q51.3375 32.24375 49.99375 32.24375Q48.790627 32.24375 47.9625 33.05625Q47.134377 33.853127 47.040627 35.2125ZM56.696877 41.4L56.696877 31.025002L58.275 31.025002L58.275 32.603127Q58.884377 31.493752 59.4 31.150002Q59.915627 30.790627 60.525 30.790627Q61.415627 30.790627 62.3375 31.353127L61.728127 32.99375Q61.0875 32.603127 60.446877 32.603127Q59.86875 32.603127 59.4 32.9625Q58.946877 33.30625 58.74375 33.915627Q58.4625 34.853127 58.4625 35.9625L58.4625 41.4L56.696877 41.4ZM70.49375 40.11875Q69.50938 40.946877 68.60313 41.290627Q67.69688 41.634377 66.66563 41.634377Q64.9625 41.634377 64.04063 40.80625Q63.11875 39.9625 63.11875 38.665627Q63.11875 37.9 63.4625 37.275Q63.821877 36.65 64.38438 36.275Q64.94688 35.884377 65.65 35.68125Q66.16563 35.55625 67.2125 35.415627Q69.3375 35.165627 70.3375 34.821877Q70.35313 34.4625 70.35313 34.353127Q70.35313 33.290627 69.85313 32.8375Q69.18125 32.24375 67.85313 32.24375Q66.60313 32.24375 66.00938 32.68125Q65.43125 33.11875 65.15 34.228127L63.43125 33.99375Q63.665627 32.884377 64.19688 32.2125Q64.72813 31.525002 65.74375 31.165627Q66.75938 30.790627 68.10313 30.790627Q69.43125 30.790627 70.25938 31.103127Q71.0875 31.415627 71.47813 31.900002Q71.86875 32.36875 72.025 33.0875Q72.11875 33.540627 72.11875 34.7125L72.11875 37.05625Q72.11875 39.509377 72.22813 40.165627Q72.3375 40.80625 72.68125 41.4L70.8375 41.4Q70.57188 40.853127 70.49375 40.11875ZM70.3375 36.196877Q69.38438 36.5875 67.4625 36.853127Q66.38438 37.009377 65.93125 37.2125Q65.49375 37.4 65.24375 37.775Q64.99375 38.15 64.99375 38.61875Q64.99375 39.321877 65.525 39.790627Q66.05625 40.259377 67.0875 40.259377Q68.10313 40.259377 68.88438 39.821877Q69.68125 39.36875 70.05625 38.603127Q70.3375 37.99375 70.3375 36.8375L70.3375 36.196877ZM74.4 42.259377L76.10313 42.509377Q76.2125 43.30625 76.69688 43.665627Q77.35313 44.15 78.49375 44.15Q79.7125 44.15 80.36875 43.665627Q81.04063 43.18125 81.275 42.30625Q81.41563 41.759377 81.4 40.040627Q80.24375 41.4 78.525 41.4Q76.38438 41.4 75.2125 39.853127Q74.04063 38.30625 74.04063 36.15Q74.04063 34.665627 74.57188 33.415627Q75.11875 32.165627 76.13438 31.478127Q77.16563 30.790627 78.54063 30.790627Q80.36875 30.790627 81.57188 32.275L81.57188 31.025002L83.18125 31.025002L83.18125 39.99375Q83.18125 42.415627 82.68125 43.415627Q82.19688 44.43125 81.11875 45.009377Q80.05625 45.603127 78.49375 45.603127Q76.65 45.603127 75.49375 44.775Q74.35313 43.946877 74.4 42.259377ZM75.85313 36.025Q75.85313 38.071877 76.66563 39.009377Q77.47813 39.946877 78.69688 39.946877Q79.9 39.946877 80.7125 39.009377Q81.54063 38.071877 81.54063 36.0875Q81.54063 34.18125 80.69688 33.2125Q79.85313 32.24375 78.66563 32.24375Q77.49375 32.24375 76.66563 33.196877Q75.85313 34.15 75.85313 36.025ZM92.82188 38.05625L94.63438 38.290627Q94.2125 39.86875 93.04063 40.759377Q91.88438 41.634377 90.07188 41.634377Q87.80625 41.634377 86.4625 40.24375Q85.13438 38.8375 85.13438 36.30625Q85.13438 33.68125 86.47813 32.24375Q87.82188 30.790627 89.97813 30.790627Q92.05625 30.790627 93.36875 32.2125Q94.69688 33.61875 94.69688 36.196877Q94.69688 36.353127 94.68125 36.665627L86.94688 36.665627Q87.04063 38.36875 87.91563 39.275Q88.79063 40.18125 90.0875 40.18125Q91.05625 40.18125 91.72813 39.68125Q92.41563 39.165627 92.82188 38.05625ZM87.04063 35.2125L92.8375 35.2125Q92.72813 33.915627 92.18125 33.259377Q91.3375 32.24375 89.99375 32.24375Q88.79063 32.24375 87.9625 33.05625Q87.13438 33.853127 87.04063 35.2125ZM109.82188 38.05625L111.63438 38.290627Q111.2125 39.86875 110.04063 40.759377Q108.88438 41.634377 107.07188 41.634377Q104.80625 41.634377 103.4625 40.24375Q102.13438 38.8375 102.13438 36.30625Q102.13438 33.68125 103.47813 32.24375Q104.82188 30.790627 106.97813 30.790627Q109.05625 30.790627 110.36875 32.2125Q111.69688 33.61875 111.69688 36.196877Q111.69688 36.353127 111.68125 36.665627L103.94688 36.665627Q104.04063 38.36875 104.91563 39.275Q105.79063 40.18125 107.0875 40.18125Q108.05625 40.18125 108.72813 39.68125Q109.41563 39.165627 109.82188 38.05625ZM104.04063 35.2125L109.8375 35.2125Q109.72813 33.915627 109.18125 33.259377Q108.3375 32.24375 106.99375 32.24375Q105.79063 32.24375 104.9625 33.05625Q104.13438 33.853127 104.04063 35.2125ZM112.54063 41.4L116.3375 36.009377L112.8375 31.025002L115.025 31.025002L116.61875 33.4625Q117.07188 34.15 117.3375 34.61875Q117.775 33.978127 118.13438 33.478127L119.88438 31.025002L121.97813 31.025002L118.4 35.915627L122.25938 41.4L120.10313 41.4L117.9625 38.18125L117.4 37.30625L114.68125 41.4L112.54063 41.4ZM129.82187 38.05625L131.63437 38.290627Q131.2125 39.86875 130.04062 40.759377Q128.88437 41.634377 127.07188 41.634377Q124.80625 41.634377 123.4625 40.24375Q122.13438 38.8375 122.13438 36.30625Q122.13438 33.68125 123.47813 32.24375Q124.82188 30.790627 126.97813 30.790627Q129.05624 30.790627 130.36874 32.2125Q131.69687 33.61875 131.69687 36.196877Q131.69687 36.353127 131.68124 36.665627L123.94688 36.665627Q124.04063 38.36875 124.91563 39.275Q125.79063 40.18125 127.0875 40.18125Q128.05624 40.18125 128.72812 39.68125Q129.41562 39.165627 129.82187 38.05625ZM124.04063 35.2125L129.8375 35.2125Q129.72812 33.915627 129.18124 33.259377Q128.3375 32.24375 126.99375 32.24375Q125.79063 32.24375 124.9625 33.05625Q124.13438 33.853127 124.04063 35.2125ZM140.49374 37.603127L142.2125 37.821877Q141.93124 39.61875 140.75937 40.634377Q139.60312 41.634377 137.9 41.634377Q135.775 41.634377 134.47812 40.24375Q133.18124 38.853127 133.18124 36.259377Q133.18124 34.571877 133.72812 33.321877Q134.29062 32.05625 135.43124 31.431252Q136.57187 30.790627 137.91562 30.790627Q139.60312 30.790627 140.66562 31.650002Q141.74374 32.509377 142.05624 34.071877L140.3375 34.3375Q140.10312 33.290627 139.47812 32.775Q138.85312 32.24375 137.97812 32.24375Q136.65 32.24375 135.82187 33.196877Q134.99374 34.15 134.99374 36.196877Q134.99374 38.290627 135.79062 39.24375Q136.5875 40.18125 137.88437 40.18125Q138.91562 40.18125 139.60312 39.55625Q140.30624 38.915627 140.49374 37.603127ZM150.50937 41.4L150.50937 39.86875Q149.30624 41.634377 147.22812 41.634377Q146.30624 41.634377 145.50937 41.290627Q144.7125 40.93125 144.32187 40.4Q143.94687 39.86875 143.79062 39.0875Q143.68124 38.571877 143.68124 37.446877L143.68124 31.025002L145.43124 31.025002L145.43124 36.775Q145.43124 38.15 145.54062 38.634377Q145.7125 39.321877 146.24374 39.728127Q146.79062 40.11875 147.57187 40.11875Q148.36874 40.11875 149.05624 39.7125Q149.75937 39.30625 150.04062 38.61875Q150.3375 37.915627 150.3375 36.5875L150.3375 31.025002L152.0875 31.025002L152.0875 41.4L150.50937 41.4ZM157.55624 39.821877L157.80624 41.384377Q157.07187 41.540627 156.47812 41.540627Q155.525 41.540627 154.99374 41.24375Q154.47812 40.93125 154.25937 40.446877Q154.04062 39.946877 154.04062 38.36875L154.04062 32.4L152.75937 32.4L152.75937 31.025002L154.04062 31.025002L154.04062 28.462502L155.79062 27.400002L155.79062 31.025002L157.55624 31.025002L157.55624 32.4L155.79062 32.4L155.79062 38.4625Q155.79062 39.2125 155.88437 39.43125Q155.97812 39.634377 156.18124 39.775Q156.4 39.9 156.79062 39.9Q157.07187 39.9 157.55624 39.821877ZM159.72812 29.103127L159.72812 27.087502L161.49374 27.087502L161.49374 29.103127L159.72812 29.103127ZM159.72812 41.4L159.72812 31.025002L161.49374 31.025002L161.49374 41.4L159.72812 41.4ZM163.07187 36.2125Q163.07187 33.3375 164.66562 31.946877Q166.00937 30.790627 167.93124 30.790627Q170.07187 30.790627 171.41562 32.196877Q172.775 33.603127 172.775 36.071877Q172.775 38.071877 172.18124 39.228127Q171.5875 40.36875 170.43124 41.009377Q169.29062 41.634377 167.93124 41.634377Q165.74374 41.634377 164.4 40.24375Q163.07187 38.8375 163.07187 36.2125ZM164.86874 36.2125Q164.86874 38.2125 165.72812 39.196877Q166.60312 40.18125 167.93124 40.18125Q169.24374 40.18125 170.10312 39.196877Q170.97812 38.196877 170.97812 36.15Q170.97812 34.228127 170.10312 33.24375Q169.22812 32.24375 167.93124 32.24375Q166.60312 32.24375 165.72812 33.24375Q164.86874 34.228127 164.86874 36.2125ZM174.7125 41.4L174.7125 31.025002L176.30624 31.025002L176.30624 32.509377Q177.44687 30.790627 179.60312 30.790627Q180.54062 30.790627 181.32187 31.134377Q182.11874 31.462502 182.50937 32.009377Q182.9 32.55625 183.05624 33.30625Q183.15 33.80625 183.15 35.025L183.15 41.4L181.38437 41.4L181.38437 35.0875Q181.38437 34.009377 181.18124 33.478127Q180.97812 32.946877 180.44687 32.634377Q179.93124 32.321877 179.22812 32.321877Q178.10312 32.321877 177.29062 33.040627Q176.47812 33.74375 176.47812 35.728127L176.47812 41.4L174.7125 41.4ZM194.55624 39.821877L194.80624 41.384377Q194.07187 41.540627 193.47812 41.540627Q192.525 41.540627 191.99374 41.24375Q191.47812 40.93125 191.25937 40.446877Q191.04062 39.946877 191.04062 38.36875L191.04062 32.4L189.75937 32.4L189.75937 31.025002L191.04062 31.025002L191.04062 28.462502L192.79062 27.400002L192.79062 31.025002L194.55624 31.025002L194.55624 32.4L192.79062 32.4L192.79062 38.4625Q192.79062 39.2125 192.88437 39.43125Q192.97812 39.634377 193.18124 39.775Q193.4 39.9 193.79062 39.9Q194.07187 39.9 194.55624 39.821877ZM196.72812 29.103127L196.72812 27.087502L198.49374 27.087502L198.49374 29.103127L196.72812 29.103127ZM196.72812 41.4L196.72812 31.025002L198.49374 31.025002L198.49374 41.4L196.72812 41.4ZM200.7125 41.4L200.7125 31.025002L202.29062 31.025002L202.29062 32.478127Q202.775 31.728127 203.5875 31.259377Q204.4 30.790627 205.43124 30.790627Q206.5875 30.790627 207.32187 31.275002Q208.05624 31.743752 208.36874 32.603127Q209.60312 30.790627 211.57187 30.790627Q213.11874 30.790627 213.94687 31.650002Q214.775 32.509377 214.775 34.275L214.775 41.4L213.025 41.4L213.025 34.86875Q213.025 33.80625 212.85312 33.353127Q212.68124 32.884377 212.22812 32.603127Q211.79062 32.321877 211.18124 32.321877Q210.0875 32.321877 209.35312 33.05625Q208.63437 33.775 208.63437 35.36875L208.63437 41.4L206.88437 41.4L206.88437 34.665627Q206.88437 33.49375 206.44687 32.915627Q206.025 32.321877 205.04062 32.321877Q204.30624 32.321877 203.66562 32.7125Q203.04062 33.103127 202.75937 33.853127Q202.47812 34.603127 202.47812 36.025L202.47812 41.4L200.7125 41.4ZM223.82187 38.05625L225.63437 38.290627Q225.2125 39.86875 224.04062 40.759377Q222.88437 41.634377 221.07187 41.634377Q218.80624 41.634377 217.4625 40.24375Q216.13437 38.8375 216.13437 36.30625Q216.13437 33.68125 217.47812 32.24375Q218.82187 30.790627 220.97812 30.790627Q223.05624 30.790627 224.36874 32.2125Q225.69687 33.61875 225.69687 36.196877Q225.69687 36.353127 225.68124 36.665627L217.94687 36.665627Q218.04062 38.36875 218.91562 39.275Q219.79062 40.18125 221.0875 40.18125Q222.05624 40.18125 222.72812 39.68125Q223.41562 39.165627 223.82187 38.05625ZM218.04062 35.2125L223.8375 35.2125Q223.72812 33.915627 223.18124 33.259377Q222.3375 32.24375 220.99374 32.24375Q219.79062 32.24375 218.9625 33.05625Q218.13437 33.853127 218.04062 35.2125ZM233.07187 36.2125Q233.07187 33.3375 234.66562 31.946877Q236.00937 30.790627 237.93124 30.790627Q240.07187 30.790627 241.41562 32.196877Q242.775 33.603127 242.775 36.071877Q242.775 38.071877 242.18124 39.228127Q241.5875 40.36875 240.43124 41.009377Q239.29062 41.634377 237.93124 41.634377Q235.74374 41.634377 234.4 40.24375Q233.07187 38.8375 233.07187 36.2125ZM234.86874 36.2125Q234.86874 38.2125 235.72812 39.196877Q236.60312 40.18125 237.93124 40.18125Q239.24374 40.18125 240.10312 39.196877Q240.97812 38.196877 240.97812 36.15Q240.97812 34.228127 240.10312 33.24375Q239.22812 32.24375 237.93124 32.24375Q236.60312 32.24375 235.72812 33.24375Q234.86874 34.228127 234.86874 36.2125ZM245.13437 41.4L245.13437 32.4L243.5875 32.4L243.5875 31.025002L245.13437 31.025002L245.13437 29.931252Q245.13437 28.884377 245.32187 28.368752Q245.57187 27.681252 246.2125 27.259377Q246.85312 26.837502 248.00937 26.837502Q248.75937 26.837502 249.65 27.009377L249.38437 28.540627Q248.8375 28.446877 248.35312 28.446877Q247.55624 28.446877 247.2125 28.790627Q246.88437 29.134377 246.88437 30.071877L246.88437 31.025002L248.91562 31.025002L248.91562 32.4L246.88437 32.4L246.88437 41.4L245.13437 41.4ZM267.16562 36.384377L269.05624 36.853127Q268.4625 39.196877 266.91562 40.43125Q265.36874 41.65 263.11874 41.65Q260.80624 41.65 259.35312 40.7125Q257.91562 39.759377 257.15 37.978127Q256.4 36.18125 256.4 34.134377Q256.4 31.900002 257.24374 30.243752Q258.10312 28.571877 259.68124 27.712502Q261.25937 26.837502 263.15 26.837502Q265.30624 26.837502 266.75937 27.931252Q268.22812 29.025002 268.80624 31.009377L266.94687 31.446877Q266.44687 29.884377 265.49374 29.181252Q264.55624 28.462502 263.11874 28.462502Q261.4625 28.462502 260.35312 29.259377Q259.24374 30.040627 258.79062 31.384377Q258.35312 32.7125 258.35312 34.11875Q258.35312 35.946877 258.88437 37.321877Q259.41562 38.68125 260.54062 39.353127Q261.66562 40.025 262.9625 40.025Q264.55624 40.025 265.66562 39.103127Q266.775 38.18125 267.16562 36.384377ZM279.60312 41.4L275.65 31.025002L277.50937 31.025002L279.74374 37.24375Q280.10312 38.24375 280.4 39.321877Q280.63437 38.509377 281.05624 37.353127L283.35312 31.025002L285.16562 31.025002L281.24374 41.4L279.60312 41.4ZM285.00937 38.30625L286.75937 38.025Q286.9 39.071877 287.57187 39.634377Q288.24374 40.18125 289.44687 40.18125Q290.65 40.18125 291.22812 39.696877Q291.82187 39.196877 291.82187 38.540627Q291.82187 37.946877 291.30624 37.603127Q290.94687 37.36875 289.50937 37.009377Q287.57187 36.509377 286.82187 36.165627Q286.0875 35.80625 285.69687 35.18125Q285.30624 34.540627 285.30624 33.775Q285.30624 33.0875 285.61874 32.49375Q285.94687 31.900002 286.49374 31.509377Q286.9 31.212502 287.60312 31.009377Q288.32187 30.790627 289.13437 30.790627Q290.35312 30.790627 291.275 31.150002Q292.19687 31.493752 292.63437 32.103127Q293.07187 32.696877 293.24374 33.696877L291.525 33.93125Q291.4 33.134377 290.8375 32.696877Q290.275 32.24375 289.25937 32.24375Q288.04062 32.24375 287.525 32.65Q287.00937 33.040627 287.00937 33.571877Q287.00937 33.915627 287.22812 34.196877Q287.43124 34.478127 287.9 34.665627Q288.16562 34.759377 289.44687 35.103127Q291.32187 35.603127 292.05624 35.93125Q292.79062 36.24375 293.2125 36.853127Q293.63437 37.446877 293.63437 38.353127Q293.63437 39.228127 293.11874 40.009377Q292.60312 40.790627 291.63437 41.2125Q290.66562 41.634377 289.44687 41.634377Q287.43124 41.634377 286.36874 40.790627Q285.30624 39.946877 285.00937 38.30625ZM300.54062 41.4L304.3375 36.009377L300.8375 31.025002L303.025 31.025002L304.61874 33.4625Q305.07187 34.15 305.3375 34.61875Q305.775 33.978127 306.13437 33.478127L307.88437 31.025002L309.97812 31.025002L306.4 35.915627L310.25937 41.4L308.10312 41.4L305.9625 38.18125L305.4 37.30625L302.68124 41.4L300.54062 41.4ZM312.93124 33.634377Q311.8375 33.228127 311.30624 32.49375Q310.79062 31.743752 310.79062 30.712502Q310.79062 29.150002 311.91562 28.087502Q313.04062 27.025002 314.9 27.025002Q316.775 27.025002 317.91562 28.118752Q319.05624 29.196877 319.05624 30.759377Q319.05624 31.759377 318.525 32.49375Q318.00937 33.228127 316.94687 33.634377Q318.275 34.071877 318.9625 35.025Q319.65 35.978127 319.65 37.30625Q319.65 39.15 318.3375 40.4Q317.04062 41.65 314.93124 41.65Q312.80624 41.65 311.50937 40.4Q310.2125 39.134377 310.2125 37.259377Q310.2125 35.86875 310.91562 34.93125Q311.63437 33.978127 312.93124 33.634377ZM312.5875 30.650002Q312.5875 31.665627 313.24374 32.321877Q313.9 32.9625 314.93124 32.9625Q315.94687 32.9625 316.60312 32.321877Q317.25937 31.681252 317.25937 30.759377Q317.25937 29.790627 316.5875 29.134377Q315.91562 28.462502 314.91562 28.462502Q313.91562 28.462502 313.24374 29.118752Q312.5875 29.759377 312.5875 30.650002ZM312.025 37.275Q312.025 38.025 312.36874 38.728127Q312.72812 39.43125 313.43124 39.821877Q314.13437 40.196877 314.94687 40.196877Q316.2125 40.196877 317.025 39.384377Q317.85312 38.571877 317.85312 37.321877Q317.85312 36.05625 317.00937 35.228127Q316.16562 34.4 314.88437 34.4Q313.65 34.4 312.8375 35.228127Q312.025 36.040627 312.025 37.275ZM330.35312 30.587502L328.60312 30.728127Q328.36874 29.696877 327.94687 29.228127Q327.22812 28.462502 326.18124 28.462502Q325.3375 28.462502 324.7125 28.931252Q323.88437 29.540627 323.4 30.712502Q322.91562 31.868752 322.9 34.009377Q323.54062 33.05625 324.44687 32.5875Q325.36874 32.11875 326.38437 32.11875Q328.13437 32.11875 329.36874 33.415627Q330.60312 34.696877 330.60312 36.74375Q330.60312 38.103127 330.025 39.259377Q329.44687 40.415627 328.43124 41.040627Q327.41562 41.65 326.11874 41.65Q323.93124 41.65 322.54062 40.040627Q321.15 38.415627 321.15 34.696877Q321.15 30.556252 322.68124 28.665627Q324.025 27.025002 326.29062 27.025002Q327.97812 27.025002 329.05624 27.978127Q330.13437 28.915627 330.35312 30.587502ZM323.18124 36.759377Q323.18124 37.665627 323.55624 38.49375Q323.94687 39.321877 324.63437 39.759377Q325.3375 40.196877 326.0875 40.196877Q327.2125 40.196877 328.00937 39.30625Q328.80624 38.4 328.80624 36.853127Q328.80624 35.36875 328.00937 34.525Q327.22812 33.665627 326.025 33.665627Q324.8375 33.665627 324.00937 34.525Q323.18124 35.36875 323.18124 36.759377ZM331.10312 45.36875L331.10312 44.103127L342.74374 44.103127L342.74374 45.36875L331.10312 45.36875ZM352.35312 30.587502L350.60312 30.728127Q350.36874 29.696877 349.94687 29.228127Q349.22812 28.462502 348.18124 28.462502Q347.3375 28.462502 346.7125 28.931252Q345.88437 29.540627 345.4 30.712502Q344.91562 31.868752 344.9 34.009377Q345.54062 33.05625 346.44687 32.5875Q347.36874 32.11875 348.38437 32.11875Q350.13437 32.11875 351.36874 33.415627Q352.60312 34.696877 352.60312 36.74375Q352.60312 38.103127 352.025 39.259377Q351.44687 40.415627 350.43124 41.040627Q349.41562 41.65 348.11874 41.65Q345.93124 41.65 344.54062 40.040627Q343.15 38.415627 343.15 34.696877Q343.15 30.556252 344.68124 28.665627Q346.025 27.025002 348.29062 27.025002Q349.97812 27.025002 351.05624 27.978127Q352.13437 28.915627 352.35312 30.587502ZM345.18124 36.759377Q345.18124 37.665627 345.55624 38.49375Q345.94687 39.321877 346.63437 39.759377Q347.3375 40.196877 348.0875 40.196877Q349.2125 40.196877 350.00937 39.30625Q350.80624 38.4 350.80624 36.853127Q350.80624 35.36875 350.00937 34.525Q349.22812 33.665627 348.025 33.665627Q346.8375 33.665627 346.00937 34.525Q345.18124 35.36875 345.18124 36.759377ZM359.86874 41.4L359.86874 37.978127L353.65 37.978127L353.65 36.353127L360.18124 27.087502L361.61874 27.087502L361.61874 36.353127L363.55624 36.353127L363.55624 37.978127L361.61874 37.978127L361.61874 41.4L359.86874 41.4ZM359.86874 36.353127L359.86874 29.900002L355.38437 36.353127L359.86874 36.353127Z" fill-rule="nonzero"/></svg>