<svg version="1.1" viewBox="0.0 0.0 600.0 371.0" fill="none" stroke="none" stroke-linecap="square" stroke-miterlimit="10" width="600" height="371" xmlns:xlink="http://www.w3.org/1999/xlink" xmlns="http://www.w3.org/2000/svg"><path fill="#ffffff" d="M0 0L600.0 0L600.0 371.0L0 371.0L0 0Z" fill-rule="nonzero"/><path stroke="#333333" stroke-width="1.0" stroke-linecap="butt" d="M45.5 54.5L45.5 332.5" fill-rule="nonzero"/><path stroke="#cccccc" stroke-width="1.0" stroke-linecap="butt" d="M179.5 54.5L179.5 332.5" fill-rule="nonzero"/><path stroke="#cccccc" stroke-width="1.0" stroke-linecap="butt" d="M313.5 54.5L313.5 332.5" fill-rule="nonzero"/><path stroke="#cccccc" stroke-width="1.0" stroke-linecap="butt" d="M447.5 54.5L447.5 332.5" fill-rule="nonzero"/><path stroke="#cccccc" stroke-width="1.0" stroke-linecap="butt" d="M581.5 54.5L581.5 332.5" fill-rule="nonzero"/><clipPath id="id_0"><path d="M45.55 54.916668L581.45 54.916668L581.45 332.45L45.55 332.45L45.55 54.916668Z" clip-rule="nonzero"/></clipPath><path stroke="#000000" stroke-width="2.0" stroke-linecap="butt" stroke-opacity="0.0" clip-path="url(#id_0)" d="M46.0 174.0L46.0 97.0L562.0 97.0C563.10455 97.0 564.0 97.89543 564.0 99.0L564.0 172.0C564.0 173.10457 563.10455 174.0 562.0 174.0Z" fill-rule="nonzero"/><path fill="#4285f4" clip-path="url(#id_0)" d="M46.0 174.0L46.0 97.0L562.0 97.0C563.10455 97.0 564.0 97.89543 564.0 99.0L564.0 172.0C564.0 173.10457 563.10455 174.0 562.0 174.0Z" fill-rule="nonzero"/><path stroke="#000000" stroke-width="2.0" stroke-linecap="butt" stroke-opacity="0.0" clip-path="url(#id_0)" d="M46.0 292.0L46.0 215.0L288.0 215.0C289.10458 215.0 290.0 215.89543 290.0 217.0L290.0 290.0C290.0 291.10458 289.10458 292.0 288.0 292.0Z" fill-rule="nonzero"/><path fill="#4285f4" clip-path="url(#id_0)" d="M46.0 292.0L46.0 215.0L288.0 215.0C289.10458 215.0 290.0 215.89543 290.0 217.0L290.0 290.0C290.0 291.10458 289.10458 292.0 288.0 292.0Z" fill-rule="nonzero"/><path stroke="#4285f4" stroke-width="3.0" stroke-linejoin="round" stroke-linecap="round" d="M520.1618 135.85938Q520.1618 137.76562 519.50555 138.70312Q518.8649 139.625 517.4743 139.625Q516.1149 139.625 515.4587 138.71875Q514.8024 137.8125 514.7712 136.0L514.7712 134.5625Q514.7712 132.67188 515.4118 131.76562Q516.06805 130.84375 517.4587 130.84375Q518.8337 130.84375 519.4899 131.73438Q520.1462 132.60938 520.1618 134.45312L520.1618 135.85938ZM519.06805 134.375Q519.06805 133.0 518.6774 132.375Q518.3024 131.73438 517.4587 131.73438Q516.63055 131.73438 516.2399 132.375Q515.8649 133.0 515.8649 134.29688L515.8649 136.03125Q515.8649 137.40625 516.25555 138.07812Q516.6618 138.73438 517.4743 138.73438Q518.2712 138.73438 518.6618 138.10938Q519.0524 137.48438 519.06805 136.15625L519.06805 134.375ZM521.94305 138.9375Q521.94305 138.65625 522.0993 138.46875Q522.2712 138.28125 522.5993 138.28125Q522.94305 138.28125 523.1149 138.46875Q523.2868 138.65625 523.2868 138.9375Q523.2868 139.20312 523.1149 139.39062Q522.94305 139.5625 522.5993 139.5625Q522.2712 139.5625 522.0993 139.39062Q521.94305 139.20312 521.94305 138.9375ZM530.1618 135.85938Q530.1618 137.76562 529.50555 138.70312Q528.8649 139.625 527.4743 139.625Q526.1149 139.625 525.4587 138.71875Q524.8024 137.8125 524.7712 136.0L524.7712 134.5625Q524.7712 132.67188 525.4118 131.76562Q526.06805 130.84375 527.4587 130.84375Q528.8337 130.84375 529.4899 131.73438Q530.1462 132.60938 530.1618 134.45312L530.1618 135.85938ZM529.06805 134.375Q529.06805 133.0 528.6774 132.375Q528.3024 131.73438 527.4587 131.73438Q526.63055 131.73438 526.2399 132.375Q525.8649 133.0 525.8649 134.29688L525.8649 136.03125Q525.8649 137.40625 526.25555 138.07812Q526.6618 138.73438 527.4743 138.73438Q528.2712 138.73438 528.6618 138.10938Q529.0524 137.48438 529.06805 136.15625L529.06805 134.375ZM533.38055 134.70312L534.19305 134.70312Q534.9743 134.6875 535.4118 134.29688Q535.8493 133.90625 535.8493 133.23438Q535.8493 131.73438 534.3493 131.73438Q533.6462 131.73438 533.2243 132.14062Q532.81805 132.54688 532.81805 133.20312L531.7243 133.20312Q531.7243 132.1875 532.4587 131.51562Q533.2087 130.84375 534.3493 130.84375Q535.5524 130.84375 536.2399 131.48438Q536.9274 132.125 536.9274 133.26562Q536.9274 133.82812 536.56805 134.34375Q536.2087 134.85938 535.5837 135.125Q536.2868 135.34375 536.6618 135.85938Q537.0524 136.375 537.0524 137.125Q537.0524 138.26562 536.3024 138.95312Q535.5524 139.625 534.3493 139.625Q533.1618 139.625 532.3962 138.96875Q531.6462 138.3125 531.6462 137.25L532.7399 137.25Q532.7399 137.92188 533.1774 138.32812Q533.6149 138.73438 534.3649 138.73438Q535.1462 138.73438 535.5524 138.32812Q535.9743 137.90625 535.9743 137.14062Q535.9743 136.40625 535.5212 136.01562Q535.06805 135.60938 534.19305 135.59375L533.38055 135.59375L533.38055 134.70312ZM543.9899 133.1875Q543.9899 133.82812 543.6462 134.32812Q543.3024 134.82812 542.7399 135.10938Q543.3962 135.39062 543.7868 135.95312Q544.1774 136.5 544.1774 137.20312Q544.1774 138.29688 543.4274 138.96875Q542.69305 139.625 541.4743 139.625Q540.2399 139.625 539.4899 138.96875Q538.75555 138.29688 538.75555 137.20312Q538.75555 136.5 539.13055 135.95312Q539.50555 135.39062 540.1774 135.10938Q539.6149 134.82812 539.2868 134.32812Q538.9587 133.82812 538.9587 133.1875Q538.9587 132.10938 539.6462 131.48438Q540.3337 130.84375 541.4743 130.84375Q542.5993 130.84375 543.2868 131.48438Q543.9899 132.10938 543.9899 133.1875ZM543.0993 137.17188Q543.0993 136.45312 542.6462 136.01562Q542.19305 135.5625 541.4587 135.5625Q540.7243 135.5625 540.2712 136.01562Q539.8337 136.45312 539.8337 137.1875Q539.8337 137.90625 540.2712 138.32812Q540.7087 138.73438 541.4743 138.73438Q542.2243 138.73438 542.6618 138.3125Q543.0993 137.89062 543.0993 137.17188ZM541.4743 131.73438Q540.8337 131.73438 540.4274 132.14062Q540.0368 132.53125 540.0368 133.21875Q540.0368 133.85938 540.4274 134.26562Q540.81805 134.67188 541.4587 134.67188Q542.1149 134.67188 542.50555 134.26562Q542.8962 133.85938 542.8962 133.21875Q542.8962 132.5625 542.4899 132.15625Q542.0837 131.73438 541.4743 131.73438ZM550.06805 130.96875L550.06805 131.875L549.8649 131.875Q548.5993 131.90625 547.8493 132.64062Q547.0993 133.35938 546.9743 134.67188Q547.6618 133.90625 548.81805 133.90625Q549.9274 133.90625 550.5993 134.6875Q551.2712 135.46875 551.2712 136.71875Q551.2712 138.03125 550.5524 138.82812Q549.8337 139.625 548.6149 139.625Q547.3962 139.625 546.63055 138.6875Q545.88055 137.73438 545.88055 136.25L545.88055 135.84375Q545.88055 133.48438 546.88055 132.23438Q547.88055 130.98438 549.8649 130.96875L550.06805 130.96875ZM548.6462 134.8125Q548.0837 134.8125 547.6149 135.14062Q547.1462 135.46875 546.9587 135.98438L546.9587 136.375Q546.9587 137.4375 547.4274 138.07812Q547.9118 138.71875 548.6149 138.71875Q549.3493 138.71875 549.7712 138.1875Q550.19305 137.64062 550.19305 136.76562Q550.19305 135.89062 549.7712 135.35938Q549.3493 134.8125 548.6462 134.8125ZM556.9587 135.75Q556.63055 136.15625 556.1462 136.40625Q555.6774 136.64062 555.1149 136.64062Q554.38055 136.64062 553.8337 136.28125Q553.2868 135.92188 552.9899 135.26562Q552.69305 134.59375 552.69305 133.79688Q552.69305 132.95312 553.00555 132.26562Q553.3337 131.57812 553.9274 131.21875Q554.5368 130.84375 555.3337 130.84375Q556.5993 130.84375 557.31805 131.79688Q558.0524 132.75 558.0524 134.375L558.0524 134.6875Q558.0524 137.1875 557.06805 138.32812Q556.0837 139.46875 554.0993 139.5L553.88055 139.5L553.88055 138.59375L554.1149 138.59375Q555.4587 138.5625 556.1774 137.89062Q556.8962 137.21875 556.9587 135.75ZM555.2868 135.75Q555.8337 135.75 556.2868 135.42188Q556.75555 135.07812 556.9743 134.59375L556.9743 134.15625Q556.9743 133.09375 556.50555 132.42188Q556.0368 131.75 555.3337 131.75Q554.6149 131.75 554.1774 132.29688Q553.75555 132.84375 553.75555 133.75Q553.75555 134.625 554.1618 135.1875Q554.5837 135.75 555.2868 135.75Z" fill-rule="nonzero"/><path fill="#ffffff" d="M520.1618 135.85938Q520.1618 137.76562 519.50555 138.70312Q518.8649 139.625 517.4743 139.625Q516.1149 139.625 515.4587 138.71875Q514.8024 137.8125 514.7712 136.0L514.7712 134.5625Q514.7712 132.67188 515.4118 131.76562Q516.06805 130.84375 517.4587 130.84375Q518.8337 130.84375 519.4899 131.73438Q520.1462 132.60938 520.1618 134.45312L520.1618 135.85938ZM519.06805 134.375Q519.06805 133.0 518.6774 132.375Q518.3024 131.73438 517.4587 131.73438Q516.63055 131.73438 516.2399 132.375Q515.8649 133.0 515.8649 134.29688L515.8649 136.03125Q515.8649 137.40625 516.25555 138.07812Q516.6618 138.73438 517.4743 138.73438Q518.2712 138.73438 518.6618 138.10938Q519.0524 137.48438 519.06805 136.15625L519.06805 134.375ZM521.94305 138.9375Q521.94305 138.65625 522.0993 138.46875Q522.2712 138.28125 522.5993 138.28125Q522.94305 138.28125 523.1149 138.46875Q523.2868 138.65625 523.2868 138.9375Q523.2868 139.20312 523.1149 139.39062Q522.94305 139.5625 522.5993 139.5625Q522.2712 139.5625 522.0993 139.39062Q521.94305 139.20312 521.94305 138.9375ZM530.1618 135.85938Q530.1618 137.76562 529.50555 138.70312Q528.8649 139.625 527.4743 139.625Q526.1149 139.625 525.4587 138.71875Q524.8024 137.8125 524.7712 136.0L524.7712 134.5625Q524.7712 132.67188 525.4118 131.76562Q526.06805 130.84375 527.4587 130.84375Q528.8337 130.84375 529.4899 131.73438Q530.1462 132.60938 530.1618 134.45312L530.1618 135.85938ZM529.06805 134.375Q529.06805 133.0 528.6774 132.375Q528.3024 131.73438 527.4587 131.73438Q526.63055 131.73438 526.2399 132.375Q525.8649 133.0 525.8649 134.29688L525.8649 136.03125Q525.8649 137.40625 526.25555 138.07812Q526.6618 138.73438 527.4743 138.73438Q528.2712 138.73438 528.6618 138.10938Q529.0524 137.48438 529.06805 136.15625L529.06805 134.375ZM533.38055 134.70312L534.19305 134.70312Q534.9743 134.6875 535.4118 134.29688Q535.8493 133.90625 535.8493 133.23438Q535.8493 131.73438 534.3493 131.73438Q533.6462 131.73438 533.2243 132.14062Q532.81805 132.54688 532.81805 133.20312L531.7243 133.20312Q531.7243 132.1875 532.4587 131.51562Q533.2087 130.84375 534.3493 130.84375Q535.5524 130.84375 536.2399 131.48438Q536.9274 132.125 536.9274 133.26562Q536.9274 133.82812 536.56805 134.34375Q536.2087 134.85938 535.5837 135.125Q536.2868 135.34375 536.6618 135.85938Q537.0524 136.375 537.0524 137.125Q537.0524 138.26562 536.3024 138.95312Q535.5524 139.625 534.3493 139.625Q533.1618 139.625 532.3962 138.96875Q531.6462 138.3125 531.6462 137.25L532.7399 137.25Q532.7399 137.92188 533.1774 138.32812Q533.6149 138.73438 534.3649 138.73438Q535.1462 138.73438 535.5524 138.32812Q535.9743 137.90625 535.9743 137.14062Q535.9743 136.40625 535.5212 136.01562Q535.06805 135.60938 534.19305 135.59375L533.38055 135.59375L533.38055 134.70312ZM543.9899 133.1875Q543.9899 133.82812 543.6462 134.32812Q543.3024 134.82812 542.7399 135.10938Q543.3962 135.39062 543.7868 135.95312Q544.1774 136.5 544.1774 137.20312Q544.1774 138.29688 543.4274 138.96875Q542.69305 139.625 541.4743 139.625Q540.2399 139.625 539.4899 138.96875Q538.75555 138.29688 538.75555 137.20312Q538.75555 136.5 539.13055 135.95312Q539.50555 135.39062 540.1774 135.10938Q539.6149 134.82812 539.2868 134.32812Q538.9587 133.82812 538.9587 133.1875Q538.9587 132.10938 539.6462 131.48438Q540.3337 130.84375 541.4743 130.84375Q542.5993 130.84375 543.2868 131.48438Q543.9899 132.10938 543.9899 133.1875ZM543.0993 137.17188Q543.0993 136.45312 542.6462 136.01562Q542.19305 135.5625 541.4587 135.5625Q540.7243 135.5625 540.2712 136.01562Q539.8337 136.45312 539.8337 137.1875Q539.8337 137.90625 540.2712 138.32812Q540.7087 138.73438 541.4743 138.73438Q542.2243 138.73438 542.6618 138.3125Q543.0993 137.89062 543.0993 137.17188ZM541.4743 131.73438Q540.8337 131.73438 540.4274 132.14062Q540.0368 132.53125 540.0368 133.21875Q540.0368 133.85938 540.4274 134.26562Q540.81805 134.67188 541.4587 134.67188Q542.1149 134.67188 542.50555 134.26562Q542.8962 133.85938 542.8962 133.21875Q542.8962 132.5625 542.4899 132.15625Q542.0837 131.73438 541.4743 131.73438ZM550.06805 130.96875L550.06805 131.875L549.8649 131.875Q548.5993 131.90625 547.8493 132.64062Q547.0993 133.35938 546.9743 134.67188Q547.6618 133.90625 548.81805 133.90625Q549.9274 133.90625 550.5993 134.6875Q551.2712 135.46875 551.2712 136.71875Q551.2712 138.03125 550.5524 138.82812Q549.8337 139.625 548.6149 139.625Q547.3962 139.625 546.63055 138.6875Q545.88055 137.73438 545.88055 136.25L545.88055 135.84375Q545.88055 133.48438 546.88055 132.23438Q547.88055 130.98438 549.8649 130.96875L550.06805 130.96875ZM548.6462 134.8125Q548.0837 134.8125 547.6149 135.14062Q547.1462 135.46875 546.9587 135.98438L546.9587 136.375Q546.9587 137.4375 547.4274 138.07812Q547.9118 138.71875 548.6149 138.71875Q549.3493 138.71875 549.7712 138.1875Q550.19305 137.64062 550.19305 136.76562Q550.19305 135.89062 549.7712 135.35938Q549.3493 134.8125 548.6462 134.8125ZM556.9587 135.75Q556.63055 136.15625 556.1462 136.40625Q555.6774 136.64062 555.1149 136.64062Q554.38055 136.64062 553.8337 136.28125Q553.2868 135.92188 552.9899 135.26562Q552.69305 134.59375 552.69305 133.79688Q552.69305 132.95312 553.00555 132.26562Q553.3337 131.57812 553.9274 131.21875Q554.5368 130.84375 555.3337 130.84375Q556.5993 130.84375 557.31805 131.79688Q558.0524 132.75 558.0524 134.375L558.0524 134.6875Q558.0524 137.1875 557.06805 138.32812Q556.0837 139.46875 554.0993 139.5L553.88055 139.5L553.88055 138.59375L554.1149 138.59375Q555.4587 138.5625 556.1774 137.89062Q556.8962 137.21875 556.9587 135.75ZM555.2868 135.75Q555.8337 135.75 556.2868 135.42188Q556.75555 135.07812 556.9743 134.59375L556.9743 134.15625Q556.9743 133.09375 556.50555 132.42188Q556.0368 131.75 555.3337 131.75Q554.6149 131.75 554.1774 132.29688Q553.75555 132.84375 553.75555 133.75Q553.75555 134.625 554.1618 135.1875Q554.5837 135.75 555.2868 135.75Z" fill-rule="nonzero"/><path stroke="#4285f4" stroke-width="3.0" stroke-linejoin="round" stroke-linecap="round" d="M246.31688 253.85938Q246.31688 255.76562 245.66063 256.70312Q245.02 257.625 243.62938 257.625Q242.27 257.625 241.61375 256.71875Q240.9575 255.8125 240.92625 254.0L240.92625 252.5625Q240.92625 250.67188 241.56688 249.76562Q242.22313 248.84375 243.61375 248.84375Q244.98875 248.84375 245.645 249.73438Q246.30125 250.60938 246.31688 252.45312L246.31688 253.85938ZM245.22313 252.375Q245.22313 251.0 244.8325 250.375Q244.4575 249.73438 243.61375 249.73438Q242.78563 249.73438 242.395 250.375Q242.02 251.0 242.02 252.29688L242.02 254.03125Q242.02 255.40625 242.41063 256.07812Q242.81688 256.73438 243.62938 256.73438Q244.42625 256.73438 244.81688 256.10938Q245.2075 255.48438 245.22313 254.15625L245.22313 252.375ZM248.09813 256.9375Q248.09813 256.65625 248.25438 256.46875Q248.42625 256.28125 248.75438 256.28125Q249.09813 256.28125 249.27 256.46875Q249.44188 256.65625 249.44188 256.9375Q249.44188 257.20312 249.27 257.39062Q249.09813 257.5625 248.75438 257.5625Q248.42625 257.5625 248.25438 257.39062Q248.09813 257.20312 248.09813 256.9375ZM256.31686 253.85938Q256.31686 255.76562 255.66063 256.70312Q255.02 257.625 253.62938 257.625Q252.27 257.625 251.61375 256.71875Q250.9575 255.8125 250.92625 254.0L250.92625 252.5625Q250.92625 250.67188 251.56688 249.76562Q252.22313 248.84375 253.61375 248.84375Q254.98875 248.84375 255.645 249.73438Q256.30124 250.60938 256.31686 252.45312L256.31686 253.85938ZM255.22313 252.375Q255.22313 251.0 254.8325 250.375Q254.4575 249.73438 253.61375 249.73438Q252.78563 249.73438 252.395 250.375Q252.02 251.0 252.02 252.29688L252.02 254.03125Q252.02 255.40625 252.41063 256.07812Q252.81688 256.73438 253.62938 256.73438Q254.42625 256.73438 254.81688 256.10938Q255.2075 255.48438 255.22313 254.15625L255.22313 252.375ZM261.52 257.5L260.44186 257.5L260.44186 250.28125L258.25436 251.07812L258.25436 250.09375L261.36374 248.92188L261.52 248.92188L261.52 257.5ZM270.145 251.1875Q270.145 251.82812 269.80124 252.32812Q269.4575 252.82812 268.895 253.10938Q269.55124 253.39062 269.94186 253.95312Q270.3325 254.5 270.3325 255.20312Q270.3325 256.29688 269.5825 256.96875Q268.8481 257.625 267.62936 257.625Q266.395 257.625 265.645 256.96875Q264.9106 256.29688 264.9106 255.20312Q264.9106 254.5 265.2856 253.95312Q265.6606 253.39062 266.3325 253.10938Q265.77 252.82812 265.44186 252.32812Q265.11374 251.82812 265.11374 251.1875Q265.11374 250.10938 265.80124 249.48438Q266.48874 248.84375 267.62936 248.84375Q268.75436 248.84375 269.44186 249.48438Q270.145 250.10938 270.145 251.1875ZM269.25436 255.17188Q269.25436 254.45312 268.80124 254.01562Q268.3481 253.5625 267.61374 253.5625Q266.87936 253.5625 266.42624 254.01562Q265.98874 254.45312 265.98874 255.1875Q265.98874 255.90625 266.42624 256.32812Q266.86374 256.73438 267.62936 256.73438Q268.37936 256.73438 268.81686 256.3125Q269.25436 255.89062 269.25436 255.17188ZM267.62936 249.73438Q266.98874 249.73438 266.5825 250.14062Q266.19186 250.53125 266.19186 251.21875Q266.19186 251.85938 266.5825 252.26562Q266.9731 252.67188 267.61374 252.67188Q268.27 252.67188 268.6606 252.26562Q269.05124 251.85938 269.05124 251.21875Q269.05124 250.5625 268.645 250.15625Q268.23874 249.73438 267.62936 249.73438ZM277.55124 257.5L271.9575 257.5L271.9575 256.71875L274.9106 253.4375Q275.56686 252.6875 275.81686 252.23438Q276.06686 251.76562 276.06686 251.26562Q276.06686 250.59375 275.6606 250.17188Q275.27 249.73438 274.5825 249.73438Q273.7856 249.73438 273.3325 250.20312Q272.87936 250.65625 272.87936 251.48438L271.80124 251.48438Q271.80124 250.29688 272.55124 249.57812Q273.31686 248.84375 274.5825 248.84375Q275.7856 248.84375 276.4731 249.46875Q277.1606 250.09375 277.1606 251.14062Q277.1606 252.39062 275.55124 254.14062L273.27 256.60938L277.55124 256.60938L277.55124 257.5ZM279.4575 253.21875L279.895 248.96875L284.27 248.96875L284.27 249.96875L280.81686 249.96875L280.55124 252.29688Q281.19186 251.92188 281.98874 251.92188Q283.145 251.92188 283.8325 252.70312Q284.52 253.46875 284.52 254.78125Q284.52 256.09375 283.80124 256.85938Q283.0981 257.625 281.81686 257.625Q280.69186 257.625 279.9731 257.0Q279.25436 256.35938 279.1606 255.25L280.17624 255.25Q280.2856 255.98438 280.7075 256.35938Q281.12936 256.73438 281.81686 256.73438Q282.56686 256.73438 283.00436 256.21875Q283.44186 255.70312 283.44186 254.79688Q283.44186 253.9375 282.9731 253.42188Q282.50436 252.90625 281.7231 252.90625Q281.02 252.90625 280.61374 253.20312L280.3325 253.4375L279.4575 253.21875Z" fill-rule="nonzero"/><path fill="#ffffff" d="M246.31688 253.85938Q246.31688 255.76562 245.66063 256.70312Q245.02 257.625 243.62938 257.625Q242.27 257.625 241.61375 256.71875Q240.9575 255.8125 240.92625 254.0L240.92625 252.5625Q240.92625 250.67188 241.56688 249.76562Q242.22313 248.84375 243.61375 248.84375Q244.98875 248.84375 245.645 249.73438Q246.30125 250.60938 246.31688 252.45312L246.31688 253.85938ZM245.22313 252.375Q245.22313 251.0 244.8325 250.375Q244.4575 249.73438 243.61375 249.73438Q242.78563 249.73438 242.395 250.375Q242.02 251.0 242.02 252.29688L242.02 254.03125Q242.02 255.40625 242.41063 256.07812Q242.81688 256.73438 243.62938 256.73438Q244.42625 256.73438 244.81688 256.10938Q245.2075 255.48438 245.22313 254.15625L245.22313 252.375ZM248.09813 256.9375Q248.09813 256.65625 248.25438 256.46875Q248.42625 256.28125 248.75438 256.28125Q249.09813 256.28125 249.27 256.46875Q249.44188 256.65625 249.44188 256.9375Q249.44188 257.20312 249.27 257.39062Q249.09813 257.5625 248.75438 257.5625Q248.42625 257.5625 248.25438 257.39062Q248.09813 257.20312 248.09813 256.9375ZM256.3169 253.85938Q256.3169 255.76562 255.66063 256.70312Q255.02 257.625 253.62938 257.625Q252.27 257.625 251.61375 256.71875Q250.9575 255.8125 250.92625 254.0L250.92625 252.5625Q250.92625 250.67188 251.56688 249.76562Q252.22313 248.84375 253.61375 248.84375Q254.98875 248.84375 255.645 249.73438Q256.30127 250.60938 256.3169 252.45312L256.3169 253.85938ZM255.22313 252.375Q255.22313 251.0 254.8325 250.375Q254.4575 249.73438 253.61375 249.73438Q252.78563 249.73438 252.395 250.375Q252.02 251.0 252.02 252.29688L252.02 254.03125Q252.02 255.40625 252.41063 256.07812Q252.81688 256.73438 253.62938 256.73438Q254.42625 256.73438 254.81688 256.10938Q255.2075 255.48438 255.22313 254.15625L255.22313 252.375ZM261.52002 257.5L260.4419 257.5L260.4419 250.28125L258.2544 251.07812L258.2544 250.09375L261.36377 248.92188L261.52002 248.92188L261.52002 257.5ZM270.14502 251.1875Q270.14502 251.82812 269.80127 252.32812Q269.45752 252.82812 268.89502 253.10938Q269.55127 253.39062 269.9419 253.95312Q270.33252 254.5 270.33252 255.20312Q270.33252 256.29688 269.58252 256.96875Q268.84814 257.625 267.6294 257.625Q266.39502 257.625 265.64502 256.96875Q264.91064 256.29688 264.91064 255.20312Q264.91064 254.5 265.28564 253.95312Q265.66064 253.39062 266.33252 253.10938Q265.77002 252.82812 265.4419 252.32812Q265.11377 251.82812 265.11377 251.1875Q265.11377 250.10938 265.80127 249.48438Q266.48877 248.84375 267.6294 248.84375Q268.7544 248.84375 269.4419 249.48438Q270.14502 250.10938 270.14502 251.1875ZM269.2544 255.17188Q269.2544 254.45312 268.80127 254.01562Q268.34814 253.5625 267.61377 253.5625Q266.8794 253.5625 266.42627 254.01562Q265.98877 254.45312 265.98877 255.1875Q265.98877 255.90625 266.42627 256.32812Q266.86377 256.73438 267.6294 256.73438Q268.3794 256.73438 268.8169 256.3125Q269.2544 255.89062 269.2544 255.17188ZM267.6294 249.73438Q266.98877 249.73438 266.58252 250.14062Q266.1919 250.53125 266.1919 251.21875Q266.1919 251.85938 266.58252 252.26562Q266.97314 252.67188 267.61377 252.67188Q268.27002 252.67188 268.66064 252.26562Q269.05127 251.85938 269.05127 251.21875Q269.05127 250.5625 268.64502 250.15625Q268.23877 249.73438 267.6294 249.73438ZM277.55127 257.5L271.95752 257.5L271.95752 256.71875L274.91064 253.4375Q275.5669 252.6875 275.8169 252.23438Q276.0669 251.76562 276.0669 251.26562Q276.0669 250.59375 275.66064 250.17188Q275.27002 249.73438 274.58252 249.73438Q273.78564 249.73438 273.33252 250.20312Q272.8794 250.65625 272.8794 251.48438L271.80127 251.48438Q271.80127 250.29688 272.55127 249.57812Q273.3169 248.84375 274.58252 248.84375Q275.78564 248.84375 276.47314 249.46875Q277.16064 250.09375 277.16064 251.14062Q277.16064 252.39062 275.55127 254.14062L273.27002 256.60938L277.55127 256.60938L277.55127 257.5ZM279.45752 253.21875L279.89502 248.96875L284.27002 248.96875L284.27002 249.96875L280.8169 249.96875L280.55127 252.29688Q281.1919 251.92188 281.98877 251.92188Q283.14502 251.92188 283.83252 252.70312Q284.52002 253.46875 284.52002 254.78125Q284.52002 256.09375 283.80127 256.85938Q283.09814 257.625 281.8169 257.625Q280.6919 257.625 279.97314 257.0Q279.2544 256.35938 279.16064 255.25L280.17627 255.25Q280.28564 255.98438 280.70752 256.35938Q281.1294 256.73438 281.8169 256.73438Q282.5669 256.73438 283.0044 256.21875Q283.4419 255.70312 283.4419 254.79688Q283.4419 253.9375 282.97314 253.42188Q282.5044 252.90625 281.72314 252.90625Q281.02002 252.90625 280.61377 253.20312L280.33252 253.4375L279.45752 253.21875Z" fill-rule="nonzero"/><path fill="#000000" d="M37.6125 135.61806L38.7375 135.91493Q38.378124 137.30556 37.45625 138.03993Q36.534374 138.7743 35.190624 138.7743Q33.8 138.7743 32.925 138.2118Q32.05 137.6493 31.596874 136.5868Q31.14375 135.50868 31.14375 134.2743Q31.14375 132.93056 31.659374 131.93056Q32.175 130.93056 33.1125 130.41493Q34.065624 129.8993 35.20625 129.8993Q36.4875 129.8993 37.3625 130.55556Q38.253124 131.2118 38.596874 132.3993L37.471874 132.66493Q37.175 131.72743 36.596874 131.30556Q36.034374 130.86806 35.175 130.86806Q34.190624 130.86806 33.51875 131.35243Q32.8625 131.82118 32.58125 132.61806Q32.315624 133.41493 32.315624 134.2743Q32.315624 135.36806 32.628124 136.18056Q32.95625 136.99306 33.628124 137.3993Q34.3 137.80556 35.096874 137.80556Q36.05 137.80556 36.70625 137.25868Q37.378124 136.7118 37.6125 135.61806Z" fill-rule="nonzero"/><path fill="#000000" d="M20.64375 256.73297L22.909374 253.4986L20.815624 250.51422L22.128124 250.51422L23.08125 251.96735Q23.346874 252.38922 23.51875 252.67047Q23.76875 252.27985 23.9875 251.98297L25.034374 250.51422L26.3 250.51422L24.14375 253.4361L26.45625 256.73297L25.175 256.73297L23.89375 254.79547L23.55 254.27985L21.909374 256.73297L20.64375 256.73297ZM31.51875 250.2486L30.471874 250.32672Q30.33125 249.70172 30.08125 249.42047Q29.64375 248.96735 29.01875 248.96735Q28.51875 248.96735 28.128124 249.2486Q27.64375 249.6236 27.346874 250.32672Q27.065624 251.01422 27.05 252.29547Q27.425 251.71735 27.971874 251.4361Q28.534374 251.15485 29.14375 251.15485Q30.190624 251.15485 30.925 251.9361Q31.675 252.71735 31.675 253.9361Q31.675 254.7486 31.315624 255.45172Q30.971874 256.13922 30.3625 256.51422Q29.753124 256.8736 28.9875 256.8736Q27.659374 256.8736 26.83125 255.90485Q26.003124 254.9361 26.003124 252.71735Q26.003124 250.21735 26.925 249.09235Q27.721874 248.10797 29.08125 248.10797Q30.096874 248.10797 30.7375 248.6861Q31.39375 249.2486 31.51875 250.2486ZM27.221874 253.95172Q27.221874 254.4986 27.440624 254.9986Q27.675 255.48297 28.08125 255.7486Q28.503124 256.01422 28.971874 256.01422Q29.628124 256.01422 30.1125 255.48297Q30.596874 254.9361 30.596874 254.01422Q30.596874 253.1236 30.1125 252.60797Q29.64375 252.09235 28.925 252.09235Q28.20625 252.09235 27.70625 252.60797Q27.221874 253.1236 27.221874 253.95172ZM36.425 256.73297L36.425 254.67047L32.70625 254.67047L32.70625 253.70172L36.628124 248.13922L37.4875 248.13922L37.4875 253.70172L38.64375 253.70172L38.64375 254.67047L37.4875 254.67047L37.4875 256.73297L36.425 256.73297ZM36.425 253.70172L36.425 249.84235L33.7375 253.70172L36.425 253.70172Z" fill-rule="nonzero"/><path fill="#000000" d="M34.05 345.21564Q34.05 343.6844 34.3625 342.7625Q34.675 341.825 35.284374 341.325Q35.909374 340.825 36.846874 340.825Q37.534374 340.825 38.05 341.10626Q38.58125 341.3875 38.925 341.91876Q39.26875 342.4344 39.45625 343.1844Q39.64375 343.9344 39.64375 345.21564Q39.64375 346.73126 39.33125 347.65314Q39.034374 348.575 38.409374 349.09064Q37.8 349.59064 36.846874 349.59064Q35.6125 349.59064 34.89375 348.7Q34.05 347.6375 34.05 345.21564ZM35.128124 345.21564Q35.128124 347.325 35.628124 348.02814Q36.128124 348.73126 36.846874 348.73126Q37.58125 348.73126 38.065624 348.02814Q38.565624 347.325 38.565624 345.21564Q38.565624 343.09064 38.065624 342.40314Q37.58125 341.7 36.83125 341.7Q36.1125 341.7 35.675 342.3094Q35.128124 343.09064 35.128124 345.21564ZM41.64375 349.45L41.64375 348.2469L42.846874 348.2469L42.846874 349.45L41.64375 349.45ZM44.05 345.21564Q44.05 343.6844 44.3625 342.7625Q44.675 341.825 45.284374 341.325Q45.909374 340.825 46.846874 340.825Q47.534374 340.825 48.05 341.10626Q48.58125 341.3875 48.925 341.91876Q49.26875 342.4344 49.45625 343.1844Q49.64375 343.9344 49.64375 345.21564Q49.64375 346.73126 49.33125 347.65314Q49.034374 348.575 48.409374 349.09064Q47.8 349.59064 46.846874 349.59064Q45.6125 349.59064 44.89375 348.7Q44.05 347.6375 44.05 345.21564ZM45.128124 345.21564Q45.128124 347.325 45.628124 348.02814Q46.128124 348.73126 46.846874 348.73126Q47.58125 348.73126 48.065624 348.02814Q48.565624 347.325 48.565624 345.21564Q48.565624 343.09064 48.065624 342.40314Q47.58125 341.7 46.83125 341.7Q46.1125 341.7 45.675 342.3094Q45.128124 343.09064 45.128124 345.21564ZM51.05 345.21564Q51.05 343.6844 51.3625 342.7625Q51.675 341.825 52.284374 341.325Q52.909374 340.825 53.846874 340.825Q54.534374 340.825 55.05 341.10626Q55.58125 341.3875 55.925 341.91876Q56.26875 342.4344 56.45625 343.1844Q56.64375 343.9344 56.64375 345.21564Q56.64375 346.73126 56.33125 347.65314Q56.034374 348.575 55.409374 349.09064Q54.8 349.59064 53.846874 349.59064Q52.6125 349.59064 51.89375 348.7Q51.05 347.6375 51.05 345.21564ZM52.128124 345.21564Q52.128124 347.325 52.628124 348.02814Q53.128124 348.73126 53.846874 348.73126Q54.58125 348.73126 55.065624 348.02814Q55.565624 347.325 55.565624 345.21564Q55.565624 343.09064 55.065624 342.40314Q54.58125 341.7 53.83125 341.7Q53.1125 341.7 52.675 342.3094Q52.128124 343.09064 52.128124 345.21564Z" fill-rule="nonzero"/><path fill="#000000" d="M168.025 345.21564Q168.025 343.6844 168.3375 342.7625Q168.65 341.825 169.25937 341.325Q169.88437 340.825 170.82187 340.825Q171.50937 340.825 172.025 341.10626Q172.55624 341.3875 172.9 341.91876Q173.24374 342.4344 173.43124 343.1844Q173.61874 343.9344 173.61874 345.21564Q173.61874 346.73126 173.30624 347.65314Q173.00937 348.575 172.38437 349.09064Q171.775 349.59064 170.82187 349.59064Q169.5875 349.59064 168.86874 348.7Q168.025 347.6375 168.025 345.21564ZM169.10312 345.21564Q169.10312 347.325 169.60312 348.02814Q170.10312 348.73126 170.82187 348.73126Q171.55624 348.73126 172.04062 348.02814Q172.54062 347.325 172.54062 345.21564Q172.54062 343.09064 172.04062 342.40314Q171.55624 341.7 170.80624 341.7Q170.0875 341.7 169.65 342.3094Q169.10312 343.09064 169.10312 345.21564ZM175.61874 349.45L175.61874 348.2469L176.82187 348.2469L176.82187 349.45L175.61874 349.45ZM178.025 345.21564Q178.025 343.6844 178.3375 342.7625Q178.65 341.825 179.25937 341.325Q179.88437 340.825 180.82187 340.825Q181.50937 340.825 182.025 341.10626Q182.55624 341.3875 182.9 341.91876Q183.24374 342.4344 183.43124 343.1844Q183.61874 343.9344 183.61874 345.21564Q183.61874 346.73126 183.30624 347.65314Q183.00937 348.575 182.38437 349.09064Q181.775 349.59064 180.82187 349.59064Q179.5875 349.59064 178.86874 348.7Q178.025 347.6375 178.025 345.21564ZM179.10312 345.21564Q179.10312 347.325 179.60312 348.02814Q180.10312 348.73126 180.82187 348.73126Q181.55624 348.73126 182.04062 348.02814Q182.54062 347.325 182.54062 345.21564Q182.54062 343.09064 182.04062 342.40314Q181.55624 341.7 180.80624 341.7Q180.0875 341.7 179.65 342.3094Q179.10312 343.09064 179.10312 345.21564ZM188.99374 349.45L187.94687 349.45L187.94687 342.73126Q187.55624 343.09064 186.93124 343.46564Q186.32187 343.825 185.8375 343.9969L185.8375 342.98126Q186.7125 342.5594 187.36874 341.98126Q188.04062 341.3875 188.32187 340.825L188.99374 340.825L188.99374 349.45Z" fill-rule="nonzero"/><path fill="#000000" d="M302.0 345.21564Q302.0 343.6844 302.3125 342.7625Q302.625 341.825 303.23438 341.325Q303.85938 340.825 304.79688 340.825Q305.48438 340.825 306.0 341.10626Q306.53125 341.3875 306.875 341.91876Q307.21875 342.4344 307.40625 343.1844Q307.59375 343.9344 307.59375 345.21564Q307.59375 346.73126 307.28125 347.65314Q306.98438 348.575 306.35938 349.09064Q305.75 349.59064 304.79688 349.59064Q303.5625 349.59064 302.84375 348.7Q302.0 347.6375 302.0 345.21564ZM303.07812 345.21564Q303.07812 347.325 303.57812 348.02814Q304.07812 348.73126 304.79688 348.73126Q305.53125 348.73126 306.01562 348.02814Q306.51562 347.325 306.51562 345.21564Q306.51562 343.09064 306.01562 342.40314Q305.53125 341.7 304.78125 341.7Q304.0625 341.7 303.625 342.3094Q303.07812 343.09064 303.07812 345.21564ZM309.59375 349.45L309.59375 348.2469L310.79688 348.2469L310.79688 349.45L309.59375 349.45ZM312.0 345.21564Q312.0 343.6844 312.3125 342.7625Q312.625 341.825 313.23438 341.325Q313.85938 340.825 314.79688 340.825Q315.48438 340.825 316.0 341.10626Q316.53125 341.3875 316.875 341.91876Q317.21875 342.4344 317.40625 343.1844Q317.59375 343.9344 317.59375 345.21564Q317.59375 346.73126 317.28125 347.65314Q316.98438 348.575 316.35938 349.09064Q315.75 349.59064 314.79688 349.59064Q313.5625 349.59064 312.84375 348.7Q312.0 347.6375 312.0 345.21564ZM313.07812 345.21564Q313.07812 347.325 313.57812 348.02814Q314.07812 348.73126 314.79688 348.73126Q315.53125 348.73126 316.01562 348.02814Q316.51562 347.325 316.51562 345.21564Q316.51562 343.09064 316.01562 342.40314Q315.53125 341.7 314.78125 341.7Q314.0625 341.7 313.625 342.3094Q313.07812 343.09064 313.07812 345.21564ZM324.54688 348.4344L324.54688 349.45L318.85938 349.45Q318.85938 349.075 318.98438 348.71564Q319.20312 348.1375 319.67188 347.575Q320.15625 347.0125 321.0625 346.27814Q322.46875 345.1219 322.95312 344.45Q323.45312 343.77814 323.45312 343.1844Q323.45312 342.5594 323.0 342.1375Q322.54688 341.7 321.82812 341.7Q321.0625 341.7 320.60938 342.15314Q320.15625 342.60626 320.14062 343.41876L319.0625 343.3094Q319.17188 342.09064 319.89062 341.46564Q320.625 340.825 321.85938 340.825Q323.09375 340.825 323.8125 341.5125Q324.53125 342.2 324.53125 343.21564Q324.53125 343.73126 324.3125 344.23126Q324.10938 344.71564 323.60938 345.27814Q323.125 345.825 322.0 346.77814Q321.04688 347.575 320.76562 347.8719Q320.5 348.15314 320.32812 348.4344L324.54688 348.4344Z" fill-rule="nonzero"/><path fill="#000000" d="M435.975 345.21564Q435.975 343.6844 436.2875 342.7625Q436.6 341.825 437.20938 341.325Q437.83438 340.825 438.77188 340.825Q439.45938 340.825 439.975 341.10626Q440.50626 341.3875 440.85 341.91876Q441.19376 342.4344 441.38126 343.1844Q441.56876 343.9344 441.56876 345.21564Q441.56876 346.73126 441.25626 347.65314Q440.95938 348.575 440.33438 349.09064Q439.725 349.59064 438.77188 349.59064Q437.5375 349.59064 436.81876 348.7Q435.975 347.6375 435.975 345.21564ZM437.05313 345.21564Q437.05313 347.325 437.55313 348.02814Q438.05313 348.73126 438.77188 348.73126Q439.50626 348.73126 439.99063 348.02814Q440.49063 347.325 440.49063 345.21564Q440.49063 343.09064 439.99063 342.40314Q439.50626 341.7 438.75626 341.7Q438.0375 341.7 437.6 342.3094Q437.05313 343.09064 437.05313 345.21564ZM443.56876 349.45L443.56876 348.2469L444.77188 348.2469L444.77188 349.45L443.56876 349.45ZM445.975 345.21564Q445.975 343.6844 446.2875 342.7625Q446.6 341.825 447.20938 341.325Q447.83438 340.825 448.77188 340.825Q449.45938 340.825 449.975 341.10626Q450.50626 341.3875 450.85 341.91876Q451.19376 342.4344 451.38126 343.1844Q451.56876 343.9344 451.56876 345.21564Q451.56876 346.73126 451.25626 347.65314Q450.95938 348.575 450.33438 349.09064Q449.725 349.59064 448.77188 349.59064Q447.5375 349.59064 446.81876 348.7Q445.975 347.6375 445.975 345.21564ZM447.05313 345.21564Q447.05313 347.325 447.55313 348.02814Q448.05313 348.73126 448.77188 348.73126Q449.50626 348.73126 449.99063 348.02814Q450.49063 347.325 450.49063 345.21564Q450.49063 343.09064 449.99063 342.40314Q449.50626 341.7 448.75626 341.7Q448.0375 341.7 447.6 342.3094Q447.05313 343.09064 447.05313 345.21564ZM452.975 347.1844L454.0375 347.04376Q454.20938 347.9344 454.64688 348.34064Q455.08438 348.73126 455.70938 348.73126Q456.45938 348.73126 456.975 348.21564Q457.49063 347.7 457.49063 346.9344Q457.49063 346.21564 457.00626 345.7469Q456.5375 345.2625 455.80313 345.2625Q455.50626 345.2625 455.05313 345.3875L455.17813 344.45Q455.2875 344.46564 455.35 344.46564Q456.02188 344.46564 456.55313 344.1219Q457.1 343.7625 457.1 343.02814Q457.1 342.45 456.70938 342.075Q456.31876 341.6844 455.69376 341.6844Q455.08438 341.6844 454.6625 342.075Q454.25626 342.46564 454.14688 343.23126L453.08438 343.04376Q453.27188 341.9969 453.95938 341.41876Q454.64688 340.825 455.6625 340.825Q456.36563 340.825 456.95938 341.1375Q457.55313 341.4344 457.86563 341.95Q458.17813 342.46564 458.17813 343.0594Q458.17813 343.60626 457.88126 344.075Q457.58438 344.52814 457.00626 344.79376Q457.75626 344.96564 458.17813 345.52814Q458.6 346.075 458.6 346.91876Q458.6 348.04376 457.77188 348.825Q456.95938 349.60626 455.70938 349.60626Q454.58438 349.60626 453.83438 348.9344Q453.08438 348.2469 452.975 347.1844Z" fill-rule="nonzero"/><path fill="#000000" d="M569.95 345.21564Q569.95 343.6844 570.2625 342.7625Q570.575 341.825 571.1844 341.325Q571.8094 340.825 572.7469 340.825Q573.4344 340.825 573.95 341.10626Q574.48126 341.3875 574.825 341.91876Q575.16876 342.4344 575.35626 343.1844Q575.54376 343.9344 575.54376 345.21564Q575.54376 346.73126 575.23126 347.65314Q574.9344 348.575 574.3094 349.09064Q573.7 349.59064 572.7469 349.59064Q571.5125 349.59064 570.79376 348.7Q569.95 347.6375 569.95 345.21564ZM571.02814 345.21564Q571.02814 347.325 571.52814 348.02814Q572.02814 348.73126 572.7469 348.73126Q573.48126 348.73126 573.96564 348.02814Q574.46564 347.325 574.46564 345.21564Q574.46564 343.09064 573.96564 342.40314Q573.48126 341.7 572.73126 341.7Q572.0125 341.7 571.575 342.3094Q571.02814 343.09064 571.02814 345.21564ZM577.54376 349.45L577.54376 348.2469L578.7469 348.2469L578.7469 349.45L577.54376 349.45ZM579.95 345.21564Q579.95 343.6844 580.2625 342.7625Q580.575 341.825 581.1844 341.325Q581.8094 340.825 582.7469 340.825Q583.4344 340.825 583.95 341.10626Q584.48126 341.3875 584.825 341.91876Q585.16876 342.4344 585.35626 343.1844Q585.54376 343.9344 585.54376 345.21564Q585.54376 346.73126 585.23126 347.65314Q584.9344 348.575 584.3094 349.09064Q583.7 349.59064 582.7469 349.59064Q581.5125 349.59064 580.79376 348.7Q579.95 347.6375 579.95 345.21564ZM581.02814 345.21564Q581.02814 347.325 581.52814 348.02814Q582.02814 348.73126 582.7469 348.73126Q583.48126 348.73126 583.96564 348.02814Q584.46564 347.325 584.46564 345.21564Q584.46564 343.09064 583.96564 342.40314Q583.48126 341.7 582.73126 341.7Q582.0125 341.7 581.575 342.3094Q581.02814 343.09064 581.02814 345.21564ZM590.325 349.45L590.325 347.3875L586.60626 347.3875L586.60626 346.41876L590.52814 340.85626L591.3875 340.85626L591.3875 346.41876L592.54376 346.41876L592.54376 347.3875L591.3875 347.3875L591.3875 349.45L590.325 349.45ZM590.325 346.41876L590.325 342.5594L587.6375 346.41876L590.325 346.41876Z" fill-rule="nonzero"/><path fill="#757575" d="M19.51875 37.55L25.01875 23.2375L27.065624 23.2375L32.925 37.55L30.76875 37.55L29.096874 33.20625L23.1125 33.20625L21.534374 37.55L19.51875 37.55ZM23.659374 31.675L28.503124 31.675L27.01875 27.70625Q26.33125 25.89375 26.003124 24.7375Q25.721874 26.1125 25.221874 27.471874L23.659374 31.675ZM36.753124 37.55L32.8 27.175L34.659374 27.175L36.89375 33.39375Q37.253124 34.39375 37.55 35.471874Q37.784374 34.659374 38.20625 33.503124L40.503124 27.175L42.315624 27.175L38.39375 37.55L36.753124 37.55ZM49.971874 34.20625L51.784374 34.440624Q51.3625 36.01875 50.190624 36.909374Q49.034374 37.784374 47.221874 37.784374Q44.95625 37.784374 43.6125 36.39375Q42.284374 34.9875 42.284374 32.45625Q42.284374 29.83125 43.628124 28.39375Q44.971874 26.940624 47.128124 26.940624Q49.20625 26.940624 50.51875 28.3625Q51.846874 29.76875 51.846874 32.346874Q51.846874 32.503124 51.83125 32.815624L44.096874 32.815624Q44.190624 34.51875 45.065624 35.425Q45.940624 36.33125 47.2375 36.33125Q48.20625 36.33125 48.878124 35.83125Q49.565624 35.315624 49.971874 34.20625ZM44.190624 31.3625L49.9875 31.3625Q49.878124 30.065624 49.33125 29.409374Q48.4875 28.39375 47.14375 28.39375Q45.940624 28.39375 45.1125 29.20625Q44.284374 30.003124 44.190624 31.3625ZM53.846874 37.55L53.846874 27.175L55.425 27.175L55.425 28.753124Q56.034374 27.64375 56.55 27.3Q57.065624 26.940624 57.675 26.940624Q58.565624 26.940624 59.4875 27.503124L58.878124 29.14375Q58.2375 28.753124 57.596874 28.753124Q57.01875 28.753124 56.55 29.1125Q56.096874 29.45625 55.89375 30.065624Q55.6125 31.003124 55.6125 32.1125L55.6125 37.55L53.846874 37.55ZM67.64375 36.26875Q66.65938 37.096874 65.75313 37.440624Q64.84688 37.784374 63.815624 37.784374Q62.1125 37.784374 61.190624 36.95625Q60.26875 36.1125 60.26875 34.815624Q60.26875 34.05 60.6125 33.425Q60.971874 32.8 61.534374 32.425Q62.096874 32.034374 62.8 31.83125Q63.315624 31.70625 64.3625 31.565624Q66.4875 31.315624 67.4875 30.971874Q67.50313 30.6125 67.50313 30.503124Q67.50313 29.440624 67.00313 28.9875Q66.33125 28.39375 65.00313 28.39375Q63.753124 28.39375 63.159374 28.83125Q62.58125 29.26875 62.3 30.378124L60.58125 30.14375Q60.815624 29.034374 61.346874 28.3625Q61.878124 27.675 62.89375 27.315624Q63.909374 26.940624 65.25313 26.940624Q66.58125 26.940624 67.40938 27.253124Q68.2375 27.565624 68.62813 28.05Q69.01875 28.51875 69.175 29.2375Q69.26875 29.690624 69.26875 30.8625L69.26875 33.20625Q69.26875 35.659374 69.37813 36.315624Q69.4875 36.95625 69.83125 37.55L67.9875 37.55Q67.72188 37.003124 67.64375 36.26875ZM67.4875 32.346874Q66.53438 32.7375 64.6125 33.003124Q63.534374 33.159374 63.08125 33.3625Q62.64375 33.55 62.39375 33.925Q62.14375 34.3 62.14375 34.76875Q62.14375 35.471874 62.675 35.940624Q63.20625 36.409374 64.2375 36.409374Q65.25313 36.409374 66.03438 35.971874Q66.83125 35.51875 67.20625 34.753124Q67.4875 34.14375 67.4875 32.9875L67.4875 32.346874ZM71.55 38.409374L73.25313 38.659374Q73.3625 39.45625 73.84688 39.815624Q74.50313 40.3 75.64375 40.3Q76.8625 40.3 77.51875 39.815624Q78.19063 39.33125 78.425 38.45625Q78.56563 37.909374 78.55 36.190624Q77.39375 37.55 75.675 37.55Q73.53438 37.55 72.3625 36.003124Q71.19063 34.45625 71.19063 32.3Q71.19063 30.815624 71.72188 29.565624Q72.26875 28.315624 73.28438 27.628124Q74.31563 26.940624 75.69063 26.940624Q77.51875 26.940624 78.72188 28.425L78.72188 27.175L80.33125 27.175L80.33125 36.14375Q80.33125 38.565624 79.83125 39.565624Q79.34688 40.58125 78.26875 41.159374Q77.20625 41.753124 75.64375 41.753124Q73.8 41.753124 72.64375 40.925Q71.50313 40.096874 71.55 38.409374ZM73.00313 32.175Q73.00313 34.221874 73.81563 35.159374Q74.62813 36.096874 75.84688 36.096874Q77.05 36.096874 77.8625 35.159374Q78.69063 34.221874 78.69063 32.2375Q78.69063 30.33125 77.84688 29.3625Q77.00313 28.39375 75.81563 28.39375Q74.64375 28.39375 73.81563 29.346874Q73.00313 30.3 73.00313 32.175ZM89.97188 34.20625L91.78438 34.440624Q91.3625 36.01875 90.19063 36.909374Q89.03438 37.784374 87.22188 37.784374Q84.95625 37.784374 83.6125 36.39375Q82.28438 34.9875 82.28438 32.45625Q82.28438 29.83125 83.62813 28.39375Q84.97188 26.940624 87.12813 26.940624Q89.20625 26.940624 90.51875 28.3625Q91.84688 29.76875 91.84688 32.346874Q91.84688 32.503124 91.83125 32.815624L84.09688 32.815624Q84.19063 34.51875 85.06563 35.425Q85.94063 36.33125 87.2375 36.33125Q88.20625 36.33125 88.87813 35.83125Q89.56563 35.315624 89.97188 34.20625ZM84.19063 31.3625L89.9875 31.3625Q89.87813 30.065624 89.33125 29.409374Q88.4875 28.39375 87.14375 28.39375Q85.94063 28.39375 85.1125 29.20625Q84.28438 30.003124 84.19063 31.3625ZM103.7375 37.55L103.7375 24.925L99.01875 24.925L99.01875 23.2375L110.3625 23.2375L110.3625 24.925L105.62813 24.925L105.62813 37.55L103.7375 37.55ZM111.87813 25.253124L111.87813 23.2375L113.64375 23.2375L113.64375 25.253124L111.87813 25.253124ZM111.87813 37.55L111.87813 27.175L113.64375 27.175L113.64375 37.55L111.87813 37.55ZM115.8625 37.55L115.8625 27.175L117.44063 27.175L117.44063 28.628124Q117.925 27.878124 118.7375 27.409374Q119.55 26.940624 120.58125 26.940624Q121.7375 26.940624 122.47188 27.425Q123.20625 27.89375 123.51875 28.753124Q124.75313 26.940624 126.72188 26.940624Q128.26875 26.940624 129.09688 27.8Q129.925 28.659374 129.925 30.425L129.925 37.55L128.175 37.55L128.175 31.01875Q128.175 29.95625 128.00313 29.503124Q127.83125 29.034374 127.37813 28.753124Q126.94063 28.471874 126.33125 28.471874Q125.2375 28.471874 124.50313 29.20625Q123.78438 29.925 123.78438 31.51875L123.78438 37.55L122.03438 37.55L122.03438 30.815624Q122.03438 29.64375 121.59688 29.065624Q121.175 28.471874 120.19063 28.471874Q119.45625 28.471874 118.81563 28.8625Q118.19063 29.253124 117.90938 30.003124Q117.62813 30.753124 117.62813 32.175L117.62813 37.55L115.8625 37.55ZM138.97188 34.20625L140.78438 34.440624Q140.3625 36.01875 139.19063 36.909374Q138.03438 37.784374 136.22188 37.784374Q133.95625 37.784374 132.6125 36.39375Q131.28438 34.9875 131.28438 32.45625Q131.28438 29.83125 132.62813 28.39375Q133.97188 26.940624 136.12813 26.940624Q138.20625 26.940624 139.51875 28.3625Q140.84688 29.76875 140.84688 32.346874Q140.84688 32.503124 140.83125 32.815624L133.09688 32.815624Q133.19063 34.51875 134.06563 35.425Q134.94063 36.33125 136.2375 36.33125Q137.20625 36.33125 137.87813 35.83125Q138.56563 35.315624 138.97188 34.20625ZM133.19063 31.3625L138.9875 31.3625Q138.87813 30.065624 138.33125 29.409374Q137.4875 28.39375 136.14375 28.39375Q134.94063 28.39375 134.1125 29.20625Q133.28438 30.003124 133.19063 31.3625ZM142.15938 34.45625L143.90938 34.175Q144.05 35.221874 144.72188 35.784374Q145.39375 36.33125 146.59688 36.33125Q147.8 36.33125 148.37813 35.846874Q148.97188 35.346874 148.97188 34.690624Q148.97188 34.096874 148.45625 33.753124Q148.09688 33.51875 146.65938 33.159374Q144.72188 32.659374 143.97188 32.315624Q143.2375 31.95625 142.84688 31.33125Q142.45625 30.690624 142.45625 29.925Q142.45625 29.2375 142.76875 28.64375Q143.09688 28.05 143.64375 27.659374Q144.05 27.3625 144.75313 27.159374Q145.47188 26.940624 146.28438 26.940624Q147.50313 26.940624 148.425 27.3Q149.34688 27.64375 149.78438 28.253124Q150.22188 28.846874 150.39375 29.846874L148.675 30.08125Q148.55 29.284374 147.9875 28.846874Q147.425 28.39375 146.40938 28.39375Q145.19063 28.39375 144.675 28.8Q144.15938 29.190624 144.15938 29.721874Q144.15938 30.065624 144.37813 30.346874Q144.58125 30.628124 145.05 30.815624Q145.31563 30.909374 146.59688 31.253124Q148.47188 31.753124 149.20625 32.08125Q149.94063 32.39375 150.3625 33.003124Q150.78438 33.596874 150.78438 34.503124Q150.78438 35.378124 150.26875 36.159374Q149.75313 36.940624 148.78438 37.3625Q147.81563 37.784374 146.59688 37.784374Q144.58125 37.784374 143.51875 36.940624Q142.45625 36.096874 142.15938 34.45625ZM162.22188 41.753124Q160.76875 39.925 159.76875 37.471874Q158.76875 35.003124 158.76875 32.3625Q158.76875 30.034374 159.51875 27.909374Q160.39375 25.440624 162.22188 22.9875L163.4875 22.9875Q162.3 25.01875 161.925 25.89375Q161.33125 27.2375 160.9875 28.70625Q160.56563 30.534374 160.56563 32.378124Q160.56563 37.065624 163.4875 41.753124L162.22188 41.753124ZM165.8625 37.55L165.8625 27.175L167.45625 27.175L167.45625 28.659374Q168.59688 26.940624 170.75313 26.940624Q171.69063 26.940624 172.47188 27.284374Q173.26875 27.6125 173.65938 28.159374Q174.05 28.70625 174.20625 29.45625Q174.3 29.95625 174.3 31.175L174.3 37.55L172.53438 37.55L172.53438 31.2375Q172.53438 30.159374 172.33125 29.628124Q172.12813 29.096874 171.59688 28.784374Q171.08125 28.471874 170.37813 28.471874Q169.25313 28.471874 168.44063 29.190624Q167.62813 29.89375 167.62813 31.878124L167.62813 37.55L165.8625 37.55ZM191.1125 29.128124L181.65938 29.128124L181.65938 27.4875L191.1125 27.4875L191.1125 29.128124ZM191.1125 33.471874L181.65938 33.471874L181.65938 31.83125L191.1125 31.83125L191.1125 33.471874ZM208.6125 35.8625L208.6125 37.55L199.15938 37.55Q199.14375 36.909374 199.3625 36.33125Q199.72188 35.3625 200.51875 34.425Q201.31563 33.4875 202.81563 32.253124Q205.15938 30.346874 205.97188 29.2375Q206.8 28.1125 206.8 27.1125Q206.8 26.065624 206.05 25.346874Q205.3 24.628124 204.09688 24.628124Q202.83125 24.628124 202.06563 25.39375Q201.3 26.159374 201.3 27.503124L199.4875 27.315624Q199.675 25.3 200.87813 24.2375Q202.09688 23.175 204.14375 23.175Q206.19063 23.175 207.39375 24.315624Q208.59688 25.45625 208.59688 27.14375Q208.59688 28.003124 208.2375 28.846874Q207.89375 29.675 207.08125 30.596874Q206.26875 31.503124 204.37813 33.1125Q202.78438 34.440624 202.33125 34.909374Q201.89375 35.378124 201.59688 35.8625L208.6125 35.8625ZM211.87813 30.815624L210.08125 30.815624L213.51875 22.9875L214.94063 22.9875L218.40938 30.815624L216.64375 30.815624L214.22188 24.9875L211.87813 30.815624ZM227.6125 35.8625L227.6125 37.55L218.15938 37.55Q218.14375 36.909374 218.3625 36.33125Q218.72188 35.3625 219.51875 34.425Q220.31563 33.4875 221.81563 32.253124Q224.15938 30.346874 224.97188 29.2375Q225.8 28.1125 225.8 27.1125Q225.8 26.065624 225.05 25.346874Q224.3 24.628124 223.09688 24.628124Q221.83125 24.628124 221.06563 25.39375Q220.3 26.159374 220.3 27.503124L218.4875 27.315624Q218.675 25.3 219.87813 24.2375Q221.09688 23.175 223.14375 23.175Q225.19063 23.175 226.39375 24.315624Q227.59688 25.45625 227.59688 27.14375Q227.59688 28.003124 227.2375 28.846874Q226.89375 29.675 226.08125 30.596874Q225.26875 31.503124 223.37813 33.1125Q221.78438 34.440624 221.33125 34.909374Q220.89375 35.378124 220.59688 35.8625L227.6125 35.8625ZM235.01875 37.55L235.01875 34.128124L228.8 34.128124L228.8 32.503124L235.33125 23.2375L236.76875 23.2375L236.76875 32.503124L238.70625 32.503124L238.70625 34.128124L236.76875 34.128124L236.76875 37.55L235.01875 37.55ZM235.01875 32.503124L235.01875 26.05L230.53438 32.503124L235.01875 32.503124ZM241.33125 37.55L241.33125 35.55L243.33125 35.55L243.33125 37.55Q243.33125 38.659374 242.94063 39.33125Q242.55 40.01875 241.70625 40.378124L241.20625 39.628124Q241.76875 39.39375 242.03438 38.909374Q242.3 38.440624 242.33125 37.55L241.33125 37.55ZM253.12813 37.55L253.12813 23.2375L259.47186 23.2375Q261.3781 23.2375 262.3781 23.628124Q263.3781 24.003124 263.97186 24.9875Q264.5656 25.95625 264.5656 27.14375Q264.5656 28.659374 263.58124 29.70625Q262.59686 30.753124 260.53436 31.034374Q261.28436 31.39375 261.675 31.753124Q262.5031 32.503124 263.2531 33.659374L265.7375 37.55L263.3625 37.55L261.45624 34.565624Q260.6281 33.284374 260.09686 32.596874Q259.5656 31.909374 259.1281 31.64375Q258.70624 31.3625 258.26874 31.253124Q257.9406 31.190624 257.22186 31.190624L255.01875 31.190624L255.01875 37.55L253.12813 37.55ZM255.01875 29.55L259.09686 29.55Q260.39374 29.55 261.1125 29.284374Q261.84686 29.01875 262.22186 28.425Q262.6125 27.83125 262.6125 27.14375Q262.6125 26.128124 261.8781 25.471874Q261.14374 24.815624 259.55 24.815624L255.01875 24.815624L255.01875 29.55ZM273.97186 34.20625L275.78436 34.440624Q275.3625 36.01875 274.1906 36.909374Q273.03436 37.784374 271.22186 37.784374Q268.95624 37.784374 267.6125 36.39375Q266.28436 34.9875 266.28436 32.45625Q266.28436 29.83125 267.6281 28.39375Q268.97186 26.940624 271.1281 26.940624Q273.20624 26.940624 274.51874 28.3625Q275.84686 29.76875 275.84686 32.346874Q275.84686 32.503124 275.83124 32.815624L268.09686 32.815624Q268.1906 34.51875 269.0656 35.425Q269.9406 36.33125 271.2375 36.33125Q272.20624 36.33125 272.8781 35.83125Q273.5656 35.315624 273.97186 34.20625ZM268.1906 31.3625L273.9875 31.3625Q273.8781 30.065624 273.33124 29.409374Q272.4875 28.39375 271.14374 28.39375Q269.9406 28.39375 269.1125 29.20625Q268.28436 30.003124 268.1906 31.3625ZM277.83124 37.55L277.83124 23.2375L279.58124 23.2375L279.58124 37.55L277.83124 37.55ZM288.97186 34.20625L290.78436 34.440624Q290.3625 36.01875 289.1906 36.909374Q288.03436 37.784374 286.22186 37.784374Q283.95624 37.784374 282.6125 36.39375Q281.28436 34.9875 281.28436 32.45625Q281.28436 29.83125 282.6281 28.39375Q283.97186 26.940624 286.1281 26.940624Q288.20624 26.940624 289.51874 28.3625Q290.84686 29.76875 290.84686 32.346874Q290.84686 32.503124 290.83124 32.815624L283.09686 32.815624Q283.1906 34.51875 284.0656 35.425Q284.9406 36.33125 286.2375 36.33125Q287.20624 36.33125 287.8781 35.83125Q288.5656 35.315624 288.97186 34.20625ZM283.1906 31.3625L288.9875 31.3625Q288.8781 30.065624 288.33124 29.409374Q287.4875 28.39375 286.14374 28.39375Q284.9406 28.39375 284.1125 29.20625Q283.28436 30.003124 283.1906 31.3625ZM299.64374 36.26875Q298.65936 37.096874 297.7531 37.440624Q296.84686 37.784374 295.8156 37.784374Q294.1125 37.784374 293.1906 36.95625Q292.26874 36.1125 292.26874 34.815624Q292.26874 34.05 292.6125 33.425Q292.97186 32.8 293.53436 32.425Q294.09686 32.034374 294.8 31.83125Q295.3156 31.70625 296.3625 31.565624Q298.4875 31.315624 299.4875 30.971874Q299.5031 30.6125 299.5031 30.503124Q299.5031 29.440624 299.0031 28.9875Q298.33124 28.39375 297.0031 28.39375Q295.7531 28.39375 295.15936 28.83125Q294.58124 29.26875 294.3 30.378124L292.58124 30.14375Q292.8156 29.034374 293.34686 28.3625Q293.8781 27.675 294.89374 27.315624Q295.90936 26.940624 297.2531 26.940624Q298.58124 26.940624 299.40936 27.253124Q300.2375 27.565624 300.6281 28.05Q301.01874 28.51875 301.175 29.2375Q301.26874 29.690624 301.26874 30.8625L301.26874 33.20625Q301.26874 35.659374 301.3781 36.315624Q301.4875 36.95625 301.83124 37.55L299.9875 37.55Q299.72186 37.003124 299.64374 36.26875ZM299.4875 32.346874Q298.53436 32.7375 296.6125 33.003124Q295.53436 33.159374 295.08124 33.3625Q294.64374 33.55 294.39374 33.925Q294.14374 34.3 294.14374 34.76875Q294.14374 35.471874 294.675 35.940624Q295.20624 36.409374 296.2375 36.409374Q297.2531 36.409374 298.03436 35.971874Q298.83124 35.51875 299.20624 34.753124Q299.4875 34.14375 299.4875 32.9875L299.4875 32.346874ZM303.15936 34.45625L304.90936 34.175Q305.05 35.221874 305.72186 35.784374Q306.39374 36.33125 307.59686 36.33125Q308.8 36.33125 309.3781 35.846874Q309.97186 35.346874 309.97186 34.690624Q309.97186 34.096874 309.45624 33.753124Q309.09686 33.51875 307.65936 33.159374Q305.72186 32.659374 304.97186 32.315624Q304.2375 31.95625 303.84686 31.33125Q303.45624 30.690624 303.45624 29.925Q303.45624 29.2375 303.76874 28.64375Q304.09686 28.05 304.64374 27.659374Q305.05 27.3625 305.7531 27.159374Q306.47186 26.940624 307.28436 26.940624Q308.5031 26.940624 309.425 27.3Q310.34686 27.64375 310.78436 28.253124Q311.22186 28.846874 311.39374 29.846874L309.675 30.08125Q309.55 29.284374 308.9875 28.846874Q308.425 28.39375 307.40936 28.39375Q306.1906 28.39375 305.675 28.8Q305.15936 29.190624 305.15936 29.721874Q305.15936 30.065624 305.3781 30.346874Q305.58124 30.628124 306.05 30.815624Q306.3156 30.909374 307.59686 31.253124Q309.47186 31.753124 310.20624 32.08125Q310.9406 32.39375 311.3625 33.003124Q311.78436 33.596874 311.78436 34.503124Q311.78436 35.378124 311.26874 36.159374Q310.7531 36.940624 309.78436 37.3625Q308.8156 37.784374 307.59686 37.784374Q305.58124 37.784374 304.51874 36.940624Q303.45624 36.096874 303.15936 34.45625ZM320.97186 34.20625L322.78436 34.440624Q322.3625 36.01875 321.1906 36.909374Q320.03436 37.784374 318.22186 37.784374Q315.95624 37.784374 314.6125 36.39375Q313.28436 34.9875 313.28436 32.45625Q313.28436 29.83125 314.6281 28.39375Q315.97186 26.940624 318.1281 26.940624Q320.20624 26.940624 321.51874 28.3625Q322.84686 29.76875 322.84686 32.346874Q322.84686 32.503124 322.83124 32.815624L315.09686 32.815624Q315.1906 34.51875 316.0656 35.425Q316.9406 36.33125 318.2375 36.33125Q319.20624 36.33125 319.8781 35.83125Q320.5656 35.315624 320.97186 34.20625ZM315.1906 31.3625L320.9875 31.3625Q320.8781 30.065624 320.33124 29.409374Q319.4875 28.39375 318.14374 28.39375Q316.9406 28.39375 316.1125 29.20625Q315.28436 30.003124 315.1906 31.3625ZM326.01874 41.753124L324.76874 41.753124Q327.675 37.065624 327.675 32.378124Q327.675 30.534374 327.26874 28.7375Q326.925 27.26875 326.33124 25.925Q325.95624 25.034374 324.76874 22.9875L326.01874 22.9875Q327.8625 25.440624 328.7375 27.909374Q329.4875 30.034374 329.4875 32.3625Q329.4875 35.003124 328.47186 37.471874Q327.47186 39.925 326.01874 41.753124Z" fill-rule="nonzero"/></svg>