<svg version="1.1" viewBox="0.0 0.0 600.0 371.0" fill="none" stroke="none" stroke-linecap="square" stroke-miterlimit="10" width="600" height="371" xmlns:xlink="http://www.w3.org/1999/xlink" xmlns="http://www.w3.org/2000/svg"><path fill="#ffffff" d="M0 0L600.0 0L600.0 371.0L0 371.0L0 0Z" fill-rule="nonzero"/><path stroke="#333333" stroke-width="1.0" stroke-linecap="butt" d="M45.5 54.5L45.5 332.5" fill-rule="nonzero"/><path stroke="#cccccc" stroke-width="1.0" stroke-linecap="butt" d="M179.5 54.5L179.5 332.5" fill-rule="nonzero"/><path stroke="#cccccc" stroke-width="1.0" stroke-linecap="butt" d="M313.5 54.5L313.5 332.5" fill-rule="nonzero"/><path stroke="#cccccc" stroke-width="1.0" stroke-linecap="butt" d="M447.5 54.5L447.5 332.5" fill-rule="nonzero"/><path stroke="#cccccc" stroke-width="1.0" stroke-linecap="butt" d="M581.5 54.5L581.5 332.5" fill-rule="nonzero"/><clipPath id="id_0"><path d="M45.55 54.916668L581.45 54.916668L581.45 332.45L45.55 332.45L45.55 54.916668Z" clip-rule="nonzero"/></clipPath><path stroke="#000000" stroke-width="2.0" stroke-linecap="butt" stroke-opacity="0.0" clip-path="url(#id_0)" d="M46.0 174.0L46.0 97.0L558.0 97.0C559.10455 97.0 560.0 97.89543 560.0 99.0L560.0 172.0C560.0 173.10457 559.10455 174.0 558.0 174.0Z" fill-rule="nonzero"/><path fill="#4285f4" clip-path="url(#id_0)" d="M46.0 174.0L46.0 97.0L558.0 97.0C559.10455 97.0 560.0 97.89543 560.0 99.0L560.0 172.0C560.0 173.10457 559.10455 174.0 558.0 174.0Z" fill-rule="nonzero"/><path stroke="#000000" stroke-width="2.0" stroke-linecap="butt" stroke-opacity="0.0" clip-path="url(#id_0)" d="M46.0 292.0L46.0 215.0L281.0 215.0C282.10458 215.0 283.0 215.89543 283.0 217.0L283.0 290.0C283.0 291.10458 282.10458 292.0 281.0 292.0Z" fill-rule="nonzero"/><path fill="#4285f4" clip-path="url(#id_0)" d="M46.0 292.0L46.0 215.0L281.0 215.0C282.10458 215.0 283.0 215.89543 283.0 217.0L283.0 290.0C283.0 291.10458 282.10458 292.0 281.0 292.0Z" fill-rule="nonzero"/><path stroke="#4285f4" stroke-width="3.0" stroke-linejoin="round" stroke-linecap="round" d="M516.00854 135.85938Q516.00854 137.76562 515.3523 138.70312Q514.7117 139.625 513.32104 139.625Q511.96167 139.625 511.30542 138.71875Q510.64917 137.8125 510.61792 136.0L510.61792 134.5625Q510.61792 132.67188 511.25854 131.76562Q511.9148 130.84375 513.3054 130.84375Q514.6804 130.84375 515.3367 131.73438Q515.9929 132.60938 516.00854 134.45312L516.00854 135.85938ZM514.9148 134.375Q514.9148 133.0 514.5242 132.375Q514.1492 131.73438 513.3054 131.73438Q512.4773 131.73438 512.0867 132.375Q511.71167 133.0 511.71167 134.29688L511.71167 136.03125Q511.71167 137.40625 512.1023 138.07812Q512.50854 138.73438 513.32104 138.73438Q514.1179 138.73438 514.50854 138.10938Q514.8992 137.48438 514.9148 136.15625L514.9148 134.375ZM517.7898 138.9375Q517.7898 138.65625 517.94604 138.46875Q518.1179 138.28125 518.44604 138.28125Q518.7898 138.28125 518.9617 138.46875Q519.13354 138.65625 519.13354 138.9375Q519.13354 139.20312 518.9617 139.39062Q518.7898 139.5625 518.44604 139.5625Q518.1179 139.5625 517.94604 139.39062Q517.7898 139.20312 517.7898 138.9375ZM526.00854 135.85938Q526.00854 137.76562 525.3523 138.70312Q524.7117 139.625 523.32104 139.625Q521.9617 139.625 521.3054 138.71875Q520.6492 137.8125 520.6179 136.0L520.6179 134.5625Q520.6179 132.67188 521.25854 131.76562Q521.9148 130.84375 523.3054 130.84375Q524.6804 130.84375 525.3367 131.73438Q525.9929 132.60938 526.00854 134.45312L526.00854 135.85938ZM524.9148 134.375Q524.9148 133.0 524.5242 132.375Q524.1492 131.73438 523.3054 131.73438Q522.4773 131.73438 522.0867 132.375Q521.7117 133.0 521.7117 134.29688L521.7117 136.03125Q521.7117 137.40625 522.1023 138.07812Q522.50854 138.73438 523.32104 138.73438Q524.1179 138.73438 524.50854 138.10938Q524.8992 137.48438 524.9148 136.15625L524.9148 134.375ZM529.2273 134.70312L530.0398 134.70312Q530.82104 134.6875 531.25854 134.29688Q531.69604 133.90625 531.69604 133.23438Q531.69604 131.73438 530.19604 131.73438Q529.4929 131.73438 529.07104 132.14062Q528.6648 132.54688 528.6648 133.20312L527.57104 133.20312Q527.57104 132.1875 528.3054 131.51562Q529.0554 130.84375 530.19604 130.84375Q531.3992 130.84375 532.0867 131.48438Q532.7742 132.125 532.7742 133.26562Q532.7742 133.82812 532.4148 134.34375Q532.0554 134.85938 531.4304 135.125Q532.13354 135.34375 532.50854 135.85938Q532.8992 136.375 532.8992 137.125Q532.8992 138.26562 532.1492 138.95312Q531.3992 139.625 530.19604 139.625Q529.00854 139.625 528.2429 138.96875Q527.4929 138.3125 527.4929 137.25L528.5867 137.25Q528.5867 137.92188 529.0242 138.32812Q529.4617 138.73438 530.2117 138.73438Q530.9929 138.73438 531.3992 138.32812Q531.82104 137.90625 531.82104 137.14062Q531.82104 136.40625 531.3679 136.01562Q530.9148 135.60938 530.0398 135.59375L529.2273 135.59375L529.2273 134.70312ZM539.8367 133.1875Q539.8367 133.82812 539.4929 134.32812Q539.1492 134.82812 538.5867 135.10938Q539.2429 135.39062 539.63354 135.95312Q540.0242 136.5 540.0242 137.20312Q540.0242 138.29688 539.2742 138.96875Q538.5398 139.625 537.32104 139.625Q536.0867 139.625 535.3367 138.96875Q534.6023 138.29688 534.6023 137.20312Q534.6023 136.5 534.9773 135.95312Q535.3523 135.39062 536.0242 135.10938Q535.4617 134.82812 535.13354 134.32812Q534.8054 133.82812 534.8054 133.1875Q534.8054 132.10938 535.4929 131.48438Q536.1804 130.84375 537.32104 130.84375Q538.44604 130.84375 539.13354 131.48438Q539.8367 132.10938 539.8367 133.1875ZM538.94604 137.17188Q538.94604 136.45312 538.4929 136.01562Q538.0398 135.5625 537.3054 135.5625Q536.57104 135.5625 536.1179 136.01562Q535.6804 136.45312 535.6804 137.1875Q535.6804 137.90625 536.1179 138.32812Q536.5554 138.73438 537.32104 138.73438Q538.07104 138.73438 538.50854 138.3125Q538.94604 137.89062 538.94604 137.17188ZM537.32104 131.73438Q536.6804 131.73438 536.2742 132.14062Q535.88354 132.53125 535.88354 133.21875Q535.88354 133.85938 536.2742 134.26562Q536.6648 134.67188 537.3054 134.67188Q537.9617 134.67188 538.3523 134.26562Q538.7429 133.85938 538.7429 133.21875Q538.7429 132.5625 538.3367 132.15625Q537.9304 131.73438 537.32104 131.73438ZM543.2273 134.70312L544.0398 134.70312Q544.82104 134.6875 545.25854 134.29688Q545.69604 133.90625 545.69604 133.23438Q545.69604 131.73438 544.19604 131.73438Q543.4929 131.73438 543.07104 132.14062Q542.6648 132.54688 542.6648 133.20312L541.57104 133.20312Q541.57104 132.1875 542.3054 131.51562Q543.0554 130.84375 544.19604 130.84375Q545.3992 130.84375 546.0867 131.48438Q546.7742 132.125 546.7742 133.26562Q546.7742 133.82812 546.4148 134.34375Q546.0554 134.85938 545.4304 135.125Q546.13354 135.34375 546.50854 135.85938Q546.8992 136.375 546.8992 137.125Q546.8992 138.26562 546.1492 138.95312Q545.3992 139.625 544.19604 139.625Q543.00854 139.625 542.2429 138.96875Q541.4929 138.3125 541.4929 137.25L542.5867 137.25Q542.5867 137.92188 543.0242 138.32812Q543.4617 138.73438 544.2117 138.73438Q544.9929 138.73438 545.3992 138.32812Q545.82104 137.90625 545.82104 137.14062Q545.82104 136.40625 545.3679 136.01562Q544.9148 135.60938 544.0398 135.59375L543.2273 135.59375L543.2273 134.70312ZM553.8367 133.1875Q553.8367 133.82812 553.4929 134.32812Q553.1492 134.82812 552.5867 135.10938Q553.2429 135.39062 553.63354 135.95312Q554.0242 136.5 554.0242 137.20312Q554.0242 138.29688 553.2742 138.96875Q552.5398 139.625 551.32104 139.625Q550.0867 139.625 549.3367 138.96875Q548.6023 138.29688 548.6023 137.20312Q548.6023 136.5 548.9773 135.95312Q549.3523 135.39062 550.0242 135.10938Q549.4617 134.82812 549.13354 134.32812Q548.8054 133.82812 548.8054 133.1875Q548.8054 132.10938 549.4929 131.48438Q550.1804 130.84375 551.32104 130.84375Q552.44604 130.84375 553.13354 131.48438Q553.8367 132.10938 553.8367 133.1875ZM552.94604 137.17188Q552.94604 136.45312 552.4929 136.01562Q552.0398 135.5625 551.3054 135.5625Q550.57104 135.5625 550.1179 136.01562Q549.6804 136.45312 549.6804 137.1875Q549.6804 137.90625 550.1179 138.32812Q550.5554 138.73438 551.32104 138.73438Q552.07104 138.73438 552.50854 138.3125Q552.94604 137.89062 552.94604 137.17188ZM551.32104 131.73438Q550.6804 131.73438 550.2742 132.14062Q549.88354 132.53125 549.88354 133.21875Q549.88354 133.85938 550.2742 134.26562Q550.6648 134.67188 551.3054 134.67188Q551.9617 134.67188 552.3523 134.26562Q552.7429 133.85938 552.7429 133.21875Q552.7429 132.5625 552.3367 132.15625Q551.9304 131.73438 551.32104 131.73438Z" fill-rule="nonzero"/><path fill="#ffffff" d="M516.00854 135.85938Q516.00854 137.76562 515.3523 138.70312Q514.7117 139.625 513.32104 139.625Q511.96167 139.625 511.30542 138.71875Q510.64917 137.8125 510.61792 136.0L510.61792 134.5625Q510.61792 132.67188 511.25854 131.76562Q511.9148 130.84375 513.3054 130.84375Q514.6804 130.84375 515.3367 131.73438Q515.9929 132.60938 516.00854 134.45312L516.00854 135.85938ZM514.9148 134.375Q514.9148 133.0 514.5242 132.375Q514.1492 131.73438 513.3054 131.73438Q512.4773 131.73438 512.0867 132.375Q511.71167 133.0 511.71167 134.29688L511.71167 136.03125Q511.71167 137.40625 512.1023 138.07812Q512.50854 138.73438 513.32104 138.73438Q514.1179 138.73438 514.50854 138.10938Q514.8992 137.48438 514.9148 136.15625L514.9148 134.375ZM517.7898 138.9375Q517.7898 138.65625 517.94604 138.46875Q518.1179 138.28125 518.44604 138.28125Q518.7898 138.28125 518.9617 138.46875Q519.13354 138.65625 519.13354 138.9375Q519.13354 139.20312 518.9617 139.39062Q518.7898 139.5625 518.44604 139.5625Q518.1179 139.5625 517.94604 139.39062Q517.7898 139.20312 517.7898 138.9375ZM526.00854 135.85938Q526.00854 137.76562 525.3523 138.70312Q524.7117 139.625 523.32104 139.625Q521.9617 139.625 521.3054 138.71875Q520.6492 137.8125 520.6179 136.0L520.6179 134.5625Q520.6179 132.67188 521.25854 131.76562Q521.9148 130.84375 523.3054 130.84375Q524.6804 130.84375 525.3367 131.73438Q525.9929 132.60938 526.00854 134.45312L526.00854 135.85938ZM524.9148 134.375Q524.9148 133.0 524.5242 132.375Q524.1492 131.73438 523.3054 131.73438Q522.4773 131.73438 522.0867 132.375Q521.7117 133.0 521.7117 134.29688L521.7117 136.03125Q521.7117 137.40625 522.1023 138.07812Q522.50854 138.73438 523.32104 138.73438Q524.1179 138.73438 524.50854 138.10938Q524.8992 137.48438 524.9148 136.15625L524.9148 134.375ZM529.2273 134.70312L530.0398 134.70312Q530.82104 134.6875 531.25854 134.29688Q531.69604 133.90625 531.69604 133.23438Q531.69604 131.73438 530.19604 131.73438Q529.4929 131.73438 529.07104 132.14062Q528.6648 132.54688 528.6648 133.20312L527.57104 133.20312Q527.57104 132.1875 528.3054 131.51562Q529.0554 130.84375 530.19604 130.84375Q531.3992 130.84375 532.0867 131.48438Q532.7742 132.125 532.7742 133.26562Q532.7742 133.82812 532.4148 134.34375Q532.0554 134.85938 531.4304 135.125Q532.13354 135.34375 532.50854 135.85938Q532.8992 136.375 532.8992 137.125Q532.8992 138.26562 532.1492 138.95312Q531.3992 139.625 530.19604 139.625Q529.00854 139.625 528.2429 138.96875Q527.4929 138.3125 527.4929 137.25L528.5867 137.25Q528.5867 137.92188 529.0242 138.32812Q529.4617 138.73438 530.2117 138.73438Q530.9929 138.73438 531.3992 138.32812Q531.82104 137.90625 531.82104 137.14062Q531.82104 136.40625 531.3679 136.01562Q530.9148 135.60938 530.0398 135.59375L529.2273 135.59375L529.2273 134.70312ZM539.8367 133.1875Q539.8367 133.82812 539.4929 134.32812Q539.1492 134.82812 538.5867 135.10938Q539.2429 135.39062 539.63354 135.95312Q540.0242 136.5 540.0242 137.20312Q540.0242 138.29688 539.2742 138.96875Q538.5398 139.625 537.32104 139.625Q536.0867 139.625 535.3367 138.96875Q534.6023 138.29688 534.6023 137.20312Q534.6023 136.5 534.9773 135.95312Q535.3523 135.39062 536.0242 135.10938Q535.4617 134.82812 535.13354 134.32812Q534.8054 133.82812 534.8054 133.1875Q534.8054 132.10938 535.4929 131.48438Q536.1804 130.84375 537.32104 130.84375Q538.44604 130.84375 539.13354 131.48438Q539.8367 132.10938 539.8367 133.1875ZM538.94604 137.17188Q538.94604 136.45312 538.4929 136.01562Q538.0398 135.5625 537.3054 135.5625Q536.57104 135.5625 536.1179 136.01562Q535.6804 136.45312 535.6804 137.1875Q535.6804 137.90625 536.1179 138.32812Q536.5554 138.73438 537.32104 138.73438Q538.07104 138.73438 538.50854 138.3125Q538.94604 137.89062 538.94604 137.17188ZM537.32104 131.73438Q536.6804 131.73438 536.2742 132.14062Q535.88354 132.53125 535.88354 133.21875Q535.88354 133.85938 536.2742 134.26562Q536.6648 134.67188 537.3054 134.67188Q537.9617 134.67188 538.3523 134.26562Q538.7429 133.85938 538.7429 133.21875Q538.7429 132.5625 538.3367 132.15625Q537.9304 131.73438 537.32104 131.73438ZM543.2273 134.70312L544.0398 134.70312Q544.82104 134.6875 545.25854 134.29688Q545.69604 133.90625 545.69604 133.23438Q545.69604 131.73438 544.19604 131.73438Q543.4929 131.73438 543.07104 132.14062Q542.6648 132.54688 542.6648 133.20312L541.57104 133.20312Q541.57104 132.1875 542.3054 131.51562Q543.0554 130.84375 544.19604 130.84375Q545.3992 130.84375 546.0867 131.48438Q546.7742 132.125 546.7742 133.26562Q546.7742 133.82812 546.4148 134.34375Q546.0554 134.85938 545.4304 135.125Q546.13354 135.34375 546.50854 135.85938Q546.8992 136.375 546.8992 137.125Q546.8992 138.26562 546.1492 138.95312Q545.3992 139.625 544.19604 139.625Q543.00854 139.625 542.2429 138.96875Q541.4929 138.3125 541.4929 137.25L542.5867 137.25Q542.5867 137.92188 543.0242 138.32812Q543.4617 138.73438 544.2117 138.73438Q544.9929 138.73438 545.3992 138.32812Q545.82104 137.90625 545.82104 137.14062Q545.82104 136.40625 545.3679 136.01562Q544.9148 135.60938 544.0398 135.59375L543.2273 135.59375L543.2273 134.70312ZM553.8367 133.1875Q553.8367 133.82812 553.4929 134.32812Q553.1492 134.82812 552.5867 135.10938Q553.2429 135.39062 553.63354 135.95312Q554.0242 136.5 554.0242 137.20312Q554.0242 138.29688 553.2742 138.96875Q552.5398 139.625 551.32104 139.625Q550.0867 139.625 549.3367 138.96875Q548.6023 138.29688 548.6023 137.20312Q548.6023 136.5 548.9773 135.95312Q549.3523 135.39062 550.0242 135.10938Q549.4617 134.82812 549.13354 134.32812Q548.8054 133.82812 548.8054 133.1875Q548.8054 132.10938 549.4929 131.48438Q550.1804 130.84375 551.32104 130.84375Q552.44604 130.84375 553.13354 131.48438Q553.8367 132.10938 553.8367 133.1875ZM552.94604 137.17188Q552.94604 136.45312 552.4929 136.01562Q552.0398 135.5625 551.3054 135.5625Q550.57104 135.5625 550.1179 136.01562Q549.6804 136.45312 549.6804 137.1875Q549.6804 137.90625 550.1179 138.32812Q550.5554 138.73438 551.32104 138.73438Q552.07104 138.73438 552.50854 138.3125Q552.94604 137.89062 552.94604 137.17188ZM551.32104 131.73438Q550.6804 131.73438 550.2742 132.14062Q549.88354 132.53125 549.88354 133.21875Q549.88354 133.85938 550.2742 134.26562Q550.6648 134.67188 551.3054 134.67188Q551.9617 134.67188 552.3523 134.26562Q552.7429 133.85938 552.7429 133.21875Q552.7429 132.5625 552.3367 132.15625Q551.9304 131.73438 551.32104 131.73438Z" fill-rule="nonzero"/><path stroke="#4285f4" stroke-width="3.0" stroke-linejoin="round" stroke-linecap="round" d="M239.08223 253.85938Q239.08223 255.76562 238.42598 256.70312Q237.78535 257.625 236.39473 257.625Q235.03535 257.625 234.3791 256.71875Q233.72285 255.8125 233.6916 254.0L233.6916 252.5625Q233.6916 250.67188 234.33223 249.76562Q234.98848 248.84375 236.3791 248.84375Q237.7541 248.84375 238.41035 249.73438Q239.0666 250.60938 239.08223 252.45312L239.08223 253.85938ZM237.98848 252.375Q237.98848 251.0 237.59785 250.375Q237.22285 249.73438 236.3791 249.73438Q235.55098 249.73438 235.16035 250.375Q234.78535 251.0 234.78535 252.29688L234.78535 254.03125Q234.78535 255.40625 235.17598 256.07812Q235.58223 256.73438 236.39473 256.73438Q237.1916 256.73438 237.58223 256.10938Q237.97285 255.48438 237.98848 254.15625L237.98848 252.375ZM240.86348 256.9375Q240.86348 256.65625 241.01973 256.46875Q241.1916 256.28125 241.51973 256.28125Q241.86348 256.28125 242.03535 256.46875Q242.20723 256.65625 242.20723 256.9375Q242.20723 257.20312 242.03535 257.39062Q241.86348 257.5625 241.51973 257.5625Q241.1916 257.5625 241.01973 257.39062Q240.86348 257.20312 240.86348 256.9375ZM249.08223 253.85938Q249.08223 255.76562 248.42598 256.70312Q247.78535 257.625 246.39473 257.625Q245.03535 257.625 244.3791 256.71875Q243.72285 255.8125 243.6916 254.0L243.6916 252.5625Q243.6916 250.67188 244.33223 249.76562Q244.98848 248.84375 246.3791 248.84375Q247.7541 248.84375 248.41035 249.73438Q249.0666 250.60938 249.08223 252.45312L249.08223 253.85938ZM247.98848 252.375Q247.98848 251.0 247.59785 250.375Q247.22285 249.73438 246.3791 249.73438Q245.55098 249.73438 245.16035 250.375Q244.78535 251.0 244.78535 252.29688L244.78535 254.03125Q244.78535 255.40625 245.17598 256.07812Q245.58223 256.73438 246.39473 256.73438Q247.1916 256.73438 247.58223 256.10938Q247.97285 255.48438 247.98848 254.15625L247.98848 252.375ZM254.28535 257.5L253.20723 257.5L253.20723 250.28125L251.01973 251.07812L251.01973 250.09375L254.1291 248.92188L254.28535 248.92188L254.28535 257.5ZM263.23846 249.57812L259.7072 257.5L258.5666 257.5L262.0822 249.85938L257.47284 249.85938L257.47284 248.96875L263.23846 248.96875L263.23846 249.57812ZM270.23846 249.57812L266.7072 257.5L265.5666 257.5L269.0822 249.85938L264.47284 249.85938L264.47284 248.96875L270.23846 248.96875L270.23846 249.57812ZM275.28534 257.5L274.2072 257.5L274.2072 250.28125L272.0197 251.07812L272.0197 250.09375L275.1291 248.92188L275.28534 248.92188L275.28534 257.5Z" fill-rule="nonzero"/><path fill="#ffffff" d="M239.08223 253.85938Q239.08223 255.76562 238.42598 256.70312Q237.78535 257.625 236.39473 257.625Q235.03535 257.625 234.3791 256.71875Q233.72285 255.8125 233.6916 254.0L233.6916 252.5625Q233.6916 250.67188 234.33223 249.76562Q234.98848 248.84375 236.3791 248.84375Q237.7541 248.84375 238.41035 249.73438Q239.0666 250.60938 239.08223 252.45312L239.08223 253.85938ZM237.98848 252.375Q237.98848 251.0 237.59785 250.375Q237.22285 249.73438 236.3791 249.73438Q235.55098 249.73438 235.16035 250.375Q234.78535 251.0 234.78535 252.29688L234.78535 254.03125Q234.78535 255.40625 235.17598 256.07812Q235.58223 256.73438 236.39473 256.73438Q237.1916 256.73438 237.58223 256.10938Q237.97285 255.48438 237.98848 254.15625L237.98848 252.375ZM240.86348 256.9375Q240.86348 256.65625 241.01973 256.46875Q241.1916 256.28125 241.51973 256.28125Q241.86348 256.28125 242.03535 256.46875Q242.20723 256.65625 242.20723 256.9375Q242.20723 257.20312 242.03535 257.39062Q241.86348 257.5625 241.51973 257.5625Q241.1916 257.5625 241.01973 257.39062Q240.86348 257.20312 240.86348 256.9375ZM249.08223 253.85938Q249.08223 255.76562 248.42598 256.70312Q247.78535 257.625 246.39473 257.625Q245.03535 257.625 244.3791 256.71875Q243.72285 255.8125 243.6916 254.0L243.6916 252.5625Q243.6916 250.67188 244.33223 249.76562Q244.98848 248.84375 246.3791 248.84375Q247.7541 248.84375 248.41035 249.73438Q249.0666 250.60938 249.08223 252.45312L249.08223 253.85938ZM247.98848 252.375Q247.98848 251.0 247.59785 250.375Q247.22285 249.73438 246.3791 249.73438Q245.55098 249.73438 245.16035 250.375Q244.78535 251.0 244.78535 252.29688L244.78535 254.03125Q244.78535 255.40625 245.17598 256.07812Q245.58223 256.73438 246.39473 256.73438Q247.1916 256.73438 247.58223 256.10938Q247.97285 255.48438 247.98848 254.15625L247.98848 252.375ZM254.28535 257.5L253.20723 257.5L253.20723 250.28125L251.01973 251.07812L251.01973 250.09375L254.1291 248.92188L254.28535 248.92188L254.28535 257.5ZM263.23846 249.57812L259.7072 257.5L258.5666 257.5L262.0822 249.85938L257.47284 249.85938L257.47284 248.96875L263.23846 248.96875L263.23846 249.57812ZM270.23846 249.57812L266.7072 257.5L265.5666 257.5L269.0822 249.85938L264.47284 249.85938L264.47284 248.96875L270.23846 248.96875L270.23846 249.57812ZM275.28534 257.5L274.2072 257.5L274.2072 250.28125L272.0197 251.07812L272.0197 250.09375L275.1291 248.92188L275.28534 248.92188L275.28534 257.5Z" fill-rule="nonzero"/><path fill="#000000" d="M37.6125 135.61806L38.7375 135.91493Q38.378124 137.30556 37.45625 138.03993Q36.534374 138.7743 35.190624 138.7743Q33.8 138.7743 32.925 138.2118Q32.05 137.6493 31.596874 136.5868Q31.14375 135.50868 31.14375 134.2743Q31.14375 132.93056 31.659374 131.93056Q32.175 130.93056 33.1125 130.41493Q34.065624 129.8993 35.20625 129.8993Q36.4875 129.8993 37.3625 130.55556Q38.253124 131.2118 38.596874 132.3993L37.471874 132.66493Q37.175 131.72743 36.596874 131.30556Q36.034374 130.86806 35.175 130.86806Q34.190624 130.86806 33.51875 131.35243Q32.8625 131.82118 32.58125 132.61806Q32.315624 133.41493 32.315624 134.2743Q32.315624 135.36806 32.628124 136.18056Q32.95625 136.99306 33.628124 137.3993Q34.3 137.80556 35.096874 137.80556Q36.05 137.80556 36.70625 137.25868Q37.378124 136.7118 37.6125 135.61806Z" fill-rule="nonzero"/><path fill="#000000" d="M20.64375 256.73297L22.909374 253.4986L20.815624 250.51422L22.128124 250.51422L23.08125 251.96735Q23.346874 252.38922 23.51875 252.67047Q23.76875 252.27985 23.9875 251.98297L25.034374 250.51422L26.3 250.51422L24.14375 253.4361L26.45625 256.73297L25.175 256.73297L23.89375 254.79547L23.55 254.27985L21.909374 256.73297L20.64375 256.73297ZM31.51875 250.2486L30.471874 250.32672Q30.33125 249.70172 30.08125 249.42047Q29.64375 248.96735 29.01875 248.96735Q28.51875 248.96735 28.128124 249.2486Q27.64375 249.6236 27.346874 250.32672Q27.065624 251.01422 27.05 252.29547Q27.425 251.71735 27.971874 251.4361Q28.534374 251.15485 29.14375 251.15485Q30.190624 251.15485 30.925 251.9361Q31.675 252.71735 31.675 253.9361Q31.675 254.7486 31.315624 255.45172Q30.971874 256.13922 30.3625 256.51422Q29.753124 256.8736 28.9875 256.8736Q27.659374 256.8736 26.83125 255.90485Q26.003124 254.9361 26.003124 252.71735Q26.003124 250.21735 26.925 249.09235Q27.721874 248.10797 29.08125 248.10797Q30.096874 248.10797 30.7375 248.6861Q31.39375 249.2486 31.51875 250.2486ZM27.221874 253.95172Q27.221874 254.4986 27.440624 254.9986Q27.675 255.48297 28.08125 255.7486Q28.503124 256.01422 28.971874 256.01422Q29.628124 256.01422 30.1125 255.48297Q30.596874 254.9361 30.596874 254.01422Q30.596874 253.1236 30.1125 252.60797Q29.64375 252.09235 28.925 252.09235Q28.20625 252.09235 27.70625 252.60797Q27.221874 253.1236 27.221874 253.95172ZM36.425 256.73297L36.425 254.67047L32.70625 254.67047L32.70625 253.70172L36.628124 248.13922L37.4875 248.13922L37.4875 253.70172L38.64375 253.70172L38.64375 254.67047L37.4875 254.67047L37.4875 256.73297L36.425 256.73297ZM36.425 253.70172L36.425 249.84235L33.7375 253.70172L36.425 253.70172Z" fill-rule="nonzero"/><path fill="#000000" d="M34.05 345.21564Q34.05 343.6844 34.3625 342.7625Q34.675 341.825 35.284374 341.325Q35.909374 340.825 36.846874 340.825Q37.534374 340.825 38.05 341.10626Q38.58125 341.3875 38.925 341.91876Q39.26875 342.4344 39.45625 343.1844Q39.64375 343.9344 39.64375 345.21564Q39.64375 346.73126 39.33125 347.65314Q39.034374 348.575 38.409374 349.09064Q37.8 349.59064 36.846874 349.59064Q35.6125 349.59064 34.89375 348.7Q34.05 347.6375 34.05 345.21564ZM35.128124 345.21564Q35.128124 347.325 35.628124 348.02814Q36.128124 348.73126 36.846874 348.73126Q37.58125 348.73126 38.065624 348.02814Q38.565624 347.325 38.565624 345.21564Q38.565624 343.09064 38.065624 342.40314Q37.58125 341.7 36.83125 341.7Q36.1125 341.7 35.675 342.3094Q35.128124 343.09064 35.128124 345.21564ZM41.64375 349.45L41.64375 348.2469L42.846874 348.2469L42.846874 349.45L41.64375 349.45ZM44.05 345.21564Q44.05 343.6844 44.3625 342.7625Q44.675 341.825 45.284374 341.325Q45.909374 340.825 46.846874 340.825Q47.534374 340.825 48.05 341.10626Q48.58125 341.3875 48.925 341.91876Q49.26875 342.4344 49.45625 343.1844Q49.64375 343.9344 49.64375 345.21564Q49.64375 346.73126 49.33125 347.65314Q49.034374 348.575 48.409374 349.09064Q47.8 349.59064 46.846874 349.59064Q45.6125 349.59064 44.89375 348.7Q44.05 347.6375 44.05 345.21564ZM45.128124 345.21564Q45.128124 347.325 45.628124 348.02814Q46.128124 348.73126 46.846874 348.73126Q47.58125 348.73126 48.065624 348.02814Q48.565624 347.325 48.565624 345.21564Q48.565624 343.09064 48.065624 342.40314Q47.58125 341.7 46.83125 341.7Q46.1125 341.7 45.675 342.3094Q45.128124 343.09064 45.128124 345.21564ZM51.05 345.21564Q51.05 343.6844 51.3625 342.7625Q51.675 341.825 52.284374 341.325Q52.909374 340.825 53.846874 340.825Q54.534374 340.825 55.05 341.10626Q55.58125 341.3875 55.925 341.91876Q56.26875 342.4344 56.45625 343.1844Q56.64375 343.9344 56.64375 345.21564Q56.64375 346.73126 56.33125 347.65314Q56.034374 348.575 55.409374 349.09064Q54.8 349.59064 53.846874 349.59064Q52.6125 349.59064 51.89375 348.7Q51.05 347.6375 51.05 345.21564ZM52.128124 345.21564Q52.128124 347.325 52.628124 348.02814Q53.128124 348.73126 53.846874 348.73126Q54.58125 348.73126 55.065624 348.02814Q55.565624 347.325 55.565624 345.21564Q55.565624 343.09064 55.065624 342.40314Q54.58125 341.7 53.83125 341.7Q53.1125 341.7 52.675 342.3094Q52.128124 343.09064 52.128124 345.21564Z" fill-rule="nonzero"/><path fill="#000000" d="M168.025 345.21564Q168.025 343.6844 168.3375 342.7625Q168.65 341.825 169.25937 341.325Q169.88437 340.825 170.82187 340.825Q171.50937 340.825 172.025 341.10626Q172.55624 341.3875 172.9 341.91876Q173.24374 342.4344 173.43124 343.1844Q173.61874 343.9344 173.61874 345.21564Q173.61874 346.73126 173.30624 347.65314Q173.00937 348.575 172.38437 349.09064Q171.775 349.59064 170.82187 349.59064Q169.5875 349.59064 168.86874 348.7Q168.025 347.6375 168.025 345.21564ZM169.10312 345.21564Q169.10312 347.325 169.60312 348.02814Q170.10312 348.73126 170.82187 348.73126Q171.55624 348.73126 172.04062 348.02814Q172.54062 347.325 172.54062 345.21564Q172.54062 343.09064 172.04062 342.40314Q171.55624 341.7 170.80624 341.7Q170.0875 341.7 169.65 342.3094Q169.10312 343.09064 169.10312 345.21564ZM175.61874 349.45L175.61874 348.2469L176.82187 348.2469L176.82187 349.45L175.61874 349.45ZM178.025 345.21564Q178.025 343.6844 178.3375 342.7625Q178.65 341.825 179.25937 341.325Q179.88437 340.825 180.82187 340.825Q181.50937 340.825 182.025 341.10626Q182.55624 341.3875 182.9 341.91876Q183.24374 342.4344 183.43124 343.1844Q183.61874 343.9344 183.61874 345.21564Q183.61874 346.73126 183.30624 347.65314Q183.00937 348.575 182.38437 349.09064Q181.775 349.59064 180.82187 349.59064Q179.5875 349.59064 178.86874 348.7Q178.025 347.6375 178.025 345.21564ZM179.10312 345.21564Q179.10312 347.325 179.60312 348.02814Q180.10312 348.73126 180.82187 348.73126Q181.55624 348.73126 182.04062 348.02814Q182.54062 347.325 182.54062 345.21564Q182.54062 343.09064 182.04062 342.40314Q181.55624 341.7 180.80624 341.7Q180.0875 341.7 179.65 342.3094Q179.10312 343.09064 179.10312 345.21564ZM188.99374 349.45L187.94687 349.45L187.94687 342.73126Q187.55624 343.09064 186.93124 343.46564Q186.32187 343.825 185.8375 343.9969L185.8375 342.98126Q186.7125 342.5594 187.36874 341.98126Q188.04062 341.3875 188.32187 340.825L188.99374 340.825L188.99374 349.45Z" fill-rule="nonzero"/><path fill="#000000" d="M302.0 345.21564Q302.0 343.6844 302.3125 342.7625Q302.625 341.825 303.23438 341.325Q303.85938 340.825 304.79688 340.825Q305.48438 340.825 306.0 341.10626Q306.53125 341.3875 306.875 341.91876Q307.21875 342.4344 307.40625 343.1844Q307.59375 343.9344 307.59375 345.21564Q307.59375 346.73126 307.28125 347.65314Q306.98438 348.575 306.35938 349.09064Q305.75 349.59064 304.79688 349.59064Q303.5625 349.59064 302.84375 348.7Q302.0 347.6375 302.0 345.21564ZM303.07812 345.21564Q303.07812 347.325 303.57812 348.02814Q304.07812 348.73126 304.79688 348.73126Q305.53125 348.73126 306.01562 348.02814Q306.51562 347.325 306.51562 345.21564Q306.51562 343.09064 306.01562 342.40314Q305.53125 341.7 304.78125 341.7Q304.0625 341.7 303.625 342.3094Q303.07812 343.09064 303.07812 345.21564ZM309.59375 349.45L309.59375 348.2469L310.79688 348.2469L310.79688 349.45L309.59375 349.45ZM312.0 345.21564Q312.0 343.6844 312.3125 342.7625Q312.625 341.825 313.23438 341.325Q313.85938 340.825 314.79688 340.825Q315.48438 340.825 316.0 341.10626Q316.53125 341.3875 316.875 341.91876Q317.21875 342.4344 317.40625 343.1844Q317.59375 343.9344 317.59375 345.21564Q317.59375 346.73126 317.28125 347.65314Q316.98438 348.575 316.35938 349.09064Q315.75 349.59064 314.79688 349.59064Q313.5625 349.59064 312.84375 348.7Q312.0 347.6375 312.0 345.21564ZM313.07812 345.21564Q313.07812 347.325 313.57812 348.02814Q314.07812 348.73126 314.79688 348.73126Q315.53125 348.73126 316.01562 348.02814Q316.51562 347.325 316.51562 345.21564Q316.51562 343.09064 316.01562 342.40314Q315.53125 341.7 314.78125 341.7Q314.0625 341.7 313.625 342.3094Q313.07812 343.09064 313.07812 345.21564ZM324.54688 348.4344L324.54688 349.45L318.85938 349.45Q318.85938 349.075 318.98438 348.71564Q319.20312 348.1375 319.67188 347.575Q320.15625 347.0125 321.0625 346.27814Q322.46875 345.1219 322.95312 344.45Q323.45312 343.77814 323.45312 343.1844Q323.45312 342.5594 323.0 342.1375Q322.54688 341.7 321.82812 341.7Q321.0625 341.7 320.60938 342.15314Q320.15625 342.60626 320.14062 343.41876L319.0625 343.3094Q319.17188 342.09064 319.89062 341.46564Q320.625 340.825 321.85938 340.825Q323.09375 340.825 323.8125 341.5125Q324.53125 342.2 324.53125 343.21564Q324.53125 343.73126 324.3125 344.23126Q324.10938 344.71564 323.60938 345.27814Q323.125 345.825 322.0 346.77814Q321.04688 347.575 320.76562 347.8719Q320.5 348.15314 320.32812 348.4344L324.54688 348.4344Z" fill-rule="nonzero"/><path fill="#000000" d="M435.975 345.21564Q435.975 343.6844 436.2875 342.7625Q436.6 341.825 437.20938 341.325Q437.83438 340.825 438.77188 340.825Q439.45938 340.825 439.975 341.10626Q440.50626 341.3875 440.85 341.91876Q441.19376 342.4344 441.38126 343.1844Q441.56876 343.9344 441.56876 345.21564Q441.56876 346.73126 441.25626 347.65314Q440.95938 348.575 440.33438 349.09064Q439.725 349.59064 438.77188 349.59064Q437.5375 349.59064 436.81876 348.7Q435.975 347.6375 435.975 345.21564ZM437.05313 345.21564Q437.05313 347.325 437.55313 348.02814Q438.05313 348.73126 438.77188 348.73126Q439.50626 348.73126 439.99063 348.02814Q440.49063 347.325 440.49063 345.21564Q440.49063 343.09064 439.99063 342.40314Q439.50626 341.7 438.75626 341.7Q438.0375 341.7 437.6 342.3094Q437.05313 343.09064 437.05313 345.21564ZM443.56876 349.45L443.56876 348.2469L444.77188 348.2469L444.77188 349.45L443.56876 349.45ZM445.975 345.21564Q445.975 343.6844 446.2875 342.7625Q446.6 341.825 447.20938 341.325Q447.83438 340.825 448.77188 340.825Q449.45938 340.825 449.975 341.10626Q450.50626 341.3875 450.85 341.91876Q451.19376 342.4344 451.38126 343.1844Q451.56876 343.9344 451.56876 345.21564Q451.56876 346.73126 451.25626 347.65314Q450.95938 348.575 450.33438 349.09064Q449.725 349.59064 448.77188 349.59064Q447.5375 349.59064 446.81876 348.7Q445.975 347.6375 445.975 345.21564ZM447.05313 345.21564Q447.05313 347.325 447.55313 348.02814Q448.05313 348.73126 448.77188 348.73126Q449.50626 348.73126 449.99063 348.02814Q450.49063 347.325 450.49063 345.21564Q450.49063 343.09064 449.99063 342.40314Q449.50626 341.7 448.75626 341.7Q448.0375 341.7 447.6 342.3094Q447.05313 343.09064 447.05313 345.21564ZM452.975 347.1844L454.0375 347.04376Q454.20938 347.9344 454.64688 348.34064Q455.08438 348.73126 455.70938 348.73126Q456.45938 348.73126 456.975 348.21564Q457.49063 347.7 457.49063 346.9344Q457.49063 346.21564 457.00626 345.7469Q456.5375 345.2625 455.80313 345.2625Q455.50626 345.2625 455.05313 345.3875L455.17813 344.45Q455.2875 344.46564 455.35 344.46564Q456.02188 344.46564 456.55313 344.1219Q457.1 343.7625 457.1 343.02814Q457.1 342.45 456.70938 342.075Q456.31876 341.6844 455.69376 341.6844Q455.08438 341.6844 454.6625 342.075Q454.25626 342.46564 454.14688 343.23126L453.08438 343.04376Q453.27188 341.9969 453.95938 341.41876Q454.64688 340.825 455.6625 340.825Q456.36563 340.825 456.95938 341.1375Q457.55313 341.4344 457.86563 341.95Q458.17813 342.46564 458.17813 343.0594Q458.17813 343.60626 457.88126 344.075Q457.58438 344.52814 457.00626 344.79376Q457.75626 344.96564 458.17813 345.52814Q458.6 346.075 458.6 346.91876Q458.6 348.04376 457.77188 348.825Q456.95938 349.60626 455.70938 349.60626Q454.58438 349.60626 453.83438 348.9344Q453.08438 348.2469 452.975 347.1844Z" fill-rule="nonzero"/><path fill="#000000" d="M569.95 345.21564Q569.95 343.6844 570.2625 342.7625Q570.575 341.825 571.1844 341.325Q571.8094 340.825 572.7469 340.825Q573.4344 340.825 573.95 341.10626Q574.48126 341.3875 574.825 341.91876Q575.16876 342.4344 575.35626 343.1844Q575.54376 343.9344 575.54376 345.21564Q575.54376 346.73126 575.23126 347.65314Q574.9344 348.575 574.3094 349.09064Q573.7 349.59064 572.7469 349.59064Q571.5125 349.59064 570.79376 348.7Q569.95 347.6375 569.95 345.21564ZM571.02814 345.21564Q571.02814 347.325 571.52814 348.02814Q572.02814 348.73126 572.7469 348.73126Q573.48126 348.73126 573.96564 348.02814Q574.46564 347.325 574.46564 345.21564Q574.46564 343.09064 573.96564 342.40314Q573.48126 341.7 572.73126 341.7Q572.0125 341.7 571.575 342.3094Q571.02814 343.09064 571.02814 345.21564ZM577.54376 349.45L577.54376 348.2469L578.7469 348.2469L578.7469 349.45L577.54376 349.45ZM579.95 345.21564Q579.95 343.6844 580.2625 342.7625Q580.575 341.825 581.1844 341.325Q581.8094 340.825 582.7469 340.825Q583.4344 340.825 583.95 341.10626Q584.48126 341.3875 584.825 341.91876Q585.16876 342.4344 585.35626 343.1844Q585.54376 343.9344 585.54376 345.21564Q585.54376 346.73126 585.23126 347.65314Q584.9344 348.575 584.3094 349.09064Q583.7 349.59064 582.7469 349.59064Q581.5125 349.59064 580.79376 348.7Q579.95 347.6375 579.95 345.21564ZM581.02814 345.21564Q581.02814 347.325 581.52814 348.02814Q582.02814 348.73126 582.7469 348.73126Q583.48126 348.73126 583.96564 348.02814Q584.46564 347.325 584.46564 345.21564Q584.46564 343.09064 583.96564 342.40314Q583.48126 341.7 582.73126 341.7Q582.0125 341.7 581.575 342.3094Q581.02814 343.09064 581.02814 345.21564ZM590.325 349.45L590.325 347.3875L586.60626 347.3875L586.60626 346.41876L590.52814 340.85626L591.3875 340.85626L591.3875 346.41876L592.54376 346.41876L592.54376 347.3875L591.3875 347.3875L591.3875 349.45L590.325 349.45ZM590.325 346.41876L590.325 342.5594L587.6375 346.41876L590.325 346.41876Z" fill-rule="nonzero"/><path fill="#757575" d="M18.51875 37.55L24.01875 23.2375L26.065624 23.2375L31.925 37.55L29.76875 37.55L28.096874 33.20625L22.1125 33.20625L20.534374 37.55L18.51875 37.55ZM22.659374 31.675L27.503124 31.675L26.01875 27.70625Q25.33125 25.89375 25.003124 24.7375Q24.721874 26.1125 24.221874 27.471874L22.659374 31.675ZM35.753124 37.55L31.8 27.175L33.659374 27.175L35.89375 33.39375Q36.253124 34.39375 36.55 35.471874Q36.784374 34.659374 37.20625 33.503124L39.503124 27.175L41.315624 27.175L37.39375 37.55L35.753124 37.55ZM48.971874 34.20625L50.784374 34.440624Q50.3625 36.01875 49.190624 36.909374Q48.034374 37.784374 46.221874 37.784374Q43.95625 37.784374 42.6125 36.39375Q41.284374 34.9875 41.284374 32.45625Q41.284374 29.83125 42.628124 28.39375Q43.971874 26.940624 46.128124 26.940624Q48.20625 26.940624 49.51875 28.3625Q50.846874 29.76875 50.846874 32.346874Q50.846874 32.503124 50.83125 32.815624L43.096874 32.815624Q43.190624 34.51875 44.065624 35.425Q44.940624 36.33125 46.2375 36.33125Q47.20625 36.33125 47.878124 35.83125Q48.565624 35.315624 48.971874 34.20625ZM43.190624 31.3625L48.9875 31.3625Q48.878124 30.065624 48.33125 29.409374Q47.4875 28.39375 46.14375 28.39375Q44.940624 28.39375 44.1125 29.20625Q43.284374 30.003124 43.190624 31.3625ZM52.846874 37.55L52.846874 27.175L54.425 27.175L54.425 28.753124Q55.034374 27.64375 55.55 27.3Q56.065624 26.940624 56.675 26.940624Q57.565624 26.940624 58.4875 27.503124L57.878124 29.14375Q57.2375 28.753124 56.596874 28.753124Q56.01875 28.753124 55.55 29.1125Q55.096874 29.45625 54.89375 30.065624Q54.6125 31.003124 54.6125 32.1125L54.6125 37.55L52.846874 37.55ZM66.64375 36.26875Q65.65938 37.096874 64.75313 37.440624Q63.846874 37.784374 62.815624 37.784374Q61.1125 37.784374 60.190624 36.95625Q59.26875 36.1125 59.26875 34.815624Q59.26875 34.05 59.6125 33.425Q59.971874 32.8 60.534374 32.425Q61.096874 32.034374 61.8 31.83125Q62.315624 31.70625 63.3625 31.565624Q65.4875 31.315624 66.4875 30.971874Q66.50313 30.6125 66.50313 30.503124Q66.50313 29.440624 66.00313 28.9875Q65.33125 28.39375 64.00313 28.39375Q62.753124 28.39375 62.159374 28.83125Q61.58125 29.26875 61.3 30.378124L59.58125 30.14375Q59.815624 29.034374 60.346874 28.3625Q60.878124 27.675 61.89375 27.315624Q62.909374 26.940624 64.25313 26.940624Q65.58125 26.940624 66.40938 27.253124Q67.2375 27.565624 67.62813 28.05Q68.01875 28.51875 68.175 29.2375Q68.26875 29.690624 68.26875 30.8625L68.26875 33.20625Q68.26875 35.659374 68.37813 36.315624Q68.4875 36.95625 68.83125 37.55L66.9875 37.55Q66.72188 37.003124 66.64375 36.26875ZM66.4875 32.346874Q65.53438 32.7375 63.6125 33.003124Q62.534374 33.159374 62.08125 33.3625Q61.64375 33.55 61.39375 33.925Q61.14375 34.3 61.14375 34.76875Q61.14375 35.471874 61.675 35.940624Q62.20625 36.409374 63.2375 36.409374Q64.25313 36.409374 65.03438 35.971874Q65.83125 35.51875 66.20625 34.753124Q66.4875 34.14375 66.4875 32.9875L66.4875 32.346874ZM70.55 38.409374L72.25313 38.659374Q72.3625 39.45625 72.84688 39.815624Q73.50313 40.3 74.64375 40.3Q75.8625 40.3 76.51875 39.815624Q77.19063 39.33125 77.425 38.45625Q77.56563 37.909374 77.55 36.190624Q76.39375 37.55 74.675 37.55Q72.53438 37.55 71.3625 36.003124Q70.19063 34.45625 70.19063 32.3Q70.19063 30.815624 70.72188 29.565624Q71.26875 28.315624 72.28438 27.628124Q73.31563 26.940624 74.69063 26.940624Q76.51875 26.940624 77.72188 28.425L77.72188 27.175L79.33125 27.175L79.33125 36.14375Q79.33125 38.565624 78.83125 39.565624Q78.34688 40.58125 77.26875 41.159374Q76.20625 41.753124 74.64375 41.753124Q72.8 41.753124 71.64375 40.925Q70.50313 40.096874 70.55 38.409374ZM72.00313 32.175Q72.00313 34.221874 72.81563 35.159374Q73.62813 36.096874 74.84688 36.096874Q76.05 36.096874 76.8625 35.159374Q77.69063 34.221874 77.69063 32.2375Q77.69063 30.33125 76.84688 29.3625Q76.00313 28.39375 74.81563 28.39375Q73.64375 28.39375 72.81563 29.346874Q72.00313 30.3 72.00313 32.175ZM88.97188 34.20625L90.78438 34.440624Q90.3625 36.01875 89.19063 36.909374Q88.03438 37.784374 86.22188 37.784374Q83.95625 37.784374 82.6125 36.39375Q81.28438 34.9875 81.28438 32.45625Q81.28438 29.83125 82.62813 28.39375Q83.97188 26.940624 86.12813 26.940624Q88.20625 26.940624 89.51875 28.3625Q90.84688 29.76875 90.84688 32.346874Q90.84688 32.503124 90.83125 32.815624L83.09688 32.815624Q83.19063 34.51875 84.06563 35.425Q84.94063 36.33125 86.2375 36.33125Q87.20625 36.33125 87.87813 35.83125Q88.56563 35.315624 88.97188 34.20625ZM83.19063 31.3625L88.9875 31.3625Q88.87813 30.065624 88.33125 29.409374Q87.4875 28.39375 86.14375 28.39375Q84.94063 28.39375 84.1125 29.20625Q83.28438 30.003124 83.19063 31.3625ZM102.7375 37.55L102.7375 24.925L98.01875 24.925L98.01875 23.2375L109.3625 23.2375L109.3625 24.925L104.62813 24.925L104.62813 37.55L102.7375 37.55ZM110.87813 25.253124L110.87813 23.2375L112.64375 23.2375L112.64375 25.253124L110.87813 25.253124ZM110.87813 37.55L110.87813 27.175L112.64375 27.175L112.64375 37.55L110.87813 37.55ZM114.8625 37.55L114.8625 27.175L116.44063 27.175L116.44063 28.628124Q116.925 27.878124 117.7375 27.409374Q118.55 26.940624 119.58125 26.940624Q120.7375 26.940624 121.47188 27.425Q122.20625 27.89375 122.51875 28.753124Q123.75313 26.940624 125.72188 26.940624Q127.26875 26.940624 128.09688 27.8Q128.925 28.659374 128.925 30.425L128.925 37.55L127.175 37.55L127.175 31.01875Q127.175 29.95625 127.00313 29.503124Q126.83125 29.034374 126.37813 28.753124Q125.94063 28.471874 125.33125 28.471874Q124.2375 28.471874 123.50313 29.20625Q122.78438 29.925 122.78438 31.51875L122.78438 37.55L121.03438 37.55L121.03438 30.815624Q121.03438 29.64375 120.59688 29.065624Q120.175 28.471874 119.19063 28.471874Q118.45625 28.471874 117.81563 28.8625Q117.19063 29.253124 116.90938 30.003124Q116.62813 30.753124 116.62813 32.175L116.62813 37.55L114.8625 37.55ZM137.97188 34.20625L139.78438 34.440624Q139.3625 36.01875 138.19063 36.909374Q137.03438 37.784374 135.22188 37.784374Q132.95625 37.784374 131.6125 36.39375Q130.28438 34.9875 130.28438 32.45625Q130.28438 29.83125 131.62813 28.39375Q132.97188 26.940624 135.12813 26.940624Q137.20625 26.940624 138.51875 28.3625Q139.84688 29.76875 139.84688 32.346874Q139.84688 32.503124 139.83125 32.815624L132.09688 32.815624Q132.19063 34.51875 133.06563 35.425Q133.94063 36.33125 135.2375 36.33125Q136.20625 36.33125 136.87813 35.83125Q137.56563 35.315624 137.97188 34.20625ZM132.19063 31.3625L137.9875 31.3625Q137.87813 30.065624 137.33125 29.409374Q136.4875 28.39375 135.14375 28.39375Q133.94063 28.39375 133.1125 29.20625Q132.28438 30.003124 132.19063 31.3625ZM141.15938 34.45625L142.90938 34.175Q143.05 35.221874 143.72188 35.784374Q144.39375 36.33125 145.59688 36.33125Q146.8 36.33125 147.37813 35.846874Q147.97188 35.346874 147.97188 34.690624Q147.97188 34.096874 147.45625 33.753124Q147.09688 33.51875 145.65938 33.159374Q143.72188 32.659374 142.97188 32.315624Q142.2375 31.95625 141.84688 31.33125Q141.45625 30.690624 141.45625 29.925Q141.45625 29.2375 141.76875 28.64375Q142.09688 28.05 142.64375 27.659374Q143.05 27.3625 143.75313 27.159374Q144.47188 26.940624 145.28438 26.940624Q146.50313 26.940624 147.425 27.3Q148.34688 27.64375 148.78438 28.253124Q149.22188 28.846874 149.39375 29.846874L147.675 30.08125Q147.55 29.284374 146.9875 28.846874Q146.425 28.39375 145.40938 28.39375Q144.19063 28.39375 143.675 28.8Q143.15938 29.190624 143.15938 29.721874Q143.15938 30.065624 143.37813 30.346874Q143.58125 30.628124 144.05 30.815624Q144.31563 30.909374 145.59688 31.253124Q147.47188 31.753124 148.20625 32.08125Q148.94063 32.39375 149.3625 33.003124Q149.78438 33.596874 149.78438 34.503124Q149.78438 35.378124 149.26875 36.159374Q148.75313 36.940624 147.78438 37.3625Q146.81563 37.784374 145.59688 37.784374Q143.58125 37.784374 142.51875 36.940624Q141.45625 36.096874 141.15938 34.45625ZM161.22188 41.753124Q159.76875 39.925 158.76875 37.471874Q157.76875 35.003124 157.76875 32.3625Q157.76875 30.034374 158.51875 27.909374Q159.39375 25.440624 161.22188 22.9875L162.4875 22.9875Q161.3 25.01875 160.925 25.89375Q160.33125 27.2375 159.9875 28.70625Q159.56563 30.534374 159.56563 32.378124Q159.56563 37.065624 162.4875 41.753124L161.22188 41.753124ZM164.8625 37.55L164.8625 27.175L166.45625 27.175L166.45625 28.659374Q167.59688 26.940624 169.75313 26.940624Q170.69063 26.940624 171.47188 27.284374Q172.26875 27.6125 172.65938 28.159374Q173.05 28.70625 173.20625 29.45625Q173.3 29.95625 173.3 31.175L173.3 37.55L171.53438 37.55L171.53438 31.2375Q171.53438 30.159374 171.33125 29.628124Q171.12813 29.096874 170.59688 28.784374Q170.08125 28.471874 169.37813 28.471874Q168.25313 28.471874 167.44063 29.190624Q166.62813 29.89375 166.62813 31.878124L166.62813 37.55L164.8625 37.55ZM190.1125 29.128124L180.65938 29.128124L180.65938 27.4875L190.1125 27.4875L190.1125 29.128124ZM190.1125 33.471874L180.65938 33.471874L180.65938 31.83125L190.1125 31.83125L190.1125 33.471874ZM207.6125 35.8625L207.6125 37.55L198.15938 37.55Q198.14375 36.909374 198.3625 36.33125Q198.72188 35.3625 199.51875 34.425Q200.31563 33.4875 201.81563 32.253124Q204.15938 30.346874 204.97188 29.2375Q205.8 28.1125 205.8 27.1125Q205.8 26.065624 205.05 25.346874Q204.3 24.628124 203.09688 24.628124Q201.83125 24.628124 201.06563 25.39375Q200.3 26.159374 200.3 27.503124L198.4875 27.315624Q198.675 25.3 199.87813 24.2375Q201.09688 23.175 203.14375 23.175Q205.19063 23.175 206.39375 24.315624Q207.59688 25.45625 207.59688 27.14375Q207.59688 28.003124 207.2375 28.846874Q206.89375 29.675 206.08125 30.596874Q205.26875 31.503124 203.37813 33.1125Q201.78438 34.440624 201.33125 34.909374Q200.89375 35.378124 200.59688 35.8625L207.6125 35.8625ZM210.87813 30.815624L209.08125 30.815624L212.51875 22.9875L213.94063 22.9875L217.40938 30.815624L215.64375 30.815624L213.22188 24.9875L210.87813 30.815624ZM226.6125 35.8625L226.6125 37.55L217.15938 37.55Q217.14375 36.909374 217.3625 36.33125Q217.72188 35.3625 218.51875 34.425Q219.31563 33.4875 220.81563 32.253124Q223.15938 30.346874 223.97188 29.2375Q224.8 28.1125 224.8 27.1125Q224.8 26.065624 224.05 25.346874Q223.3 24.628124 222.09688 24.628124Q220.83125 24.628124 220.06563 25.39375Q219.3 26.159374 219.3 27.503124L217.4875 27.315624Q217.675 25.3 218.87813 24.2375Q220.09688 23.175 222.14375 23.175Q224.19063 23.175 225.39375 24.315624Q226.59688 25.45625 226.59688 27.14375Q226.59688 28.003124 226.2375 28.846874Q225.89375 29.675 225.08125 30.596874Q224.26875 31.503124 222.37813 33.1125Q220.78438 34.440624 220.33125 34.909374Q219.89375 35.378124 219.59688 35.8625L226.6125 35.8625ZM234.01875 37.55L234.01875 34.128124L227.8 34.128124L227.8 32.503124L234.33125 23.2375L235.76875 23.2375L235.76875 32.503124L237.70625 32.503124L237.70625 34.128124L235.76875 34.128124L235.76875 37.55L234.01875 37.55ZM234.01875 32.503124L234.01875 26.05L229.53438 32.503124L234.01875 32.503124ZM240.33125 37.55L240.33125 35.55L242.33125 35.55L242.33125 37.55Q242.33125 38.659374 241.94063 39.33125Q241.55 40.01875 240.70625 40.378124L240.20625 39.628124Q240.76875 39.39375 241.03438 38.909374Q241.3 38.440624 241.33125 37.55L240.33125 37.55ZM252.09688 37.55L252.09688 23.2375L257.01874 23.2375Q258.6906 23.2375 259.58124 23.440624Q260.8 23.721874 261.675 24.45625Q262.8 25.425 263.3625 26.909374Q263.925 28.39375 263.925 30.315624Q263.925 31.940624 263.55 33.20625Q263.175 34.45625 262.5656 35.284374Q261.97186 36.1125 261.26874 36.596874Q260.5656 37.065624 259.5656 37.315624Q258.5656 37.55 257.2531 37.55L252.09688 37.55ZM253.9875 35.8625L257.05 35.8625Q258.45624 35.8625 259.2531 35.596874Q260.0656 35.33125 260.55 34.846874Q261.22186 34.175 261.59686 33.05Q261.97186 31.909374 261.97186 30.284374Q261.97186 28.034374 261.2375 26.83125Q260.5031 25.628124 259.4406 25.221874Q258.6906 24.925 257.0031 24.925L253.9875 24.925L253.9875 35.8625ZM272.97186 34.20625L274.78436 34.440624Q274.3625 36.01875 273.1906 36.909374Q272.03436 37.784374 270.22186 37.784374Q267.95624 37.784374 266.6125 36.39375Q265.28436 34.9875 265.28436 32.45625Q265.28436 29.83125 266.6281 28.39375Q267.97186 26.940624 270.1281 26.940624Q272.20624 26.940624 273.51874 28.3625Q274.84686 29.76875 274.84686 32.346874Q274.84686 32.503124 274.83124 32.815624L267.09686 32.815624Q267.1906 34.51875 268.0656 35.425Q268.9406 36.33125 270.2375 36.33125Q271.20624 36.33125 271.8781 35.83125Q272.5656 35.315624 272.97186 34.20625ZM267.1906 31.3625L272.9875 31.3625Q272.8781 30.065624 272.33124 29.409374Q271.4875 28.39375 270.14374 28.39375Q268.9406 28.39375 268.1125 29.20625Q267.28436 30.003124 267.1906 31.3625ZM278.4875 37.55L276.8625 37.55L276.8625 23.2375L278.6125 23.2375L278.6125 28.346874Q279.7375 26.940624 281.45624 26.940624Q282.40936 26.940624 283.26874 27.33125Q284.1281 27.721874 284.675 28.425Q285.22186 29.1125 285.53436 30.096874Q285.84686 31.08125 285.84686 32.20625Q285.84686 34.878124 284.53436 36.33125Q283.22186 37.784374 281.3781 37.784374Q279.53436 37.784374 278.4875 36.253124L278.4875 37.55ZM278.47186 32.284374Q278.47186 34.14375 278.97186 34.9875Q279.8156 36.33125 281.22186 36.33125Q282.3781 36.33125 283.20624 35.33125Q284.05 34.33125 284.05 32.346874Q284.05 30.315624 283.2375 29.3625Q282.4406 28.39375 281.3 28.39375Q280.14374 28.39375 279.3 29.39375Q278.47186 30.39375 278.47186 32.284374ZM294.65936 37.55L294.65936 36.01875Q293.45624 37.784374 291.3781 37.784374Q290.45624 37.784374 289.65936 37.440624Q288.8625 37.08125 288.47186 36.55Q288.09686 36.01875 287.9406 35.2375Q287.83124 34.721874 287.83124 33.596874L287.83124 27.175L289.58124 27.175L289.58124 32.925Q289.58124 34.3 289.6906 34.784374Q289.8625 35.471874 290.39374 35.878124Q290.9406 36.26875 291.72186 36.26875Q292.51874 36.26875 293.20624 35.8625Q293.90936 35.45625 294.1906 34.76875Q294.4875 34.065624 294.4875 32.7375L294.4875 27.175L296.2375 27.175L296.2375 37.55L294.65936 37.55ZM297.55 38.409374L299.2531 38.659374Q299.3625 39.45625 299.84686 39.815624Q300.5031 40.3 301.64374 40.3Q302.8625 40.3 303.51874 39.815624Q304.1906 39.33125 304.425 38.45625Q304.5656 37.909374 304.55 36.190624Q303.39374 37.55 301.675 37.55Q299.53436 37.55 298.3625 36.003124Q297.1906 34.45625 297.1906 32.3Q297.1906 30.815624 297.72186 29.565624Q298.26874 28.315624 299.28436 27.628124Q300.3156 26.940624 301.6906 26.940624Q303.51874 26.940624 304.72186 28.425L304.72186 27.175L306.33124 27.175L306.33124 36.14375Q306.33124 38.565624 305.83124 39.565624Q305.34686 40.58125 304.26874 41.159374Q303.20624 41.753124 301.64374 41.753124Q299.8 41.753124 298.64374 40.925Q297.5031 40.096874 297.55 38.409374ZM299.0031 32.175Q299.0031 34.221874 299.8156 35.159374Q300.6281 36.096874 301.84686 36.096874Q303.05 36.096874 303.8625 35.159374Q304.6906 34.221874 304.6906 32.2375Q304.6906 30.33125 303.84686 29.3625Q303.0031 28.39375 301.8156 28.39375Q300.64374 28.39375 299.8156 29.346874Q299.0031 30.3 299.0031 32.175ZM310.01874 41.753124L308.76874 41.753124Q311.675 37.065624 311.675 32.378124Q311.675 30.534374 311.26874 28.7375Q310.925 27.26875 310.33124 25.925Q309.95624 25.034374 308.76874 22.9875L310.01874 22.9875Q311.8625 25.440624 312.7375 27.909374Q313.4875 30.034374 313.4875 32.3625Q313.4875 35.003124 312.47186 37.471874Q311.47186 39.925 310.01874 41.753124Z" fill-rule="nonzero"/></svg>