<svg version="1.1" viewBox="0.0 0.0 600.0 371.0" fill="none" stroke="none" stroke-linecap="square" stroke-miterlimit="10" width="600" height="371" xmlns:xlink="http://www.w3.org/1999/xlink" xmlns="http://www.w3.org/2000/svg"><path fill="#ffffff" d="M0 0L600.0 0L600.0 371.0L0 371.0L0 0Z" fill-rule="nonzero"/><path stroke="#333333" stroke-width="1.0" stroke-linecap="butt" d="M45.5 54.5L45.5 332.5" fill-rule="nonzero"/><path stroke="#cccccc" stroke-width="1.0" stroke-linecap="butt" d="M224.5 54.5L224.5 332.5" fill-rule="nonzero"/><path stroke="#cccccc" stroke-width="1.0" stroke-linecap="butt" d="M402.5 54.5L402.5 332.5" fill-rule="nonzero"/><path stroke="#cccccc" stroke-width="1.0" stroke-linecap="butt" d="M581.5 54.5L581.5 332.5" fill-rule="nonzero"/><clipPath id="id_0"><path d="M45.55 54.916668L581.45 54.916668L581.45 332.45L45.55 332.45L45.55 54.916668Z" clip-rule="nonzero"/></clipPath><path stroke="#000000" stroke-width="2.0" stroke-linecap="butt" stroke-opacity="0.0" clip-path="url(#id_0)" d="M46.0 174.0L46.0 97.0L574.0 97.0C575.10455 97.0 576.0 97.89543 576.0 99.0L576.0 172.0C576.0 173.10457 575.10455 174.0 574.0 174.0Z" fill-rule="nonzero"/><path fill="#4285f4" clip-path="url(#id_0)" d="M46.0 174.0L46.0 97.0L574.0 97.0C575.10455 97.0 576.0 97.89543 576.0 99.0L576.0 172.0C576.0 173.10457 575.10455 174.0 574.0 174.0Z" fill-rule="nonzero"/><path stroke="#000000" stroke-width="2.0" stroke-linecap="butt" stroke-opacity="0.0" clip-path="url(#id_0)" d="M46.0 292.0L46.0 215.0L335.0 215.0C336.10458 215.0 337.0 215.89543 337.0 217.0L337.0 290.0C337.0 291.10458 336.10458 292.0 335.0 292.0Z" fill-rule="nonzero"/><path fill="#4285f4" clip-path="url(#id_0)" d="M46.0 292.0L46.0 215.0L335.0 215.0C336.10458 215.0 337.0 215.89543 337.0 217.0L337.0 290.0C337.0 291.10458 336.10458 292.0 335.0 292.0Z" fill-rule="nonzero"/><path stroke="#4285f4" stroke-width="3.0" stroke-linejoin="round" stroke-linecap="round" d="M532.3535 135.85938Q532.3535 137.76562 531.69727 138.70312Q531.05664 139.625 529.666 139.625Q528.30664 139.625 527.6504 138.71875Q526.99414 137.8125 526.9629 136.0L526.9629 134.5625Q526.9629 132.67188 527.6035 131.76562Q528.25977 130.84375 529.6504 130.84375Q531.0254 130.84375 531.68164 131.73438Q532.3379 132.60938 532.3535 134.45312L532.3535 135.85938ZM531.25977 134.375Q531.25977 133.0 530.86914 132.375Q530.49414 131.73438 529.6504 131.73438Q528.82227 131.73438 528.43164 132.375Q528.05664 133.0 528.05664 134.29688L528.05664 136.03125Q528.05664 137.40625 528.44727 138.07812Q528.8535 138.73438 529.666 138.73438Q530.4629 138.73438 530.8535 138.10938Q531.24414 137.48438 531.25977 136.15625L531.25977 134.375ZM534.13477 138.9375Q534.13477 138.65625 534.291 138.46875Q534.4629 138.28125 534.791 138.28125Q535.13477 138.28125 535.30664 138.46875Q535.4785 138.65625 535.4785 138.9375Q535.4785 139.20312 535.30664 139.39062Q535.13477 139.5625 534.791 139.5625Q534.4629 139.5625 534.291 139.39062Q534.13477 139.20312 534.13477 138.9375ZM542.3535 135.85938Q542.3535 137.76562 541.69727 138.70312Q541.05664 139.625 539.666 139.625Q538.30664 139.625 537.6504 138.71875Q536.99414 137.8125 536.9629 136.0L536.9629 134.5625Q536.9629 132.67188 537.6035 131.76562Q538.25977 130.84375 539.6504 130.84375Q541.0254 130.84375 541.68164 131.73438Q542.3379 132.60938 542.3535 134.45312L542.3535 135.85938ZM541.25977 134.375Q541.25977 133.0 540.86914 132.375Q540.49414 131.73438 539.6504 131.73438Q538.82227 131.73438 538.43164 132.375Q538.05664 133.0 538.05664 134.29688L538.05664 136.03125Q538.05664 137.40625 538.44727 138.07812Q538.8535 138.73438 539.666 138.73438Q540.4629 138.73438 540.8535 138.10938Q541.24414 137.48438 541.25977 136.15625L541.25977 134.375ZM549.3535 135.85938Q549.3535 137.76562 548.69727 138.70312Q548.05664 139.625 546.666 139.625Q545.30664 139.625 544.6504 138.71875Q543.99414 137.8125 543.9629 136.0L543.9629 134.5625Q543.9629 132.67188 544.6035 131.76562Q545.25977 130.84375 546.6504 130.84375Q548.0254 130.84375 548.68164 131.73438Q549.3379 132.60938 549.3535 134.45312L549.3535 135.85938ZM548.25977 134.375Q548.25977 133.0 547.86914 132.375Q547.49414 131.73438 546.6504 131.73438Q545.82227 131.73438 545.43164 132.375Q545.05664 133.0 545.05664 134.29688L545.05664 136.03125Q545.05664 137.40625 545.44727 138.07812Q545.8535 138.73438 546.666 138.73438Q547.4629 138.73438 547.8535 138.10938Q548.24414 137.48438 548.25977 136.15625L548.25977 134.375ZM556.5879 139.5L550.99414 139.5L550.99414 138.71875L553.94727 135.4375Q554.6035 134.6875 554.8535 134.23438Q555.1035 133.76562 555.1035 133.26562Q555.1035 132.59375 554.69727 132.17188Q554.30664 131.73438 553.61914 131.73438Q552.82227 131.73438 552.36914 132.20312Q551.916 132.65625 551.916 133.48438L550.8379 133.48438Q550.8379 132.29688 551.5879 131.57812Q552.3535 130.84375 553.61914 130.84375Q554.82227 130.84375 555.50977 131.46875Q556.19727 132.09375 556.19727 133.14062Q556.19727 134.39062 554.5879 136.14062L552.30664 138.60938L556.5879 138.60938L556.5879 139.5ZM562.1504 135.75Q561.82227 136.15625 561.3379 136.40625Q560.86914 136.64062 560.30664 136.64062Q559.57227 136.64062 559.0254 136.28125Q558.4785 135.92188 558.18164 135.26562Q557.88477 134.59375 557.88477 133.79688Q557.88477 132.95312 558.19727 132.26562Q558.5254 131.57812 559.11914 131.21875Q559.7285 130.84375 560.5254 130.84375Q561.791 130.84375 562.50977 131.79688Q563.24414 132.75 563.24414 134.375L563.24414 134.6875Q563.24414 137.1875 562.25977 138.32812Q561.2754 139.46875 559.291 139.5L559.07227 139.5L559.07227 138.59375L559.30664 138.59375Q560.6504 138.5625 561.36914 137.89062Q562.0879 137.21875 562.1504 135.75ZM560.4785 135.75Q561.0254 135.75 561.4785 135.42188Q561.94727 135.07812 562.166 134.59375L562.166 134.15625Q562.166 133.09375 561.69727 132.42188Q561.2285 131.75 560.5254 131.75Q559.80664 131.75 559.36914 132.29688Q558.94727 132.84375 558.94727 133.75Q558.94727 134.625 559.3535 135.1875Q559.7754 135.75 560.4785 135.75ZM570.50977 131.57812L566.9785 139.5L565.8379 139.5L569.3535 131.85938L564.74414 131.85938L564.74414 130.96875L570.50977 130.96875L570.50977 131.57812Z" fill-rule="nonzero"/><path fill="#ffffff" d="M532.3535 135.85938Q532.3535 137.76562 531.69727 138.70312Q531.05664 139.625 529.666 139.625Q528.30664 139.625 527.6504 138.71875Q526.99414 137.8125 526.9629 136.0L526.9629 134.5625Q526.9629 132.67188 527.6035 131.76562Q528.25977 130.84375 529.6504 130.84375Q531.0254 130.84375 531.68164 131.73438Q532.3379 132.60938 532.3535 134.45312L532.3535 135.85938ZM531.25977 134.375Q531.25977 133.0 530.86914 132.375Q530.49414 131.73438 529.6504 131.73438Q528.82227 131.73438 528.43164 132.375Q528.05664 133.0 528.05664 134.29688L528.05664 136.03125Q528.05664 137.40625 528.44727 138.07812Q528.8535 138.73438 529.666 138.73438Q530.4629 138.73438 530.8535 138.10938Q531.24414 137.48438 531.25977 136.15625L531.25977 134.375ZM534.13477 138.9375Q534.13477 138.65625 534.291 138.46875Q534.4629 138.28125 534.791 138.28125Q535.13477 138.28125 535.30664 138.46875Q535.4785 138.65625 535.4785 138.9375Q535.4785 139.20312 535.30664 139.39062Q535.13477 139.5625 534.791 139.5625Q534.4629 139.5625 534.291 139.39062Q534.13477 139.20312 534.13477 138.9375ZM542.3535 135.85938Q542.3535 137.76562 541.69727 138.70312Q541.05664 139.625 539.666 139.625Q538.30664 139.625 537.6504 138.71875Q536.99414 137.8125 536.9629 136.0L536.9629 134.5625Q536.9629 132.67188 537.6035 131.76562Q538.25977 130.84375 539.6504 130.84375Q541.0254 130.84375 541.68164 131.73438Q542.3379 132.60938 542.3535 134.45312L542.3535 135.85938ZM541.25977 134.375Q541.25977 133.0 540.86914 132.375Q540.49414 131.73438 539.6504 131.73438Q538.82227 131.73438 538.43164 132.375Q538.05664 133.0 538.05664 134.29688L538.05664 136.03125Q538.05664 137.40625 538.44727 138.07812Q538.8535 138.73438 539.666 138.73438Q540.4629 138.73438 540.8535 138.10938Q541.24414 137.48438 541.25977 136.15625L541.25977 134.375ZM549.3535 135.85938Q549.3535 137.76562 548.69727 138.70312Q548.05664 139.625 546.666 139.625Q545.30664 139.625 544.6504 138.71875Q543.99414 137.8125 543.9629 136.0L543.9629 134.5625Q543.9629 132.67188 544.6035 131.76562Q545.25977 130.84375 546.6504 130.84375Q548.0254 130.84375 548.68164 131.73438Q549.3379 132.60938 549.3535 134.45312L549.3535 135.85938ZM548.25977 134.375Q548.25977 133.0 547.86914 132.375Q547.49414 131.73438 546.6504 131.73438Q545.82227 131.73438 545.43164 132.375Q545.05664 133.0 545.05664 134.29688L545.05664 136.03125Q545.05664 137.40625 545.44727 138.07812Q545.8535 138.73438 546.666 138.73438Q547.4629 138.73438 547.8535 138.10938Q548.24414 137.48438 548.25977 136.15625L548.25977 134.375ZM556.5879 139.5L550.99414 139.5L550.99414 138.71875L553.94727 135.4375Q554.6035 134.6875 554.8535 134.23438Q555.1035 133.76562 555.1035 133.26562Q555.1035 132.59375 554.69727 132.17188Q554.30664 131.73438 553.61914 131.73438Q552.82227 131.73438 552.36914 132.20312Q551.916 132.65625 551.916 133.48438L550.8379 133.48438Q550.8379 132.29688 551.5879 131.57812Q552.3535 130.84375 553.61914 130.84375Q554.82227 130.84375 555.50977 131.46875Q556.19727 132.09375 556.19727 133.14062Q556.19727 134.39062 554.5879 136.14062L552.30664 138.60938L556.5879 138.60938L556.5879 139.5ZM562.1504 135.75Q561.82227 136.15625 561.3379 136.40625Q560.86914 136.64062 560.30664 136.64062Q559.57227 136.64062 559.0254 136.28125Q558.4785 135.92188 558.18164 135.26562Q557.88477 134.59375 557.88477 133.79688Q557.88477 132.95312 558.19727 132.26562Q558.5254 131.57812 559.11914 131.21875Q559.7285 130.84375 560.5254 130.84375Q561.791 130.84375 562.50977 131.79688Q563.24414 132.75 563.24414 134.375L563.24414 134.6875Q563.24414 137.1875 562.25977 138.32812Q561.2754 139.46875 559.291 139.5L559.07227 139.5L559.07227 138.59375L559.30664 138.59375Q560.6504 138.5625 561.36914 137.89062Q562.0879 137.21875 562.1504 135.75ZM560.4785 135.75Q561.0254 135.75 561.4785 135.42188Q561.94727 135.07812 562.166 134.59375L562.166 134.15625Q562.166 133.09375 561.69727 132.42188Q561.2285 131.75 560.5254 131.75Q559.80664 131.75 559.36914 132.29688Q558.94727 132.84375 558.94727 133.75Q558.94727 134.625 559.3535 135.1875Q559.7754 135.75 560.4785 135.75ZM570.50977 131.57812L566.9785 139.5L565.8379 139.5L569.3535 131.85938L564.74414 131.85938L564.74414 130.96875L570.50977 130.96875L570.50977 131.57812Z" fill-rule="nonzero"/><path stroke="#4285f4" stroke-width="3.0" stroke-linejoin="round" stroke-linecap="round" d="M292.98483 253.85938Q292.98483 255.76562 292.32858 256.70312Q291.68796 257.625 290.29733 257.625Q288.93796 257.625 288.2817 256.71875Q287.62546 255.8125 287.5942 254.0L287.5942 252.5625Q287.5942 250.67188 288.23483 249.76562Q288.89108 248.84375 290.2817 248.84375Q291.6567 248.84375 292.31296 249.73438Q292.9692 250.60938 292.98483 252.45312L292.98483 253.85938ZM291.89108 252.375Q291.89108 251.0 291.50046 250.375Q291.12546 249.73438 290.2817 249.73438Q289.45358 249.73438 289.06296 250.375Q288.68796 251.0 288.68796 252.29688L288.68796 254.03125Q288.68796 255.40625 289.07858 256.07812Q289.48483 256.73438 290.29733 256.73438Q291.0942 256.73438 291.48483 256.10938Q291.87546 255.48438 291.89108 254.15625L291.89108 252.375ZM294.76608 256.9375Q294.76608 256.65625 294.92233 256.46875Q295.0942 256.28125 295.42233 256.28125Q295.76608 256.28125 295.93796 256.46875Q296.10983 256.65625 296.10983 256.9375Q296.10983 257.20312 295.93796 257.39062Q295.76608 257.5625 295.42233 257.5625Q295.0942 257.5625 294.92233 257.39062Q294.76608 257.20312 294.76608 256.9375ZM302.98483 253.85938Q302.98483 255.76562 302.32858 256.70312Q301.68796 257.625 300.29733 257.625Q298.93796 257.625 298.2817 256.71875Q297.62546 255.8125 297.5942 254.0L297.5942 252.5625Q297.5942 250.67188 298.23483 249.76562Q298.89108 248.84375 300.2817 248.84375Q301.6567 248.84375 302.31296 249.73438Q302.9692 250.60938 302.98483 252.45312L302.98483 253.85938ZM301.89108 252.375Q301.89108 251.0 301.50046 250.375Q301.12546 249.73438 300.2817 249.73438Q299.45358 249.73438 299.06296 250.375Q298.68796 251.0 298.68796 252.29688L298.68796 254.03125Q298.68796 255.40625 299.07858 256.07812Q299.48483 256.73438 300.29733 256.73438Q301.0942 256.73438 301.48483 256.10938Q301.87546 255.48438 301.89108 254.15625L301.89108 252.375ZM309.98483 253.85938Q309.98483 255.76562 309.32858 256.70312Q308.68796 257.625 307.29733 257.625Q305.93796 257.625 305.2817 256.71875Q304.62546 255.8125 304.5942 254.0L304.5942 252.5625Q304.5942 250.67188 305.23483 249.76562Q305.89108 248.84375 307.2817 248.84375Q308.6567 248.84375 309.31296 249.73438Q309.9692 250.60938 309.98483 252.45312L309.98483 253.85938ZM308.89108 252.375Q308.89108 251.0 308.50046 250.375Q308.12546 249.73438 307.2817 249.73438Q306.45358 249.73438 306.06296 250.375Q305.68796 251.0 305.68796 252.29688L305.68796 254.03125Q305.68796 255.40625 306.07858 256.07812Q306.48483 256.73438 307.29733 256.73438Q308.0942 256.73438 308.48483 256.10938Q308.87546 255.48438 308.89108 254.15625L308.89108 252.375ZM315.18796 257.5L314.10983 257.5L314.10983 250.28125L311.92233 251.07812L311.92233 250.09375L315.0317 248.92188L315.18796 248.92188L315.18796 257.5ZM322.89108 248.96875L322.89108 249.875L322.68796 249.875Q321.42233 249.90625 320.67233 250.64062Q319.92233 251.35938 319.79733 252.67188Q320.48483 251.90625 321.64108 251.90625Q322.75046 251.90625 323.42233 252.6875Q324.0942 253.46875 324.0942 254.71875Q324.0942 256.03125 323.37546 256.82812Q322.6567 257.625 321.43796 257.625Q320.2192 257.625 319.45358 256.6875Q318.70358 255.73438 318.70358 254.25L318.70358 253.84375Q318.70358 251.48438 319.70358 250.23438Q320.70358 248.98438 322.68796 248.96875L322.89108 248.96875ZM321.4692 252.8125Q320.9067 252.8125 320.43796 253.14062Q319.9692 253.46875 319.7817 253.98438L319.7817 254.375Q319.7817 255.4375 320.25046 256.07812Q320.73483 256.71875 321.43796 256.71875Q322.17233 256.71875 322.5942 256.1875Q323.01608 255.64062 323.01608 254.76562Q323.01608 253.89062 322.5942 253.35938Q322.17233 252.8125 321.4692 252.8125ZM327.20358 252.70312L328.01608 252.70312Q328.79733 252.6875 329.23483 252.29688Q329.67233 251.90625 329.67233 251.23438Q329.67233 249.73438 328.17233 249.73438Q327.4692 249.73438 327.04733 250.14062Q326.64108 250.54688 326.64108 251.20312L325.54733 251.20312Q325.54733 250.1875 326.2817 249.51562Q327.0317 248.84375 328.17233 248.84375Q329.37546 248.84375 330.06296 249.48438Q330.75046 250.125 330.75046 251.26562Q330.75046 251.82812 330.39108 252.34375Q330.0317 252.85938 329.4067 253.125Q330.10983 253.34375 330.48483 253.85938Q330.87546 254.375 330.87546 255.125Q330.87546 256.26562 330.12546 256.95312Q329.37546 257.625 328.17233 257.625Q326.98483 257.625 326.2192 256.96875Q325.4692 256.3125 325.4692 255.25L326.56296 255.25Q326.56296 255.92188 327.00046 256.32812Q327.43796 256.73438 328.18796 256.73438Q328.9692 256.73438 329.37546 256.32812Q329.79733 255.90625 329.79733 255.14062Q329.79733 254.40625 329.3442 254.01562Q328.89108 253.60938 328.01608 253.59375L327.20358 253.59375L327.20358 252.70312Z" fill-rule="nonzero"/><path fill="#ffffff" d="M292.98483 253.85938Q292.98483 255.76562 292.32858 256.70312Q291.68796 257.625 290.29733 257.625Q288.93796 257.625 288.2817 256.71875Q287.62546 255.8125 287.5942 254.0L287.5942 252.5625Q287.5942 250.67188 288.23483 249.76562Q288.89108 248.84375 290.2817 248.84375Q291.6567 248.84375 292.31296 249.73438Q292.9692 250.60938 292.98483 252.45312L292.98483 253.85938ZM291.89108 252.375Q291.89108 251.0 291.50046 250.375Q291.12546 249.73438 290.2817 249.73438Q289.45358 249.73438 289.06296 250.375Q288.68796 251.0 288.68796 252.29688L288.68796 254.03125Q288.68796 255.40625 289.07858 256.07812Q289.48483 256.73438 290.29733 256.73438Q291.0942 256.73438 291.48483 256.10938Q291.87546 255.48438 291.89108 254.15625L291.89108 252.375ZM294.76608 256.9375Q294.76608 256.65625 294.92233 256.46875Q295.0942 256.28125 295.42233 256.28125Q295.76608 256.28125 295.93796 256.46875Q296.10983 256.65625 296.10983 256.9375Q296.10983 257.20312 295.93796 257.39062Q295.76608 257.5625 295.42233 257.5625Q295.0942 257.5625 294.92233 257.39062Q294.76608 257.20312 294.76608 256.9375ZM302.98483 253.85938Q302.98483 255.76562 302.32858 256.70312Q301.68796 257.625 300.29733 257.625Q298.93796 257.625 298.2817 256.71875Q297.62546 255.8125 297.5942 254.0L297.5942 252.5625Q297.5942 250.67188 298.23483 249.76562Q298.89108 248.84375 300.2817 248.84375Q301.6567 248.84375 302.31296 249.73438Q302.9692 250.60938 302.98483 252.45312L302.98483 253.85938ZM301.89108 252.375Q301.89108 251.0 301.50046 250.375Q301.12546 249.73438 300.2817 249.73438Q299.45358 249.73438 299.06296 250.375Q298.68796 251.0 298.68796 252.29688L298.68796 254.03125Q298.68796 255.40625 299.07858 256.07812Q299.48483 256.73438 300.29733 256.73438Q301.0942 256.73438 301.48483 256.10938Q301.87546 255.48438 301.89108 254.15625L301.89108 252.375ZM309.98483 253.85938Q309.98483 255.76562 309.32858 256.70312Q308.68796 257.625 307.29733 257.625Q305.93796 257.625 305.2817 256.71875Q304.62546 255.8125 304.5942 254.0L304.5942 252.5625Q304.5942 250.67188 305.23483 249.76562Q305.89108 248.84375 307.2817 248.84375Q308.6567 248.84375 309.31296 249.73438Q309.9692 250.60938 309.98483 252.45312L309.98483 253.85938ZM308.89108 252.375Q308.89108 251.0 308.50046 250.375Q308.12546 249.73438 307.2817 249.73438Q306.45358 249.73438 306.06296 250.375Q305.68796 251.0 305.68796 252.29688L305.68796 254.03125Q305.68796 255.40625 306.07858 256.07812Q306.48483 256.73438 307.29733 256.73438Q308.0942 256.73438 308.48483 256.10938Q308.87546 255.48438 308.89108 254.15625L308.89108 252.375ZM315.18796 257.5L314.10983 257.5L314.10983 250.28125L311.92233 251.07812L311.92233 250.09375L315.0317 248.92188L315.18796 248.92188L315.18796 257.5ZM322.89108 248.96875L322.89108 249.875L322.68796 249.875Q321.42233 249.90625 320.67233 250.64062Q319.92233 251.35938 319.79733 252.67188Q320.48483 251.90625 321.64108 251.90625Q322.75046 251.90625 323.42233 252.6875Q324.0942 253.46875 324.0942 254.71875Q324.0942 256.03125 323.37546 256.82812Q322.6567 257.625 321.43796 257.625Q320.2192 257.625 319.45358 256.6875Q318.70358 255.73438 318.70358 254.25L318.70358 253.84375Q318.70358 251.48438 319.70358 250.23438Q320.70358 248.98438 322.68796 248.96875L322.89108 248.96875ZM321.4692 252.8125Q320.9067 252.8125 320.43796 253.14062Q319.9692 253.46875 319.7817 253.98438L319.7817 254.375Q319.7817 255.4375 320.25046 256.07812Q320.73483 256.71875 321.43796 256.71875Q322.17233 256.71875 322.5942 256.1875Q323.01608 255.64062 323.01608 254.76562Q323.01608 253.89062 322.5942 253.35938Q322.17233 252.8125 321.4692 252.8125ZM327.20358 252.70312L328.01608 252.70312Q328.79733 252.6875 329.23483 252.29688Q329.67233 251.90625 329.67233 251.23438Q329.67233 249.73438 328.17233 249.73438Q327.4692 249.73438 327.04733 250.14062Q326.64108 250.54688 326.64108 251.20312L325.54733 251.20312Q325.54733 250.1875 326.2817 249.51562Q327.0317 248.84375 328.17233 248.84375Q329.37546 248.84375 330.06296 249.48438Q330.75046 250.125 330.75046 251.26562Q330.75046 251.82812 330.39108 252.34375Q330.0317 252.85938 329.4067 253.125Q330.10983 253.34375 330.48483 253.85938Q330.87546 254.375 330.87546 255.125Q330.87546 256.26562 330.12546 256.95312Q329.37546 257.625 328.17233 257.625Q326.98483 257.625 326.2192 256.96875Q325.4692 256.3125 325.4692 255.25L326.56296 255.25Q326.56296 255.92188 327.00046 256.32812Q327.43796 256.73438 328.18796 256.73438Q328.9692 256.73438 329.37546 256.32812Q329.79733 255.90625 329.79733 255.14062Q329.79733 254.40625 329.3442 254.01562Q328.89108 253.60938 328.01608 253.59375L327.20358 253.59375L327.20358 252.70312Z" fill-rule="nonzero"/><path fill="#000000" d="M37.6125 135.61806L38.7375 135.91493Q38.378124 137.30556 37.45625 138.03993Q36.534374 138.7743 35.190624 138.7743Q33.8 138.7743 32.925 138.2118Q32.05 137.6493 31.596874 136.5868Q31.14375 135.50868 31.14375 134.2743Q31.14375 132.93056 31.659374 131.93056Q32.175 130.93056 33.1125 130.41493Q34.065624 129.8993 35.20625 129.8993Q36.4875 129.8993 37.3625 130.55556Q38.253124 131.2118 38.596874 132.3993L37.471874 132.66493Q37.175 131.72743 36.596874 131.30556Q36.034374 130.86806 35.175 130.86806Q34.190624 130.86806 33.51875 131.35243Q32.8625 131.82118 32.58125 132.61806Q32.315624 133.41493 32.315624 134.2743Q32.315624 135.36806 32.628124 136.18056Q32.95625 136.99306 33.628124 137.3993Q34.3 137.80556 35.096874 137.80556Q36.05 137.80556 36.70625 137.25868Q37.378124 136.7118 37.6125 135.61806Z" fill-rule="nonzero"/><path fill="#000000" d="M20.64375 256.73297L22.909374 253.4986L20.815624 250.51422L22.128124 250.51422L23.08125 251.96735Q23.346874 252.38922 23.51875 252.67047Q23.76875 252.27985 23.9875 251.98297L25.034374 250.51422L26.3 250.51422L24.14375 253.4361L26.45625 256.73297L25.175 256.73297L23.89375 254.79547L23.55 254.27985L21.909374 256.73297L20.64375 256.73297ZM31.51875 250.2486L30.471874 250.32672Q30.33125 249.70172 30.08125 249.42047Q29.64375 248.96735 29.01875 248.96735Q28.51875 248.96735 28.128124 249.2486Q27.64375 249.6236 27.346874 250.32672Q27.065624 251.01422 27.05 252.29547Q27.425 251.71735 27.971874 251.4361Q28.534374 251.15485 29.14375 251.15485Q30.190624 251.15485 30.925 251.9361Q31.675 252.71735 31.675 253.9361Q31.675 254.7486 31.315624 255.45172Q30.971874 256.13922 30.3625 256.51422Q29.753124 256.8736 28.9875 256.8736Q27.659374 256.8736 26.83125 255.90485Q26.003124 254.9361 26.003124 252.71735Q26.003124 250.21735 26.925 249.09235Q27.721874 248.10797 29.08125 248.10797Q30.096874 248.10797 30.7375 248.6861Q31.39375 249.2486 31.51875 250.2486ZM27.221874 253.95172Q27.221874 254.4986 27.440624 254.9986Q27.675 255.48297 28.08125 255.7486Q28.503124 256.01422 28.971874 256.01422Q29.628124 256.01422 30.1125 255.48297Q30.596874 254.9361 30.596874 254.01422Q30.596874 253.1236 30.1125 252.60797Q29.64375 252.09235 28.925 252.09235Q28.20625 252.09235 27.70625 252.60797Q27.221874 253.1236 27.221874 253.95172ZM36.425 256.73297L36.425 254.67047L32.70625 254.67047L32.70625 253.70172L36.628124 248.13922L37.4875 248.13922L37.4875 253.70172L38.64375 253.70172L38.64375 254.67047L37.4875 254.67047L37.4875 256.73297L36.425 256.73297ZM36.425 253.70172L36.425 249.84235L33.7375 253.70172L36.425 253.70172Z" fill-rule="nonzero"/><path fill="#000000" d="M30.55 345.21564Q30.55 343.6844 30.8625 342.7625Q31.175 341.825 31.784374 341.325Q32.409374 340.825 33.346874 340.825Q34.034374 340.825 34.55 341.10626Q35.08125 341.3875 35.425 341.91876Q35.76875 342.4344 35.95625 343.1844Q36.14375 343.9344 36.14375 345.21564Q36.14375 346.73126 35.83125 347.65314Q35.534374 348.575 34.909374 349.09064Q34.3 349.59064 33.346874 349.59064Q32.1125 349.59064 31.39375 348.7Q30.55 347.6375 30.55 345.21564ZM31.628124 345.21564Q31.628124 347.325 32.128124 348.02814Q32.628124 348.73126 33.346874 348.73126Q34.08125 348.73126 34.565624 348.02814Q35.065624 347.325 35.065624 345.21564Q35.065624 343.09064 34.565624 342.40314Q34.08125 341.7 33.33125 341.7Q32.6125 341.7 32.175 342.3094Q31.628124 343.09064 31.628124 345.21564ZM38.14375 349.45L38.14375 348.2469L39.346874 348.2469L39.346874 349.45L38.14375 349.45ZM40.55 345.21564Q40.55 343.6844 40.8625 342.7625Q41.175 341.825 41.784374 341.325Q42.409374 340.825 43.346874 340.825Q44.034374 340.825 44.55 341.10626Q45.08125 341.3875 45.425 341.91876Q45.76875 342.4344 45.95625 343.1844Q46.14375 343.9344 46.14375 345.21564Q46.14375 346.73126 45.83125 347.65314Q45.534374 348.575 44.909374 349.09064Q44.3 349.59064 43.346874 349.59064Q42.1125 349.59064 41.39375 348.7Q40.55 347.6375 40.55 345.21564ZM41.628124 345.21564Q41.628124 347.325 42.128124 348.02814Q42.628124 348.73126 43.346874 348.73126Q44.08125 348.73126 44.565624 348.02814Q45.065624 347.325 45.065624 345.21564Q45.065624 343.09064 44.565624 342.40314Q44.08125 341.7 43.33125 341.7Q42.6125 341.7 42.175 342.3094Q41.628124 343.09064 41.628124 345.21564ZM47.55 345.21564Q47.55 343.6844 47.8625 342.7625Q48.175 341.825 48.784374 341.325Q49.409374 340.825 50.346874 340.825Q51.034374 340.825 51.55 341.10626Q52.08125 341.3875 52.425 341.91876Q52.76875 342.4344 52.95625 343.1844Q53.14375 343.9344 53.14375 345.21564Q53.14375 346.73126 52.83125 347.65314Q52.534374 348.575 51.909374 349.09064Q51.3 349.59064 50.346874 349.59064Q49.1125 349.59064 48.39375 348.7Q47.55 347.6375 47.55 345.21564ZM48.628124 345.21564Q48.628124 347.325 49.128124 348.02814Q49.628124 348.73126 50.346874 348.73126Q51.08125 348.73126 51.565624 348.02814Q52.065624 347.325 52.065624 345.21564Q52.065624 343.09064 51.565624 342.40314Q51.08125 341.7 50.33125 341.7Q49.6125 341.7 49.175 342.3094Q48.628124 343.09064 48.628124 345.21564ZM54.55 345.21564Q54.55 343.6844 54.8625 342.7625Q55.175 341.825 55.784374 341.325Q56.409374 340.825 57.346874 340.825Q58.034374 340.825 58.55 341.10626Q59.08125 341.3875 59.425 341.91876Q59.76875 342.4344 59.95625 343.1844Q60.14375 343.9344 60.14375 345.21564Q60.14375 346.73126 59.83125 347.65314Q59.534374 348.575 58.909374 349.09064Q58.3 349.59064 57.346874 349.59064Q56.1125 349.59064 55.39375 348.7Q54.55 347.6375 54.55 345.21564ZM55.628124 345.21564Q55.628124 347.325 56.128124 348.02814Q56.628124 348.73126 57.346874 348.73126Q58.08125 348.73126 58.565624 348.02814Q59.065624 347.325 59.065624 345.21564Q59.065624 343.09064 58.565624 342.40314Q58.08125 341.7 57.33125 341.7Q56.6125 341.7 56.175 342.3094Q55.628124 343.09064 55.628124 345.21564Z" fill-rule="nonzero"/><path fill="#000000" d="M209.18333 345.21564Q209.18333 343.6844 209.49583 342.7625Q209.80833 341.825 210.41771 341.325Q211.04271 340.825 211.98021 340.825Q212.66771 340.825 213.18333 341.10626Q213.71458 341.3875 214.05833 341.91876Q214.40208 342.4344 214.58958 343.1844Q214.77708 343.9344 214.77708 345.21564Q214.77708 346.73126 214.46458 347.65314Q214.16771 348.575 213.54271 349.09064Q212.93333 349.59064 211.98021 349.59064Q210.74583 349.59064 210.02708 348.7Q209.18333 347.6375 209.18333 345.21564ZM210.26146 345.21564Q210.26146 347.325 210.76146 348.02814Q211.26146 348.73126 211.98021 348.73126Q212.71458 348.73126 213.19896 348.02814Q213.69896 347.325 213.69896 345.21564Q213.69896 343.09064 213.19896 342.40314Q212.71458 341.7 211.96458 341.7Q211.24583 341.7 210.80833 342.3094Q210.26146 343.09064 210.26146 345.21564ZM216.77708 349.45L216.77708 348.2469L217.98021 348.2469L217.98021 349.45L216.77708 349.45ZM219.18333 345.21564Q219.18333 343.6844 219.49583 342.7625Q219.80833 341.825 220.41771 341.325Q221.04271 340.825 221.98021 340.825Q222.66771 340.825 223.18333 341.10626Q223.71458 341.3875 224.05833 341.91876Q224.40208 342.4344 224.58958 343.1844Q224.77708 343.9344 224.77708 345.21564Q224.77708 346.73126 224.46458 347.65314Q224.16771 348.575 223.54271 349.09064Q222.93333 349.59064 221.98021 349.59064Q220.74583 349.59064 220.02708 348.7Q219.18333 347.6375 219.18333 345.21564ZM220.26146 345.21564Q220.26146 347.325 220.76146 348.02814Q221.26146 348.73126 221.98021 348.73126Q222.71458 348.73126 223.19896 348.02814Q223.69896 347.325 223.69896 345.21564Q223.69896 343.09064 223.19896 342.40314Q222.71458 341.7 221.96458 341.7Q221.24583 341.7 220.80833 342.3094Q220.26146 343.09064 220.26146 345.21564ZM226.18333 345.21564Q226.18333 343.6844 226.49583 342.7625Q226.80833 341.825 227.41771 341.325Q228.04271 340.825 228.98021 340.825Q229.66771 340.825 230.18333 341.10626Q230.71458 341.3875 231.05833 341.91876Q231.40208 342.4344 231.58958 343.1844Q231.77708 343.9344 231.77708 345.21564Q231.77708 346.73126 231.46458 347.65314Q231.16771 348.575 230.54271 349.09064Q229.93333 349.59064 228.98021 349.59064Q227.74583 349.59064 227.02708 348.7Q226.18333 347.6375 226.18333 345.21564ZM227.26146 345.21564Q227.26146 347.325 227.76146 348.02814Q228.26146 348.73126 228.98021 348.73126Q229.71458 348.73126 230.19896 348.02814Q230.69896 347.325 230.69896 345.21564Q230.69896 343.09064 230.19896 342.40314Q229.71458 341.7 228.96458 341.7Q228.24583 341.7 227.80833 342.3094Q227.26146 343.09064 227.26146 345.21564ZM237.15208 349.45L236.10521 349.45L236.10521 342.73126Q235.71458 343.09064 235.08958 343.46564Q234.48021 343.825 233.99583 343.9969L233.99583 342.98126Q234.87083 342.5594 235.52708 341.98126Q236.19896 341.3875 236.48021 340.825L237.15208 340.825L237.15208 349.45Z" fill-rule="nonzero"/><path fill="#000000" d="M387.81668 345.21564Q387.81668 343.6844 388.12918 342.7625Q388.44168 341.825 389.05106 341.325Q389.67606 340.825 390.61356 340.825Q391.30106 340.825 391.81668 341.10626Q392.34793 341.3875 392.69168 341.91876Q393.03543 342.4344 393.22293 343.1844Q393.41043 343.9344 393.41043 345.21564Q393.41043 346.73126 393.09793 347.65314Q392.80106 348.575 392.17606 349.09064Q391.56668 349.59064 390.61356 349.59064Q389.37918 349.59064 388.66043 348.7Q387.81668 347.6375 387.81668 345.21564ZM388.8948 345.21564Q388.8948 347.325 389.3948 348.02814Q389.8948 348.73126 390.61356 348.73126Q391.34793 348.73126 391.8323 348.02814Q392.3323 347.325 392.3323 345.21564Q392.3323 343.09064 391.8323 342.40314Q391.34793 341.7 390.59793 341.7Q389.87918 341.7 389.44168 342.3094Q388.8948 343.09064 388.8948 345.21564ZM395.41043 349.45L395.41043 348.2469L396.61356 348.2469L396.61356 349.45L395.41043 349.45ZM397.81668 345.21564Q397.81668 343.6844 398.12918 342.7625Q398.44168 341.825 399.05106 341.325Q399.67606 340.825 400.61356 340.825Q401.30106 340.825 401.81668 341.10626Q402.34793 341.3875 402.69168 341.91876Q403.03543 342.4344 403.22293 343.1844Q403.41043 343.9344 403.41043 345.21564Q403.41043 346.73126 403.09793 347.65314Q402.80106 348.575 402.17606 349.09064Q401.56668 349.59064 400.61356 349.59064Q399.37918 349.59064 398.66043 348.7Q397.81668 347.6375 397.81668 345.21564ZM398.8948 345.21564Q398.8948 347.325 399.3948 348.02814Q399.8948 348.73126 400.61356 348.73126Q401.34793 348.73126 401.8323 348.02814Q402.3323 347.325 402.3323 345.21564Q402.3323 343.09064 401.8323 342.40314Q401.34793 341.7 400.59793 341.7Q399.87918 341.7 399.44168 342.3094Q398.8948 343.09064 398.8948 345.21564ZM404.81668 345.21564Q404.81668 343.6844 405.12918 342.7625Q405.44168 341.825 406.05106 341.325Q406.67606 340.825 407.61356 340.825Q408.30106 340.825 408.81668 341.10626Q409.34793 341.3875 409.69168 341.91876Q410.03543 342.4344 410.22293 343.1844Q410.41043 343.9344 410.41043 345.21564Q410.41043 346.73126 410.09793 347.65314Q409.80106 348.575 409.17606 349.09064Q408.56668 349.59064 407.61356 349.59064Q406.37918 349.59064 405.66043 348.7Q404.81668 347.6375 404.81668 345.21564ZM405.8948 345.21564Q405.8948 347.325 406.3948 348.02814Q406.8948 348.73126 407.61356 348.73126Q408.34793 348.73126 408.8323 348.02814Q409.3323 347.325 409.3323 345.21564Q409.3323 343.09064 408.8323 342.40314Q408.34793 341.7 407.59793 341.7Q406.87918 341.7 406.44168 342.3094Q405.8948 343.09064 405.8948 345.21564ZM417.36356 348.4344L417.36356 349.45L411.67606 349.45Q411.67606 349.075 411.80106 348.71564Q412.0198 348.1375 412.48856 347.575Q412.97293 347.0125 413.87918 346.27814Q415.28543 345.1219 415.7698 344.45Q416.2698 343.77814 416.2698 343.1844Q416.2698 342.5594 415.81668 342.1375Q415.36356 341.7 414.6448 341.7Q413.87918 341.7 413.42606 342.15314Q412.97293 342.60626 412.9573 343.41876L411.87918 343.3094Q411.98856 342.09064 412.7073 341.46564Q413.44168 340.825 414.67606 340.825Q415.91043 340.825 416.62918 341.5125Q417.34793 342.2 417.34793 343.21564Q417.34793 343.73126 417.12918 344.23126Q416.92606 344.71564 416.42606 345.27814Q415.94168 345.825 414.81668 346.77814Q413.86356 347.575 413.5823 347.8719Q413.31668 348.15314 413.1448 348.4344L417.36356 348.4344Z" fill-rule="nonzero"/><path fill="#000000" d="M566.45 345.21564Q566.45 343.6844 566.7625 342.7625Q567.075 341.825 567.6844 341.325Q568.3094 340.825 569.2469 340.825Q569.9344 340.825 570.45 341.10626Q570.98126 341.3875 571.325 341.91876Q571.66876 342.4344 571.85626 343.1844Q572.04376 343.9344 572.04376 345.21564Q572.04376 346.73126 571.73126 347.65314Q571.4344 348.575 570.8094 349.09064Q570.2 349.59064 569.2469 349.59064Q568.0125 349.59064 567.29376 348.7Q566.45 347.6375 566.45 345.21564ZM567.52814 345.21564Q567.52814 347.325 568.02814 348.02814Q568.52814 348.73126 569.2469 348.73126Q569.98126 348.73126 570.46564 348.02814Q570.96564 347.325 570.96564 345.21564Q570.96564 343.09064 570.46564 342.40314Q569.98126 341.7 569.23126 341.7Q568.5125 341.7 568.075 342.3094Q567.52814 343.09064 567.52814 345.21564ZM574.04376 349.45L574.04376 348.2469L575.2469 348.2469L575.2469 349.45L574.04376 349.45ZM576.45 345.21564Q576.45 343.6844 576.7625 342.7625Q577.075 341.825 577.6844 341.325Q578.3094 340.825 579.2469 340.825Q579.9344 340.825 580.45 341.10626Q580.98126 341.3875 581.325 341.91876Q581.66876 342.4344 581.85626 343.1844Q582.04376 343.9344 582.04376 345.21564Q582.04376 346.73126 581.73126 347.65314Q581.4344 348.575 580.8094 349.09064Q580.2 349.59064 579.2469 349.59064Q578.0125 349.59064 577.29376 348.7Q576.45 347.6375 576.45 345.21564ZM577.52814 345.21564Q577.52814 347.325 578.02814 348.02814Q578.52814 348.73126 579.2469 348.73126Q579.98126 348.73126 580.46564 348.02814Q580.96564 347.325 580.96564 345.21564Q580.96564 343.09064 580.46564 342.40314Q579.98126 341.7 579.23126 341.7Q578.5125 341.7 578.075 342.3094Q577.52814 343.09064 577.52814 345.21564ZM583.45 345.21564Q583.45 343.6844 583.7625 342.7625Q584.075 341.825 584.6844 341.325Q585.3094 340.825 586.2469 340.825Q586.9344 340.825 587.45 341.10626Q587.98126 341.3875 588.325 341.91876Q588.66876 342.4344 588.85626 343.1844Q589.04376 343.9344 589.04376 345.21564Q589.04376 346.73126 588.73126 347.65314Q588.4344 348.575 587.8094 349.09064Q587.2 349.59064 586.2469 349.59064Q585.0125 349.59064 584.29376 348.7Q583.45 347.6375 583.45 345.21564ZM584.52814 345.21564Q584.52814 347.325 585.02814 348.02814Q585.52814 348.73126 586.2469 348.73126Q586.98126 348.73126 587.46564 348.02814Q587.96564 347.325 587.96564 345.21564Q587.96564 343.09064 587.46564 342.40314Q586.98126 341.7 586.23126 341.7Q585.5125 341.7 585.075 342.3094Q584.52814 343.09064 584.52814 345.21564ZM590.45 347.1844L591.5125 347.04376Q591.6844 347.9344 592.1219 348.34064Q592.5594 348.73126 593.1844 348.73126Q593.9344 348.73126 594.45 348.21564Q594.96564 347.7 594.96564 346.9344Q594.96564 346.21564 594.48126 345.7469Q594.0125 345.2625 593.27814 345.2625Q592.98126 345.2625 592.52814 345.3875L592.65314 344.45Q592.7625 344.46564 592.825 344.46564Q593.4969 344.46564 594.02814 344.1219Q594.575 343.7625 594.575 343.02814Q594.575 342.45 594.1844 342.075Q593.79376 341.6844 593.16876 341.6844Q592.5594 341.6844 592.1375 342.075Q591.73126 342.46564 591.6219 343.23126L590.5594 343.04376Q590.7469 341.9969 591.4344 341.41876Q592.1219 340.825 593.1375 340.825Q593.84064 340.825 594.4344 341.1375Q595.02814 341.4344 595.34064 341.95Q595.65314 342.46564 595.65314 343.0594Q595.65314 343.60626 595.35626 344.075Q595.0594 344.52814 594.48126 344.79376Q595.23126 344.96564 595.65314 345.52814Q596.075 346.075 596.075 346.91876Q596.075 348.04376 595.2469 348.825Q594.4344 349.60626 593.1844 349.60626Q592.0594 349.60626 591.3094 348.9344Q590.5594 348.2469 590.45 347.1844Z" fill-rule="nonzero"/><path fill="#757575" d="M18.51875 37.55L24.01875 23.2375L26.065624 23.2375L31.925 37.55L29.76875 37.55L28.096874 33.20625L22.1125 33.20625L20.534374 37.55L18.51875 37.55ZM22.659374 31.675L27.503124 31.675L26.01875 27.70625Q25.33125 25.89375 25.003124 24.7375Q24.721874 26.1125 24.221874 27.471874L22.659374 31.675ZM35.753124 37.55L31.8 27.175L33.659374 27.175L35.89375 33.39375Q36.253124 34.39375 36.55 35.471874Q36.784374 34.659374 37.20625 33.503124L39.503124 27.175L41.315624 27.175L37.39375 37.55L35.753124 37.55ZM48.971874 34.20625L50.784374 34.440624Q50.3625 36.01875 49.190624 36.909374Q48.034374 37.784374 46.221874 37.784374Q43.95625 37.784374 42.6125 36.39375Q41.284374 34.9875 41.284374 32.45625Q41.284374 29.83125 42.628124 28.39375Q43.971874 26.940624 46.128124 26.940624Q48.20625 26.940624 49.51875 28.3625Q50.846874 29.76875 50.846874 32.346874Q50.846874 32.503124 50.83125 32.815624L43.096874 32.815624Q43.190624 34.51875 44.065624 35.425Q44.940624 36.33125 46.2375 36.33125Q47.20625 36.33125 47.878124 35.83125Q48.565624 35.315624 48.971874 34.20625ZM43.190624 31.3625L48.9875 31.3625Q48.878124 30.065624 48.33125 29.409374Q47.4875 28.39375 46.14375 28.39375Q44.940624 28.39375 44.1125 29.20625Q43.284374 30.003124 43.190624 31.3625ZM52.846874 37.55L52.846874 27.175L54.425 27.175L54.425 28.753124Q55.034374 27.64375 55.55 27.3Q56.065624 26.940624 56.675 26.940624Q57.565624 26.940624 58.4875 27.503124L57.878124 29.14375Q57.2375 28.753124 56.596874 28.753124Q56.01875 28.753124 55.55 29.1125Q55.096874 29.45625 54.89375 30.065624Q54.6125 31.003124 54.6125 32.1125L54.6125 37.55L52.846874 37.55ZM66.64375 36.26875Q65.65938 37.096874 64.75313 37.440624Q63.846874 37.784374 62.815624 37.784374Q61.1125 37.784374 60.190624 36.95625Q59.26875 36.1125 59.26875 34.815624Q59.26875 34.05 59.6125 33.425Q59.971874 32.8 60.534374 32.425Q61.096874 32.034374 61.8 31.83125Q62.315624 31.70625 63.3625 31.565624Q65.4875 31.315624 66.4875 30.971874Q66.50313 30.6125 66.50313 30.503124Q66.50313 29.440624 66.00313 28.9875Q65.33125 28.39375 64.00313 28.39375Q62.753124 28.39375 62.159374 28.83125Q61.58125 29.26875 61.3 30.378124L59.58125 30.14375Q59.815624 29.034374 60.346874 28.3625Q60.878124 27.675 61.89375 27.315624Q62.909374 26.940624 64.25313 26.940624Q65.58125 26.940624 66.40938 27.253124Q67.2375 27.565624 67.62813 28.05Q68.01875 28.51875 68.175 29.2375Q68.26875 29.690624 68.26875 30.8625L68.26875 33.20625Q68.26875 35.659374 68.37813 36.315624Q68.4875 36.95625 68.83125 37.55L66.9875 37.55Q66.72188 37.003124 66.64375 36.26875ZM66.4875 32.346874Q65.53438 32.7375 63.6125 33.003124Q62.534374 33.159374 62.08125 33.3625Q61.64375 33.55 61.39375 33.925Q61.14375 34.3 61.14375 34.76875Q61.14375 35.471874 61.675 35.940624Q62.20625 36.409374 63.2375 36.409374Q64.25313 36.409374 65.03438 35.971874Q65.83125 35.51875 66.20625 34.753124Q66.4875 34.14375 66.4875 32.9875L66.4875 32.346874ZM70.55 38.409374L72.25313 38.659374Q72.3625 39.45625 72.84688 39.815624Q73.50313 40.3 74.64375 40.3Q75.8625 40.3 76.51875 39.815624Q77.19063 39.33125 77.425 38.45625Q77.56563 37.909374 77.55 36.190624Q76.39375 37.55 74.675 37.55Q72.53438 37.55 71.3625 36.003124Q70.19063 34.45625 70.19063 32.3Q70.19063 30.815624 70.72188 29.565624Q71.26875 28.315624 72.28438 27.628124Q73.31563 26.940624 74.69063 26.940624Q76.51875 26.940624 77.72188 28.425L77.72188 27.175L79.33125 27.175L79.33125 36.14375Q79.33125 38.565624 78.83125 39.565624Q78.34688 40.58125 77.26875 41.159374Q76.20625 41.753124 74.64375 41.753124Q72.8 41.753124 71.64375 40.925Q70.50313 40.096874 70.55 38.409374ZM72.00313 32.175Q72.00313 34.221874 72.81563 35.159374Q73.62813 36.096874 74.84688 36.096874Q76.05 36.096874 76.8625 35.159374Q77.69063 34.221874 77.69063 32.2375Q77.69063 30.33125 76.84688 29.3625Q76.00313 28.39375 74.81563 28.39375Q73.64375 28.39375 72.81563 29.346874Q72.00313 30.3 72.00313 32.175ZM88.97188 34.20625L90.78438 34.440624Q90.3625 36.01875 89.19063 36.909374Q88.03438 37.784374 86.22188 37.784374Q83.95625 37.784374 82.6125 36.39375Q81.28438 34.9875 81.28438 32.45625Q81.28438 29.83125 82.62813 28.39375Q83.97188 26.940624 86.12813 26.940624Q88.20625 26.940624 89.51875 28.3625Q90.84688 29.76875 90.84688 32.346874Q90.84688 32.503124 90.83125 32.815624L83.09688 32.815624Q83.19063 34.51875 84.06563 35.425Q84.94063 36.33125 86.2375 36.33125Q87.20625 36.33125 87.87813 35.83125Q88.56563 35.315624 88.97188 34.20625ZM83.19063 31.3625L88.9875 31.3625Q88.87813 30.065624 88.33125 29.409374Q87.4875 28.39375 86.14375 28.39375Q84.94063 28.39375 84.1125 29.20625Q83.28438 30.003124 83.19063 31.3625ZM102.7375 37.55L102.7375 24.925L98.01875 24.925L98.01875 23.2375L109.3625 23.2375L109.3625 24.925L104.62813 24.925L104.62813 37.55L102.7375 37.55ZM110.87813 25.253124L110.87813 23.2375L112.64375 23.2375L112.64375 25.253124L110.87813 25.253124ZM110.87813 37.55L110.87813 27.175L112.64375 27.175L112.64375 37.55L110.87813 37.55ZM114.8625 37.55L114.8625 27.175L116.44063 27.175L116.44063 28.628124Q116.925 27.878124 117.7375 27.409374Q118.55 26.940624 119.58125 26.940624Q120.7375 26.940624 121.47188 27.425Q122.20625 27.89375 122.51875 28.753124Q123.75313 26.940624 125.72188 26.940624Q127.26875 26.940624 128.09688 27.8Q128.925 28.659374 128.925 30.425L128.925 37.55L127.175 37.55L127.175 31.01875Q127.175 29.95625 127.00313 29.503124Q126.83125 29.034374 126.37813 28.753124Q125.94063 28.471874 125.33125 28.471874Q124.2375 28.471874 123.50313 29.20625Q122.78438 29.925 122.78438 31.51875L122.78438 37.55L121.03438 37.55L121.03438 30.815624Q121.03438 29.64375 120.59688 29.065624Q120.175 28.471874 119.19063 28.471874Q118.45625 28.471874 117.81563 28.8625Q117.19063 29.253124 116.90938 30.003124Q116.62813 30.753124 116.62813 32.175L116.62813 37.55L114.8625 37.55ZM137.97188 34.20625L139.78438 34.440624Q139.3625 36.01875 138.19063 36.909374Q137.03438 37.784374 135.22188 37.784374Q132.95625 37.784374 131.6125 36.39375Q130.28438 34.9875 130.28438 32.45625Q130.28438 29.83125 131.62813 28.39375Q132.97188 26.940624 135.12813 26.940624Q137.20625 26.940624 138.51875 28.3625Q139.84688 29.76875 139.84688 32.346874Q139.84688 32.503124 139.83125 32.815624L132.09688 32.815624Q132.19063 34.51875 133.06563 35.425Q133.94063 36.33125 135.2375 36.33125Q136.20625 36.33125 136.87813 35.83125Q137.56563 35.315624 137.97188 34.20625ZM132.19063 31.3625L137.9875 31.3625Q137.87813 30.065624 137.33125 29.409374Q136.4875 28.39375 135.14375 28.39375Q133.94063 28.39375 133.1125 29.20625Q132.28438 30.003124 132.19063 31.3625ZM141.15938 34.45625L142.90938 34.175Q143.05 35.221874 143.72188 35.784374Q144.39375 36.33125 145.59688 36.33125Q146.8 36.33125 147.37813 35.846874Q147.97188 35.346874 147.97188 34.690624Q147.97188 34.096874 147.45625 33.753124Q147.09688 33.51875 145.65938 33.159374Q143.72188 32.659374 142.97188 32.315624Q142.2375 31.95625 141.84688 31.33125Q141.45625 30.690624 141.45625 29.925Q141.45625 29.2375 141.76875 28.64375Q142.09688 28.05 142.64375 27.659374Q143.05 27.3625 143.75313 27.159374Q144.47188 26.940624 145.28438 26.940624Q146.50313 26.940624 147.425 27.3Q148.34688 27.64375 148.78438 28.253124Q149.22188 28.846874 149.39375 29.846874L147.675 30.08125Q147.55 29.284374 146.9875 28.846874Q146.425 28.39375 145.40938 28.39375Q144.19063 28.39375 143.675 28.8Q143.15938 29.190624 143.15938 29.721874Q143.15938 30.065624 143.37813 30.346874Q143.58125 30.628124 144.05 30.815624Q144.31563 30.909374 145.59688 31.253124Q147.47188 31.753124 148.20625 32.08125Q148.94063 32.39375 149.3625 33.003124Q149.78438 33.596874 149.78438 34.503124Q149.78438 35.378124 149.26875 36.159374Q148.75313 36.940624 147.78438 37.3625Q146.81563 37.784374 145.59688 37.784374Q143.58125 37.784374 142.51875 36.940624Q141.45625 36.096874 141.15938 34.45625ZM161.22188 41.753124Q159.76875 39.925 158.76875 37.471874Q157.76875 35.003124 157.76875 32.3625Q157.76875 30.034374 158.51875 27.909374Q159.39375 25.440624 161.22188 22.9875L162.4875 22.9875Q161.3 25.01875 160.925 25.89375Q160.33125 27.2375 159.9875 28.70625Q159.56563 30.534374 159.56563 32.378124Q159.56563 37.065624 162.4875 41.753124L161.22188 41.753124ZM164.8625 37.55L164.8625 27.175L166.45625 27.175L166.45625 28.659374Q167.59688 26.940624 169.75313 26.940624Q170.69063 26.940624 171.47188 27.284374Q172.26875 27.6125 172.65938 28.159374Q173.05 28.70625 173.20625 29.45625Q173.3 29.95625 173.3 31.175L173.3 37.55L171.53438 37.55L171.53438 31.2375Q171.53438 30.159374 171.33125 29.628124Q171.12813 29.096874 170.59688 28.784374Q170.08125 28.471874 169.37813 28.471874Q168.25313 28.471874 167.44063 29.190624Q166.62813 29.89375 166.62813 31.878124L166.62813 37.55L164.8625 37.55ZM190.1125 29.128124L180.65938 29.128124L180.65938 27.4875L190.1125 27.4875L190.1125 29.128124ZM190.1125 33.471874L180.65938 33.471874L180.65938 31.83125L190.1125 31.83125L190.1125 33.471874ZM207.6125 35.8625L207.6125 37.55L198.15938 37.55Q198.14375 36.909374 198.3625 36.33125Q198.72188 35.3625 199.51875 34.425Q200.31563 33.4875 201.81563 32.253124Q204.15938 30.346874 204.97188 29.2375Q205.8 28.1125 205.8 27.1125Q205.8 26.065624 205.05 25.346874Q204.3 24.628124 203.09688 24.628124Q201.83125 24.628124 201.06563 25.39375Q200.3 26.159374 200.3 27.503124L198.4875 27.315624Q198.675 25.3 199.87813 24.2375Q201.09688 23.175 203.14375 23.175Q205.19063 23.175 206.39375 24.315624Q207.59688 25.45625 207.59688 27.14375Q207.59688 28.003124 207.2375 28.846874Q206.89375 29.675 206.08125 30.596874Q205.26875 31.503124 203.37813 33.1125Q201.78438 34.440624 201.33125 34.909374Q200.89375 35.378124 200.59688 35.8625L207.6125 35.8625ZM210.87813 30.815624L209.08125 30.815624L212.51875 22.9875L213.94063 22.9875L217.40938 30.815624L215.64375 30.815624L213.22188 24.9875L210.87813 30.815624ZM226.6125 35.8625L226.6125 37.55L217.15938 37.55Q217.14375 36.909374 217.3625 36.33125Q217.72188 35.3625 218.51875 34.425Q219.31563 33.4875 220.81563 32.253124Q223.15938 30.346874 223.97188 29.2375Q224.8 28.1125 224.8 27.1125Q224.8 26.065624 224.05 25.346874Q223.3 24.628124 222.09688 24.628124Q220.83125 24.628124 220.06563 25.39375Q219.3 26.159374 219.3 27.503124L217.4875 27.315624Q217.675 25.3 218.87813 24.2375Q220.09688 23.175 222.14375 23.175Q224.19063 23.175 225.39375 24.315624Q226.59688 25.45625 226.59688 27.14375Q226.59688 28.003124 226.2375 28.846874Q225.89375 29.675 225.08125 30.596874Q224.26875 31.503124 222.37813 33.1125Q220.78438 34.440624 220.33125 34.909374Q219.89375 35.378124 219.59688 35.8625L226.6125 35.8625ZM228.37813 30.4875Q228.37813 27.95625 228.89375 26.409374Q229.425 24.846874 230.45625 24.01875Q231.4875 23.175 233.05 23.175Q234.20625 23.175 235.06563 23.64375Q235.94063 24.096874 236.50313 24.971874Q237.06563 25.846874 237.39375 27.1125Q237.72188 28.3625 237.72188 30.4875Q237.72188 33.003124 237.19063 34.55Q236.675 36.096874 235.64375 36.95625Q234.62813 37.8 233.05 37.8Q230.97188 37.8 229.8 36.315624Q228.37813 34.51875 228.37813 30.4875ZM230.19063 30.4875Q230.19063 34.01875 231.00313 35.190624Q231.83125 36.346874 233.05 36.346874Q234.25313 36.346874 235.08125 35.175Q235.90938 34.003124 235.90938 30.4875Q235.90938 26.95625 235.08125 25.8Q234.25313 24.628124 233.03438 24.628124Q231.81563 24.628124 231.09688 25.659374Q230.19063 26.95625 230.19063 30.4875ZM240.33125 37.55L240.33125 35.55L242.33125 35.55L242.33125 37.55Q242.33125 38.659374 241.94063 39.33125Q241.55 40.01875 240.70625 40.378124L240.20625 39.628124Q240.76875 39.39375 241.03438 38.909374Q241.3 38.440624 241.33125 37.55L240.33125 37.55ZM252.09688 37.55L252.09688 23.2375L257.01874 23.2375Q258.6906 23.2375 259.58124 23.440624Q260.8 23.721874 261.675 24.45625Q262.8 25.425 263.3625 26.909374Q263.925 28.39375 263.925 30.315624Q263.925 31.940624 263.55 33.20625Q263.175 34.45625 262.5656 35.284374Q261.97186 36.1125 261.26874 36.596874Q260.5656 37.065624 259.5656 37.315624Q258.5656 37.55 257.2531 37.55L252.09688 37.55ZM253.9875 35.8625L257.05 35.8625Q258.45624 35.8625 259.2531 35.596874Q260.0656 35.33125 260.55 34.846874Q261.22186 34.175 261.59686 33.05Q261.97186 31.909374 261.97186 30.284374Q261.97186 28.034374 261.2375 26.83125Q260.5031 25.628124 259.4406 25.221874Q258.6906 24.925 257.0031 24.925L253.9875 24.925L253.9875 35.8625ZM272.97186 34.20625L274.78436 34.440624Q274.3625 36.01875 273.1906 36.909374Q272.03436 37.784374 270.22186 37.784374Q267.95624 37.784374 266.6125 36.39375Q265.28436 34.9875 265.28436 32.45625Q265.28436 29.83125 266.6281 28.39375Q267.97186 26.940624 270.1281 26.940624Q272.20624 26.940624 273.51874 28.3625Q274.84686 29.76875 274.84686 32.346874Q274.84686 32.503124 274.83124 32.815624L267.09686 32.815624Q267.1906 34.51875 268.0656 35.425Q268.9406 36.33125 270.2375 36.33125Q271.20624 36.33125 271.8781 35.83125Q272.5656 35.315624 272.97186 34.20625ZM267.1906 31.3625L272.9875 31.3625Q272.8781 30.065624 272.33124 29.409374Q271.4875 28.39375 270.14374 28.39375Q268.9406 28.39375 268.1125 29.20625Q267.28436 30.003124 267.1906 31.3625ZM278.4875 37.55L276.8625 37.55L276.8625 23.2375L278.6125 23.2375L278.6125 28.346874Q279.7375 26.940624 281.45624 26.940624Q282.40936 26.940624 283.26874 27.33125Q284.1281 27.721874 284.675 28.425Q285.22186 29.1125 285.53436 30.096874Q285.84686 31.08125 285.84686 32.20625Q285.84686 34.878124 284.53436 36.33125Q283.22186 37.784374 281.3781 37.784374Q279.53436 37.784374 278.4875 36.253124L278.4875 37.55ZM278.47186 32.284374Q278.47186 34.14375 278.97186 34.9875Q279.8156 36.33125 281.22186 36.33125Q282.3781 36.33125 283.20624 35.33125Q284.05 34.33125 284.05 32.346874Q284.05 30.315624 283.2375 29.3625Q282.4406 28.39375 281.3 28.39375Q280.14374 28.39375 279.3 29.39375Q278.47186 30.39375 278.47186 32.284374ZM294.65936 37.55L294.65936 36.01875Q293.45624 37.784374 291.3781 37.784374Q290.45624 37.784374 289.65936 37.440624Q288.8625 37.08125 288.47186 36.55Q288.09686 36.01875 287.9406 35.2375Q287.83124 34.721874 287.83124 33.596874L287.83124 27.175L289.58124 27.175L289.58124 32.925Q289.58124 34.3 289.6906 34.784374Q289.8625 35.471874 290.39374 35.878124Q290.9406 36.26875 291.72186 36.26875Q292.51874 36.26875 293.20624 35.8625Q293.90936 35.45625 294.1906 34.76875Q294.4875 34.065624 294.4875 32.7375L294.4875 27.175L296.2375 27.175L296.2375 37.55L294.65936 37.55ZM297.55 38.409374L299.2531 38.659374Q299.3625 39.45625 299.84686 39.815624Q300.5031 40.3 301.64374 40.3Q302.8625 40.3 303.51874 39.815624Q304.1906 39.33125 304.425 38.45625Q304.5656 37.909374 304.55 36.190624Q303.39374 37.55 301.675 37.55Q299.53436 37.55 298.3625 36.003124Q297.1906 34.45625 297.1906 32.3Q297.1906 30.815624 297.72186 29.565624Q298.26874 28.315624 299.28436 27.628124Q300.3156 26.940624 301.6906 26.940624Q303.51874 26.940624 304.72186 28.425L304.72186 27.175L306.33124 27.175L306.33124 36.14375Q306.33124 38.565624 305.83124 39.565624Q305.34686 40.58125 304.26874 41.159374Q303.20624 41.753124 301.64374 41.753124Q299.8 41.753124 298.64374 40.925Q297.5031 40.096874 297.55 38.409374ZM299.0031 32.175Q299.0031 34.221874 299.8156 35.159374Q300.6281 36.096874 301.84686 36.096874Q303.05 36.096874 303.8625 35.159374Q304.6906 34.221874 304.6906 32.2375Q304.6906 30.33125 303.84686 29.3625Q303.0031 28.39375 301.8156 28.39375Q300.64374 28.39375 299.8156 29.346874Q299.0031 30.3 299.0031 32.175ZM310.01874 41.753124L308.76874 41.753124Q311.675 37.065624 311.675 32.378124Q311.675 30.534374 311.26874 28.7375Q310.925 27.26875 310.33124 25.925Q309.95624 25.034374 308.76874 22.9875L310.01874 22.9875Q311.8625 25.440624 312.7375 27.909374Q313.4875 30.034374 313.4875 32.3625Q313.4875 35.003124 312.47186 37.471874Q311.47186 39.925 310.01874 41.753124Z" fill-rule="nonzero"/></svg>