<svg version="1.1" viewBox="0.0 0.0 600.0 371.0" fill="none" stroke="none" stroke-linecap="square" stroke-miterlimit="10" width="600" height="371" xmlns:xlink="http://www.w3.org/1999/xlink" xmlns="http://www.w3.org/2000/svg"><path fill="#ffffff" d="M0 0L600.0 0L600.0 371.0L0 371.0L0 0Z" fill-rule="nonzero"/><path stroke="#333333" stroke-width="1.0" stroke-linecap="butt" d="M45.5 54.5L45.5 332.5" fill-rule="nonzero"/><path stroke="#cccccc" stroke-width="1.0" stroke-linecap="butt" d="M179.5 54.5L179.5 332.5" fill-rule="nonzero"/><path stroke="#cccccc" stroke-width="1.0" stroke-linecap="butt" d="M313.5 54.5L313.5 332.5" fill-rule="nonzero"/><path stroke="#cccccc" stroke-width="1.0" stroke-linecap="butt" d="M447.5 54.5L447.5 332.5" fill-rule="nonzero"/><path stroke="#cccccc" stroke-width="1.0" stroke-linecap="butt" d="M581.5 54.5L581.5 332.5" fill-rule="nonzero"/><clipPath id="id_0"><path d="M45.55 54.916668L581.45 54.916668L581.45 332.45L45.55 332.45L45.55 54.916668Z" clip-rule="nonzero"/></clipPath><path stroke="#000000" stroke-width="2.0" stroke-linecap="butt" stroke-opacity="0.0" clip-path="url(#id_0)" d="M46.0 174.0L46.0 97.0L456.0 97.0C457.10458 97.0 458.0 97.89543 458.0 99.0L458.0 172.0C458.0 173.10457 457.10458 174.0 456.0 174.0Z" fill-rule="nonzero"/><path fill="#4285f4" clip-path="url(#id_0)" d="M46.0 174.0L46.0 97.0L456.0 97.0C457.10458 97.0 458.0 97.89543 458.0 99.0L458.0 172.0C458.0 173.10457 457.10458 174.0 456.0 174.0Z" fill-rule="nonzero"/><path stroke="#000000" stroke-width="2.0" stroke-linecap="butt" stroke-opacity="0.0" clip-path="url(#id_0)" d="M46.0 292.0L46.0 215.0L236.0 215.0C237.10457 215.0 238.0 215.89543 238.0 217.0L238.0 290.0C238.0 291.10458 237.10457 292.0 236.0 292.0Z" fill-rule="nonzero"/><path fill="#4285f4" clip-path="url(#id_0)" d="M46.0 292.0L46.0 215.0L236.0 215.0C237.10457 215.0 238.0 215.89543 238.0 217.0L238.0 290.0C238.0 291.10458 237.10457 292.0 236.0 292.0Z" fill-rule="nonzero"/><path stroke="#4285f4" stroke-width="3.0" stroke-linejoin="round" stroke-linecap="round" d="M414.0134 135.85938Q414.0134 137.76562 413.35715 138.70312Q412.71652 139.625 411.3259 139.625Q409.96652 139.625 409.31027 138.71875Q408.65402 137.8125 408.62277 136.0L408.62277 134.5625Q408.62277 132.67188 409.2634 131.76562Q409.91965 130.84375 411.31027 130.84375Q412.68527 130.84375 413.34152 131.73438Q413.99777 132.60938 414.0134 134.45312L414.0134 135.85938ZM412.91965 134.375Q412.91965 133.0 412.52902 132.375Q412.15402 131.73438 411.31027 131.73438Q410.48215 131.73438 410.09152 132.375Q409.71652 133.0 409.71652 134.29688L409.71652 136.03125Q409.71652 137.40625 410.10715 138.07812Q410.5134 138.73438 411.3259 138.73438Q412.12277 138.73438 412.5134 138.10938Q412.90402 137.48438 412.91965 136.15625L412.91965 134.375ZM415.79465 138.9375Q415.79465 138.65625 415.9509 138.46875Q416.12277 138.28125 416.4509 138.28125Q416.79465 138.28125 416.96652 138.46875Q417.1384 138.65625 417.1384 138.9375Q417.1384 139.20312 416.96652 139.39062Q416.79465 139.5625 416.4509 139.5625Q416.12277 139.5625 415.9509 139.39062Q415.79465 139.20312 415.79465 138.9375ZM420.23215 134.70312L421.04465 134.70312Q421.8259 134.6875 422.2634 134.29688Q422.7009 133.90625 422.7009 133.23438Q422.7009 131.73438 421.2009 131.73438Q420.49777 131.73438 420.0759 132.14062Q419.66965 132.54688 419.66965 133.20312L418.5759 133.20312Q418.5759 132.1875 419.31027 131.51562Q420.06027 130.84375 421.2009 130.84375Q422.40402 130.84375 423.09152 131.48438Q423.77902 132.125 423.77902 133.26562Q423.77902 133.82812 423.41965 134.34375Q423.06027 134.85938 422.43527 135.125Q423.1384 135.34375 423.5134 135.85938Q423.90402 136.375 423.90402 137.125Q423.90402 138.26562 423.15402 138.95312Q422.40402 139.625 421.2009 139.625Q420.0134 139.625 419.24777 138.96875Q418.49777 138.3125 418.49777 137.25L419.59152 137.25Q419.59152 137.92188 420.02902 138.32812Q420.46652 138.73438 421.21652 138.73438Q421.99777 138.73438 422.40402 138.32812Q422.8259 137.90625 422.8259 137.14062Q422.8259 136.40625 422.37277 136.01562Q421.91965 135.60938 421.04465 135.59375L420.23215 135.59375L420.23215 134.70312ZM431.0134 135.85938Q431.0134 137.76562 430.35715 138.70312Q429.71652 139.625 428.3259 139.625Q426.96652 139.625 426.31027 138.71875Q425.65402 137.8125 425.62277 136.0L425.62277 134.5625Q425.62277 132.67188 426.2634 131.76562Q426.91965 130.84375 428.31027 130.84375Q429.68527 130.84375 430.34152 131.73438Q430.99777 132.60938 431.0134 134.45312L431.0134 135.85938ZM429.91965 134.375Q429.91965 133.0 429.52902 132.375Q429.15402 131.73438 428.31027 131.73438Q427.48215 131.73438 427.09152 132.375Q426.71652 133.0 426.71652 134.29688L426.71652 136.03125Q426.71652 137.40625 427.10715 138.07812Q427.5134 138.73438 428.3259 138.73438Q429.12277 138.73438 429.5134 138.10938Q429.90402 137.48438 429.91965 136.15625L429.91965 134.375ZM438.16965 131.57812L434.6384 139.5L433.49777 139.5L437.0134 131.85938L432.40402 131.85938L432.40402 130.96875L438.16965 130.96875L438.16965 131.57812ZM443.91965 130.96875L443.91965 131.875L443.71652 131.875Q442.4509 131.90625 441.7009 132.64062Q440.9509 133.35938 440.8259 134.67188Q441.5134 133.90625 442.66965 133.90625Q443.77902 133.90625 444.4509 134.6875Q445.12277 135.46875 445.12277 136.71875Q445.12277 138.03125 444.40402 138.82812Q443.68527 139.625 442.46652 139.625Q441.24777 139.625 440.48215 138.6875Q439.73215 137.73438 439.73215 136.25L439.73215 135.84375Q439.73215 133.48438 440.73215 132.23438Q441.73215 130.98438 443.71652 130.96875L443.91965 130.96875ZM442.49777 134.8125Q441.93527 134.8125 441.46652 135.14062Q440.99777 135.46875 440.81027 135.98438L440.81027 136.375Q440.81027 137.4375 441.27902 138.07812Q441.7634 138.71875 442.46652 138.71875Q443.2009 138.71875 443.62277 138.1875Q444.04465 137.64062 444.04465 136.76562Q444.04465 135.89062 443.62277 135.35938Q443.2009 134.8125 442.49777 134.8125ZM452.16965 131.57812L448.6384 139.5L447.49777 139.5L451.0134 131.85938L446.40402 131.85938L446.40402 130.96875L452.16965 130.96875L452.16965 131.57812Z" fill-rule="nonzero"/><path fill="#ffffff" d="M414.0134 135.85938Q414.0134 137.76562 413.35715 138.70312Q412.71652 139.625 411.3259 139.625Q409.96652 139.625 409.31027 138.71875Q408.65402 137.8125 408.62277 136.0L408.62277 134.5625Q408.62277 132.67188 409.2634 131.76562Q409.91965 130.84375 411.31027 130.84375Q412.68527 130.84375 413.34152 131.73438Q413.99777 132.60938 414.0134 134.45312L414.0134 135.85938ZM412.91965 134.375Q412.91965 133.0 412.52902 132.375Q412.15402 131.73438 411.31027 131.73438Q410.48215 131.73438 410.09152 132.375Q409.71652 133.0 409.71652 134.29688L409.71652 136.03125Q409.71652 137.40625 410.10715 138.07812Q410.5134 138.73438 411.3259 138.73438Q412.12277 138.73438 412.5134 138.10938Q412.90402 137.48438 412.91965 136.15625L412.91965 134.375ZM415.79465 138.9375Q415.79465 138.65625 415.9509 138.46875Q416.12277 138.28125 416.4509 138.28125Q416.79465 138.28125 416.96652 138.46875Q417.1384 138.65625 417.1384 138.9375Q417.1384 139.20312 416.96652 139.39062Q416.79465 139.5625 416.4509 139.5625Q416.12277 139.5625 415.9509 139.39062Q415.79465 139.20312 415.79465 138.9375ZM420.23215 134.70312L421.04465 134.70312Q421.8259 134.6875 422.2634 134.29688Q422.7009 133.90625 422.7009 133.23438Q422.7009 131.73438 421.2009 131.73438Q420.49777 131.73438 420.0759 132.14062Q419.66965 132.54688 419.66965 133.20312L418.5759 133.20312Q418.5759 132.1875 419.31027 131.51562Q420.06027 130.84375 421.2009 130.84375Q422.40402 130.84375 423.09152 131.48438Q423.77902 132.125 423.77902 133.26562Q423.77902 133.82812 423.41965 134.34375Q423.06027 134.85938 422.43527 135.125Q423.1384 135.34375 423.5134 135.85938Q423.90402 136.375 423.90402 137.125Q423.90402 138.26562 423.15402 138.95312Q422.40402 139.625 421.2009 139.625Q420.0134 139.625 419.24777 138.96875Q418.49777 138.3125 418.49777 137.25L419.59152 137.25Q419.59152 137.92188 420.02902 138.32812Q420.46652 138.73438 421.21652 138.73438Q421.99777 138.73438 422.40402 138.32812Q422.8259 137.90625 422.8259 137.14062Q422.8259 136.40625 422.37277 136.01562Q421.91965 135.60938 421.04465 135.59375L420.23215 135.59375L420.23215 134.70312ZM431.0134 135.85938Q431.0134 137.76562 430.35715 138.70312Q429.71652 139.625 428.3259 139.625Q426.96652 139.625 426.31027 138.71875Q425.65402 137.8125 425.62277 136.0L425.62277 134.5625Q425.62277 132.67188 426.2634 131.76562Q426.91965 130.84375 428.31027 130.84375Q429.68527 130.84375 430.34152 131.73438Q430.99777 132.60938 431.0134 134.45312L431.0134 135.85938ZM429.91965 134.375Q429.91965 133.0 429.52902 132.375Q429.15402 131.73438 428.31027 131.73438Q427.48215 131.73438 427.09152 132.375Q426.71652 133.0 426.71652 134.29688L426.71652 136.03125Q426.71652 137.40625 427.10715 138.07812Q427.5134 138.73438 428.3259 138.73438Q429.12277 138.73438 429.5134 138.10938Q429.90402 137.48438 429.91965 136.15625L429.91965 134.375ZM438.16965 131.57812L434.6384 139.5L433.49777 139.5L437.0134 131.85938L432.40402 131.85938L432.40402 130.96875L438.16965 130.96875L438.16965 131.57812ZM443.91965 130.96875L443.91965 131.875L443.71652 131.875Q442.4509 131.90625 441.7009 132.64062Q440.9509 133.35938 440.8259 134.67188Q441.5134 133.90625 442.66965 133.90625Q443.77902 133.90625 444.4509 134.6875Q445.12277 135.46875 445.12277 136.71875Q445.12277 138.03125 444.40402 138.82812Q443.68527 139.625 442.46652 139.625Q441.24777 139.625 440.48215 138.6875Q439.73215 137.73438 439.73215 136.25L439.73215 135.84375Q439.73215 133.48438 440.73215 132.23438Q441.73215 130.98438 443.71652 130.96875L443.91965 130.96875ZM442.49777 134.8125Q441.93527 134.8125 441.46652 135.14062Q440.99777 135.46875 440.81027 135.98438L440.81027 136.375Q440.81027 137.4375 441.27902 138.07812Q441.7634 138.71875 442.46652 138.71875Q443.2009 138.71875 443.62277 138.1875Q444.04465 137.64062 444.04465 136.76562Q444.04465 135.89062 443.62277 135.35938Q443.2009 134.8125 442.49777 134.8125ZM452.16965 131.57812L448.6384 139.5L447.49777 139.5L451.0134 131.85938L446.40402 131.85938L446.40402 130.96875L452.16965 130.96875L452.16965 131.57812Z" fill-rule="nonzero"/><path stroke="#4285f4" stroke-width="3.0" stroke-linejoin="round" stroke-linecap="round" d="M193.83887 253.85938Q193.83887 255.76562 193.18262 256.70312Q192.54199 257.625 191.15137 257.625Q189.79199 257.625 189.13574 256.71875Q188.47949 255.8125 188.44824 254.0L188.44824 252.5625Q188.44824 250.67188 189.08887 249.76562Q189.74512 248.84375 191.13574 248.84375Q192.51074 248.84375 193.16699 249.73438Q193.82324 250.60938 193.83887 252.45312L193.83887 253.85938ZM192.74512 252.375Q192.74512 251.0 192.35449 250.375Q191.97949 249.73438 191.13574 249.73438Q190.30762 249.73438 189.91699 250.375Q189.54199 251.0 189.54199 252.29688L189.54199 254.03125Q189.54199 255.40625 189.93262 256.07812Q190.33887 256.73438 191.15137 256.73438Q191.94824 256.73438 192.33887 256.10938Q192.72949 255.48438 192.74512 254.15625L192.74512 252.375ZM195.62012 256.9375Q195.62012 256.65625 195.77637 256.46875Q195.94824 256.28125 196.27637 256.28125Q196.62012 256.28125 196.79199 256.46875Q196.96387 256.65625 196.96387 256.9375Q196.96387 257.20312 196.79199 257.39062Q196.62012 257.5625 196.27637 257.5625Q195.94824 257.5625 195.77637 257.39062Q195.62012 257.20312 195.62012 256.9375ZM202.04199 257.5L200.96387 257.5L200.96387 250.28125L198.77637 251.07812L198.77637 250.09375L201.88574 248.92188L202.04199 248.92188L202.04199 257.5ZM210.05762 254.64062L211.24512 254.64062L211.24512 255.51562L210.05762 255.51562L210.05762 257.5L208.97949 257.5L208.97949 255.51562L205.08887 255.51562L205.08887 254.875L208.90137 248.96875L210.05762 248.96875L210.05762 254.64062ZM206.32324 254.64062L208.97949 254.64062L208.97949 250.45312L208.83887 250.6875L206.32324 254.64062ZM214.05762 252.70312L214.87012 252.70312Q215.65137 252.6875 216.08887 252.29688Q216.52637 251.90625 216.52637 251.23438Q216.52637 249.73438 215.02637 249.73438Q214.32324 249.73438 213.90137 250.14062Q213.49512 250.54688 213.49512 251.20312L212.40137 251.20312Q212.40137 250.1875 213.13574 249.51562Q213.88574 248.84375 215.02637 248.84375Q216.22949 248.84375 216.91699 249.48438Q217.60449 250.125 217.60449 251.26562Q217.60449 251.82812 217.24512 252.34375Q216.88574 252.85938 216.26074 253.125Q216.96387 253.34375 217.33887 253.85938Q217.72949 254.375 217.72949 255.125Q217.72949 256.26562 216.97949 256.95312Q216.22949 257.625 215.02637 257.625Q213.83887 257.625 213.07324 256.96875Q212.32324 256.3125 212.32324 255.25L213.41699 255.25Q213.41699 255.92188 213.85449 256.32812Q214.29199 256.73438 215.04199 256.73438Q215.82324 256.73438 216.22949 256.32812Q216.65137 255.90625 216.65137 255.14062Q216.65137 254.40625 216.19824 254.01562Q215.74512 253.60938 214.87012 253.59375L214.05762 253.59375L214.05762 252.70312ZM221.05762 252.70312L221.87012 252.70312Q222.65137 252.6875 223.08887 252.29688Q223.52637 251.90625 223.52637 251.23438Q223.52637 249.73438 222.02637 249.73438Q221.32324 249.73438 220.90137 250.14062Q220.49512 250.54688 220.49512 251.20312L219.40137 251.20312Q219.40137 250.1875 220.13574 249.51562Q220.88574 248.84375 222.02637 248.84375Q223.22949 248.84375 223.91699 249.48438Q224.60449 250.125 224.60449 251.26562Q224.60449 251.82812 224.24512 252.34375Q223.88574 252.85938 223.26074 253.125Q223.96387 253.34375 224.33887 253.85938Q224.72949 254.375 224.72949 255.125Q224.72949 256.26562 223.97949 256.95312Q223.22949 257.625 222.02637 257.625Q220.83887 257.625 220.07324 256.96875Q219.32324 256.3125 219.32324 255.25L220.41699 255.25Q220.41699 255.92188 220.85449 256.32812Q221.29199 256.73438 222.04199 256.73438Q222.82324 256.73438 223.22949 256.32812Q223.65137 255.90625 223.65137 255.14062Q223.65137 254.40625 223.19824 254.01562Q222.74512 253.60938 221.87012 253.59375L221.05762 253.59375L221.05762 252.70312ZM228.05762 252.70312L228.87012 252.70312Q229.65137 252.6875 230.08887 252.29688Q230.52637 251.90625 230.52637 251.23438Q230.52637 249.73438 229.02637 249.73438Q228.32324 249.73438 227.90137 250.14062Q227.49512 250.54688 227.49512 251.20312L226.40137 251.20312Q226.40137 250.1875 227.13574 249.51562Q227.88574 248.84375 229.02637 248.84375Q230.22949 248.84375 230.91699 249.48438Q231.60449 250.125 231.60449 251.26562Q231.60449 251.82812 231.24512 252.34375Q230.88574 252.85938 230.26074 253.125Q230.96387 253.34375 231.33887 253.85938Q231.72949 254.375 231.72949 255.125Q231.72949 256.26562 230.97949 256.95312Q230.22949 257.625 229.02637 257.625Q227.83887 257.625 227.07324 256.96875Q226.32324 256.3125 226.32324 255.25L227.41699 255.25Q227.41699 255.92188 227.85449 256.32812Q228.29199 256.73438 229.04199 256.73438Q229.82324 256.73438 230.22949 256.32812Q230.65137 255.90625 230.65137 255.14062Q230.65137 254.40625 230.19824 254.01562Q229.74512 253.60938 228.87012 253.59375L228.05762 253.59375L228.05762 252.70312Z" fill-rule="nonzero"/><path fill="#ffffff" d="M193.83887 253.85938Q193.83887 255.76562 193.18262 256.70312Q192.54199 257.625 191.15137 257.625Q189.79199 257.625 189.13574 256.71875Q188.47949 255.8125 188.44824 254.0L188.44824 252.5625Q188.44824 250.67188 189.08887 249.76562Q189.74512 248.84375 191.13574 248.84375Q192.51074 248.84375 193.16699 249.73438Q193.82324 250.60938 193.83887 252.45312L193.83887 253.85938ZM192.74512 252.375Q192.74512 251.0 192.35449 250.375Q191.97949 249.73438 191.13574 249.73438Q190.30762 249.73438 189.91699 250.375Q189.54199 251.0 189.54199 252.29688L189.54199 254.03125Q189.54199 255.40625 189.93262 256.07812Q190.33887 256.73438 191.15137 256.73438Q191.94824 256.73438 192.33887 256.10938Q192.72949 255.48438 192.74512 254.15625L192.74512 252.375ZM195.62012 256.9375Q195.62012 256.65625 195.77637 256.46875Q195.94824 256.28125 196.27637 256.28125Q196.62012 256.28125 196.79199 256.46875Q196.96387 256.65625 196.96387 256.9375Q196.96387 257.20312 196.79199 257.39062Q196.62012 257.5625 196.27637 257.5625Q195.94824 257.5625 195.77637 257.39062Q195.62012 257.20312 195.62012 256.9375ZM202.04199 257.5L200.96387 257.5L200.96387 250.28125L198.77637 251.07812L198.77637 250.09375L201.88574 248.92188L202.04199 248.92188L202.04199 257.5ZM210.05762 254.64062L211.24512 254.64062L211.24512 255.51562L210.05762 255.51562L210.05762 257.5L208.97949 257.5L208.97949 255.51562L205.08887 255.51562L205.08887 254.875L208.90137 248.96875L210.05762 248.96875L210.05762 254.64062ZM206.32324 254.64062L208.97949 254.64062L208.97949 250.45312L208.83887 250.6875L206.32324 254.64062ZM214.05762 252.70312L214.87012 252.70312Q215.65137 252.6875 216.08887 252.29688Q216.52637 251.90625 216.52637 251.23438Q216.52637 249.73438 215.02637 249.73438Q214.32324 249.73438 213.90137 250.14062Q213.49512 250.54688 213.49512 251.20312L212.40137 251.20312Q212.40137 250.1875 213.13574 249.51562Q213.88574 248.84375 215.02637 248.84375Q216.22949 248.84375 216.91699 249.48438Q217.60449 250.125 217.60449 251.26562Q217.60449 251.82812 217.24512 252.34375Q216.88574 252.85938 216.26074 253.125Q216.96387 253.34375 217.33887 253.85938Q217.72949 254.375 217.72949 255.125Q217.72949 256.26562 216.97949 256.95312Q216.22949 257.625 215.02637 257.625Q213.83887 257.625 213.07324 256.96875Q212.32324 256.3125 212.32324 255.25L213.41699 255.25Q213.41699 255.92188 213.85449 256.32812Q214.29199 256.73438 215.04199 256.73438Q215.82324 256.73438 216.22949 256.32812Q216.65137 255.90625 216.65137 255.14062Q216.65137 254.40625 216.19824 254.01562Q215.74512 253.60938 214.87012 253.59375L214.05762 253.59375L214.05762 252.70312ZM221.05762 252.70312L221.87012 252.70312Q222.65137 252.6875 223.08887 252.29688Q223.52637 251.90625 223.52637 251.23438Q223.52637 249.73438 222.02637 249.73438Q221.32324 249.73438 220.90137 250.14062Q220.49512 250.54688 220.49512 251.20312L219.40137 251.20312Q219.40137 250.1875 220.13574 249.51562Q220.88574 248.84375 222.02637 248.84375Q223.22949 248.84375 223.91699 249.48438Q224.60449 250.125 224.60449 251.26562Q224.60449 251.82812 224.24512 252.34375Q223.88574 252.85938 223.26074 253.125Q223.96387 253.34375 224.33887 253.85938Q224.72949 254.375 224.72949 255.125Q224.72949 256.26562 223.97949 256.95312Q223.22949 257.625 222.02637 257.625Q220.83887 257.625 220.07324 256.96875Q219.32324 256.3125 219.32324 255.25L220.41699 255.25Q220.41699 255.92188 220.85449 256.32812Q221.29199 256.73438 222.04199 256.73438Q222.82324 256.73438 223.22949 256.32812Q223.65137 255.90625 223.65137 255.14062Q223.65137 254.40625 223.19824 254.01562Q222.74512 253.60938 221.87012 253.59375L221.05762 253.59375L221.05762 252.70312ZM228.05762 252.70312L228.87012 252.70312Q229.65137 252.6875 230.08887 252.29688Q230.52637 251.90625 230.52637 251.23438Q230.52637 249.73438 229.02637 249.73438Q228.32324 249.73438 227.90137 250.14062Q227.49512 250.54688 227.49512 251.20312L226.40137 251.20312Q226.40137 250.1875 227.13574 249.51562Q227.88574 248.84375 229.02637 248.84375Q230.22949 248.84375 230.91699 249.48438Q231.60449 250.125 231.60449 251.26562Q231.60449 251.82812 231.24512 252.34375Q230.88574 252.85938 230.26074 253.125Q230.96387 253.34375 231.33887 253.85938Q231.72949 254.375 231.72949 255.125Q231.72949 256.26562 230.97949 256.95312Q230.22949 257.625 229.02637 257.625Q227.83887 257.625 227.07324 256.96875Q226.32324 256.3125 226.32324 255.25L227.41699 255.25Q227.41699 255.92188 227.85449 256.32812Q228.29199 256.73438 229.04199 256.73438Q229.82324 256.73438 230.22949 256.32812Q230.65137 255.90625 230.65137 255.14062Q230.65137 254.40625 230.19824 254.01562Q229.74512 253.60938 228.87012 253.59375L228.05762 253.59375L228.05762 252.70312Z" fill-rule="nonzero"/><path fill="#000000" d="M37.6125 135.61806L38.7375 135.91493Q38.378124 137.30556 37.45625 138.03993Q36.534374 138.7743 35.190624 138.7743Q33.8 138.7743 32.925 138.2118Q32.05 137.6493 31.596874 136.5868Q31.14375 135.50868 31.14375 134.2743Q31.14375 132.93056 31.659374 131.93056Q32.175 130.93056 33.1125 130.41493Q34.065624 129.8993 35.20625 129.8993Q36.4875 129.8993 37.3625 130.55556Q38.253124 131.2118 38.596874 132.3993L37.471874 132.66493Q37.175 131.72743 36.596874 131.30556Q36.034374 130.86806 35.175 130.86806Q34.190624 130.86806 33.51875 131.35243Q32.8625 131.82118 32.58125 132.61806Q32.315624 133.41493 32.315624 134.2743Q32.315624 135.36806 32.628124 136.18056Q32.95625 136.99306 33.628124 137.3993Q34.3 137.80556 35.096874 137.80556Q36.05 137.80556 36.70625 137.25868Q37.378124 136.7118 37.6125 135.61806Z" fill-rule="nonzero"/><path fill="#000000" d="M20.64375 256.73297L22.909374 253.4986L20.815624 250.51422L22.128124 250.51422L23.08125 251.96735Q23.346874 252.38922 23.51875 252.67047Q23.76875 252.27985 23.9875 251.98297L25.034374 250.51422L26.3 250.51422L24.14375 253.4361L26.45625 256.73297L25.175 256.73297L23.89375 254.79547L23.55 254.27985L21.909374 256.73297L20.64375 256.73297ZM31.51875 250.2486L30.471874 250.32672Q30.33125 249.70172 30.08125 249.42047Q29.64375 248.96735 29.01875 248.96735Q28.51875 248.96735 28.128124 249.2486Q27.64375 249.6236 27.346874 250.32672Q27.065624 251.01422 27.05 252.29547Q27.425 251.71735 27.971874 251.4361Q28.534374 251.15485 29.14375 251.15485Q30.190624 251.15485 30.925 251.9361Q31.675 252.71735 31.675 253.9361Q31.675 254.7486 31.315624 255.45172Q30.971874 256.13922 30.3625 256.51422Q29.753124 256.8736 28.9875 256.8736Q27.659374 256.8736 26.83125 255.90485Q26.003124 254.9361 26.003124 252.71735Q26.003124 250.21735 26.925 249.09235Q27.721874 248.10797 29.08125 248.10797Q30.096874 248.10797 30.7375 248.6861Q31.39375 249.2486 31.51875 250.2486ZM27.221874 253.95172Q27.221874 254.4986 27.440624 254.9986Q27.675 255.48297 28.08125 255.7486Q28.503124 256.01422 28.971874 256.01422Q29.628124 256.01422 30.1125 255.48297Q30.596874 254.9361 30.596874 254.01422Q30.596874 253.1236 30.1125 252.60797Q29.64375 252.09235 28.925 252.09235Q28.20625 252.09235 27.70625 252.60797Q27.221874 253.1236 27.221874 253.95172ZM36.425 256.73297L36.425 254.67047L32.70625 254.67047L32.70625 253.70172L36.628124 248.13922L37.4875 248.13922L37.4875 253.70172L38.64375 253.70172L38.64375 254.67047L37.4875 254.67047L37.4875 256.73297L36.425 256.73297ZM36.425 253.70172L36.425 249.84235L33.7375 253.70172L36.425 253.70172Z" fill-rule="nonzero"/><path fill="#000000" d="M37.55 345.21564Q37.55 343.6844 37.8625 342.7625Q38.175 341.825 38.784374 341.325Q39.409374 340.825 40.346874 340.825Q41.034374 340.825 41.55 341.10626Q42.08125 341.3875 42.425 341.91876Q42.76875 342.4344 42.95625 343.1844Q43.14375 343.9344 43.14375 345.21564Q43.14375 346.73126 42.83125 347.65314Q42.534374 348.575 41.909374 349.09064Q41.3 349.59064 40.346874 349.59064Q39.1125 349.59064 38.39375 348.7Q37.55 347.6375 37.55 345.21564ZM38.628124 345.21564Q38.628124 347.325 39.128124 348.02814Q39.628124 348.73126 40.346874 348.73126Q41.08125 348.73126 41.565624 348.02814Q42.065624 347.325 42.065624 345.21564Q42.065624 343.09064 41.565624 342.40314Q41.08125 341.7 40.33125 341.7Q39.6125 341.7 39.175 342.3094Q38.628124 343.09064 38.628124 345.21564ZM45.14375 349.45L45.14375 348.2469L46.346874 348.2469L46.346874 349.45L45.14375 349.45ZM47.55 345.21564Q47.55 343.6844 47.8625 342.7625Q48.175 341.825 48.784374 341.325Q49.409374 340.825 50.346874 340.825Q51.034374 340.825 51.55 341.10626Q52.08125 341.3875 52.425 341.91876Q52.76875 342.4344 52.95625 343.1844Q53.14375 343.9344 53.14375 345.21564Q53.14375 346.73126 52.83125 347.65314Q52.534374 348.575 51.909374 349.09064Q51.3 349.59064 50.346874 349.59064Q49.1125 349.59064 48.39375 348.7Q47.55 347.6375 47.55 345.21564ZM48.628124 345.21564Q48.628124 347.325 49.128124 348.02814Q49.628124 348.73126 50.346874 348.73126Q51.08125 348.73126 51.565624 348.02814Q52.065624 347.325 52.065624 345.21564Q52.065624 343.09064 51.565624 342.40314Q51.08125 341.7 50.33125 341.7Q49.6125 341.7 49.175 342.3094Q48.628124 343.09064 48.628124 345.21564Z" fill-rule="nonzero"/><path fill="#000000" d="M171.525 345.21564Q171.525 343.6844 171.8375 342.7625Q172.15 341.825 172.75937 341.325Q173.38437 340.825 174.32187 340.825Q175.00937 340.825 175.525 341.10626Q176.05624 341.3875 176.4 341.91876Q176.74374 342.4344 176.93124 343.1844Q177.11874 343.9344 177.11874 345.21564Q177.11874 346.73126 176.80624 347.65314Q176.50937 348.575 175.88437 349.09064Q175.275 349.59064 174.32187 349.59064Q173.0875 349.59064 172.36874 348.7Q171.525 347.6375 171.525 345.21564ZM172.60312 345.21564Q172.60312 347.325 173.10312 348.02814Q173.60312 348.73126 174.32187 348.73126Q175.05624 348.73126 175.54062 348.02814Q176.04062 347.325 176.04062 345.21564Q176.04062 343.09064 175.54062 342.40314Q175.05624 341.7 174.30624 341.7Q173.5875 341.7 173.15 342.3094Q172.60312 343.09064 172.60312 345.21564ZM179.11874 349.45L179.11874 348.2469L180.32187 348.2469L180.32187 349.45L179.11874 349.45ZM185.49374 349.45L184.44687 349.45L184.44687 342.73126Q184.05624 343.09064 183.43124 343.46564Q182.82187 343.825 182.3375 343.9969L182.3375 342.98126Q183.2125 342.5594 183.86874 341.98126Q184.54062 341.3875 184.82187 340.825L185.49374 340.825L185.49374 349.45Z" fill-rule="nonzero"/><path fill="#000000" d="M305.5 345.21564Q305.5 343.6844 305.8125 342.7625Q306.125 341.825 306.73438 341.325Q307.35938 340.825 308.29688 340.825Q308.98438 340.825 309.5 341.10626Q310.03125 341.3875 310.375 341.91876Q310.71875 342.4344 310.90625 343.1844Q311.09375 343.9344 311.09375 345.21564Q311.09375 346.73126 310.78125 347.65314Q310.48438 348.575 309.85938 349.09064Q309.25 349.59064 308.29688 349.59064Q307.0625 349.59064 306.34375 348.7Q305.5 347.6375 305.5 345.21564ZM306.57812 345.21564Q306.57812 347.325 307.07812 348.02814Q307.57812 348.73126 308.29688 348.73126Q309.03125 348.73126 309.51562 348.02814Q310.01562 347.325 310.01562 345.21564Q310.01562 343.09064 309.51562 342.40314Q309.03125 341.7 308.28125 341.7Q307.5625 341.7 307.125 342.3094Q306.57812 343.09064 306.57812 345.21564ZM313.09375 349.45L313.09375 348.2469L314.29688 348.2469L314.29688 349.45L313.09375 349.45ZM321.04688 348.4344L321.04688 349.45L315.35938 349.45Q315.35938 349.075 315.48438 348.71564Q315.70312 348.1375 316.17188 347.575Q316.65625 347.0125 317.5625 346.27814Q318.96875 345.1219 319.45312 344.45Q319.95312 343.77814 319.95312 343.1844Q319.95312 342.5594 319.5 342.1375Q319.04688 341.7 318.32812 341.7Q317.5625 341.7 317.10938 342.15314Q316.65625 342.60626 316.64062 343.41876L315.5625 343.3094Q315.67188 342.09064 316.39062 341.46564Q317.125 340.825 318.35938 340.825Q319.59375 340.825 320.3125 341.5125Q321.03125 342.2 321.03125 343.21564Q321.03125 343.73126 320.8125 344.23126Q320.60938 344.71564 320.10938 345.27814Q319.625 345.825 318.5 346.77814Q317.54688 347.575 317.26562 347.8719Q317.0 348.15314 316.82812 348.4344L321.04688 348.4344Z" fill-rule="nonzero"/><path fill="#000000" d="M439.475 345.21564Q439.475 343.6844 439.7875 342.7625Q440.1 341.825 440.70938 341.325Q441.33438 340.825 442.27188 340.825Q442.95938 340.825 443.475 341.10626Q444.00626 341.3875 444.35 341.91876Q444.69376 342.4344 444.88126 343.1844Q445.06876 343.9344 445.06876 345.21564Q445.06876 346.73126 444.75626 347.65314Q444.45938 348.575 443.83438 349.09064Q443.225 349.59064 442.27188 349.59064Q441.0375 349.59064 440.31876 348.7Q439.475 347.6375 439.475 345.21564ZM440.55313 345.21564Q440.55313 347.325 441.05313 348.02814Q441.55313 348.73126 442.27188 348.73126Q443.00626 348.73126 443.49063 348.02814Q443.99063 347.325 443.99063 345.21564Q443.99063 343.09064 443.49063 342.40314Q443.00626 341.7 442.25626 341.7Q441.5375 341.7 441.1 342.3094Q440.55313 343.09064 440.55313 345.21564ZM447.06876 349.45L447.06876 348.2469L448.27188 348.2469L448.27188 349.45L447.06876 349.45ZM449.475 347.1844L450.5375 347.04376Q450.70938 347.9344 451.14688 348.34064Q451.58438 348.73126 452.20938 348.73126Q452.95938 348.73126 453.475 348.21564Q453.99063 347.7 453.99063 346.9344Q453.99063 346.21564 453.50626 345.7469Q453.0375 345.2625 452.30313 345.2625Q452.00626 345.2625 451.55313 345.3875L451.67813 344.45Q451.7875 344.46564 451.85 344.46564Q452.52188 344.46564 453.05313 344.1219Q453.6 343.7625 453.6 343.02814Q453.6 342.45 453.20938 342.075Q452.81876 341.6844 452.19376 341.6844Q451.58438 341.6844 451.1625 342.075Q450.75626 342.46564 450.64688 343.23126L449.58438 343.04376Q449.77188 341.9969 450.45938 341.41876Q451.14688 340.825 452.1625 340.825Q452.86563 340.825 453.45938 341.1375Q454.05313 341.4344 454.36563 341.95Q454.67813 342.46564 454.67813 343.0594Q454.67813 343.60626 454.38126 344.075Q454.08438 344.52814 453.50626 344.79376Q454.25626 344.96564 454.67813 345.52814Q455.1 346.075 455.1 346.91876Q455.1 348.04376 454.27188 348.825Q453.45938 349.60626 452.20938 349.60626Q451.08438 349.60626 450.33438 348.9344Q449.58438 348.2469 449.475 347.1844Z" fill-rule="nonzero"/><path fill="#000000" d="M573.45 345.21564Q573.45 343.6844 573.7625 342.7625Q574.075 341.825 574.6844 341.325Q575.3094 340.825 576.2469 340.825Q576.9344 340.825 577.45 341.10626Q577.98126 341.3875 578.325 341.91876Q578.66876 342.4344 578.85626 343.1844Q579.04376 343.9344 579.04376 345.21564Q579.04376 346.73126 578.73126 347.65314Q578.4344 348.575 577.8094 349.09064Q577.2 349.59064 576.2469 349.59064Q575.0125 349.59064 574.29376 348.7Q573.45 347.6375 573.45 345.21564ZM574.52814 345.21564Q574.52814 347.325 575.02814 348.02814Q575.52814 348.73126 576.2469 348.73126Q576.98126 348.73126 577.46564 348.02814Q577.96564 347.325 577.96564 345.21564Q577.96564 343.09064 577.46564 342.40314Q576.98126 341.7 576.23126 341.7Q575.5125 341.7 575.075 342.3094Q574.52814 343.09064 574.52814 345.21564ZM581.04376 349.45L581.04376 348.2469L582.2469 348.2469L582.2469 349.45L581.04376 349.45ZM586.825 349.45L586.825 347.3875L583.10626 347.3875L583.10626 346.41876L587.02814 340.85626L587.8875 340.85626L587.8875 346.41876L589.04376 346.41876L589.04376 347.3875L587.8875 347.3875L587.8875 349.45L586.825 349.45ZM586.825 346.41876L586.825 342.5594L584.1375 346.41876L586.825 346.41876Z" fill-rule="nonzero"/><path fill="#757575" d="M18.51875 37.55L24.01875 23.2375L26.065624 23.2375L31.925 37.55L29.76875 37.55L28.096874 33.20625L22.1125 33.20625L20.534374 37.55L18.51875 37.55ZM22.659374 31.675L27.503124 31.675L26.01875 27.70625Q25.33125 25.89375 25.003124 24.7375Q24.721874 26.1125 24.221874 27.471874L22.659374 31.675ZM35.753124 37.55L31.8 27.175L33.659374 27.175L35.89375 33.39375Q36.253124 34.39375 36.55 35.471874Q36.784374 34.659374 37.20625 33.503124L39.503124 27.175L41.315624 27.175L37.39375 37.55L35.753124 37.55ZM48.971874 34.20625L50.784374 34.440624Q50.3625 36.01875 49.190624 36.909374Q48.034374 37.784374 46.221874 37.784374Q43.95625 37.784374 42.6125 36.39375Q41.284374 34.9875 41.284374 32.45625Q41.284374 29.83125 42.628124 28.39375Q43.971874 26.940624 46.128124 26.940624Q48.20625 26.940624 49.51875 28.3625Q50.846874 29.76875 50.846874 32.346874Q50.846874 32.503124 50.83125 32.815624L43.096874 32.815624Q43.190624 34.51875 44.065624 35.425Q44.940624 36.33125 46.2375 36.33125Q47.20625 36.33125 47.878124 35.83125Q48.565624 35.315624 48.971874 34.20625ZM43.190624 31.3625L48.9875 31.3625Q48.878124 30.065624 48.33125 29.409374Q47.4875 28.39375 46.14375 28.39375Q44.940624 28.39375 44.1125 29.20625Q43.284374 30.003124 43.190624 31.3625ZM52.846874 37.55L52.846874 27.175L54.425 27.175L54.425 28.753124Q55.034374 27.64375 55.55 27.3Q56.065624 26.940624 56.675 26.940624Q57.565624 26.940624 58.4875 27.503124L57.878124 29.14375Q57.2375 28.753124 56.596874 28.753124Q56.01875 28.753124 55.55 29.1125Q55.096874 29.45625 54.89375 30.065624Q54.6125 31.003124 54.6125 32.1125L54.6125 37.55L52.846874 37.55ZM66.64375 36.26875Q65.65938 37.096874 64.75313 37.440624Q63.846874 37.784374 62.815624 37.784374Q61.1125 37.784374 60.190624 36.95625Q59.26875 36.1125 59.26875 34.815624Q59.26875 34.05 59.6125 33.425Q59.971874 32.8 60.534374 32.425Q61.096874 32.034374 61.8 31.83125Q62.315624 31.70625 63.3625 31.565624Q65.4875 31.315624 66.4875 30.971874Q66.50313 30.6125 66.50313 30.503124Q66.50313 29.440624 66.00313 28.9875Q65.33125 28.39375 64.00313 28.39375Q62.753124 28.39375 62.159374 28.83125Q61.58125 29.26875 61.3 30.378124L59.58125 30.14375Q59.815624 29.034374 60.346874 28.3625Q60.878124 27.675 61.89375 27.315624Q62.909374 26.940624 64.25313 26.940624Q65.58125 26.940624 66.40938 27.253124Q67.2375 27.565624 67.62813 28.05Q68.01875 28.51875 68.175 29.2375Q68.26875 29.690624 68.26875 30.8625L68.26875 33.20625Q68.26875 35.659374 68.37813 36.315624Q68.4875 36.95625 68.83125 37.55L66.9875 37.55Q66.72188 37.003124 66.64375 36.26875ZM66.4875 32.346874Q65.53438 32.7375 63.6125 33.003124Q62.534374 33.159374 62.08125 33.3625Q61.64375 33.55 61.39375 33.925Q61.14375 34.3 61.14375 34.76875Q61.14375 35.471874 61.675 35.940624Q62.20625 36.409374 63.2375 36.409374Q64.25313 36.409374 65.03438 35.971874Q65.83125 35.51875 66.20625 34.753124Q66.4875 34.14375 66.4875 32.9875L66.4875 32.346874ZM70.55 38.409374L72.25313 38.659374Q72.3625 39.45625 72.84688 39.815624Q73.50313 40.3 74.64375 40.3Q75.8625 40.3 76.51875 39.815624Q77.19063 39.33125 77.425 38.45625Q77.56563 37.909374 77.55 36.190624Q76.39375 37.55 74.675 37.55Q72.53438 37.55 71.3625 36.003124Q70.19063 34.45625 70.19063 32.3Q70.19063 30.815624 70.72188 29.565624Q71.26875 28.315624 72.28438 27.628124Q73.31563 26.940624 74.69063 26.940624Q76.51875 26.940624 77.72188 28.425L77.72188 27.175L79.33125 27.175L79.33125 36.14375Q79.33125 38.565624 78.83125 39.565624Q78.34688 40.58125 77.26875 41.159374Q76.20625 41.753124 74.64375 41.753124Q72.8 41.753124 71.64375 40.925Q70.50313 40.096874 70.55 38.409374ZM72.00313 32.175Q72.00313 34.221874 72.81563 35.159374Q73.62813 36.096874 74.84688 36.096874Q76.05 36.096874 76.8625 35.159374Q77.69063 34.221874 77.69063 32.2375Q77.69063 30.33125 76.84688 29.3625Q76.00313 28.39375 74.81563 28.39375Q73.64375 28.39375 72.81563 29.346874Q72.00313 30.3 72.00313 32.175ZM88.97188 34.20625L90.78438 34.440624Q90.3625 36.01875 89.19063 36.909374Q88.03438 37.784374 86.22188 37.784374Q83.95625 37.784374 82.6125 36.39375Q81.28438 34.9875 81.28438 32.45625Q81.28438 29.83125 82.62813 28.39375Q83.97188 26.940624 86.12813 26.940624Q88.20625 26.940624 89.51875 28.3625Q90.84688 29.76875 90.84688 32.346874Q90.84688 32.503124 90.83125 32.815624L83.09688 32.815624Q83.19063 34.51875 84.06563 35.425Q84.94063 36.33125 86.2375 36.33125Q87.20625 36.33125 87.87813 35.83125Q88.56563 35.315624 88.97188 34.20625ZM83.19063 31.3625L88.9875 31.3625Q88.87813 30.065624 88.33125 29.409374Q87.4875 28.39375 86.14375 28.39375Q84.94063 28.39375 84.1125 29.20625Q83.28438 30.003124 83.19063 31.3625ZM102.7375 37.55L102.7375 24.925L98.01875 24.925L98.01875 23.2375L109.3625 23.2375L109.3625 24.925L104.62813 24.925L104.62813 37.55L102.7375 37.55ZM110.87813 25.253124L110.87813 23.2375L112.64375 23.2375L112.64375 25.253124L110.87813 25.253124ZM110.87813 37.55L110.87813 27.175L112.64375 27.175L112.64375 37.55L110.87813 37.55ZM114.8625 37.55L114.8625 27.175L116.44063 27.175L116.44063 28.628124Q116.925 27.878124 117.7375 27.409374Q118.55 26.940624 119.58125 26.940624Q120.7375 26.940624 121.47188 27.425Q122.20625 27.89375 122.51875 28.753124Q123.75313 26.940624 125.72188 26.940624Q127.26875 26.940624 128.09688 27.8Q128.925 28.659374 128.925 30.425L128.925 37.55L127.175 37.55L127.175 31.01875Q127.175 29.95625 127.00313 29.503124Q126.83125 29.034374 126.37813 28.753124Q125.94063 28.471874 125.33125 28.471874Q124.2375 28.471874 123.50313 29.20625Q122.78438 29.925 122.78438 31.51875L122.78438 37.55L121.03438 37.55L121.03438 30.815624Q121.03438 29.64375 120.59688 29.065624Q120.175 28.471874 119.19063 28.471874Q118.45625 28.471874 117.81563 28.8625Q117.19063 29.253124 116.90938 30.003124Q116.62813 30.753124 116.62813 32.175L116.62813 37.55L114.8625 37.55ZM137.97188 34.20625L139.78438 34.440624Q139.3625 36.01875 138.19063 36.909374Q137.03438 37.784374 135.22188 37.784374Q132.95625 37.784374 131.6125 36.39375Q130.28438 34.9875 130.28438 32.45625Q130.28438 29.83125 131.62813 28.39375Q132.97188 26.940624 135.12813 26.940624Q137.20625 26.940624 138.51875 28.3625Q139.84688 29.76875 139.84688 32.346874Q139.84688 32.503124 139.83125 32.815624L132.09688 32.815624Q132.19063 34.51875 133.06563 35.425Q133.94063 36.33125 135.2375 36.33125Q136.20625 36.33125 136.87813 35.83125Q137.56563 35.315624 137.97188 34.20625ZM132.19063 31.3625L137.9875 31.3625Q137.87813 30.065624 137.33125 29.409374Q136.4875 28.39375 135.14375 28.39375Q133.94063 28.39375 133.1125 29.20625Q132.28438 30.003124 132.19063 31.3625ZM141.15938 34.45625L142.90938 34.175Q143.05 35.221874 143.72188 35.784374Q144.39375 36.33125 145.59688 36.33125Q146.8 36.33125 147.37813 35.846874Q147.97188 35.346874 147.97188 34.690624Q147.97188 34.096874 147.45625 33.753124Q147.09688 33.51875 145.65938 33.159374Q143.72188 32.659374 142.97188 32.315624Q142.2375 31.95625 141.84688 31.33125Q141.45625 30.690624 141.45625 29.925Q141.45625 29.2375 141.76875 28.64375Q142.09688 28.05 142.64375 27.659374Q143.05 27.3625 143.75313 27.159374Q144.47188 26.940624 145.28438 26.940624Q146.50313 26.940624 147.425 27.3Q148.34688 27.64375 148.78438 28.253124Q149.22188 28.846874 149.39375 29.846874L147.675 30.08125Q147.55 29.284374 146.9875 28.846874Q146.425 28.39375 145.40938 28.39375Q144.19063 28.39375 143.675 28.8Q143.15938 29.190624 143.15938 29.721874Q143.15938 30.065624 143.37813 30.346874Q143.58125 30.628124 144.05 30.815624Q144.31563 30.909374 145.59688 31.253124Q147.47188 31.753124 148.20625 32.08125Q148.94063 32.39375 149.3625 33.003124Q149.78438 33.596874 149.78438 34.503124Q149.78438 35.378124 149.26875 36.159374Q148.75313 36.940624 147.78438 37.3625Q146.81563 37.784374 145.59688 37.784374Q143.58125 37.784374 142.51875 36.940624Q141.45625 36.096874 141.15938 34.45625ZM161.22188 41.753124Q159.76875 39.925 158.76875 37.471874Q157.76875 35.003124 157.76875 32.3625Q157.76875 30.034374 158.51875 27.909374Q159.39375 25.440624 161.22188 22.9875L162.4875 22.9875Q161.3 25.01875 160.925 25.89375Q160.33125 27.2375 159.9875 28.70625Q159.56563 30.534374 159.56563 32.378124Q159.56563 37.065624 162.4875 41.753124L161.22188 41.753124ZM164.8625 37.55L164.8625 27.175L166.45625 27.175L166.45625 28.659374Q167.59688 26.940624 169.75313 26.940624Q170.69063 26.940624 171.47188 27.284374Q172.26875 27.6125 172.65938 28.159374Q173.05 28.70625 173.20625 29.45625Q173.3 29.95625 173.3 31.175L173.3 37.55L171.53438 37.55L171.53438 31.2375Q171.53438 30.159374 171.33125 29.628124Q171.12813 29.096874 170.59688 28.784374Q170.08125 28.471874 169.37813 28.471874Q168.25313 28.471874 167.44063 29.190624Q166.62813 29.89375 166.62813 31.878124L166.62813 37.55L164.8625 37.55ZM190.1125 29.128124L180.65938 29.128124L180.65938 27.4875L190.1125 27.4875L190.1125 29.128124ZM190.1125 33.471874L180.65938 33.471874L180.65938 31.83125L190.1125 31.83125L190.1125 33.471874ZM207.6125 35.8625L207.6125 37.55L198.15938 37.55Q198.14375 36.909374 198.3625 36.33125Q198.72188 35.3625 199.51875 34.425Q200.31563 33.4875 201.81563 32.253124Q204.15938 30.346874 204.97188 29.2375Q205.8 28.1125 205.8 27.1125Q205.8 26.065624 205.05 25.346874Q204.3 24.628124 203.09688 24.628124Q201.83125 24.628124 201.06563 25.39375Q200.3 26.159374 200.3 27.503124L198.4875 27.315624Q198.675 25.3 199.87813 24.2375Q201.09688 23.175 203.14375 23.175Q205.19063 23.175 206.39375 24.315624Q207.59688 25.45625 207.59688 27.14375Q207.59688 28.003124 207.2375 28.846874Q206.89375 29.675 206.08125 30.596874Q205.26875 31.503124 203.37813 33.1125Q201.78438 34.440624 201.33125 34.909374Q200.89375 35.378124 200.59688 35.8625L207.6125 35.8625ZM210.87813 30.815624L209.08125 30.815624L212.51875 22.9875L213.94063 22.9875L217.40938 30.815624L215.64375 30.815624L213.22188 24.9875L210.87813 30.815624ZM226.6125 35.8625L226.6125 37.55L217.15938 37.55Q217.14375 36.909374 217.3625 36.33125Q217.72188 35.3625 218.51875 34.425Q219.31563 33.4875 220.81563 32.253124Q223.15938 30.346874 223.97188 29.2375Q224.8 28.1125 224.8 27.1125Q224.8 26.065624 224.05 25.346874Q223.3 24.628124 222.09688 24.628124Q220.83125 24.628124 220.06563 25.39375Q219.3 26.159374 219.3 27.503124L217.4875 27.315624Q217.675 25.3 218.87813 24.2375Q220.09688 23.175 222.14375 23.175Q224.19063 23.175 225.39375 24.315624Q226.59688 25.45625 226.59688 27.14375Q226.59688 28.003124 226.2375 28.846874Q225.89375 29.675 225.08125 30.596874Q224.26875 31.503124 222.37813 33.1125Q220.78438 34.440624 220.33125 34.909374Q219.89375 35.378124 219.59688 35.8625L226.6125 35.8625ZM228.50313 25.1125L228.50313 23.425L237.76875 23.425L237.76875 24.784374Q236.39375 26.2375 235.05 28.659374Q233.70625 31.065624 232.9875 33.6125Q232.45625 35.409374 232.3 37.55L230.50313 37.55Q230.53438 35.8625 231.15938 33.471874Q231.8 31.08125 232.9875 28.8625Q234.175 26.628124 235.50313 25.1125L228.50313 25.1125ZM240.33125 37.55L240.33125 35.55L242.33125 35.55L242.33125 37.55Q242.33125 38.659374 241.94063 39.33125Q241.55 40.01875 240.70625 40.378124L240.20625 39.628124Q240.76875 39.39375 241.03438 38.909374Q241.3 38.440624 241.33125 37.55L240.33125 37.55ZM252.09688 37.55L252.09688 23.2375L257.01874 23.2375Q258.6906 23.2375 259.58124 23.440624Q260.8 23.721874 261.675 24.45625Q262.8 25.425 263.3625 26.909374Q263.925 28.39375 263.925 30.315624Q263.925 31.940624 263.55 33.20625Q263.175 34.45625 262.5656 35.284374Q261.97186 36.1125 261.26874 36.596874Q260.5656 37.065624 259.5656 37.315624Q258.5656 37.55 257.2531 37.55L252.09688 37.55ZM253.9875 35.8625L257.05 35.8625Q258.45624 35.8625 259.2531 35.596874Q260.0656 35.33125 260.55 34.846874Q261.22186 34.175 261.59686 33.05Q261.97186 31.909374 261.97186 30.284374Q261.97186 28.034374 261.2375 26.83125Q260.5031 25.628124 259.4406 25.221874Q258.6906 24.925 257.0031 24.925L253.9875 24.925L253.9875 35.8625ZM272.97186 34.20625L274.78436 34.440624Q274.3625 36.01875 273.1906 36.909374Q272.03436 37.784374 270.22186 37.784374Q267.95624 37.784374 266.6125 36.39375Q265.28436 34.9875 265.28436 32.45625Q265.28436 29.83125 266.6281 28.39375Q267.97186 26.940624 270.1281 26.940624Q272.20624 26.940624 273.51874 28.3625Q274.84686 29.76875 274.84686 32.346874Q274.84686 32.503124 274.83124 32.815624L267.09686 32.815624Q267.1906 34.51875 268.0656 35.425Q268.9406 36.33125 270.2375 36.33125Q271.20624 36.33125 271.8781 35.83125Q272.5656 35.315624 272.97186 34.20625ZM267.1906 31.3625L272.9875 31.3625Q272.8781 30.065624 272.33124 29.409374Q271.4875 28.39375 270.14374 28.39375Q268.9406 28.39375 268.1125 29.20625Q267.28436 30.003124 267.1906 31.3625ZM278.4875 37.55L276.8625 37.55L276.8625 23.2375L278.6125 23.2375L278.6125 28.346874Q279.7375 26.940624 281.45624 26.940624Q282.40936 26.940624 283.26874 27.33125Q284.1281 27.721874 284.675 28.425Q285.22186 29.1125 285.53436 30.096874Q285.84686 31.08125 285.84686 32.20625Q285.84686 34.878124 284.53436 36.33125Q283.22186 37.784374 281.3781 37.784374Q279.53436 37.784374 278.4875 36.253124L278.4875 37.55ZM278.47186 32.284374Q278.47186 34.14375 278.97186 34.9875Q279.8156 36.33125 281.22186 36.33125Q282.3781 36.33125 283.20624 35.33125Q284.05 34.33125 284.05 32.346874Q284.05 30.315624 283.2375 29.3625Q282.4406 28.39375 281.3 28.39375Q280.14374 28.39375 279.3 29.39375Q278.47186 30.39375 278.47186 32.284374ZM294.65936 37.55L294.65936 36.01875Q293.45624 37.784374 291.3781 37.784374Q290.45624 37.784374 289.65936 37.440624Q288.8625 37.08125 288.47186 36.55Q288.09686 36.01875 287.9406 35.2375Q287.83124 34.721874 287.83124 33.596874L287.83124 27.175L289.58124 27.175L289.58124 32.925Q289.58124 34.3 289.6906 34.784374Q289.8625 35.471874 290.39374 35.878124Q290.9406 36.26875 291.72186 36.26875Q292.51874 36.26875 293.20624 35.8625Q293.90936 35.45625 294.1906 34.76875Q294.4875 34.065624 294.4875 32.7375L294.4875 27.175L296.2375 27.175L296.2375 37.55L294.65936 37.55ZM297.55 38.409374L299.2531 38.659374Q299.3625 39.45625 299.84686 39.815624Q300.5031 40.3 301.64374 40.3Q302.8625 40.3 303.51874 39.815624Q304.1906 39.33125 304.425 38.45625Q304.5656 37.909374 304.55 36.190624Q303.39374 37.55 301.675 37.55Q299.53436 37.55 298.3625 36.003124Q297.1906 34.45625 297.1906 32.3Q297.1906 30.815624 297.72186 29.565624Q298.26874 28.315624 299.28436 27.628124Q300.3156 26.940624 301.6906 26.940624Q303.51874 26.940624 304.72186 28.425L304.72186 27.175L306.33124 27.175L306.33124 36.14375Q306.33124 38.565624 305.83124 39.565624Q305.34686 40.58125 304.26874 41.159374Q303.20624 41.753124 301.64374 41.753124Q299.8 41.753124 298.64374 40.925Q297.5031 40.096874 297.55 38.409374ZM299.0031 32.175Q299.0031 34.221874 299.8156 35.159374Q300.6281 36.096874 301.84686 36.096874Q303.05 36.096874 303.8625 35.159374Q304.6906 34.221874 304.6906 32.2375Q304.6906 30.33125 303.84686 29.3625Q303.0031 28.39375 301.8156 28.39375Q300.64374 28.39375 299.8156 29.346874Q299.0031 30.3 299.0031 32.175ZM310.01874 41.753124L308.76874 41.753124Q311.675 37.065624 311.675 32.378124Q311.675 30.534374 311.26874 28.7375Q310.925 27.26875 310.33124 25.925Q309.95624 25.034374 308.76874 22.9875L310.01874 22.9875Q311.8625 25.440624 312.7375 27.909374Q313.4875 30.034374 313.4875 32.3625Q313.4875 35.003124 312.47186 37.471874Q311.47186 39.925 310.01874 41.753124Z" fill-rule="nonzero"/></svg>