<svg version="1.1" viewBox="0.0 0.0 600.0 371.0" fill="none" stroke="none" stroke-linecap="square" stroke-miterlimit="10" width="600" height="371" xmlns:xlink="http://www.w3.org/1999/xlink" xmlns="http://www.w3.org/2000/svg"><path fill="#ffffff" d="M0 0L600.0 0L600.0 371.0L0 371.0L0 0Z" fill-rule="nonzero"/><path stroke="#333333" stroke-width="1.0" stroke-linecap="butt" d="M45.5 54.5L45.5 332.5" fill-rule="nonzero"/><path stroke="#cccccc" stroke-width="1.0" stroke-linecap="butt" d="M224.5 54.5L224.5 332.5" fill-rule="nonzero"/><path stroke="#cccccc" stroke-width="1.0" stroke-linecap="butt" d="M402.5 54.5L402.5 332.5" fill-rule="nonzero"/><path stroke="#cccccc" stroke-width="1.0" stroke-linecap="butt" d="M581.5 54.5L581.5 332.5" fill-rule="nonzero"/><clipPath id="id_0"><path d="M45.55 54.916668L581.45 54.916668L581.45 332.45L45.55 332.45L45.55 54.916668Z" clip-rule="nonzero"/></clipPath><path stroke="#000000" stroke-width="2.0" stroke-linecap="butt" stroke-opacity="0.0" clip-path="url(#id_0)" d="M46.0 174.0L46.0 97.0L506.0 97.0C507.10458 97.0 508.0 97.89543 508.0 99.0L508.0 172.0C508.0 173.10457 507.10458 174.0 506.0 174.0Z" fill-rule="nonzero"/><path fill="#4285f4" clip-path="url(#id_0)" d="M46.0 174.0L46.0 97.0L506.0 97.0C507.10458 97.0 508.0 97.89543 508.0 99.0L508.0 172.0C508.0 173.10457 507.10458 174.0 506.0 174.0Z" fill-rule="nonzero"/><path stroke="#000000" stroke-width="2.0" stroke-linecap="butt" stroke-opacity="0.0" clip-path="url(#id_0)" d="M46.0 292.0L46.0 215.0L299.0 215.0C300.10458 215.0 301.0 215.89543 301.0 217.0L301.0 290.0C301.0 291.10458 300.10458 292.0 299.0 292.0Z" fill-rule="nonzero"/><path fill="#4285f4" clip-path="url(#id_0)" d="M46.0 292.0L46.0 215.0L299.0 215.0C300.10458 215.0 301.0 215.89543 301.0 217.0L301.0 290.0C301.0 291.10458 300.10458 292.0 299.0 292.0Z" fill-rule="nonzero"/><path stroke="#4285f4" stroke-width="3.0" stroke-linejoin="round" stroke-linecap="round" d="M464.47284 135.85938Q464.47284 137.76562 463.8166 138.70312Q463.17596 139.625 461.78534 139.625Q460.42596 139.625 459.7697 138.71875Q459.11346 137.8125 459.0822 136.0L459.0822 134.5625Q459.0822 132.67188 459.72284 131.76562Q460.3791 130.84375 461.7697 130.84375Q463.1447 130.84375 463.80096 131.73438Q464.4572 132.60938 464.47284 134.45312L464.47284 135.85938ZM463.3791 134.375Q463.3791 133.0 462.98846 132.375Q462.61346 131.73438 461.7697 131.73438Q460.9416 131.73438 460.55096 132.375Q460.17596 133.0 460.17596 134.29688L460.17596 136.03125Q460.17596 137.40625 460.5666 138.07812Q460.97284 138.73438 461.78534 138.73438Q462.5822 138.73438 462.97284 138.10938Q463.36346 137.48438 463.3791 136.15625L463.3791 134.375ZM466.2541 138.9375Q466.2541 138.65625 466.41034 138.46875Q466.5822 138.28125 466.91034 138.28125Q467.2541 138.28125 467.42596 138.46875Q467.59784 138.65625 467.59784 138.9375Q467.59784 139.20312 467.42596 139.39062Q467.2541 139.5625 466.91034 139.5625Q466.5822 139.5625 466.41034 139.39062Q466.2541 139.20312 466.2541 138.9375ZM474.47284 135.85938Q474.47284 137.76562 473.8166 138.70312Q473.17596 139.625 471.78534 139.625Q470.42596 139.625 469.7697 138.71875Q469.11346 137.8125 469.0822 136.0L469.0822 134.5625Q469.0822 132.67188 469.72284 131.76562Q470.3791 130.84375 471.7697 130.84375Q473.1447 130.84375 473.80096 131.73438Q474.4572 132.60938 474.47284 134.45312L474.47284 135.85938ZM473.3791 134.375Q473.3791 133.0 472.98846 132.375Q472.61346 131.73438 471.7697 131.73438Q470.9416 131.73438 470.55096 132.375Q470.17596 133.0 470.17596 134.29688L470.17596 136.03125Q470.17596 137.40625 470.5666 138.07812Q470.97284 138.73438 471.78534 138.73438Q472.5822 138.73438 472.97284 138.10938Q473.36346 137.48438 473.3791 136.15625L473.3791 134.375ZM481.47284 135.85938Q481.47284 137.76562 480.8166 138.70312Q480.17596 139.625 478.78534 139.625Q477.42596 139.625 476.7697 138.71875Q476.11346 137.8125 476.0822 136.0L476.0822 134.5625Q476.0822 132.67188 476.72284 131.76562Q477.3791 130.84375 478.7697 130.84375Q480.1447 130.84375 480.80096 131.73438Q481.4572 132.60938 481.47284 134.45312L481.47284 135.85938ZM480.3791 134.375Q480.3791 133.0 479.98846 132.375Q479.61346 131.73438 478.7697 131.73438Q477.9416 131.73438 477.55096 132.375Q477.17596 133.0 477.17596 134.29688L477.17596 136.03125Q477.17596 137.40625 477.5666 138.07812Q477.97284 138.73438 478.78534 138.73438Q479.5822 138.73438 479.97284 138.10938Q480.36346 137.48438 480.3791 136.15625L480.3791 134.375ZM488.7072 139.5L483.11346 139.5L483.11346 138.71875L486.0666 135.4375Q486.72284 134.6875 486.97284 134.23438Q487.22284 133.76562 487.22284 133.26562Q487.22284 132.59375 486.8166 132.17188Q486.42596 131.73438 485.73846 131.73438Q484.9416 131.73438 484.48846 132.20312Q484.03534 132.65625 484.03534 133.48438L482.9572 133.48438Q482.9572 132.29688 483.7072 131.57812Q484.47284 130.84375 485.73846 130.84375Q486.9416 130.84375 487.6291 131.46875Q488.3166 132.09375 488.3166 133.14062Q488.3166 134.39062 486.7072 136.14062L484.42596 138.60938L488.7072 138.60938L488.7072 139.5ZM490.61346 135.21875L491.05096 130.96875L495.42596 130.96875L495.42596 131.96875L491.97284 131.96875L491.7072 134.29688Q492.34784 133.92188 493.1447 133.92188Q494.30096 133.92188 494.98846 134.70312Q495.67596 135.46875 495.67596 136.78125Q495.67596 138.09375 494.9572 138.85938Q494.2541 139.625 492.97284 139.625Q491.84784 139.625 491.1291 139.0Q490.41034 138.35938 490.3166 137.25L491.3322 137.25Q491.4416 137.98438 491.86346 138.35938Q492.28534 138.73438 492.97284 138.73438Q493.72284 138.73438 494.16034 138.21875Q494.59784 137.70312 494.59784 136.79688Q494.59784 135.9375 494.1291 135.42188Q493.66034 134.90625 492.8791 134.90625Q492.17596 134.90625 491.7697 135.20312L491.48846 135.4375L490.61346 135.21875ZM501.2697 135.75Q500.9416 136.15625 500.4572 136.40625Q499.98846 136.64062 499.42596 136.64062Q498.6916 136.64062 498.1447 136.28125Q497.59784 135.92188 497.30096 135.26562Q497.0041 134.59375 497.0041 133.79688Q497.0041 132.95312 497.3166 132.26562Q497.6447 131.57812 498.23846 131.21875Q498.84784 130.84375 499.6447 130.84375Q500.91034 130.84375 501.6291 131.79688Q502.36346 132.75 502.36346 134.375L502.36346 134.6875Q502.36346 137.1875 501.3791 138.32812Q500.3947 139.46875 498.41034 139.5L498.1916 139.5L498.1916 138.59375L498.42596 138.59375Q499.7697 138.5625 500.48846 137.89062Q501.2072 137.21875 501.2697 135.75ZM499.59784 135.75Q500.1447 135.75 500.59784 135.42188Q501.0666 135.07812 501.28534 134.59375L501.28534 134.15625Q501.28534 133.09375 500.8166 132.42188Q500.34784 131.75 499.6447 131.75Q498.92596 131.75 498.48846 132.29688Q498.0666 132.84375 498.0666 133.75Q498.0666 134.625 498.47284 135.1875Q498.8947 135.75 499.59784 135.75Z" fill-rule="nonzero"/><path fill="#ffffff" d="M464.47284 135.85938Q464.47284 137.76562 463.8166 138.70312Q463.17596 139.625 461.78534 139.625Q460.42596 139.625 459.7697 138.71875Q459.11346 137.8125 459.0822 136.0L459.0822 134.5625Q459.0822 132.67188 459.72284 131.76562Q460.3791 130.84375 461.7697 130.84375Q463.1447 130.84375 463.80096 131.73438Q464.4572 132.60938 464.47284 134.45312L464.47284 135.85938ZM463.3791 134.375Q463.3791 133.0 462.98846 132.375Q462.61346 131.73438 461.7697 131.73438Q460.9416 131.73438 460.55096 132.375Q460.17596 133.0 460.17596 134.29688L460.17596 136.03125Q460.17596 137.40625 460.5666 138.07812Q460.97284 138.73438 461.78534 138.73438Q462.5822 138.73438 462.97284 138.10938Q463.36346 137.48438 463.3791 136.15625L463.3791 134.375ZM466.2541 138.9375Q466.2541 138.65625 466.41034 138.46875Q466.5822 138.28125 466.91034 138.28125Q467.2541 138.28125 467.42596 138.46875Q467.59784 138.65625 467.59784 138.9375Q467.59784 139.20312 467.42596 139.39062Q467.2541 139.5625 466.91034 139.5625Q466.5822 139.5625 466.41034 139.39062Q466.2541 139.20312 466.2541 138.9375ZM474.47284 135.85938Q474.47284 137.76562 473.8166 138.70312Q473.17596 139.625 471.78534 139.625Q470.42596 139.625 469.7697 138.71875Q469.11346 137.8125 469.0822 136.0L469.0822 134.5625Q469.0822 132.67188 469.72284 131.76562Q470.3791 130.84375 471.7697 130.84375Q473.1447 130.84375 473.80096 131.73438Q474.4572 132.60938 474.47284 134.45312L474.47284 135.85938ZM473.3791 134.375Q473.3791 133.0 472.98846 132.375Q472.61346 131.73438 471.7697 131.73438Q470.9416 131.73438 470.55096 132.375Q470.17596 133.0 470.17596 134.29688L470.17596 136.03125Q470.17596 137.40625 470.5666 138.07812Q470.97284 138.73438 471.78534 138.73438Q472.5822 138.73438 472.97284 138.10938Q473.36346 137.48438 473.3791 136.15625L473.3791 134.375ZM481.47284 135.85938Q481.47284 137.76562 480.8166 138.70312Q480.17596 139.625 478.78534 139.625Q477.42596 139.625 476.7697 138.71875Q476.11346 137.8125 476.0822 136.0L476.0822 134.5625Q476.0822 132.67188 476.72284 131.76562Q477.3791 130.84375 478.7697 130.84375Q480.1447 130.84375 480.80096 131.73438Q481.4572 132.60938 481.47284 134.45312L481.47284 135.85938ZM480.3791 134.375Q480.3791 133.0 479.98846 132.375Q479.61346 131.73438 478.7697 131.73438Q477.9416 131.73438 477.55096 132.375Q477.17596 133.0 477.17596 134.29688L477.17596 136.03125Q477.17596 137.40625 477.5666 138.07812Q477.97284 138.73438 478.78534 138.73438Q479.5822 138.73438 479.97284 138.10938Q480.36346 137.48438 480.3791 136.15625L480.3791 134.375ZM488.7072 139.5L483.11346 139.5L483.11346 138.71875L486.0666 135.4375Q486.72284 134.6875 486.97284 134.23438Q487.22284 133.76562 487.22284 133.26562Q487.22284 132.59375 486.8166 132.17188Q486.42596 131.73438 485.73846 131.73438Q484.9416 131.73438 484.48846 132.20312Q484.03534 132.65625 484.03534 133.48438L482.9572 133.48438Q482.9572 132.29688 483.7072 131.57812Q484.47284 130.84375 485.73846 130.84375Q486.9416 130.84375 487.6291 131.46875Q488.3166 132.09375 488.3166 133.14062Q488.3166 134.39062 486.7072 136.14062L484.42596 138.60938L488.7072 138.60938L488.7072 139.5ZM490.61346 135.21875L491.05096 130.96875L495.42596 130.96875L495.42596 131.96875L491.97284 131.96875L491.7072 134.29688Q492.34784 133.92188 493.1447 133.92188Q494.30096 133.92188 494.98846 134.70312Q495.67596 135.46875 495.67596 136.78125Q495.67596 138.09375 494.9572 138.85938Q494.2541 139.625 492.97284 139.625Q491.84784 139.625 491.1291 139.0Q490.41034 138.35938 490.3166 137.25L491.3322 137.25Q491.4416 137.98438 491.86346 138.35938Q492.28534 138.73438 492.97284 138.73438Q493.72284 138.73438 494.16034 138.21875Q494.59784 137.70312 494.59784 136.79688Q494.59784 135.9375 494.1291 135.42188Q493.66034 134.90625 492.8791 134.90625Q492.17596 134.90625 491.7697 135.20312L491.48846 135.4375L490.61346 135.21875ZM501.2697 135.75Q500.9416 136.15625 500.4572 136.40625Q499.98846 136.64062 499.42596 136.64062Q498.6916 136.64062 498.1447 136.28125Q497.59784 135.92188 497.30096 135.26562Q497.0041 134.59375 497.0041 133.79688Q497.0041 132.95312 497.3166 132.26562Q497.6447 131.57812 498.23846 131.21875Q498.84784 130.84375 499.6447 130.84375Q500.91034 130.84375 501.6291 131.79688Q502.36346 132.75 502.36346 134.375L502.36346 134.6875Q502.36346 137.1875 501.3791 138.32812Q500.3947 139.46875 498.41034 139.5L498.1916 139.5L498.1916 138.59375L498.42596 138.59375Q499.7697 138.5625 500.48846 137.89062Q501.2072 137.21875 501.2697 135.75ZM499.59784 135.75Q500.1447 135.75 500.59784 135.42188Q501.0666 135.07812 501.28534 134.59375L501.28534 134.15625Q501.28534 133.09375 500.8166 132.42188Q500.34784 131.75 499.6447 131.75Q498.92596 131.75 498.48846 132.29688Q498.0666 132.84375 498.0666 133.75Q498.0666 134.625 498.47284 135.1875Q498.8947 135.75 499.59784 135.75Z" fill-rule="nonzero"/><path stroke="#4285f4" stroke-width="3.0" stroke-linejoin="round" stroke-linecap="round" d="M257.25818 253.85938Q257.25818 255.76562 256.60193 256.70312Q255.96129 257.625 254.57066 257.625Q253.21129 257.625 252.55504 256.71875Q251.89879 255.8125 251.86754 254.0L251.86754 252.5625Q251.86754 250.67188 252.50816 249.76562Q253.16441 248.84375 254.55504 248.84375Q255.93004 248.84375 256.5863 249.73438Q257.24255 250.60938 257.25818 252.45312L257.25818 253.85938ZM256.16443 252.375Q256.16443 251.0 255.77379 250.375Q255.39879 249.73438 254.55504 249.73438Q253.72691 249.73438 253.33629 250.375Q252.96129 251.0 252.96129 252.29688L252.96129 254.03125Q252.96129 255.40625 253.35191 256.07812Q253.75816 256.73438 254.57066 256.73438Q255.36754 256.73438 255.75816 256.10938Q256.1488 255.48438 256.16443 254.15625L256.16443 252.375ZM259.03943 256.9375Q259.03943 256.65625 259.19568 256.46875Q259.36755 256.28125 259.69568 256.28125Q260.03943 256.28125 260.2113 256.46875Q260.38318 256.65625 260.38318 256.9375Q260.38318 257.20312 260.2113 257.39062Q260.03943 257.5625 259.69568 257.5625Q259.36755 257.5625 259.19568 257.39062Q259.03943 257.20312 259.03943 256.9375ZM267.25818 253.85938Q267.25818 255.76562 266.60193 256.70312Q265.9613 257.625 264.57068 257.625Q263.2113 257.625 262.55505 256.71875Q261.8988 255.8125 261.86755 254.0L261.86755 252.5625Q261.86755 250.67188 262.50818 249.76562Q263.16443 248.84375 264.55505 248.84375Q265.93005 248.84375 266.5863 249.73438Q267.24255 250.60938 267.25818 252.45312L267.25818 253.85938ZM266.16443 252.375Q266.16443 251.0 265.7738 250.375Q265.3988 249.73438 264.55505 249.73438Q263.72693 249.73438 263.3363 250.375Q262.9613 251.0 262.9613 252.29688L262.9613 254.03125Q262.9613 255.40625 263.35193 256.07812Q263.75818 256.73438 264.57068 256.73438Q265.36755 256.73438 265.75818 256.10938Q266.1488 255.48438 266.16443 254.15625L266.16443 252.375ZM274.25818 253.85938Q274.25818 255.76562 273.60193 256.70312Q272.9613 257.625 271.57068 257.625Q270.2113 257.625 269.55505 256.71875Q268.8988 255.8125 268.86755 254.0L268.86755 252.5625Q268.86755 250.67188 269.50818 249.76562Q270.16443 248.84375 271.55505 248.84375Q272.93005 248.84375 273.5863 249.73438Q274.24255 250.60938 274.25818 252.45312L274.25818 253.85938ZM273.16443 252.375Q273.16443 251.0 272.7738 250.375Q272.3988 249.73438 271.55505 249.73438Q270.72693 249.73438 270.3363 250.375Q269.9613 251.0 269.9613 252.29688L269.9613 254.03125Q269.9613 255.40625 270.35193 256.07812Q270.75818 256.73438 271.57068 256.73438Q272.36755 256.73438 272.75818 256.10938Q273.1488 255.48438 273.16443 254.15625L273.16443 252.375ZM279.4613 257.5L278.38318 257.5L278.38318 250.28125L276.19568 251.07812L276.19568 250.09375L279.30505 248.92188L279.4613 248.92188L279.4613 257.5ZM287.47693 254.64062L288.66443 254.64062L288.66443 255.51562L287.47693 255.51562L287.47693 257.5L286.3988 257.5L286.3988 255.51562L282.50818 255.51562L282.50818 254.875L286.32068 248.96875L287.47693 248.96875L287.47693 254.64062ZM283.74255 254.64062L286.3988 254.64062L286.3988 250.45312L286.25818 250.6875L283.74255 254.64062ZM291.47693 252.70312L292.28943 252.70312Q293.07068 252.6875 293.50818 252.29688Q293.94568 251.90625 293.94568 251.23438Q293.94568 249.73438 292.44568 249.73438Q291.74255 249.73438 291.32068 250.14062Q290.91443 250.54688 290.91443 251.20312L289.82068 251.20312Q289.82068 250.1875 290.55505 249.51562Q291.30505 248.84375 292.44568 248.84375Q293.6488 248.84375 294.3363 249.48438Q295.0238 250.125 295.0238 251.26562Q295.0238 251.82812 294.66443 252.34375Q294.30505 252.85938 293.68005 253.125Q294.38318 253.34375 294.75818 253.85938Q295.1488 254.375 295.1488 255.125Q295.1488 256.26562 294.3988 256.95312Q293.6488 257.625 292.44568 257.625Q291.25818 257.625 290.49255 256.96875Q289.74255 256.3125 289.74255 255.25L290.8363 255.25Q290.8363 255.92188 291.2738 256.32812Q291.7113 256.73438 292.4613 256.73438Q293.24255 256.73438 293.6488 256.32812Q294.07068 255.90625 294.07068 255.14062Q294.07068 254.40625 293.61755 254.01562Q293.16443 253.60938 292.28943 253.59375L291.47693 253.59375L291.47693 252.70312Z" fill-rule="nonzero"/><path fill="#ffffff" d="M257.25818 253.85938Q257.25818 255.76562 256.60193 256.70312Q255.96129 257.625 254.57066 257.625Q253.21129 257.625 252.55504 256.71875Q251.89879 255.8125 251.86754 254.0L251.86754 252.5625Q251.86754 250.67188 252.50816 249.76562Q253.16441 248.84375 254.55504 248.84375Q255.93004 248.84375 256.5863 249.73438Q257.24255 250.60938 257.25818 252.45312L257.25818 253.85938ZM256.16443 252.375Q256.16443 251.0 255.77379 250.375Q255.39879 249.73438 254.55504 249.73438Q253.72691 249.73438 253.33629 250.375Q252.96129 251.0 252.96129 252.29688L252.96129 254.03125Q252.96129 255.40625 253.35191 256.07812Q253.75816 256.73438 254.57066 256.73438Q255.36754 256.73438 255.75816 256.10938Q256.1488 255.48438 256.16443 254.15625L256.16443 252.375ZM259.03943 256.9375Q259.03943 256.65625 259.19568 256.46875Q259.36755 256.28125 259.69568 256.28125Q260.03943 256.28125 260.2113 256.46875Q260.38318 256.65625 260.38318 256.9375Q260.38318 257.20312 260.2113 257.39062Q260.03943 257.5625 259.69568 257.5625Q259.36755 257.5625 259.19568 257.39062Q259.03943 257.20312 259.03943 256.9375ZM267.25818 253.85938Q267.25818 255.76562 266.60193 256.70312Q265.9613 257.625 264.57068 257.625Q263.2113 257.625 262.55505 256.71875Q261.8988 255.8125 261.86755 254.0L261.86755 252.5625Q261.86755 250.67188 262.50818 249.76562Q263.16443 248.84375 264.55505 248.84375Q265.93005 248.84375 266.5863 249.73438Q267.24255 250.60938 267.25818 252.45312L267.25818 253.85938ZM266.16443 252.375Q266.16443 251.0 265.7738 250.375Q265.3988 249.73438 264.55505 249.73438Q263.72693 249.73438 263.3363 250.375Q262.9613 251.0 262.9613 252.29688L262.9613 254.03125Q262.9613 255.40625 263.35193 256.07812Q263.75818 256.73438 264.57068 256.73438Q265.36755 256.73438 265.75818 256.10938Q266.1488 255.48438 266.16443 254.15625L266.16443 252.375ZM274.25818 253.85938Q274.25818 255.76562 273.60193 256.70312Q272.9613 257.625 271.57068 257.625Q270.2113 257.625 269.55505 256.71875Q268.8988 255.8125 268.86755 254.0L268.86755 252.5625Q268.86755 250.67188 269.50818 249.76562Q270.16443 248.84375 271.55505 248.84375Q272.93005 248.84375 273.5863 249.73438Q274.24255 250.60938 274.25818 252.45312L274.25818 253.85938ZM273.16443 252.375Q273.16443 251.0 272.7738 250.375Q272.3988 249.73438 271.55505 249.73438Q270.72693 249.73438 270.3363 250.375Q269.9613 251.0 269.9613 252.29688L269.9613 254.03125Q269.9613 255.40625 270.35193 256.07812Q270.75818 256.73438 271.57068 256.73438Q272.36755 256.73438 272.75818 256.10938Q273.1488 255.48438 273.16443 254.15625L273.16443 252.375ZM279.4613 257.5L278.38318 257.5L278.38318 250.28125L276.19568 251.07812L276.19568 250.09375L279.30505 248.92188L279.4613 248.92188L279.4613 257.5ZM287.47693 254.64062L288.66443 254.64062L288.66443 255.51562L287.47693 255.51562L287.47693 257.5L286.3988 257.5L286.3988 255.51562L282.50818 255.51562L282.50818 254.875L286.32068 248.96875L287.47693 248.96875L287.47693 254.64062ZM283.74255 254.64062L286.3988 254.64062L286.3988 250.45312L286.25818 250.6875L283.74255 254.64062ZM291.47693 252.70312L292.28943 252.70312Q293.07068 252.6875 293.50818 252.29688Q293.94568 251.90625 293.94568 251.23438Q293.94568 249.73438 292.44568 249.73438Q291.74255 249.73438 291.32068 250.14062Q290.91443 250.54688 290.91443 251.20312L289.82068 251.20312Q289.82068 250.1875 290.55505 249.51562Q291.30505 248.84375 292.44568 248.84375Q293.6488 248.84375 294.3363 249.48438Q295.0238 250.125 295.0238 251.26562Q295.0238 251.82812 294.66443 252.34375Q294.30505 252.85938 293.68005 253.125Q294.38318 253.34375 294.75818 253.85938Q295.1488 254.375 295.1488 255.125Q295.1488 256.26562 294.3988 256.95312Q293.6488 257.625 292.44568 257.625Q291.25818 257.625 290.49255 256.96875Q289.74255 256.3125 289.74255 255.25L290.8363 255.25Q290.8363 255.92188 291.2738 256.32812Q291.7113 256.73438 292.4613 256.73438Q293.24255 256.73438 293.6488 256.32812Q294.07068 255.90625 294.07068 255.14062Q294.07068 254.40625 293.61755 254.01562Q293.16443 253.60938 292.28943 253.59375L291.47693 253.59375L291.47693 252.70312Z" fill-rule="nonzero"/><path fill="#000000" d="M37.6125 135.61806L38.7375 135.91493Q38.378124 137.30556 37.45625 138.03993Q36.534374 138.7743 35.190624 138.7743Q33.8 138.7743 32.925 138.2118Q32.05 137.6493 31.596874 136.5868Q31.14375 135.50868 31.14375 134.2743Q31.14375 132.93056 31.659374 131.93056Q32.175 130.93056 33.1125 130.41493Q34.065624 129.8993 35.20625 129.8993Q36.4875 129.8993 37.3625 130.55556Q38.253124 131.2118 38.596874 132.3993L37.471874 132.66493Q37.175 131.72743 36.596874 131.30556Q36.034374 130.86806 35.175 130.86806Q34.190624 130.86806 33.51875 131.35243Q32.8625 131.82118 32.58125 132.61806Q32.315624 133.41493 32.315624 134.2743Q32.315624 135.36806 32.628124 136.18056Q32.95625 136.99306 33.628124 137.3993Q34.3 137.80556 35.096874 137.80556Q36.05 137.80556 36.70625 137.25868Q37.378124 136.7118 37.6125 135.61806Z" fill-rule="nonzero"/><path fill="#000000" d="M20.64375 256.73297L22.909374 253.4986L20.815624 250.51422L22.128124 250.51422L23.08125 251.96735Q23.346874 252.38922 23.51875 252.67047Q23.76875 252.27985 23.9875 251.98297L25.034374 250.51422L26.3 250.51422L24.14375 253.4361L26.45625 256.73297L25.175 256.73297L23.89375 254.79547L23.55 254.27985L21.909374 256.73297L20.64375 256.73297ZM31.51875 250.2486L30.471874 250.32672Q30.33125 249.70172 30.08125 249.42047Q29.64375 248.96735 29.01875 248.96735Q28.51875 248.96735 28.128124 249.2486Q27.64375 249.6236 27.346874 250.32672Q27.065624 251.01422 27.05 252.29547Q27.425 251.71735 27.971874 251.4361Q28.534374 251.15485 29.14375 251.15485Q30.190624 251.15485 30.925 251.9361Q31.675 252.71735 31.675 253.9361Q31.675 254.7486 31.315624 255.45172Q30.971874 256.13922 30.3625 256.51422Q29.753124 256.8736 28.9875 256.8736Q27.659374 256.8736 26.83125 255.90485Q26.003124 254.9361 26.003124 252.71735Q26.003124 250.21735 26.925 249.09235Q27.721874 248.10797 29.08125 248.10797Q30.096874 248.10797 30.7375 248.6861Q31.39375 249.2486 31.51875 250.2486ZM27.221874 253.95172Q27.221874 254.4986 27.440624 254.9986Q27.675 255.48297 28.08125 255.7486Q28.503124 256.01422 28.971874 256.01422Q29.628124 256.01422 30.1125 255.48297Q30.596874 254.9361 30.596874 254.01422Q30.596874 253.1236 30.1125 252.60797Q29.64375 252.09235 28.925 252.09235Q28.20625 252.09235 27.70625 252.60797Q27.221874 253.1236 27.221874 253.95172ZM36.425 256.73297L36.425 254.67047L32.70625 254.67047L32.70625 253.70172L36.628124 248.13922L37.4875 248.13922L37.4875 253.70172L38.64375 253.70172L38.64375 254.67047L37.4875 254.67047L37.4875 256.73297L36.425 256.73297ZM36.425 253.70172L36.425 249.84235L33.7375 253.70172L36.425 253.70172Z" fill-rule="nonzero"/><path fill="#000000" d="M30.55 345.21564Q30.55 343.6844 30.8625 342.7625Q31.175 341.825 31.784374 341.325Q32.409374 340.825 33.346874 340.825Q34.034374 340.825 34.55 341.10626Q35.08125 341.3875 35.425 341.91876Q35.76875 342.4344 35.95625 343.1844Q36.14375 343.9344 36.14375 345.21564Q36.14375 346.73126 35.83125 347.65314Q35.534374 348.575 34.909374 349.09064Q34.3 349.59064 33.346874 349.59064Q32.1125 349.59064 31.39375 348.7Q30.55 347.6375 30.55 345.21564ZM31.628124 345.21564Q31.628124 347.325 32.128124 348.02814Q32.628124 348.73126 33.346874 348.73126Q34.08125 348.73126 34.565624 348.02814Q35.065624 347.325 35.065624 345.21564Q35.065624 343.09064 34.565624 342.40314Q34.08125 341.7 33.33125 341.7Q32.6125 341.7 32.175 342.3094Q31.628124 343.09064 31.628124 345.21564ZM38.14375 349.45L38.14375 348.2469L39.346874 348.2469L39.346874 349.45L38.14375 349.45ZM40.55 345.21564Q40.55 343.6844 40.8625 342.7625Q41.175 341.825 41.784374 341.325Q42.409374 340.825 43.346874 340.825Q44.034374 340.825 44.55 341.10626Q45.08125 341.3875 45.425 341.91876Q45.76875 342.4344 45.95625 343.1844Q46.14375 343.9344 46.14375 345.21564Q46.14375 346.73126 45.83125 347.65314Q45.534374 348.575 44.909374 349.09064Q44.3 349.59064 43.346874 349.59064Q42.1125 349.59064 41.39375 348.7Q40.55 347.6375 40.55 345.21564ZM41.628124 345.21564Q41.628124 347.325 42.128124 348.02814Q42.628124 348.73126 43.346874 348.73126Q44.08125 348.73126 44.565624 348.02814Q45.065624 347.325 45.065624 345.21564Q45.065624 343.09064 44.565624 342.40314Q44.08125 341.7 43.33125 341.7Q42.6125 341.7 42.175 342.3094Q41.628124 343.09064 41.628124 345.21564ZM47.55 345.21564Q47.55 343.6844 47.8625 342.7625Q48.175 341.825 48.784374 341.325Q49.409374 340.825 50.346874 340.825Q51.034374 340.825 51.55 341.10626Q52.08125 341.3875 52.425 341.91876Q52.76875 342.4344 52.95625 343.1844Q53.14375 343.9344 53.14375 345.21564Q53.14375 346.73126 52.83125 347.65314Q52.534374 348.575 51.909374 349.09064Q51.3 349.59064 50.346874 349.59064Q49.1125 349.59064 48.39375 348.7Q47.55 347.6375 47.55 345.21564ZM48.628124 345.21564Q48.628124 347.325 49.128124 348.02814Q49.628124 348.73126 50.346874 348.73126Q51.08125 348.73126 51.565624 348.02814Q52.065624 347.325 52.065624 345.21564Q52.065624 343.09064 51.565624 342.40314Q51.08125 341.7 50.33125 341.7Q49.6125 341.7 49.175 342.3094Q48.628124 343.09064 48.628124 345.21564ZM54.55 345.21564Q54.55 343.6844 54.8625 342.7625Q55.175 341.825 55.784374 341.325Q56.409374 340.825 57.346874 340.825Q58.034374 340.825 58.55 341.10626Q59.08125 341.3875 59.425 341.91876Q59.76875 342.4344 59.95625 343.1844Q60.14375 343.9344 60.14375 345.21564Q60.14375 346.73126 59.83125 347.65314Q59.534374 348.575 58.909374 349.09064Q58.3 349.59064 57.346874 349.59064Q56.1125 349.59064 55.39375 348.7Q54.55 347.6375 54.55 345.21564ZM55.628124 345.21564Q55.628124 347.325 56.128124 348.02814Q56.628124 348.73126 57.346874 348.73126Q58.08125 348.73126 58.565624 348.02814Q59.065624 347.325 59.065624 345.21564Q59.065624 343.09064 58.565624 342.40314Q58.08125 341.7 57.33125 341.7Q56.6125 341.7 56.175 342.3094Q55.628124 343.09064 55.628124 345.21564Z" fill-rule="nonzero"/><path fill="#000000" d="M209.18333 345.21564Q209.18333 343.6844 209.49583 342.7625Q209.80833 341.825 210.41771 341.325Q211.04271 340.825 211.98021 340.825Q212.66771 340.825 213.18333 341.10626Q213.71458 341.3875 214.05833 341.91876Q214.40208 342.4344 214.58958 343.1844Q214.77708 343.9344 214.77708 345.21564Q214.77708 346.73126 214.46458 347.65314Q214.16771 348.575 213.54271 349.09064Q212.93333 349.59064 211.98021 349.59064Q210.74583 349.59064 210.02708 348.7Q209.18333 347.6375 209.18333 345.21564ZM210.26146 345.21564Q210.26146 347.325 210.76146 348.02814Q211.26146 348.73126 211.98021 348.73126Q212.71458 348.73126 213.19896 348.02814Q213.69896 347.325 213.69896 345.21564Q213.69896 343.09064 213.19896 342.40314Q212.71458 341.7 211.96458 341.7Q211.24583 341.7 210.80833 342.3094Q210.26146 343.09064 210.26146 345.21564ZM216.77708 349.45L216.77708 348.2469L217.98021 348.2469L217.98021 349.45L216.77708 349.45ZM219.18333 345.21564Q219.18333 343.6844 219.49583 342.7625Q219.80833 341.825 220.41771 341.325Q221.04271 340.825 221.98021 340.825Q222.66771 340.825 223.18333 341.10626Q223.71458 341.3875 224.05833 341.91876Q224.40208 342.4344 224.58958 343.1844Q224.77708 343.9344 224.77708 345.21564Q224.77708 346.73126 224.46458 347.65314Q224.16771 348.575 223.54271 349.09064Q222.93333 349.59064 221.98021 349.59064Q220.74583 349.59064 220.02708 348.7Q219.18333 347.6375 219.18333 345.21564ZM220.26146 345.21564Q220.26146 347.325 220.76146 348.02814Q221.26146 348.73126 221.98021 348.73126Q222.71458 348.73126 223.19896 348.02814Q223.69896 347.325 223.69896 345.21564Q223.69896 343.09064 223.19896 342.40314Q222.71458 341.7 221.96458 341.7Q221.24583 341.7 220.80833 342.3094Q220.26146 343.09064 220.26146 345.21564ZM226.18333 345.21564Q226.18333 343.6844 226.49583 342.7625Q226.80833 341.825 227.41771 341.325Q228.04271 340.825 228.98021 340.825Q229.66771 340.825 230.18333 341.10626Q230.71458 341.3875 231.05833 341.91876Q231.40208 342.4344 231.58958 343.1844Q231.77708 343.9344 231.77708 345.21564Q231.77708 346.73126 231.46458 347.65314Q231.16771 348.575 230.54271 349.09064Q229.93333 349.59064 228.98021 349.59064Q227.74583 349.59064 227.02708 348.7Q226.18333 347.6375 226.18333 345.21564ZM227.26146 345.21564Q227.26146 347.325 227.76146 348.02814Q228.26146 348.73126 228.98021 348.73126Q229.71458 348.73126 230.19896 348.02814Q230.69896 347.325 230.69896 345.21564Q230.69896 343.09064 230.19896 342.40314Q229.71458 341.7 228.96458 341.7Q228.24583 341.7 227.80833 342.3094Q227.26146 343.09064 227.26146 345.21564ZM237.15208 349.45L236.10521 349.45L236.10521 342.73126Q235.71458 343.09064 235.08958 343.46564Q234.48021 343.825 233.99583 343.9969L233.99583 342.98126Q234.87083 342.5594 235.52708 341.98126Q236.19896 341.3875 236.48021 340.825L237.15208 340.825L237.15208 349.45Z" fill-rule="nonzero"/><path fill="#000000" d="M387.81668 345.21564Q387.81668 343.6844 388.12918 342.7625Q388.44168 341.825 389.05106 341.325Q389.67606 340.825 390.61356 340.825Q391.30106 340.825 391.81668 341.10626Q392.34793 341.3875 392.69168 341.91876Q393.03543 342.4344 393.22293 343.1844Q393.41043 343.9344 393.41043 345.21564Q393.41043 346.73126 393.09793 347.65314Q392.80106 348.575 392.17606 349.09064Q391.56668 349.59064 390.61356 349.59064Q389.37918 349.59064 388.66043 348.7Q387.81668 347.6375 387.81668 345.21564ZM388.8948 345.21564Q388.8948 347.325 389.3948 348.02814Q389.8948 348.73126 390.61356 348.73126Q391.34793 348.73126 391.8323 348.02814Q392.3323 347.325 392.3323 345.21564Q392.3323 343.09064 391.8323 342.40314Q391.34793 341.7 390.59793 341.7Q389.87918 341.7 389.44168 342.3094Q388.8948 343.09064 388.8948 345.21564ZM395.41043 349.45L395.41043 348.2469L396.61356 348.2469L396.61356 349.45L395.41043 349.45ZM397.81668 345.21564Q397.81668 343.6844 398.12918 342.7625Q398.44168 341.825 399.05106 341.325Q399.67606 340.825 400.61356 340.825Q401.30106 340.825 401.81668 341.10626Q402.34793 341.3875 402.69168 341.91876Q403.03543 342.4344 403.22293 343.1844Q403.41043 343.9344 403.41043 345.21564Q403.41043 346.73126 403.09793 347.65314Q402.80106 348.575 402.17606 349.09064Q401.56668 349.59064 400.61356 349.59064Q399.37918 349.59064 398.66043 348.7Q397.81668 347.6375 397.81668 345.21564ZM398.8948 345.21564Q398.8948 347.325 399.3948 348.02814Q399.8948 348.73126 400.61356 348.73126Q401.34793 348.73126 401.8323 348.02814Q402.3323 347.325 402.3323 345.21564Q402.3323 343.09064 401.8323 342.40314Q401.34793 341.7 400.59793 341.7Q399.87918 341.7 399.44168 342.3094Q398.8948 343.09064 398.8948 345.21564ZM404.81668 345.21564Q404.81668 343.6844 405.12918 342.7625Q405.44168 341.825 406.05106 341.325Q406.67606 340.825 407.61356 340.825Q408.30106 340.825 408.81668 341.10626Q409.34793 341.3875 409.69168 341.91876Q410.03543 342.4344 410.22293 343.1844Q410.41043 343.9344 410.41043 345.21564Q410.41043 346.73126 410.09793 347.65314Q409.80106 348.575 409.17606 349.09064Q408.56668 349.59064 407.61356 349.59064Q406.37918 349.59064 405.66043 348.7Q404.81668 347.6375 404.81668 345.21564ZM405.8948 345.21564Q405.8948 347.325 406.3948 348.02814Q406.8948 348.73126 407.61356 348.73126Q408.34793 348.73126 408.8323 348.02814Q409.3323 347.325 409.3323 345.21564Q409.3323 343.09064 408.8323 342.40314Q408.34793 341.7 407.59793 341.7Q406.87918 341.7 406.44168 342.3094Q405.8948 343.09064 405.8948 345.21564ZM417.36356 348.4344L417.36356 349.45L411.67606 349.45Q411.67606 349.075 411.80106 348.71564Q412.0198 348.1375 412.48856 347.575Q412.97293 347.0125 413.87918 346.27814Q415.28543 345.1219 415.7698 344.45Q416.2698 343.77814 416.2698 343.1844Q416.2698 342.5594 415.81668 342.1375Q415.36356 341.7 414.6448 341.7Q413.87918 341.7 413.42606 342.15314Q412.97293 342.60626 412.9573 343.41876L411.87918 343.3094Q411.98856 342.09064 412.7073 341.46564Q413.44168 340.825 414.67606 340.825Q415.91043 340.825 416.62918 341.5125Q417.34793 342.2 417.34793 343.21564Q417.34793 343.73126 417.12918 344.23126Q416.92606 344.71564 416.42606 345.27814Q415.94168 345.825 414.81668 346.77814Q413.86356 347.575 413.5823 347.8719Q413.31668 348.15314 413.1448 348.4344L417.36356 348.4344Z" fill-rule="nonzero"/><path fill="#000000" d="M566.45 345.21564Q566.45 343.6844 566.7625 342.7625Q567.075 341.825 567.6844 341.325Q568.3094 340.825 569.2469 340.825Q569.9344 340.825 570.45 341.10626Q570.98126 341.3875 571.325 341.91876Q571.66876 342.4344 571.85626 343.1844Q572.04376 343.9344 572.04376 345.21564Q572.04376 346.73126 571.73126 347.65314Q571.4344 348.575 570.8094 349.09064Q570.2 349.59064 569.2469 349.59064Q568.0125 349.59064 567.29376 348.7Q566.45 347.6375 566.45 345.21564ZM567.52814 345.21564Q567.52814 347.325 568.02814 348.02814Q568.52814 348.73126 569.2469 348.73126Q569.98126 348.73126 570.46564 348.02814Q570.96564 347.325 570.96564 345.21564Q570.96564 343.09064 570.46564 342.40314Q569.98126 341.7 569.23126 341.7Q568.5125 341.7 568.075 342.3094Q567.52814 343.09064 567.52814 345.21564ZM574.04376 349.45L574.04376 348.2469L575.2469 348.2469L575.2469 349.45L574.04376 349.45ZM576.45 345.21564Q576.45 343.6844 576.7625 342.7625Q577.075 341.825 577.6844 341.325Q578.3094 340.825 579.2469 340.825Q579.9344 340.825 580.45 341.10626Q580.98126 341.3875 581.325 341.91876Q581.66876 342.4344 581.85626 343.1844Q582.04376 343.9344 582.04376 345.21564Q582.04376 346.73126 581.73126 347.65314Q581.4344 348.575 580.8094 349.09064Q580.2 349.59064 579.2469 349.59064Q578.0125 349.59064 577.29376 348.7Q576.45 347.6375 576.45 345.21564ZM577.52814 345.21564Q577.52814 347.325 578.02814 348.02814Q578.52814 348.73126 579.2469 348.73126Q579.98126 348.73126 580.46564 348.02814Q580.96564 347.325 580.96564 345.21564Q580.96564 343.09064 580.46564 342.40314Q579.98126 341.7 579.23126 341.7Q578.5125 341.7 578.075 342.3094Q577.52814 343.09064 577.52814 345.21564ZM583.45 345.21564Q583.45 343.6844 583.7625 342.7625Q584.075 341.825 584.6844 341.325Q585.3094 340.825 586.2469 340.825Q586.9344 340.825 587.45 341.10626Q587.98126 341.3875 588.325 341.91876Q588.66876 342.4344 588.85626 343.1844Q589.04376 343.9344 589.04376 345.21564Q589.04376 346.73126 588.73126 347.65314Q588.4344 348.575 587.8094 349.09064Q587.2 349.59064 586.2469 349.59064Q585.0125 349.59064 584.29376 348.7Q583.45 347.6375 583.45 345.21564ZM584.52814 345.21564Q584.52814 347.325 585.02814 348.02814Q585.52814 348.73126 586.2469 348.73126Q586.98126 348.73126 587.46564 348.02814Q587.96564 347.325 587.96564 345.21564Q587.96564 343.09064 587.46564 342.40314Q586.98126 341.7 586.23126 341.7Q585.5125 341.7 585.075 342.3094Q584.52814 343.09064 584.52814 345.21564ZM590.45 347.1844L591.5125 347.04376Q591.6844 347.9344 592.1219 348.34064Q592.5594 348.73126 593.1844 348.73126Q593.9344 348.73126 594.45 348.21564Q594.96564 347.7 594.96564 346.9344Q594.96564 346.21564 594.48126 345.7469Q594.0125 345.2625 593.27814 345.2625Q592.98126 345.2625 592.52814 345.3875L592.65314 344.45Q592.7625 344.46564 592.825 344.46564Q593.4969 344.46564 594.02814 344.1219Q594.575 343.7625 594.575 343.02814Q594.575 342.45 594.1844 342.075Q593.79376 341.6844 593.16876 341.6844Q592.5594 341.6844 592.1375 342.075Q591.73126 342.46564 591.6219 343.23126L590.5594 343.04376Q590.7469 341.9969 591.4344 341.41876Q592.1219 340.825 593.1375 340.825Q593.84064 340.825 594.4344 341.1375Q595.02814 341.4344 595.34064 341.95Q595.65314 342.46564 595.65314 343.0594Q595.65314 343.60626 595.35626 344.075Q595.0594 344.52814 594.48126 344.79376Q595.23126 344.96564 595.65314 345.52814Q596.075 346.075 596.075 346.91876Q596.075 348.04376 595.2469 348.825Q594.4344 349.60626 593.1844 349.60626Q592.0594 349.60626 591.3094 348.9344Q590.5594 348.2469 590.45 347.1844Z" fill-rule="nonzero"/><path fill="#757575" d="M18.51875 37.55L24.01875 23.2375L26.065624 23.2375L31.925 37.55L29.76875 37.55L28.096874 33.20625L22.1125 33.20625L20.534374 37.55L18.51875 37.55ZM22.659374 31.675L27.503124 31.675L26.01875 27.70625Q25.33125 25.89375 25.003124 24.7375Q24.721874 26.1125 24.221874 27.471874L22.659374 31.675ZM35.753124 37.55L31.8 27.175L33.659374 27.175L35.89375 33.39375Q36.253124 34.39375 36.55 35.471874Q36.784374 34.659374 37.20625 33.503124L39.503124 27.175L41.315624 27.175L37.39375 37.55L35.753124 37.55ZM48.971874 34.20625L50.784374 34.440624Q50.3625 36.01875 49.190624 36.909374Q48.034374 37.784374 46.221874 37.784374Q43.95625 37.784374 42.6125 36.39375Q41.284374 34.9875 41.284374 32.45625Q41.284374 29.83125 42.628124 28.39375Q43.971874 26.940624 46.128124 26.940624Q48.20625 26.940624 49.51875 28.3625Q50.846874 29.76875 50.846874 32.346874Q50.846874 32.503124 50.83125 32.815624L43.096874 32.815624Q43.190624 34.51875 44.065624 35.425Q44.940624 36.33125 46.2375 36.33125Q47.20625 36.33125 47.878124 35.83125Q48.565624 35.315624 48.971874 34.20625ZM43.190624 31.3625L48.9875 31.3625Q48.878124 30.065624 48.33125 29.409374Q47.4875 28.39375 46.14375 28.39375Q44.940624 28.39375 44.1125 29.20625Q43.284374 30.003124 43.190624 31.3625ZM52.846874 37.55L52.846874 27.175L54.425 27.175L54.425 28.753124Q55.034374 27.64375 55.55 27.3Q56.065624 26.940624 56.675 26.940624Q57.565624 26.940624 58.4875 27.503124L57.878124 29.14375Q57.2375 28.753124 56.596874 28.753124Q56.01875 28.753124 55.55 29.1125Q55.096874 29.45625 54.89375 30.065624Q54.6125 31.003124 54.6125 32.1125L54.6125 37.55L52.846874 37.55ZM66.64375 36.26875Q65.65938 37.096874 64.75313 37.440624Q63.846874 37.784374 62.815624 37.784374Q61.1125 37.784374 60.190624 36.95625Q59.26875 36.1125 59.26875 34.815624Q59.26875 34.05 59.6125 33.425Q59.971874 32.8 60.534374 32.425Q61.096874 32.034374 61.8 31.83125Q62.315624 31.70625 63.3625 31.565624Q65.4875 31.315624 66.4875 30.971874Q66.50313 30.6125 66.50313 30.503124Q66.50313 29.440624 66.00313 28.9875Q65.33125 28.39375 64.00313 28.39375Q62.753124 28.39375 62.159374 28.83125Q61.58125 29.26875 61.3 30.378124L59.58125 30.14375Q59.815624 29.034374 60.346874 28.3625Q60.878124 27.675 61.89375 27.315624Q62.909374 26.940624 64.25313 26.940624Q65.58125 26.940624 66.40938 27.253124Q67.2375 27.565624 67.62813 28.05Q68.01875 28.51875 68.175 29.2375Q68.26875 29.690624 68.26875 30.8625L68.26875 33.20625Q68.26875 35.659374 68.37813 36.315624Q68.4875 36.95625 68.83125 37.55L66.9875 37.55Q66.72188 37.003124 66.64375 36.26875ZM66.4875 32.346874Q65.53438 32.7375 63.6125 33.003124Q62.534374 33.159374 62.08125 33.3625Q61.64375 33.55 61.39375 33.925Q61.14375 34.3 61.14375 34.76875Q61.14375 35.471874 61.675 35.940624Q62.20625 36.409374 63.2375 36.409374Q64.25313 36.409374 65.03438 35.971874Q65.83125 35.51875 66.20625 34.753124Q66.4875 34.14375 66.4875 32.9875L66.4875 32.346874ZM70.55 38.409374L72.25313 38.659374Q72.3625 39.45625 72.84688 39.815624Q73.50313 40.3 74.64375 40.3Q75.8625 40.3 76.51875 39.815624Q77.19063 39.33125 77.425 38.45625Q77.56563 37.909374 77.55 36.190624Q76.39375 37.55 74.675 37.55Q72.53438 37.55 71.3625 36.003124Q70.19063 34.45625 70.19063 32.3Q70.19063 30.815624 70.72188 29.565624Q71.26875 28.315624 72.28438 27.628124Q73.31563 26.940624 74.69063 26.940624Q76.51875 26.940624 77.72188 28.425L77.72188 27.175L79.33125 27.175L79.33125 36.14375Q79.33125 38.565624 78.83125 39.565624Q78.34688 40.58125 77.26875 41.159374Q76.20625 41.753124 74.64375 41.753124Q72.8 41.753124 71.64375 40.925Q70.50313 40.096874 70.55 38.409374ZM72.00313 32.175Q72.00313 34.221874 72.81563 35.159374Q73.62813 36.096874 74.84688 36.096874Q76.05 36.096874 76.8625 35.159374Q77.69063 34.221874 77.69063 32.2375Q77.69063 30.33125 76.84688 29.3625Q76.00313 28.39375 74.81563 28.39375Q73.64375 28.39375 72.81563 29.346874Q72.00313 30.3 72.00313 32.175ZM88.97188 34.20625L90.78438 34.440624Q90.3625 36.01875 89.19063 36.909374Q88.03438 37.784374 86.22188 37.784374Q83.95625 37.784374 82.6125 36.39375Q81.28438 34.9875 81.28438 32.45625Q81.28438 29.83125 82.62813 28.39375Q83.97188 26.940624 86.12813 26.940624Q88.20625 26.940624 89.51875 28.3625Q90.84688 29.76875 90.84688 32.346874Q90.84688 32.503124 90.83125 32.815624L83.09688 32.815624Q83.19063 34.51875 84.06563 35.425Q84.94063 36.33125 86.2375 36.33125Q87.20625 36.33125 87.87813 35.83125Q88.56563 35.315624 88.97188 34.20625ZM83.19063 31.3625L88.9875 31.3625Q88.87813 30.065624 88.33125 29.409374Q87.4875 28.39375 86.14375 28.39375Q84.94063 28.39375 84.1125 29.20625Q83.28438 30.003124 83.19063 31.3625ZM102.7375 37.55L102.7375 24.925L98.01875 24.925L98.01875 23.2375L109.3625 23.2375L109.3625 24.925L104.62813 24.925L104.62813 37.55L102.7375 37.55ZM110.87813 25.253124L110.87813 23.2375L112.64375 23.2375L112.64375 25.253124L110.87813 25.253124ZM110.87813 37.55L110.87813 27.175L112.64375 27.175L112.64375 37.55L110.87813 37.55ZM114.8625 37.55L114.8625 27.175L116.44063 27.175L116.44063 28.628124Q116.925 27.878124 117.7375 27.409374Q118.55 26.940624 119.58125 26.940624Q120.7375 26.940624 121.47188 27.425Q122.20625 27.89375 122.51875 28.753124Q123.75313 26.940624 125.72188 26.940624Q127.26875 26.940624 128.09688 27.8Q128.925 28.659374 128.925 30.425L128.925 37.55L127.175 37.55L127.175 31.01875Q127.175 29.95625 127.00313 29.503124Q126.83125 29.034374 126.37813 28.753124Q125.94063 28.471874 125.33125 28.471874Q124.2375 28.471874 123.50313 29.20625Q122.78438 29.925 122.78438 31.51875L122.78438 37.55L121.03438 37.55L121.03438 30.815624Q121.03438 29.64375 120.59688 29.065624Q120.175 28.471874 119.19063 28.471874Q118.45625 28.471874 117.81563 28.8625Q117.19063 29.253124 116.90938 30.003124Q116.62813 30.753124 116.62813 32.175L116.62813 37.55L114.8625 37.55ZM137.97188 34.20625L139.78438 34.440624Q139.3625 36.01875 138.19063 36.909374Q137.03438 37.784374 135.22188 37.784374Q132.95625 37.784374 131.6125 36.39375Q130.28438 34.9875 130.28438 32.45625Q130.28438 29.83125 131.62813 28.39375Q132.97188 26.940624 135.12813 26.940624Q137.20625 26.940624 138.51875 28.3625Q139.84688 29.76875 139.84688 32.346874Q139.84688 32.503124 139.83125 32.815624L132.09688 32.815624Q132.19063 34.51875 133.06563 35.425Q133.94063 36.33125 135.2375 36.33125Q136.20625 36.33125 136.87813 35.83125Q137.56563 35.315624 137.97188 34.20625ZM132.19063 31.3625L137.9875 31.3625Q137.87813 30.065624 137.33125 29.409374Q136.4875 28.39375 135.14375 28.39375Q133.94063 28.39375 133.1125 29.20625Q132.28438 30.003124 132.19063 31.3625ZM141.15938 34.45625L142.90938 34.175Q143.05 35.221874 143.72188 35.784374Q144.39375 36.33125 145.59688 36.33125Q146.8 36.33125 147.37813 35.846874Q147.97188 35.346874 147.97188 34.690624Q147.97188 34.096874 147.45625 33.753124Q147.09688 33.51875 145.65938 33.159374Q143.72188 32.659374 142.97188 32.315624Q142.2375 31.95625 141.84688 31.33125Q141.45625 30.690624 141.45625 29.925Q141.45625 29.2375 141.76875 28.64375Q142.09688 28.05 142.64375 27.659374Q143.05 27.3625 143.75313 27.159374Q144.47188 26.940624 145.28438 26.940624Q146.50313 26.940624 147.425 27.3Q148.34688 27.64375 148.78438 28.253124Q149.22188 28.846874 149.39375 29.846874L147.675 30.08125Q147.55 29.284374 146.9875 28.846874Q146.425 28.39375 145.40938 28.39375Q144.19063 28.39375 143.675 28.8Q143.15938 29.190624 143.15938 29.721874Q143.15938 30.065624 143.37813 30.346874Q143.58125 30.628124 144.05 30.815624Q144.31563 30.909374 145.59688 31.253124Q147.47188 31.753124 148.20625 32.08125Q148.94063 32.39375 149.3625 33.003124Q149.78438 33.596874 149.78438 34.503124Q149.78438 35.378124 149.26875 36.159374Q148.75313 36.940624 147.78438 37.3625Q146.81563 37.784374 145.59688 37.784374Q143.58125 37.784374 142.51875 36.940624Q141.45625 36.096874 141.15938 34.45625ZM161.22188 41.753124Q159.76875 39.925 158.76875 37.471874Q157.76875 35.003124 157.76875 32.3625Q157.76875 30.034374 158.51875 27.909374Q159.39375 25.440624 161.22188 22.9875L162.4875 22.9875Q161.3 25.01875 160.925 25.89375Q160.33125 27.2375 159.9875 28.70625Q159.56563 30.534374 159.56563 32.378124Q159.56563 37.065624 162.4875 41.753124L161.22188 41.753124ZM164.8625 37.55L164.8625 27.175L166.45625 27.175L166.45625 28.659374Q167.59688 26.940624 169.75313 26.940624Q170.69063 26.940624 171.47188 27.284374Q172.26875 27.6125 172.65938 28.159374Q173.05 28.70625 173.20625 29.45625Q173.3 29.95625 173.3 31.175L173.3 37.55L171.53438 37.55L171.53438 31.2375Q171.53438 30.159374 171.33125 29.628124Q171.12813 29.096874 170.59688 28.784374Q170.08125 28.471874 169.37813 28.471874Q168.25313 28.471874 167.44063 29.190624Q166.62813 29.89375 166.62813 31.878124L166.62813 37.55L164.8625 37.55ZM190.1125 29.128124L180.65938 29.128124L180.65938 27.4875L190.1125 27.4875L190.1125 29.128124ZM190.1125 33.471874L180.65938 33.471874L180.65938 31.83125L190.1125 31.83125L190.1125 33.471874ZM207.6125 35.8625L207.6125 37.55L198.15938 37.55Q198.14375 36.909374 198.3625 36.33125Q198.72188 35.3625 199.51875 34.425Q200.31563 33.4875 201.81563 32.253124Q204.15938 30.346874 204.97188 29.2375Q205.8 28.1125 205.8 27.1125Q205.8 26.065624 205.05 25.346874Q204.3 24.628124 203.09688 24.628124Q201.83125 24.628124 201.06563 25.39375Q200.3 26.159374 200.3 27.503124L198.4875 27.315624Q198.675 25.3 199.87813 24.2375Q201.09688 23.175 203.14375 23.175Q205.19063 23.175 206.39375 24.315624Q207.59688 25.45625 207.59688 27.14375Q207.59688 28.003124 207.2375 28.846874Q206.89375 29.675 206.08125 30.596874Q205.26875 31.503124 203.37813 33.1125Q201.78438 34.440624 201.33125 34.909374Q200.89375 35.378124 200.59688 35.8625L207.6125 35.8625ZM210.87813 30.815624L209.08125 30.815624L212.51875 22.9875L213.94063 22.9875L217.40938 30.815624L215.64375 30.815624L213.22188 24.9875L210.87813 30.815624ZM226.6125 35.8625L226.6125 37.55L217.15938 37.55Q217.14375 36.909374 217.3625 36.33125Q217.72188 35.3625 218.51875 34.425Q219.31563 33.4875 220.81563 32.253124Q223.15938 30.346874 223.97188 29.2375Q224.8 28.1125 224.8 27.1125Q224.8 26.065624 224.05 25.346874Q223.3 24.628124 222.09688 24.628124Q220.83125 24.628124 220.06563 25.39375Q219.3 26.159374 219.3 27.503124L217.4875 27.315624Q217.675 25.3 218.87813 24.2375Q220.09688 23.175 222.14375 23.175Q224.19063 23.175 225.39375 24.315624Q226.59688 25.45625 226.59688 27.14375Q226.59688 28.003124 226.2375 28.846874Q225.89375 29.675 225.08125 30.596874Q224.26875 31.503124 222.37813 33.1125Q220.78438 34.440624 220.33125 34.909374Q219.89375 35.378124 219.59688 35.8625L226.6125 35.8625ZM228.37813 30.4875Q228.37813 27.95625 228.89375 26.409374Q229.425 24.846874 230.45625 24.01875Q231.4875 23.175 233.05 23.175Q234.20625 23.175 235.06563 23.64375Q235.94063 24.096874 236.50313 24.971874Q237.06563 25.846874 237.39375 27.1125Q237.72188 28.3625 237.72188 30.4875Q237.72188 33.003124 237.19063 34.55Q236.675 36.096874 235.64375 36.95625Q234.62813 37.8 233.05 37.8Q230.97188 37.8 229.8 36.315624Q228.37813 34.51875 228.37813 30.4875ZM230.19063 30.4875Q230.19063 34.01875 231.00313 35.190624Q231.83125 36.346874 233.05 36.346874Q234.25313 36.346874 235.08125 35.175Q235.90938 34.003124 235.90938 30.4875Q235.90938 26.95625 235.08125 25.8Q234.25313 24.628124 233.03438 24.628124Q231.81563 24.628124 231.09688 25.659374Q230.19063 26.95625 230.19063 30.4875ZM240.33125 37.55L240.33125 35.55L242.33125 35.55L242.33125 37.55Q242.33125 38.659374 241.94063 39.33125Q241.55 40.01875 240.70625 40.378124L240.20625 39.628124Q240.76875 39.39375 241.03438 38.909374Q241.3 38.440624 241.33125 37.55L240.33125 37.55ZM252.12813 37.55L252.12813 23.2375L258.47186 23.2375Q260.3781 23.2375 261.3781 23.628124Q262.3781 24.003124 262.97186 24.9875Q263.5656 25.95625 263.5656 27.14375Q263.5656 28.659374 262.58124 29.70625Q261.59686 30.753124 259.53436 31.034374Q260.28436 31.39375 260.675 31.753124Q261.5031 32.503124 262.2531 33.659374L264.7375 37.55L262.3625 37.55L260.45624 34.565624Q259.6281 33.284374 259.09686 32.596874Q258.5656 31.909374 258.1281 31.64375Q257.70624 31.3625 257.26874 31.253124Q256.9406 31.190624 256.22186 31.190624L254.01875 31.190624L254.01875 37.55L252.12813 37.55ZM254.01875 29.55L258.09686 29.55Q259.39374 29.55 260.1125 29.284374Q260.84686 29.01875 261.22186 28.425Q261.6125 27.83125 261.6125 27.14375Q261.6125 26.128124 260.8781 25.471874Q260.14374 24.815624 258.55 24.815624L254.01875 24.815624L254.01875 29.55ZM272.97186 34.20625L274.78436 34.440624Q274.3625 36.01875 273.1906 36.909374Q272.03436 37.784374 270.22186 37.784374Q267.95624 37.784374 266.6125 36.39375Q265.28436 34.9875 265.28436 32.45625Q265.28436 29.83125 266.6281 28.39375Q267.97186 26.940624 270.1281 26.940624Q272.20624 26.940624 273.51874 28.3625Q274.84686 29.76875 274.84686 32.346874Q274.84686 32.503124 274.83124 32.815624L267.09686 32.815624Q267.1906 34.51875 268.0656 35.425Q268.9406 36.33125 270.2375 36.33125Q271.20624 36.33125 271.8781 35.83125Q272.5656 35.315624 272.97186 34.20625ZM267.1906 31.3625L272.9875 31.3625Q272.8781 30.065624 272.33124 29.409374Q271.4875 28.39375 270.14374 28.39375Q268.9406 28.39375 268.1125 29.20625Q267.28436 30.003124 267.1906 31.3625ZM276.83124 37.55L276.83124 23.2375L278.58124 23.2375L278.58124 37.55L276.83124 37.55ZM287.97186 34.20625L289.78436 34.440624Q289.3625 36.01875 288.1906 36.909374Q287.03436 37.784374 285.22186 37.784374Q282.95624 37.784374 281.6125 36.39375Q280.28436 34.9875 280.28436 32.45625Q280.28436 29.83125 281.6281 28.39375Q282.97186 26.940624 285.1281 26.940624Q287.20624 26.940624 288.51874 28.3625Q289.84686 29.76875 289.84686 32.346874Q289.84686 32.503124 289.83124 32.815624L282.09686 32.815624Q282.1906 34.51875 283.0656 35.425Q283.9406 36.33125 285.2375 36.33125Q286.20624 36.33125 286.8781 35.83125Q287.5656 35.315624 287.97186 34.20625ZM282.1906 31.3625L287.9875 31.3625Q287.8781 30.065624 287.33124 29.409374Q286.4875 28.39375 285.14374 28.39375Q283.9406 28.39375 283.1125 29.20625Q282.28436 30.003124 282.1906 31.3625ZM298.64374 36.26875Q297.65936 37.096874 296.7531 37.440624Q295.84686 37.784374 294.8156 37.784374Q293.1125 37.784374 292.1906 36.95625Q291.26874 36.1125 291.26874 34.815624Q291.26874 34.05 291.6125 33.425Q291.97186 32.8 292.53436 32.425Q293.09686 32.034374 293.8 31.83125Q294.3156 31.70625 295.3625 31.565624Q297.4875 31.315624 298.4875 30.971874Q298.5031 30.6125 298.5031 30.503124Q298.5031 29.440624 298.0031 28.9875Q297.33124 28.39375 296.0031 28.39375Q294.7531 28.39375 294.15936 28.83125Q293.58124 29.26875 293.3 30.378124L291.58124 30.14375Q291.8156 29.034374 292.34686 28.3625Q292.8781 27.675 293.89374 27.315624Q294.90936 26.940624 296.2531 26.940624Q297.58124 26.940624 298.40936 27.253124Q299.2375 27.565624 299.6281 28.05Q300.01874 28.51875 300.175 29.2375Q300.26874 29.690624 300.26874 30.8625L300.26874 33.20625Q300.26874 35.659374 300.3781 36.315624Q300.4875 36.95625 300.83124 37.55L298.9875 37.55Q298.72186 37.003124 298.64374 36.26875ZM298.4875 32.346874Q297.53436 32.7375 295.6125 33.003124Q294.53436 33.159374 294.08124 33.3625Q293.64374 33.55 293.39374 33.925Q293.14374 34.3 293.14374 34.76875Q293.14374 35.471874 293.675 35.940624Q294.20624 36.409374 295.2375 36.409374Q296.2531 36.409374 297.03436 35.971874Q297.83124 35.51875 298.20624 34.753124Q298.4875 34.14375 298.4875 32.9875L298.4875 32.346874ZM302.15936 34.45625L303.90936 34.175Q304.05 35.221874 304.72186 35.784374Q305.39374 36.33125 306.59686 36.33125Q307.8 36.33125 308.3781 35.846874Q308.97186 35.346874 308.97186 34.690624Q308.97186 34.096874 308.45624 33.753124Q308.09686 33.51875 306.65936 33.159374Q304.72186 32.659374 303.97186 32.315624Q303.2375 31.95625 302.84686 31.33125Q302.45624 30.690624 302.45624 29.925Q302.45624 29.2375 302.76874 28.64375Q303.09686 28.05 303.64374 27.659374Q304.05 27.3625 304.7531 27.159374Q305.47186 26.940624 306.28436 26.940624Q307.5031 26.940624 308.425 27.3Q309.34686 27.64375 309.78436 28.253124Q310.22186 28.846874 310.39374 29.846874L308.675 30.08125Q308.55 29.284374 307.9875 28.846874Q307.425 28.39375 306.40936 28.39375Q305.1906 28.39375 304.675 28.8Q304.15936 29.190624 304.15936 29.721874Q304.15936 30.065624 304.3781 30.346874Q304.58124 30.628124 305.05 30.815624Q305.3156 30.909374 306.59686 31.253124Q308.47186 31.753124 309.20624 32.08125Q309.9406 32.39375 310.3625 33.003124Q310.78436 33.596874 310.78436 34.503124Q310.78436 35.378124 310.26874 36.159374Q309.7531 36.940624 308.78436 37.3625Q307.8156 37.784374 306.59686 37.784374Q304.58124 37.784374 303.51874 36.940624Q302.45624 36.096874 302.15936 34.45625ZM319.97186 34.20625L321.78436 34.440624Q321.3625 36.01875 320.1906 36.909374Q319.03436 37.784374 317.22186 37.784374Q314.95624 37.784374 313.6125 36.39375Q312.28436 34.9875 312.28436 32.45625Q312.28436 29.83125 313.6281 28.39375Q314.97186 26.940624 317.1281 26.940624Q319.20624 26.940624 320.51874 28.3625Q321.84686 29.76875 321.84686 32.346874Q321.84686 32.503124 321.83124 32.815624L314.09686 32.815624Q314.1906 34.51875 315.0656 35.425Q315.9406 36.33125 317.2375 36.33125Q318.20624 36.33125 318.8781 35.83125Q319.5656 35.315624 319.97186 34.20625ZM314.1906 31.3625L319.9875 31.3625Q319.8781 30.065624 319.33124 29.409374Q318.4875 28.39375 317.14374 28.39375Q315.9406 28.39375 315.1125 29.20625Q314.28436 30.003124 314.1906 31.3625ZM325.01874 41.753124L323.76874 41.753124Q326.675 37.065624 326.675 32.378124Q326.675 30.534374 326.26874 28.7375Q325.925 27.26875 325.33124 25.925Q324.95624 25.034374 323.76874 22.9875L325.01874 22.9875Q326.8625 25.440624 327.7375 27.909374Q328.4875 30.034374 328.4875 32.3625Q328.4875 35.003124 327.47186 37.471874Q326.47186 39.925 325.01874 41.753124Z" fill-rule="nonzero"/></svg>